<svg width="573" height="911" viewBox="0 0 573 911" fill="none" xmlns="http://www.w3.org/2000/svg">
<g opacity="0.15" clip-path="url(#clip0_1_5)">
<path d="M737.501 50.285C737.501 50.285 739.429 50.3703 743.406 50.8701C747.382 51.3699 753.187 52.2913 760.62 54.3072C768.016 56.3612 777.005 59.5477 786.738 65.0788C796.397 70.6123 806.986 78.5213 815.74 90.2283C824.45 101.752 830.835 117.903 830.527 135.383C830.637 153.182 824.703 171.77 813.939 188.701C803.288 205.666 787.883 221.046 769.453 233.379C751.069 245.969 729.965 255.798 708.198 265.722C686.355 275.575 664.052 286.072 642.138 299.369C631.178 305.944 620.274 313.072 609.573 320.748C598.872 328.425 588.189 336.619 578.31 345.638C568.395 354.696 559.142 364.731 551.711 376.113C544.241 387.46 538.702 400.113 536.487 413.658C534.195 427.13 535.003 441.428 539.908 454.259C542.378 460.656 545.871 466.649 550.337 471.833C554.728 477.02 560.238 481.319 566.314 483.712C569.389 484.945 572.41 485.624 575.819 485.735C578.746 485.825 582.097 485.308 585.059 484.213C591.168 482.052 596.574 477.657 600.724 472.229C604.874 466.801 607.731 460.306 608.915 453.605C609.505 450.218 609.545 446.959 609.272 443.193C609.09 439.942 608.34 436.302 607.485 432.851C603.693 418.984 595.168 406.344 585.243 395.045C575.169 383.678 563.588 373.765 550.763 365.411C525.34 348.843 494.537 338.556 464.25 341.578C449.2 343.104 434.64 348.241 422.038 356.646C409.435 364.977 398.935 376.496 390.742 389.458C374.362 415.603 366.396 446.545 364.061 477.674C361.431 508.812 363.15 540.512 362.202 572.151C361.537 635.722 341.419 698.631 304.467 747.282C295.209 759.39 284.81 770.573 273.212 780.204C261.69 789.906 248.972 798.129 235.404 804.196C208.361 816.846 177.491 819.035 149.981 812.047C122.402 805.209 97.5767 787.696 84.9228 763.31C72.3479 739.07 71.4147 710.971 79.734 687.309C83.8925 675.441 90.5686 664.712 99.0906 656.07C107.648 647.39 118.067 641.24 128.819 637.337C150.438 629.638 173.493 630.664 192.372 638.526C211.398 646.382 225.777 661.422 231.964 678.32C235.095 686.768 235.95 695.808 234.448 704.074C232.946 712.339 229.52 719.52 225.504 725.646C221.305 731.816 216.994 736.879 211.622 741.162C206.428 745.254 200.975 748.245 195.641 750.343C184.973 754.539 174.745 755.279 166.654 753.507C158.53 751.847 153.059 747.583 150.177 744.383C148.68 742.766 147.746 741.39 147.16 740.484C146.575 739.578 146.262 739.07 146.262 739.07C145.323 737.546 145.774 735.533 147.26 734.559C148.783 733.621 150.758 734.038 151.771 735.56L151.962 735.738C151.962 735.738 152.161 736.139 152.629 736.864C153.097 737.589 153.835 738.638 154.986 739.859C157.214 742.304 161.32 745.575 167.988 746.875C174.55 748.291 183.485 747.63 192.982 743.841C197.73 741.91 202.601 739.235 207.105 735.572C211.432 732.1 215.816 727.035 219.375 721.627C222.967 716.106 225.864 709.72 227.076 702.759C228.288 695.798 227.52 688.273 224.722 680.925C219.201 666.226 206.319 652.803 189.249 645.919C172.251 638.958 151.128 638.165 131.675 645.313C122.022 648.884 112.693 654.406 105.177 662.127C97.6223 669.812 91.6131 679.446 87.9354 690.188C80.3916 711.567 81.3607 737.407 92.7788 759.131C104.123 780.858 126.604 796.893 152.165 803.13C177.73 809.516 206.31 807.475 231.529 795.625C244.257 789.918 256.215 782.2 267.122 772.925C278.069 763.76 288.004 753.074 296.833 741.424C314.568 718.195 328.173 690.956 337.62 662.261C347.213 633.486 351.566 602.958 352.162 571.849C353.015 540.694 351.222 508.996 353.777 476.713C356.156 444.694 364.132 411.827 381.93 383.786C390.795 369.877 402.292 357.215 416.348 348.022C430.289 338.723 446.683 333.082 463.21 331.433C479.811 329.783 496.463 331.906 512.161 336.502C527.859 341.099 542.679 348.241 556.187 357.092C569.656 365.906 582.003 376.608 592.58 388.589C603.046 400.61 612.422 414.332 616.767 430.365C617.753 434.441 618.549 438.339 618.844 442.77C619.084 446.649 619.083 451.09 618.334 455.26C616.834 463.599 613.318 471.412 608.246 478.054C603.171 484.623 596.361 490.211 588.204 493.104C584.069 494.534 579.874 495.263 575.279 495.116C571.167 494.991 566.765 493.95 562.901 492.41C555.06 489.223 548.557 483.994 543.358 477.908C538.124 471.861 534.117 464.885 531.357 457.572C525.835 442.873 525.049 427.021 527.593 412.207C530.059 397.322 536.258 383.352 544.295 371.247C552.291 359.032 562.047 348.536 572.395 339.169C614.296 302.459 660.871 277.218 704.801 258.171C726.535 248.359 747.198 238.618 764.977 226.751C782.87 214.991 797.42 200.601 807.624 184.65C817.871 168.883 823.436 151.454 823.426 135.54C823.808 119.205 818.23 105.026 810.322 94.2538C802.375 83.4459 792.614 75.9541 783.556 70.6971C774.461 65.4044 765.956 62.3131 758.932 60.321C751.945 58.3647 746.363 57.436 742.681 56.9266C739 56.4172 736.961 56.2985 736.961 56.2985C735.329 56.2036 734.023 54.7656 734.152 53.0959C734.246 51.4643 735.648 50.1973 737.279 50.2922L737.465 50.3232L737.501 50.285Z" fill="#C6C3C1"/>
<path d="M631.989 187.702C631.989 187.702 632.08 190.437 631.946 195.327C631.777 200.255 631.564 207.221 630.546 215.581C629.75 223.935 627.961 233.579 625.859 243.863C624.733 248.97 623.465 254.23 621.976 259.571C620.598 264.872 619.003 270.327 617.364 275.599C613.87 286.298 609.966 296.9 605.137 306.421C602.816 311.197 600.151 315.651 597.624 319.805C594.908 323.853 592.336 327.749 589.557 331.023C586.894 334.403 584.137 337.195 581.665 339.681C579.117 342.096 576.851 344.057 574.829 345.603C572.92 347.183 571.216 348.238 570.093 348.978C568.97 349.717 568.391 350.106 568.391 350.106C567.339 350.77 565.96 350.482 565.296 349.43C564.787 348.595 564.827 347.558 565.432 346.835L565.504 346.758C565.504 346.758 567.171 344.594 570.119 340.834C573.104 337.11 577.071 331.725 581.663 325.136C586.218 318.51 591.248 310.611 596.097 301.682C600.947 292.826 605.766 283.009 609.948 272.954C612.109 267.813 614.053 262.827 615.918 257.696C617.712 252.641 619.281 247.519 620.71 242.624C623.64 232.758 625.286 223.266 626.424 215.16C627.449 207.021 627.776 200.164 627.729 195.391C627.72 190.653 627.552 187.846 627.552 187.846C627.475 186.627 628.402 185.561 629.621 185.484C630.839 185.407 631.907 186.335 631.984 187.554L631.989 187.702Z" fill="#C6C3C1"/>
<path d="M611.473 282.12C625.005 283.9 637.017 272.221 641.887 259.515C649.009 241.037 645.767 220.305 641.276 200.983C638.294 188.089 634.799 175.359 631.266 162.594C613.605 178.011 600.023 198.106 592.284 220.306C588.566 230.938 586.208 242.414 588.203 253.453C590.236 264.527 597.326 275.178 607.928 279.015C608.828 279.356 609.914 279.728 610.203 280.644C610.493 281.56 609.046 282.569 608.611 281.732" fill="#C6C3C1"/>
<path d="M611.622 279.894C613.108 280.068 614.554 280.132 615.66 280.022C616.879 279.945 618.279 279.752 619.488 279.379C622.057 278.704 624.46 277.515 626.741 275.997C631.228 272.89 634.933 268.55 637.586 263.727C638.984 261.238 639.943 258.912 640.846 256.033C641.719 253.34 642.335 250.692 642.759 247.865C643.648 242.322 643.829 236.616 643.566 230.925C643.303 225.233 642.374 219.564 641.262 213.937C640.687 211.106 640.076 208.313 639.391 205.522C638.742 202.694 637.988 200.053 637.189 197.155L627.448 163.533L633.807 165.546C625.335 173.446 617.822 182.389 611.67 192.175C605.441 201.89 600.346 212.308 596.786 223.231C595.078 228.653 593.556 234.107 592.922 239.531C592.288 244.955 592.284 250.396 593.529 255.574C594.657 260.571 597.045 265.601 600.398 269.6C602.094 271.618 604.042 273.442 606.235 274.851C606.765 275.204 607.369 275.554 607.935 275.869C608.539 276.22 609.025 276.389 610.08 276.947C610.916 277.586 612.827 278.301 612.673 281.452C612.347 282.795 611.666 283.446 610.757 283.957C610.283 284.157 609.698 284.398 608.77 284.318C607.842 284.237 606.89 283.417 606.646 282.758C606.092 281.666 606.529 280.356 607.657 279.764C608.749 279.211 610.059 279.649 610.652 280.777C610.565 280.41 609.918 279.876 609.398 279.819C608.878 279.762 608.659 279.843 608.513 279.922C608.258 280.041 608.075 280.084 607.873 280.683C607.835 281.794 607.976 281.568 608.021 281.825C608.098 281.897 608.024 281.899 607.838 281.868C607.54 281.804 606.604 281.501 605.819 281.268C605.034 281.034 604.247 280.727 603.495 280.381C600.417 279.075 597.505 277.208 595.06 274.919C590.096 270.343 586.608 264.497 584.541 257.977C582.626 251.599 582.181 244.877 582.781 238.418C583.455 231.956 584.916 225.801 587.014 219.885C591.104 208.167 596.653 196.957 603.719 186.808C610.822 176.695 619.215 167.502 628.764 159.678L628.907 159.525C630.566 158.212 633.016 158.429 634.365 160.05C634.752 160.556 634.991 161.066 635.158 161.653L643.062 195.706C643.747 198.496 644.437 201.435 644.977 204.304C645.554 207.209 646.094 210.079 646.523 212.989C647.421 218.844 648.097 224.707 648.332 230.658C648.53 236.648 648.212 242.654 647.149 248.537C646.617 251.478 645.828 254.464 644.886 257.308C644.013 260.001 642.745 263.041 641.314 265.641C638.344 270.956 634.246 275.716 629.221 279.322C626.689 281.107 623.849 282.531 620.771 283.446C619.233 283.94 617.723 284.174 616.063 284.339C614.29 284.471 612.845 284.407 611.397 284.269C610.137 284.236 609.213 283.156 609.319 281.894C609.39 280.67 610.469 279.747 611.693 279.818L611.622 279.894Z" fill="#C6C3C1"/>
<path d="M331.082 688.308C331.082 688.308 332.218 685.717 334.215 681.211C335.212 678.92 336.641 676.246 338.091 673.09C339.54 669.934 341.462 666.503 343.41 662.739C345.431 658.972 347.629 654.94 349.93 650.646C352.342 646.385 354.859 641.935 357.519 637.333C360.141 632.696 362.947 628.015 365.859 623.22C368.66 618.391 371.683 613.555 374.631 608.722C377.692 603.922 380.717 599.16 383.856 594.505C386.884 589.817 390.102 585.308 393.216 580.987C399.481 572.382 405.662 564.556 411.447 558.224C417.195 551.856 422.436 546.948 426.252 543.715C430.142 540.479 432.492 538.811 432.492 538.811C433.505 538.112 434.92 538.362 435.656 539.337C436.2 540.134 436.158 541.097 435.739 541.851L435.668 541.928C435.668 541.928 434.158 544.383 431.215 548.29C429.764 550.299 428.03 552.687 426.012 555.455C423.88 558.115 421.691 561.295 419.06 564.564C414.026 571.242 407.877 578.882 401.416 587.16C398.185 591.3 394.811 595.592 391.402 599.922C387.954 604.217 384.664 608.802 381.183 613.209C377.855 617.759 374.413 622.201 371.194 626.71C367.976 631.219 364.905 635.724 362.016 640.111C356.087 648.817 351.226 657.377 347.028 664.694C345.116 668.42 343.23 671.812 341.778 674.895C340.326 677.977 339.007 680.611 338.083 682.898C336.236 687.474 335.139 690.1 335.139 690.1C334.697 691.262 333.383 691.823 332.257 691.342C331.13 690.86 330.533 689.584 331.013 688.458C331.013 688.458 331.013 688.458 331.049 688.42L331.082 688.308Z" fill="#C6C3C1"/>
<path d="M317.69 715.244C317.69 715.244 318.402 713.259 318.962 710.058C319.59 706.706 319.91 701.847 319.382 695.98C318.745 690.153 317.371 683.35 314.989 676.248C313.836 672.732 312.453 669.002 311.002 665.422C309.474 661.77 307.873 658.121 306.199 654.549C302.886 647.291 299.137 640.27 295.805 633.568C292.474 626.866 289.269 620.642 286.828 615.132C281.801 604.192 279.902 596.038 279.902 596.038C279.603 594.826 280.374 593.542 281.624 593.28C282.468 593.067 283.33 593.372 283.867 593.947C283.867 593.947 289.548 600.054 295.671 610.588C298.806 615.816 301.98 622.227 305.135 629.193C308.291 636.16 311.101 643.878 313.692 651.677C314.969 655.596 316.099 659.519 317.19 663.407C318.284 667.368 319.223 671.113 320.161 674.858C321.926 682.314 323.274 689.45 323.628 695.657C324.168 701.894 323.675 707.092 323.203 710.734C322.625 714.491 322.095 716.359 322.095 716.359L322.028 716.583C321.698 717.778 320.463 718.485 319.267 718.154C318.072 717.822 317.365 716.587 317.695 715.392C317.695 715.392 317.767 715.316 317.764 715.242L317.69 715.244Z" fill="#C6C3C1"/>
<path d="M284.656 761.474C284.656 761.474 286.491 759.896 289.692 757.09C292.969 754.356 297.648 750.354 303.307 745.766C308.965 741.177 315.634 735.815 322.735 730.07C329.912 724.395 337.521 718.337 345.165 712.24C352.926 706.325 360.611 700.338 368.251 695.241C375.815 690.072 383.029 685.507 389.5 681.965C395.971 678.423 401.588 675.946 405.644 674.37C409.739 672.831 412.123 672.198 412.123 672.198C413.335 671.9 414.578 672.562 414.916 673.81C415.167 674.69 414.863 675.551 414.252 676.126C414.252 676.126 412.348 677.853 408.951 680.333C407.254 681.609 405.195 683.12 402.811 684.9C400.387 686.57 397.75 688.544 394.706 690.494C382.763 698.655 366.215 708.594 349.825 718.825C341.593 723.941 333.476 729.165 326.024 734.367C318.493 739.424 311.819 744.637 306.043 749.045C300.347 753.598 295.773 757.411 292.648 760.288C289.524 763.166 287.765 764.814 287.765 764.814C286.866 765.621 285.459 765.593 284.652 764.694C283.845 763.795 283.872 762.387 284.77 761.581L284.806 761.543L284.656 761.474Z" fill="#C6C3C1"/>
<path d="M383.237 600.373C381.632 597.723 380.08 594.48 379.013 591.332C377.982 588.145 377.245 584.875 376.802 581.595C376.028 574.995 376.399 568.321 377.886 561.833C378.668 558.624 379.674 555.483 380.904 552.408C382.208 549.33 383.632 546.508 385.349 543.602C388.753 537.977 392.948 532.807 397.646 528.249C402.343 523.692 407.501 519.638 412.932 515.982C415.611 514.192 418.515 512.469 421.276 510.899C424.184 509.324 427.06 507.861 429.973 506.434C441.745 500.906 453.925 496.549 466.001 492.381C468.014 491.686 470.195 492.726 470.891 494.739C471.463 496.349 470.892 498.107 469.629 499.073L469.486 499.226C465.045 502.59 462.707 507.996 461.54 514.067C460.372 520.138 460.182 526.695 459.852 533.479C459.563 540.373 458.463 547.367 456.986 554.151C455.473 560.973 453.399 567.629 450.803 574.153C448.171 580.716 444.718 587.083 440.169 592.783C437.897 595.67 435.32 598.345 432.436 600.659C430.994 601.817 429.514 602.938 427.919 603.952C426.832 604.654 426.357 604.854 425.597 605.36C424.834 605.792 423.814 606.27 422.939 606.668C415.971 609.745 408.313 610.956 400.831 609.683C397.109 609.063 393.473 607.664 390.262 605.733C388.637 604.713 387.193 603.575 385.744 602.29C385.171 601.754 384.822 601.284 384.428 600.556C384.071 599.865 383.66 598.62 384.169 597.234C384.376 596.783 384.305 596.859 384.872 596.1L385.086 595.871C385.446 595.564 386.03 595.323 386.362 595.275C387.946 595.038 388.636 595.756 389.053 596.075C389.512 596.505 389.784 596.903 390.035 597.783C390.078 597.967 390.167 598.408 390.103 598.706C390.011 599.264 389.844 599.825 389.232 600.326C388.619 600.827 388.323 600.837 387.844 600.889C387.622 600.896 387.362 600.868 387.102 600.839C385.911 600.656 385.059 599.499 385.241 598.309C385.424 597.119 386.58 596.267 387.77 596.45C387.658 596.417 387.51 596.422 387.362 596.427C386.957 596.477 386.773 596.52 386.268 596.906C385.839 597.364 385.594 597.779 385.573 598.261C385.506 598.486 385.592 598.853 385.595 598.927C385.722 599.404 385.757 599.366 385.913 599.583C386.027 599.69 386.302 600.162 387.48 599.976C387.664 599.933 388.177 599.768 388.427 599.501C388.927 598.966 388.713 599.195 388.815 598.933C389.091 598.332 388.857 597.969 388.969 598.003C388.969 598.003 389.16 598.182 389.27 598.141C390.48 598.916 391.764 599.688 393.153 600.272C395.857 601.443 398.799 601.976 401.728 602.14C407.587 602.467 413.644 600.975 418.735 598.218L420.551 597.197C421.166 596.77 422.146 596.183 422.47 595.913C423.662 595.023 424.816 594.097 425.967 593.097C428.195 591.1 430.192 588.815 432.074 586.422C435.762 581.564 438.722 575.953 441.231 570.135C443.699 564.206 445.716 558.071 447.21 551.804C448.741 545.499 449.679 539.214 450.351 532.678C451.019 526.068 451.456 519.17 453.146 512.082C454.027 508.538 455.205 504.983 457.165 501.588C459.089 498.232 461.762 495.147 465.019 492.894L468.465 499.703C456.222 503.285 444.05 506.79 432.519 511.754C429.636 512.996 426.794 514.346 424.026 515.695C421.15 517.158 418.497 518.614 415.812 520.256C410.479 523.501 405.459 527.255 400.974 531.509C396.453 535.801 392.429 540.559 389.123 545.774C387.541 548.305 386.008 551.168 384.841 553.945C383.678 556.796 382.738 559.713 382.023 562.697C380.631 568.702 380.245 574.932 381.038 580.976C381.509 583.996 382.163 586.973 383.184 589.863C384.279 592.752 385.472 595.23 387.195 598.06C387.859 599.112 387.533 600.455 386.482 601.119C385.431 601.782 384.087 601.456 383.423 600.404L383.347 600.332L383.237 600.373Z" fill="#C6C3C1"/>
<path d="M313.604 660.192C324.091 646.083 325.59 626.566 320.147 609.792C314.669 593.055 302.948 578.928 289.329 567.824C275.671 556.684 260.07 548.309 244.581 539.967C249.426 553.244 244.109 568.111 245.835 582.193C247.52 596.166 249.332 632.897 311.647 661.44" fill="#C6C3C1"/>
<path d="M311.75 658.957C313.767 656.19 315.239 653.699 316.625 650.841C317.936 647.986 318.947 644.992 319.696 641.895C321.157 635.741 321.423 629.255 320.768 622.911C320.367 619.741 319.817 616.575 319.013 613.53C318.173 610.522 316.996 607.414 315.753 604.531C313.116 598.695 309.75 593.178 305.807 588.125C301.9 583.034 297.306 578.446 292.464 574.199C289.989 572.096 287.554 570.102 284.897 568.116C282.316 566.201 279.664 564.363 276.977 562.563C266.081 555.441 254.377 549.641 242.63 543.657L248.351 538.697C250.943 545.423 251.179 552.521 250.987 559.004C250.759 565.526 250.076 571.692 250.415 577.455C250.464 578.934 250.582 580.262 250.741 581.701L251.339 586.345C251.736 589.367 252.275 592.236 252.927 595.139C253.614 598.003 254.521 600.787 255.537 603.53C256.663 606.232 257.79 608.934 259.242 611.441C260.514 614.064 262.296 616.449 263.786 618.991C265.64 621.3 267.205 623.839 269.311 625.955C271.273 628.222 273.198 630.455 275.45 632.491C277.52 634.644 279.843 636.604 282.166 638.564C284.381 640.639 286.847 642.446 289.349 644.216C291.743 646.099 294.209 647.907 296.853 649.523C299.426 651.216 301.895 653.097 304.611 654.637C307.291 656.216 309.936 657.832 312.583 659.522L312.697 659.63C313.755 660.262 314.023 661.659 313.392 662.716C312.83 663.623 311.73 663.955 310.757 663.616C307.76 662.529 304.796 661.33 301.832 660.131C298.797 659.009 296.007 657.471 293.074 656.086C290.141 654.701 287.348 653.089 284.589 651.366C281.794 649.68 279.071 647.918 276.488 645.929C273.798 644.055 271.251 642.029 268.806 639.739C266.292 637.601 263.993 635.233 261.691 632.791C259.318 630.425 257.485 627.635 255.362 625.002C253.566 622.174 251.514 619.465 250.116 616.364C248.5 613.419 247.212 610.278 245.997 607.134C244.818 603.952 243.896 600.725 243.159 597.455C242.495 594.183 241.867 590.872 241.537 587.626L241.01 582.906C240.841 581.172 240.711 579.473 240.69 577.734C240.686 570.924 241.658 564.527 242.125 558.516C242.627 552.466 242.583 546.694 240.856 541.495L240.775 541.275C240.076 539.188 241.221 536.893 243.346 536.232C244.481 535.862 245.634 536.009 246.614 536.57C258.083 543.081 269.632 549.811 280.55 557.598C283.281 559.582 285.938 561.568 288.599 563.702C291.111 565.767 293.778 568.049 296.184 570.303C301.112 574.917 305.611 579.989 309.676 585.371C313.705 590.792 317.194 596.637 319.845 602.917C321.21 606.13 322.239 609.242 323.163 612.543C324.013 615.847 324.643 619.231 325.014 622.587C325.719 629.337 325.356 636.233 323.838 642.908C323.061 646.264 322.022 649.518 320.646 652.672C319.268 655.752 317.377 658.996 315.538 661.573L315.466 661.649C314.759 662.635 313.361 662.902 312.375 662.194C311.389 661.486 311.121 660.088 311.864 659.065L311.75 658.957Z" fill="#C6C3C1"/>
<path d="M353.662 710.668C352.076 697.433 358.482 684.159 368.02 674.892C377.557 665.624 389.949 659.817 402.535 655.41C418.595 649.743 435.831 646.036 452.586 649.044C444.182 661.235 437.633 674.662 429.42 687.032C421.206 699.402 410.855 710.916 397.362 716.981C383.833 723.084 366.643 722.608 355.475 712.867C354.902 712.33 354.217 711.76 353.406 711.861C352.631 711.923 352.079 713.125 352.795 713.509" fill="#C6C3C1"/>
<path d="M351.447 710.814C351.175 708.195 351.217 705.011 351.531 702.225C351.844 699.365 352.564 696.528 353.475 693.871C355.33 688.444 358.088 683.431 361.566 678.951C363.305 676.711 365.236 674.649 367.28 672.695C369.254 670.817 371.485 668.894 373.725 667.267C378.24 663.9 383.144 661.112 388.135 658.692C398.194 653.997 408.538 650.071 419.406 647.422C430.238 644.812 441.706 643.513 453.201 645.249C455.283 645.551 456.716 647.466 456.415 649.549C456.323 650.107 456.154 650.594 455.873 651.047L455.694 651.238C449.68 660.723 444.54 670.884 438.843 681.025C433.109 691.131 426.225 701.163 417.364 709.631C412.952 713.883 407.818 717.529 402.212 720.377L400.062 721.372L399.551 721.611L398.893 721.854L397.87 722.258C396.666 722.778 394.796 723.32 393.294 723.776C390.213 724.616 387.048 725.164 383.909 725.377C377.593 725.767 371.128 725.016 365.162 722.582C362.162 721.421 359.406 719.771 356.935 717.816C355.646 716.896 354.495 715.675 353.464 714.709C353.077 714.203 352.934 714.356 353.745 714.256C354.477 714.01 354.577 713.673 354.679 713.411C354.71 713.225 354.776 713.001 354.69 712.633C354.64 712.228 354.138 711.615 353.763 711.479C354.856 712.073 355.27 713.392 354.678 714.484C354.085 715.577 352.766 715.99 351.673 715.396C350.959 715.087 350.264 714.221 350.163 713.41C350.027 712.637 350.155 712.041 350.324 711.554C350.7 710.617 351.374 709.743 352.805 709.364C355.126 709.029 356.236 710.14 356.916 710.562C358.126 711.337 359.076 712.083 360.279 712.637C362.542 713.895 365.049 714.739 367.512 715.325C372.477 716.607 377.773 716.694 382.855 715.936C385.395 715.52 387.895 714.995 390.346 714.138C391.553 713.691 392.468 713.402 393.889 712.727L394.874 712.288C394.874 712.288 395.349 712.087 395.239 712.128L395.675 711.892L397.423 711.021C402.005 708.577 406.268 705.403 410.219 701.795C414.171 698.188 417.809 694.072 421.107 689.708L423.551 686.409L425.952 682.925L430.566 675.854C436.69 666.328 442.31 656.115 449.323 646.633L451.817 652.622C441.753 650.507 431.031 650.856 420.664 652.97C415.443 654.028 410.268 655.344 405.141 656.991C399.976 658.603 394.966 660.431 390.08 662.663C385.23 664.857 380.579 667.451 376.24 670.553C374.071 672.104 372.088 673.686 370.076 675.528C368.175 677.329 366.387 679.238 364.791 681.326C361.56 685.465 358.974 690.065 357.362 695.003C356.555 697.472 355.973 700.008 355.725 702.569C355.48 705.205 355.444 707.464 355.797 710.303C355.948 711.519 355.06 712.621 353.843 712.772C352.627 712.923 351.524 712.033 351.373 710.817L351.368 710.669L351.447 710.814Z" fill="#C6C3C1"/>
<path d="M257.839 555.821C257.839 555.821 262.252 560.525 268.497 568.021C271.656 571.767 274.919 576.398 278.524 581.278C282.021 586.271 285.57 591.745 288.865 597.337C292.088 603.006 295.131 608.792 297.467 614.49C299.838 620.15 301.866 625.487 303.061 630.26C303.805 632.604 304.213 634.849 304.61 636.798C305.008 638.746 305.361 640.437 305.519 641.876C305.947 644.712 306.075 646.336 306.075 646.336C306.13 646.889 305.704 647.421 305.112 647.441C304.633 647.493 304.253 647.21 304.055 646.809C304.055 646.809 303.45 645.311 302.545 642.602C301.644 639.966 300.297 636.198 298.74 631.659C297.183 627.12 295.305 621.852 293.16 616.333C290.867 610.819 288.45 604.901 285.632 599.182C282.814 593.463 279.703 587.827 276.5 582.75C273.296 577.673 269.926 573.156 266.914 569.405C263.939 565.615 261.321 562.591 259.366 560.545C257.41 558.499 256.297 557.314 256.297 557.314C255.877 556.921 255.929 556.253 256.36 555.869C256.754 555.449 257.422 555.501 257.806 555.933L257.839 555.821Z" fill="white"/>
<path d="M436.098 660.758C436.098 660.758 431.479 663.24 425.036 667.595C418.513 671.805 410.094 677.964 402.291 684.843C394.409 691.576 386.908 698.668 381.045 703.781C378.094 706.32 375.647 708.398 373.806 709.828C372.04 711.255 370.917 711.994 370.917 711.994C370.448 712.343 369.777 712.216 369.467 711.782C369.233 711.42 369.254 710.938 369.428 710.599C369.428 710.599 370.168 709.502 371.588 707.679C373.008 705.856 375.146 703.344 377.865 700.517C380.546 697.653 384.035 694.616 387.779 691.459C391.521 688.228 395.712 685.131 399.977 682.031C408.585 675.977 417.276 670.217 423.873 666.005C430.545 661.864 434.97 659.129 434.97 659.129C435.478 658.817 436.113 658.981 436.387 659.453C436.662 659.926 436.536 660.596 436.064 660.87C436.064 660.87 436.064 660.87 436.029 660.909L436.098 660.758Z" fill="white"/>
<path d="M170.625 639.011C139.258 640.736 115.183 661.394 102.517 686.79C89.886 712.147 91.1119 744.603 107.753 767.564C117.178 780.544 133.042 796.831 152.274 805.31" stroke="#C6C3C1" stroke-width="0.93" stroke-linecap="round" stroke-linejoin="round"/>
</g>
<defs>
<clipPath id="clip0_1_5">
<rect width="322" height="945.785" fill="white" transform="translate(646.435) rotate(43.117)"/>
</clipPath>
</defs>
</svg>
