<svg width="176" height="56" viewBox="0 0 176 56" fill="none" xmlns="http://www.w3.org/2000/svg">
<g clip-path="url(#clip0_1_320)">
<path d="M71.2419 24.2366H70.5098V29.0498H68.8963L68.693 27.6181C68.3201 28.0953 67.8252 28.484 67.2083 28.7907C66.5982 29.0907 65.8796 29.2407 65.0526 29.2407C63.351 29.2407 61.9884 28.6408 60.9715 27.4409C59.9547 26.241 59.4395 24.7615 59.4395 22.9958C59.4395 21.23 59.975 19.7438 61.0529 18.4893C62.1308 17.2349 63.6425 16.6008 65.5949 16.6008C66.5847 16.6008 67.466 16.744 68.2388 17.0235C69.0116 17.3099 69.6149 17.6507 70.042 18.053L70.381 20.5823L68.6726 20.7528L68.3337 19.2052C67.6083 18.7007 66.6796 18.4484 65.5542 18.4484C64.4289 18.4484 63.4866 18.837 62.7612 19.621C62.0359 20.3982 61.6766 21.5163 61.6766 22.9617C61.6766 24.407 62.0223 25.4774 62.707 26.2478C63.3917 27.0182 64.2933 27.4 65.4119 27.4C66.3474 27.4 67.0863 27.1477 67.6287 26.6364C68.1642 26.1251 68.4354 25.4842 68.4354 24.7002V24.2502H65.8457V22.4572H71.2487V24.2502L71.2419 24.2366Z" fill="#450B3A"/>
<path d="M84.6578 22.9003C84.6578 24.6388 84.1019 26.1251 82.9901 27.3727C81.8784 28.6203 80.3598 29.2407 78.4346 29.2407C76.5093 29.2407 74.9908 28.6203 73.9129 27.3727C72.835 26.1251 72.2994 24.6525 72.2994 22.9412C72.2994 21.23 72.8621 19.6551 73.9874 18.4348C75.1128 17.2144 76.611 16.6077 78.4888 16.6077C80.3666 16.6077 81.8919 17.2281 83.0037 18.4689C84.1087 19.7097 84.6646 21.1891 84.6646 22.914L84.6578 22.9003ZM82.4004 22.9549C82.4004 21.5845 82.0546 20.4869 81.3564 19.6688C80.6649 18.8507 79.6955 18.4416 78.4549 18.4416C77.1533 18.4416 76.1771 18.8643 75.5195 19.7165C74.862 20.5687 74.5366 21.6186 74.5366 22.8731C74.5366 24.1275 74.8552 25.1502 75.4992 26.0433C76.1432 26.9364 77.1465 27.3795 78.5091 27.3795C79.7972 27.3795 80.7666 26.9636 81.4174 26.1251C82.0682 25.2865 82.3936 24.2298 82.3936 22.9481L82.4004 22.9549Z" fill="#450B3A"/>
<path d="M98.1212 22.9003C98.1212 24.6388 97.5653 26.1251 96.4535 27.3727C95.3417 28.6203 93.8232 29.2407 91.8979 29.2407C89.9727 29.2407 88.4541 28.6203 87.3763 27.3727C86.2984 26.1251 85.7628 24.6525 85.7628 22.9412C85.7628 21.23 86.3255 19.6551 87.4508 18.4348C88.5762 17.2144 90.0743 16.6077 91.9522 16.6077C93.83 16.6077 95.3553 17.2281 96.4671 18.4689C97.5721 19.7097 98.128 21.1891 98.128 22.914L98.1212 22.9003ZM95.8705 22.9549C95.8705 21.5845 95.5248 20.4869 94.8265 19.6688C94.1351 18.8507 93.1656 18.4416 91.9251 18.4416C90.6235 18.4416 89.6473 18.8643 88.9897 19.7165C88.3321 20.5687 88.0067 21.6186 88.0067 22.8731C88.0067 24.1275 88.3253 25.1502 88.9694 26.0433C89.6134 26.9364 90.6167 27.3795 91.9793 27.3795C93.2673 27.3795 94.2367 26.9636 94.8875 26.1251C95.5383 25.2865 95.8637 24.2298 95.8637 22.9481L95.8705 22.9549Z" fill="#450B3A"/>
<path d="M111.015 22.8799C111.015 24.7138 110.473 26.2069 109.381 27.3454C108.297 28.484 106.785 29.0498 104.86 29.0498H99.1924V27.2568H100.602V18.5779H99.1924V16.7849H104.744C106.799 16.7849 108.351 17.3508 109.415 18.4825C110.48 19.6142 111.008 21.08 111.008 22.8799H111.015ZM108.778 22.9003C108.778 20.0233 107.415 18.5779 104.69 18.5779H102.684V27.2568H104.69C107.415 27.2568 108.778 25.8046 108.778 22.9003Z" fill="#450B3A"/>
<path d="M117.015 29.0498H112.141V27.2568H113.551V18.5779H112.141V16.7849H117.015V18.5779H115.625V27.2568H117.015V29.0498Z" fill="#450B3A"/>
<path d="M127.821 29.0498H118.533V27.2568H119.943V18.5779H118.533V16.7849H127.685L128.058 20.3301L126.275 20.4801L125.902 18.5779H122.018V21.9731H127.387V23.7662H122.018V27.2568H126.031L126.404 25.3547L128.187 25.5047L127.814 29.0498H127.821Z" fill="#450B3A"/>
<path d="M138.477 25.4433C138.477 26.6637 138.057 27.6045 137.21 28.2522C136.362 28.9067 135.251 29.2339 133.861 29.2339C133.034 29.2339 132.241 29.1317 131.468 28.934C130.695 28.7362 130.092 28.4431 129.637 28.0681L129.976 25.2593L131.644 25.4297L131.603 26.9364C132.017 27.1477 132.397 27.2841 132.736 27.3386C133.081 27.3932 133.4 27.4273 133.698 27.4273C134.424 27.4273 135.027 27.3114 135.508 27.0796C135.99 26.8478 136.234 26.3773 136.234 25.6751C136.234 24.9047 135.956 24.3934 135.407 24.1412C134.857 23.8821 134.227 23.6844 133.515 23.548C132.939 23.4321 132.356 23.2821 131.773 23.0981C131.183 22.9072 130.695 22.5936 130.309 22.1572C129.922 21.7141 129.726 21.0664 129.726 20.2142C129.726 18.9325 130.159 18.0121 131.027 17.4531C131.895 16.894 132.871 16.6145 133.942 16.6145C134.695 16.6145 135.42 16.7304 136.125 16.9554C136.83 17.1804 137.386 17.4803 137.786 17.8417L137.901 20.4256L136.234 20.5755L136.064 18.987C135.712 18.7893 135.366 18.6462 135.013 18.5712C134.661 18.4962 134.329 18.4553 134.003 18.4553C133.413 18.4553 132.925 18.578 132.539 18.8166C132.153 19.0552 131.956 19.437 131.956 19.9688C131.956 20.5824 132.193 21.0051 132.681 21.2232C133.163 21.4414 133.705 21.6255 134.302 21.7618C134.817 21.8777 135.393 22.0277 136.044 22.2118C136.695 22.4027 137.257 22.7367 137.739 23.2208C138.22 23.7048 138.464 24.448 138.464 25.457L138.477 25.4433Z" fill="#450B3A"/>
<path d="M150.748 20.7869L148.944 20.9368L148.572 18.5779H146.192V27.2568H148.239V29.0498H142.145V27.2568H144.118V18.5779H141.718L141.345 20.9368L139.562 20.7869L139.935 16.7849H150.382L150.754 20.7869H150.748Z" fill="#450B3A"/>
<path d="M164.069 22.9003C164.069 24.6388 163.513 26.1251 162.401 27.3727C161.289 28.6203 159.771 29.2407 157.845 29.2407C155.92 29.2407 154.402 28.6203 153.324 27.3727C152.246 26.1251 151.71 24.6525 151.71 22.9412C151.71 21.23 152.273 19.6551 153.398 18.4348C154.524 17.2144 156.022 16.6077 157.9 16.6077C159.778 16.6077 161.303 17.2281 162.415 18.4689C163.52 19.7097 164.075 21.1891 164.075 22.914L164.069 22.9003ZM161.818 22.9549C161.818 21.5845 161.472 20.4869 160.774 19.6688C160.083 18.8507 159.113 18.4416 157.873 18.4416C156.571 18.4416 155.595 18.8643 154.937 19.7165C154.28 20.5687 153.954 21.6186 153.954 22.8731C153.954 24.1275 154.273 25.1502 154.917 26.0433C155.561 26.9364 156.564 27.3795 157.927 27.3795C159.215 27.3795 160.184 26.9636 160.835 26.1251C161.486 25.2865 161.811 24.2298 161.811 22.9481L161.818 22.9549Z" fill="#450B3A"/>
<path d="M176 29.0498H173.146L170.631 24.2025H168.624V27.2568H170.048V29.0498H165.133V27.2568H166.543V18.5779H165.133V16.7849H170.556C172.068 16.7849 173.2 17.1053 173.953 17.7394C174.705 18.3734 175.078 19.2665 175.078 20.4119C175.078 21.23 174.861 21.9322 174.427 22.5185C173.993 23.1049 173.397 23.5207 172.638 23.773L174.495 27.2636H175.993V29.0566L176 29.0498ZM172.868 20.4664C172.868 19.7779 172.665 19.287 172.265 19.0075C171.865 18.7211 171.18 18.5848 170.217 18.5848H168.624V22.5254H170.204C171.207 22.5254 171.899 22.3481 172.285 21.9868C172.671 21.6254 172.868 21.1209 172.868 20.4664Z" fill="#450B3A"/>
<path d="M87.5322 36.9582H86.6442V36.4878H87.5322V35.8606C87.5322 35.4379 87.6475 35.1311 87.8847 34.947C88.122 34.7629 88.4813 34.6675 88.9626 34.6675C89.1457 34.6675 89.3558 34.6811 89.6066 34.7084V35.1788C89.4033 35.1515 89.1999 35.1379 88.983 35.1379C88.7186 35.1379 88.5288 35.1856 88.4135 35.2811C88.2983 35.3765 88.244 35.5538 88.244 35.806V36.481H89.5321V36.9514H88.244V40.3602H87.5255V36.9514L87.5322 36.9582Z" fill="#450B3A"/>
<path d="M91.4099 40.4079C91.2405 40.3807 91.071 40.3329 90.9015 40.2511C90.7252 40.1693 90.5964 40.0398 90.5151 39.8625C90.4337 39.6853 90.3931 39.4398 90.3931 39.133V37.7831C90.3931 37.5445 90.4202 37.3332 90.4812 37.1491C90.5422 36.965 90.6168 36.8287 90.7117 36.7264C90.793 36.6378 90.9151 36.5628 91.0778 36.5151C91.2405 36.4673 91.4032 36.4333 91.5794 36.4128C91.7692 36.3992 91.9726 36.3992 92.176 36.3992C92.4539 36.3992 92.6641 36.406 92.7997 36.4196C92.942 36.4333 93.0912 36.4605 93.2539 36.5014C93.4166 36.5492 93.5454 36.6242 93.6403 36.7196C93.7284 36.815 93.8098 36.9582 93.8708 37.1355C93.9318 37.3264 93.9589 37.5377 93.9589 37.7831V39.133C93.9589 39.5898 93.8572 39.9171 93.6471 40.1284C93.5589 40.217 93.4369 40.2784 93.281 40.3261C93.1251 40.3738 92.9556 40.4079 92.7861 40.4216C92.5827 40.4352 92.3794 40.4352 92.1828 40.4352C91.8438 40.4352 91.5862 40.4216 91.4167 40.4011L91.4099 40.4079ZM92.6641 39.958C92.7658 39.9443 92.8607 39.9171 92.9624 39.8693C93.0573 39.8284 93.1251 39.7534 93.1657 39.658C93.2064 39.5625 93.2268 39.4194 93.2268 39.2421V37.6672C93.2268 37.4286 93.1996 37.2514 93.1386 37.1423C93.0776 37.0332 92.9827 36.9582 92.8403 36.9241C92.698 36.89 92.481 36.8696 92.1828 36.8696C91.8845 36.8696 91.6675 36.89 91.5252 36.9241C91.3828 36.9582 91.2811 37.0332 91.2269 37.1423C91.1659 37.2514 91.1388 37.4286 91.1388 37.6672V39.2421C91.1388 39.4194 91.1591 39.5557 91.1998 39.658C91.2405 39.7603 91.3083 39.8284 91.4032 39.8693C91.4981 39.9171 91.5998 39.9443 91.7014 39.958C91.8031 39.9716 91.9658 39.9716 92.1895 39.9716C92.4133 39.9716 92.576 39.9716 92.6776 39.958H92.6641Z" fill="#450B3A"/>
<path d="M95.396 36.481H96.0739V37.115C96.0739 36.9923 96.1281 36.8764 96.2366 36.7673C96.3451 36.6582 96.4807 36.5696 96.6434 36.5014C96.8061 36.4333 96.9688 36.3992 97.1315 36.3992H97.484V37.0196H97.084C96.745 37.0196 96.501 37.0605 96.3451 37.1491C96.1959 37.2377 96.1146 37.3945 96.1146 37.6263V40.3602H95.396V36.4742V36.481Z" fill="#450B3A"/>
<path d="M101.646 40.4284C101.524 40.4148 101.389 40.3943 101.233 40.3466C101.07 40.3057 100.941 40.2375 100.853 40.1557C100.765 40.0671 100.684 39.9444 100.623 39.7807C100.562 39.6171 100.528 39.4194 100.528 39.1808V37.7559C100.528 37.3196 100.609 37.0128 100.772 36.8219C100.86 36.7128 100.955 36.631 101.05 36.5764C101.145 36.5219 101.267 36.481 101.416 36.4605C101.565 36.4401 101.701 36.4265 101.816 36.4196C101.931 36.4128 102.101 36.406 102.311 36.406C102.677 36.406 103.043 36.4469 103.409 36.5287V37.0605C102.982 36.9514 102.589 36.8969 102.223 36.8969C101.945 36.8969 101.741 36.9173 101.612 36.9582C101.484 36.9991 101.389 37.0741 101.341 37.1764C101.294 37.2787 101.267 37.4423 101.267 37.6536V39.2421C101.267 39.4399 101.294 39.5898 101.348 39.6853C101.402 39.7807 101.504 39.8489 101.653 39.8898C101.802 39.9307 102.019 39.9512 102.304 39.9512C102.69 39.9512 103.084 39.9034 103.47 39.8012V40.3466C103.111 40.4216 102.697 40.4625 102.236 40.4625C101.972 40.4625 101.775 40.4625 101.66 40.4489L101.646 40.4284Z" fill="#450B3A"/>
<path d="M104.69 36.481H105.368V37.115C105.368 36.9923 105.422 36.8764 105.531 36.7673C105.639 36.6582 105.775 36.5696 105.938 36.5014C106.1 36.4333 106.263 36.3992 106.426 36.3992H106.778V37.0196H106.378C106.039 37.0196 105.795 37.0605 105.639 37.1491C105.49 37.2377 105.409 37.3945 105.409 37.6263V40.3602H104.69V36.4742V36.481Z" fill="#450B3A"/>
<path d="M108.148 40.3466C107.951 40.2784 107.802 40.1557 107.714 39.9784C107.626 39.8012 107.585 39.5489 107.585 39.2149C107.585 38.9217 107.626 38.6899 107.707 38.5263C107.788 38.3626 107.931 38.2467 108.127 38.1786C108.324 38.1104 108.609 38.0763 108.975 38.0763H110.134V37.4559C110.134 37.3127 110.107 37.2037 110.053 37.1218C109.998 37.0468 109.903 36.9923 109.775 36.9582C109.646 36.9241 109.456 36.9105 109.205 36.9105C108.805 36.9105 108.365 36.9446 107.883 37.0059V36.4742C108.412 36.4264 108.887 36.3992 109.314 36.3992C109.761 36.3992 110.093 36.4333 110.303 36.5014C110.514 36.5696 110.663 36.6855 110.744 36.8491C110.825 37.0128 110.866 37.2718 110.866 37.6195V40.367H110.175V39.9989C110.114 40.2989 109.727 40.4488 109.009 40.4488C108.643 40.4488 108.358 40.4148 108.161 40.3466H108.148ZM109.117 39.9716C109.375 39.9716 109.598 39.9512 109.781 39.9171C110.019 39.8693 110.141 39.7534 110.141 39.583V38.5263H109.029C108.798 38.5263 108.636 38.5467 108.534 38.5808C108.432 38.6149 108.365 38.6831 108.337 38.7785C108.31 38.874 108.29 39.0308 108.29 39.2421C108.29 39.433 108.31 39.583 108.344 39.6853C108.378 39.7875 108.446 39.8625 108.541 39.9102C108.636 39.958 108.778 39.9784 108.975 39.9784H109.117V39.9716Z" fill="#450B3A"/>
<path d="M112.764 36.9582H111.876V36.4878H112.764V35.8606C112.764 35.4379 112.879 35.1311 113.117 34.947C113.354 34.7629 113.713 34.6675 114.195 34.6675C114.378 34.6675 114.588 34.6811 114.839 34.7084V35.1788C114.635 35.1515 114.432 35.1379 114.215 35.1379C113.951 35.1379 113.761 35.1856 113.645 35.2811C113.53 35.3765 113.476 35.5538 113.476 35.806V36.481H114.764V36.9514H113.476V40.3602H112.757V36.9514L112.764 36.9582Z" fill="#450B3A"/>
<path d="M116.621 40.3397C116.438 40.2647 116.303 40.142 116.221 39.9715C116.14 39.8011 116.099 39.5557 116.099 39.2352V36.9581H115.239V36.4877H116.099V35.281H116.825V36.4877H118.208V36.9581H116.825V39.2761C116.825 39.467 116.845 39.6102 116.893 39.7125C116.94 39.8147 117.015 39.8761 117.13 39.917C117.245 39.9579 117.408 39.9784 117.632 39.9784C117.699 39.9784 117.889 39.9579 118.208 39.917V40.3874C117.937 40.4283 117.665 40.4488 117.401 40.4488C117.069 40.4488 116.811 40.4147 116.628 40.3397H116.621Z" fill="#450B3A"/>
<path d="M119.157 39.2626V37.7286C119.157 37.2582 119.293 36.9173 119.557 36.7128C119.828 36.5083 120.262 36.406 120.858 36.406C121.428 36.406 121.841 36.5015 122.092 36.706C122.343 36.9105 122.472 37.2446 122.472 37.7354V38.5945H119.876V39.1808C119.876 39.4467 119.97 39.6376 120.153 39.7603C120.337 39.8762 120.628 39.9375 121.014 39.9375C121.38 39.9375 121.814 39.8762 122.316 39.7466V40.2989C121.828 40.408 121.36 40.4625 120.92 40.4625C119.74 40.4625 119.15 40.0671 119.15 39.2762L119.157 39.2626ZM121.76 38.1104V37.5036C121.76 37.265 121.692 37.1082 121.55 37.0196C121.408 36.931 121.17 36.8901 120.825 36.8901C120.479 36.8901 120.255 36.931 120.106 37.0196C119.957 37.1082 119.882 37.2718 119.882 37.5036V38.1104H121.76Z" fill="#450B3A"/>
<path d="M124.37 40.3329C124.153 40.2579 123.99 40.1284 123.895 39.9511C123.794 39.7738 123.746 39.5284 123.746 39.2148V37.5036C123.746 37.115 123.868 36.8286 124.112 36.6582C124.356 36.4877 124.756 36.3991 125.312 36.3991C125.645 36.3991 125.936 36.44 126.18 36.5287C126.424 36.6173 126.546 36.74 126.553 36.8968H126.566L126.553 35.9082V34.7424H127.271V40.3602H126.566V39.9034C126.566 40.0465 126.451 40.1693 126.221 40.2715C125.99 40.3806 125.678 40.442 125.272 40.442C124.885 40.442 124.587 40.4011 124.37 40.3261V40.3329ZM126.282 39.8147C126.458 39.7261 126.546 39.5693 126.546 39.3511V37.4354C126.546 37.0877 126.194 36.9104 125.482 36.9104C125.055 36.9104 124.777 36.9445 124.655 37.0059C124.519 37.0672 124.458 37.2104 124.458 37.4286V39.3443C124.458 39.5625 124.533 39.7193 124.675 39.8079C124.824 39.8966 125.068 39.9443 125.421 39.9443C125.821 39.9443 126.105 39.8966 126.282 39.8079V39.8147Z" fill="#450B3A"/>
<path d="M131.048 42.0441V41.5328C131.685 41.6078 132.153 41.6419 132.444 41.6419C132.81 41.6419 133.081 41.5805 133.244 41.4646C133.407 41.3487 133.495 41.151 133.495 40.8783V39.9443C133.481 40.1148 133.366 40.2443 133.149 40.3193C132.925 40.4011 132.647 40.442 132.315 40.442C131.915 40.442 131.603 40.4011 131.386 40.3261C131.163 40.2511 131.007 40.1284 130.919 39.958C130.824 39.7875 130.776 39.5557 130.776 39.2626V37.6809C130.776 37.2241 130.898 36.89 131.149 36.6923C131.4 36.4946 131.8 36.3923 132.369 36.3923C133.041 36.3923 133.434 36.5423 133.549 36.8491V36.4741H134.22V40.7283C134.22 41.0897 134.152 41.3692 134.024 41.5737C133.888 41.7783 133.691 41.9214 133.427 42.0032C133.163 42.0851 132.817 42.126 132.39 42.126C131.861 42.126 131.42 42.0987 131.054 42.0373L131.048 42.0441ZM133.264 39.8284C133.42 39.7398 133.495 39.5693 133.495 39.3171V37.5581C133.495 37.3809 133.468 37.2445 133.413 37.1559C133.359 37.0673 133.258 36.9991 133.108 36.9582C132.959 36.9173 132.742 36.8968 132.451 36.8968C132.18 36.8968 131.976 36.9173 131.841 36.9514C131.705 36.9923 131.61 37.0536 131.563 37.1491C131.515 37.2445 131.488 37.3809 131.488 37.5513V39.3103C131.488 39.4944 131.515 39.6307 131.57 39.7193C131.624 39.808 131.719 39.8761 131.854 39.9102C131.99 39.9443 132.2 39.9648 132.471 39.9648C132.851 39.9648 133.115 39.917 133.271 39.8284H133.264Z" fill="#450B3A"/>
<path d="M135.779 35.0767H136.498V35.8334H135.779V35.0767ZM135.779 36.4811H136.498V40.3671H135.779V36.4811Z" fill="#450B3A"/>
<path d="M138.403 36.9582H137.515V36.4878H138.403V35.8606C138.403 35.4379 138.518 35.1311 138.755 34.947C138.993 34.7629 139.352 34.6675 139.833 34.6675C140.016 34.6675 140.226 34.6811 140.477 34.7084V35.1788C140.274 35.1515 140.071 35.1379 139.854 35.1379C139.589 35.1379 139.399 35.1856 139.284 35.2811C139.169 35.3765 139.115 35.5538 139.115 35.806V36.481H140.403V36.9514H139.115V40.3602H138.396V36.9514L138.403 36.9582Z" fill="#450B3A"/>
<path d="M142.26 40.3397C142.077 40.2647 141.942 40.142 141.86 39.9715C141.779 39.8011 141.738 39.5557 141.738 39.2352V36.9581H140.877V36.4877H141.738V35.281H142.464V36.4877H143.847V36.9581H142.464V39.2761C142.464 39.467 142.484 39.6102 142.531 39.7125C142.579 39.8147 142.653 39.8761 142.769 39.917C142.884 39.9579 143.047 39.9784 143.27 39.9784C143.338 39.9784 143.528 39.9579 143.847 39.917V40.3874C143.575 40.4283 143.304 40.4488 143.04 40.4488C142.708 40.4488 142.45 40.4147 142.267 40.3397H142.26Z" fill="#450B3A"/>
<path d="M144.796 40.3534V39.8012C145.419 39.9034 145.867 39.9512 146.138 39.9512C146.477 39.9512 146.721 39.9171 146.87 39.8489C147.019 39.7807 147.094 39.658 147.094 39.4739V39.0785C147.094 38.9149 147.039 38.7922 146.924 38.724C146.816 38.6558 146.633 38.6217 146.382 38.6217H145.941C145.541 38.6217 145.236 38.5399 145.026 38.3763C144.816 38.2127 144.714 37.9809 144.714 37.6809V37.3196C144.714 36.7128 145.29 36.406 146.436 36.406C146.524 36.406 146.911 36.4265 147.609 36.4674V36.9923C147.134 36.9173 146.734 36.8832 146.402 36.8832C146.023 36.8832 145.765 36.9173 145.629 36.9923C145.494 37.0673 145.419 37.19 145.419 37.3673V37.6945C145.419 37.9536 145.657 38.09 146.131 38.09H146.578C147.392 38.09 147.799 38.3968 147.799 39.0035V39.3376C147.799 39.7398 147.663 40.0262 147.385 40.1898C147.107 40.3602 146.687 40.442 146.118 40.442C145.711 40.442 145.263 40.408 144.796 40.3466V40.3534Z" fill="#450B3A"/>
<path d="M81.7971 38.1445H59.4395V38.6559H81.7971V38.1445Z" fill="#450B3A"/>
<path d="M176 38.1445H153.263V38.6559H176V38.1445Z" fill="#450B3A"/>
<path d="M46.9998 12.0536L27.4623 0.709033C26.6624 0.245435 25.7472 0 24.8184 0C23.8897 0 22.9745 0.245435 22.1746 0.709033L2.64386 12.0536C1.01687 13.0012 0 14.7602 0 16.6555V39.3445C0 41.2398 1.01009 42.9988 2.64386 43.9464L22.1813 55.291C22.9813 55.7546 23.8965 56 24.8252 56C25.7539 56 26.6691 55.7546 27.4691 55.291L47.0065 43.9464C48.6335 42.9988 49.6504 41.2398 49.6504 39.3445V16.6555C49.6504 14.767 48.6403 13.0012 47.0065 12.0536H46.9998ZM23.3609 53.2389L3.81666 41.8943C2.91503 41.3694 2.35236 40.3945 2.35236 39.3445V16.6555C2.35236 15.6056 2.91503 14.6306 3.81666 14.1057L23.3609 2.76114C23.8016 2.50207 24.31 2.36572 24.8252 2.36572C25.3404 2.36572 25.8489 2.50207 26.2895 2.76114L45.827 14.1057C46.7286 14.6306 47.2913 15.6056 47.2913 16.6555V39.3445C47.2913 40.3945 46.7286 41.3694 45.827 41.8943L26.2895 53.2389C25.8489 53.4979 25.3404 53.6343 24.8252 53.6343C24.31 53.6343 23.8016 53.4979 23.3609 53.2389Z" fill="#450B3A"/>
<path d="M41.3324 15.3466L27.4622 7.29497C26.6623 6.83137 25.7471 6.58594 24.8184 6.58594C23.8896 6.58594 22.9744 6.83137 22.1745 7.29497L8.30439 15.3466C6.67739 16.2942 5.66052 18.0532 5.66052 19.9485V36.0585C5.66052 37.9538 6.67061 39.7128 8.30439 40.6604L22.1745 48.7121C22.9744 49.1757 23.8896 49.4211 24.8184 49.4211C25.7471 49.4211 26.6623 49.1757 27.4622 48.7121L41.3324 40.6604C42.9593 39.7128 43.9762 37.9538 43.9762 36.0585V19.9485C43.9762 18.06 42.9661 16.2942 41.3324 15.3466ZM23.3609 46.66L9.49074 38.6083C8.58911 38.0834 8.02644 37.1085 8.02644 36.0585V19.9485C8.02644 18.8986 8.58911 17.9237 9.49074 17.3987L23.3609 9.34708C23.8015 9.08801 24.3099 8.95165 24.8251 8.95165C25.3404 8.95165 25.8488 9.08801 26.2894 9.34708L40.1596 17.3987C41.0612 17.9237 41.6239 18.8986 41.6239 19.9485V36.0585C41.6239 37.1085 41.0612 38.0834 40.1596 38.6083L26.2894 46.66C25.8488 46.919 25.3404 47.0554 24.8251 47.0554C24.3099 47.0554 23.8015 46.919 23.3609 46.66Z" fill="#450B3A"/>
<path d="M34.96 23.5617C34.9532 22.6958 34.5397 22.2868 33.6855 22.28C32.3161 22.28 30.94 22.28 29.5706 22.28C29.496 22.28 29.3875 22.3481 29.3536 22.205C30.2824 21.3868 30.6213 20.4392 30.3502 19.3961C29.9095 17.719 27.7538 17.0713 26.3708 18.1962C25.6455 18.7893 25.2658 19.5938 25.0014 20.4665C24.954 20.6301 24.9608 20.821 24.8048 20.9642C24.5744 20.0029 24.249 19.1166 23.5575 18.4144C22.1881 17.0304 19.8086 17.5553 19.3409 19.362C19.0426 20.5074 19.4087 21.4618 20.3374 22.2186C20.2357 22.3209 20.1408 22.28 20.0594 22.28C18.7036 22.28 17.341 22.28 15.9852 22.28C15.1514 22.28 14.731 22.7027 14.7175 23.5344C14.7107 24.2707 14.7107 25.007 14.7175 25.7365C14.7243 26.3433 15.0768 26.8205 15.6056 26.875C15.9174 26.9091 15.931 27.0387 15.931 27.2909C15.931 30.3998 15.931 33.5018 15.931 36.6106C15.931 37.7219 16.5885 38.3832 17.7071 38.3832C22.4728 38.3832 27.2453 38.3832 32.0111 38.3832C33.1093 38.3832 33.7736 37.7082 33.7736 36.597C33.7736 33.9926 33.7736 31.3883 33.7736 28.784C33.7736 28.2454 33.7736 27.7 33.7736 27.1614C33.7736 27.0318 33.7601 26.9296 33.9499 26.8887C34.7024 26.7387 34.9668 26.4046 34.9736 25.641C34.9736 24.9456 34.9736 24.2503 34.9736 23.5549L34.96 23.5617ZM25.7743 20.9846C25.9437 20.2756 26.1946 19.6006 26.7166 19.0689C27.1911 18.5848 27.7741 18.4075 28.4385 18.5984C28.9808 18.7552 29.3604 19.0825 29.496 19.6484C29.6858 20.4256 29.313 21.23 28.5673 21.6186C27.9504 21.9391 27.2792 22.0141 26.5945 22.0073C25.5438 22.0073 25.5302 22.0073 25.781 20.9778L25.7743 20.9846ZM24.5676 23.1731H25.0963V26.0433H24.5676V23.1731ZM20.1544 19.7438C20.3171 18.6939 21.6593 18.1689 22.6084 18.7893C23.1575 19.1507 23.4626 19.6961 23.6863 20.296C23.8558 20.7528 23.9507 21.23 24.0456 21.7073C24.093 21.9186 24.0049 21.9459 23.8422 21.9595C23.5643 21.98 23.2795 22.0004 23.0016 22.0209C22.3576 22.0073 21.7271 21.9323 21.1373 21.6391C20.3781 21.2641 20.0256 20.5687 20.1544 19.737V19.7438ZM15.8767 26.0569C15.7344 26.0569 15.6191 25.941 15.6123 25.7979C15.5988 25.7365 15.592 25.6683 15.5988 25.5933C15.6123 25.2593 15.6123 24.9184 15.6123 24.5843V24.5502C15.6123 24.2162 15.6123 23.8821 15.5988 23.548C15.5988 23.289 15.6801 23.1799 15.9513 23.1799C18.5409 23.1799 21.1306 23.1867 23.7202 23.1799V26.0501L15.8699 26.0637L15.8767 26.0569ZM32.8788 36.7811C32.8788 37.1765 32.5602 37.4969 32.167 37.4969H17.5105C17.1173 37.4969 16.7987 37.1765 16.7987 36.7811V27.625C16.7987 27.2296 17.1173 26.9091 17.5105 26.9091H32.167C32.5602 26.9091 32.8788 27.2296 32.8788 27.625V36.7811ZM34.0651 24.6252C34.0651 24.9593 34.0651 25.2865 34.0787 25.6206C34.0855 25.9138 34.0041 26.0365 33.6923 26.0365C31.1094 26.0297 28.5266 26.0297 25.9437 26.0365V23.1662L33.8008 23.1526C33.9296 23.1526 34.038 23.2481 34.0516 23.3776C34.0719 23.439 34.0787 23.5139 34.0787 23.6094C34.0651 23.9435 34.0651 24.2707 34.0651 24.6048V24.6252Z" fill="#450B3A"/>
<path d="M31.8485 27.4683H17.836C17.5851 27.4683 17.3885 27.6728 17.3885 27.9182V36.4675C17.3885 36.7198 17.5919 36.9175 17.836 36.9175H31.8485C32.0993 36.9175 32.2959 36.713 32.2959 36.4675V27.9182C32.2959 27.666 32.0925 27.4683 31.8485 27.4683ZM23.605 31.477C23.7677 31.6611 23.9508 31.7838 24.0457 31.8384C24.1609 31.9065 24.2694 31.9474 24.3507 31.9747C24.4999 32.0088 24.6761 32.0429 24.8727 32.0565C25.0558 32.0702 25.2117 32.0633 25.354 32.0565C25.5303 32.0361 25.6862 31.9952 25.8354 31.927C25.9031 31.8997 25.9642 31.8656 26.0252 31.8247C26.4319 31.552 26.4794 30.9384 26.0726 30.6657C25.937 30.5771 25.7743 30.5226 25.6116 30.5226C25.5371 30.5226 25.4693 30.5294 25.3947 30.5498C25.2456 30.5907 25.1168 30.693 25.0354 30.8362C24.9541 30.9862 24.9337 31.1566 24.9812 31.3202C25.0219 31.4634 25.0964 31.5997 25.171 31.7429C25.1981 31.8043 25.232 31.8588 25.2591 31.9202C25.2591 31.9338 25.2727 31.9474 25.2862 31.9611C25.2659 31.9611 25.2524 31.9611 25.232 31.9611C25.171 31.9611 25.11 31.9611 25.0558 31.9611C24.9676 31.9611 24.8863 31.9611 24.7981 31.9543C24.7168 31.9543 24.6354 31.9543 24.5541 31.9338C24.5134 31.927 24.466 31.9202 24.4253 31.8997C24.3643 31.8724 24.3236 31.8179 24.3033 31.7566C24.2965 31.7293 24.2829 31.7088 24.2762 31.6816C24.2287 31.5452 24.2016 31.4089 24.188 31.2657C24.1745 31.1361 24.188 31.0066 24.2084 30.8771C24.2355 30.7475 24.2762 30.6248 24.3372 30.5157C24.3982 30.393 24.4795 30.2839 24.5677 30.1817C24.8253 29.8953 25.1778 29.7453 25.5777 29.7453C25.632 29.7453 25.6794 29.7453 25.7337 29.7522C25.9506 29.7726 26.1608 29.8408 26.3506 29.9499C27.3674 30.5157 27.4149 31.6406 26.676 32.2951C26.4997 32.4519 26.2963 32.5747 26.0455 32.6769C26.0048 32.6906 25.9913 32.7451 26.0252 32.7724C26.3099 33.086 26.5268 33.3723 26.6895 33.72C27.0963 34.5859 26.8048 35.4313 25.9438 35.8812C25.6659 36.0244 25.354 36.0994 25.0354 36.0994C24.2897 36.0994 23.6118 35.704 23.2661 35.0699C23.0762 34.7222 23.0491 34.3063 23.1983 33.9314C23.3271 33.5973 23.5847 33.3382 23.9033 33.2223C24.0185 33.1814 24.1406 33.161 24.2626 33.161C24.5066 33.161 24.7507 33.2496 24.9812 33.4269C25.1303 33.5428 25.1642 33.7541 25.0558 33.9246C24.988 34.0405 24.8592 34.1086 24.7236 34.1086C24.6761 34.1086 24.6287 34.1018 24.5812 34.0814C24.5338 34.0609 24.4931 34.0336 24.4524 34.0132C24.3778 33.9655 24.31 33.945 24.2423 33.945C24.0457 33.945 23.9101 34.1359 23.8897 34.32C23.8626 34.5245 23.9304 34.7154 24.0999 34.9199C24.3168 35.179 24.6693 35.329 25.0286 35.329C25.1642 35.329 25.2998 35.3085 25.4286 35.2676C25.9845 35.0836 26.2082 34.3882 25.8964 33.8836C25.7811 33.6928 25.632 33.5223 25.4828 33.3451C25.4354 33.2905 25.3879 33.2292 25.3405 33.1678C25.1574 32.9496 24.9676 32.8474 24.6422 32.8133C23.6796 32.711 22.9813 32.1861 22.6153 31.2998C22.2899 30.5226 22.5136 29.6226 23.1847 29.009C23.727 28.5182 24.3439 28.2659 25.0354 28.2659C25.11 28.2659 25.1778 28.2659 25.2524 28.2727C25.9845 28.3273 26.6014 28.6409 27.0827 29.1999C27.1708 29.3022 27.2115 29.4181 27.2047 29.534C27.198 29.6294 27.1505 29.7181 27.0692 29.7863C26.9946 29.8476 26.9065 29.8817 26.8251 29.8817C26.7166 29.8817 26.6217 29.834 26.5268 29.7385C26.1879 29.3908 25.7743 29.1181 25.293 29.0568C24.588 28.9681 23.9101 29.2477 23.4898 29.8067C23.1169 30.2976 23.1576 30.9657 23.5982 31.4634L23.605 31.477Z" fill="#450B3A"/>
</g>
<defs>
<clipPath id="clip0_1_320">
<rect width="176" height="56" fill="white"/>
</clipPath>
</defs>
</svg>
