<svg width="158" height="43" viewBox="0 0 158 43" fill="none" xmlns="http://www.w3.org/2000/svg">
<g clip-path="url(#clip0_1_277)">
<path d="M19.5667 15.2663C18.6229 14.4987 17.4295 13.9334 16.0206 13.5775C14.6596 13.2355 13.0354 13.061 11.1922 13.061C9.34909 13.061 7.72481 13.2355 6.36383 13.5775C4.95498 13.9299 3.76156 14.4987 2.81776 15.2663C1.85345 16.0515 1.13193 17.0564 0.67371 18.2568C0.229169 19.4187 0.003479 20.8215 0.003479 22.4266C0.003479 23.8224 0.201813 25.0995 0.59164 26.2196C0.998566 27.3851 1.6688 28.3865 2.58181 29.1996C3.48115 29.9986 4.66432 30.6197 6.09369 31.042C7.48544 31.4537 9.20205 31.6596 11.1956 31.6596C13.1892 31.6596 14.9059 31.4502 16.2976 31.042C17.727 30.6197 18.9067 29.9986 19.8061 29.1996C20.7191 28.3865 21.3893 27.3851 21.7962 26.2196C22.1861 25.0995 22.3878 23.8224 22.3878 22.4266C22.3878 20.825 22.1621 19.4222 21.7176 18.2568C21.2559 17.0564 20.5344 16.048 19.5735 15.2663H19.5667ZM17.8432 26.8058C17.5081 27.1897 17.0567 27.5316 16.4925 27.8282C15.9078 28.1353 15.1828 28.383 14.3314 28.5575C13.4662 28.739 12.4096 28.8297 11.1922 28.8297C9.97487 28.8297 8.92165 28.739 8.05308 28.5575C7.20162 28.3795 6.47667 28.1353 5.89193 27.8247C5.32771 27.5281 4.87291 27.1862 4.54121 26.8023C4.19926 26.4115 3.9257 25.9788 3.72736 25.5217C3.52561 25.0576 3.39225 24.5656 3.32386 24.0631C3.25205 23.5223 3.21443 22.971 3.21443 22.4231C3.21443 21.1949 3.36831 20.148 3.66923 19.3141C3.95989 18.515 4.39417 17.8834 5.00285 17.3844C5.62179 16.875 6.43564 16.4981 7.41363 16.2643C8.44975 16.0166 9.72182 15.8909 11.1922 15.8909C12.6626 15.8909 13.9176 16.0166 14.9606 16.2643C15.9488 16.5016 16.7627 16.8784 17.3816 17.3844C17.9903 17.8834 18.428 18.515 18.7152 19.3141C19.0161 20.1515 19.17 21.1983 19.17 22.4231C19.17 22.9675 19.1324 23.5188 19.0606 24.0631C18.9956 24.5656 18.8588 25.0576 18.6571 25.5217C18.4588 25.9788 18.1852 26.4115 17.8432 26.8023V26.8058Z" fill="#EE2C65"/>
<path d="M49.5663 7.08707C49.0465 6.90562 48.5541 6.75558 48.1095 6.64392C47.6582 6.52877 47.2273 6.43455 46.8341 6.36825C46.41 6.29498 45.9826 6.26008 45.5654 6.26008H44.3686C43.5308 6.26008 42.7614 6.38221 42.0809 6.62298C41.3594 6.87771 40.737 7.29644 40.2241 7.8687C39.7214 8.43049 39.3316 9.17374 39.0683 10.0705C38.8186 10.9289 38.6887 11.9862 38.6887 13.2075V13.8112H37.591C37.5226 13.8112 37.4679 13.8251 37.4064 13.8321C37.3414 13.8251 37.2833 13.8112 37.2115 13.8112H30.3245V13.204C30.3245 12.2305 30.3963 11.4419 30.5433 10.8591C30.6733 10.3357 30.8511 9.93792 31.0768 9.67621C31.2854 9.43544 31.5282 9.27842 31.8223 9.19816C32.195 9.09697 32.6259 9.04463 33.1012 9.04463C33.7338 9.04463 34.3938 9.09348 35.0606 9.1877C35.6966 9.27842 36.3668 9.44591 37.0542 9.69017C37.2525 9.78787 37.4884 9.83673 37.7552 9.83673C38.292 9.83673 38.6203 9.59945 38.8015 9.39706C39.1093 9.05859 39.1743 8.7236 39.1743 8.50377C39.1743 8.1967 39.058 7.4395 38.0048 7.08358C37.485 6.90213 36.9926 6.75209 36.5481 6.64043C36.0967 6.52528 35.6658 6.43106 35.2726 6.36476C34.8486 6.29149 34.4211 6.25659 34.0039 6.25659H32.8071C31.9693 6.25659 31.1999 6.37872 30.5194 6.61949C29.7979 6.87422 29.1755 7.29295 28.6626 7.86521C28.1599 8.42701 27.7701 9.17025 27.5068 10.067C27.2572 10.9254 27.1272 11.9827 27.1272 13.204V13.8077H26.0296C25.5132 13.8077 25.1986 14.031 25.0276 14.2159C24.7951 14.4672 24.6754 14.7742 24.6754 15.1022C24.6754 15.4303 24.7985 15.7373 25.0276 15.9886C25.1986 16.1735 25.5098 16.3968 26.0296 16.3968H27.1067V29.6112C27.1067 29.8869 27.1067 30.7208 27.7256 31.1326C28.0334 31.3385 28.3651 31.4432 28.7139 31.4432C29.1174 31.4432 29.473 31.3315 29.7671 31.1082C30.3211 30.6929 30.3211 29.8799 30.3211 29.6112V16.3968H37.208C37.2798 16.3968 37.338 16.3863 37.403 16.3759C37.4645 16.3829 37.5192 16.3968 37.5876 16.3968H38.6648V29.6112C38.6648 29.8869 38.6648 30.7208 39.2837 31.1326C39.5915 31.3385 39.9232 31.4432 40.2719 31.4432C40.6755 31.4432 41.0311 31.3315 41.3252 31.1082C41.8791 30.6929 41.8791 29.8799 41.8791 29.6112V16.3968H48.7661C49.2585 16.3968 49.5731 16.1944 49.7543 16.0234C50.0929 15.6989 50.1647 15.343 50.1647 15.0988C50.1647 14.7603 50.0313 14.4462 49.7817 14.1915C49.6073 14.0135 49.2893 13.8007 48.7661 13.8007H41.8791V13.1935C41.8791 12.22 41.9509 11.4314 42.098 10.8487C42.2279 10.3252 42.4057 9.92745 42.6314 9.66575C42.84 9.42498 43.0828 9.26795 43.3769 9.1877C43.7496 9.0865 44.1805 9.03416 44.6558 9.03416C45.2884 9.03416 45.9484 9.08301 46.6152 9.17723C47.2512 9.26795 47.9215 9.43544 48.6088 9.6797C48.8071 9.77741 49.0431 9.82626 49.3098 9.82626C49.8467 9.82626 50.1749 9.58898 50.3562 9.38659C50.6639 9.04812 50.7289 8.71314 50.7289 8.4933C50.7289 8.18624 50.6126 7.42903 49.5594 7.07311L49.5663 7.08707Z" fill="#EE2C65"/>
<path d="M54.4768 7.49885C53.9501 7.49885 53.4817 7.69426 53.1295 8.06762C52.7807 8.43401 52.5994 8.90857 52.5994 9.43547C52.5994 9.96237 52.7943 10.4544 53.1568 10.7998C53.5056 11.1348 53.9638 11.3093 54.4768 11.3093C54.9897 11.3093 55.4376 11.1383 55.8001 10.8173C56.1899 10.4683 56.3985 9.99029 56.3985 9.43547C56.3985 8.88066 56.2002 8.41657 55.8275 8.04669C55.4616 7.68728 54.9931 7.49536 54.4768 7.49536V7.49885Z" fill="#EE2C65"/>
<path d="M54.5212 13.4902C53.5159 13.4902 53.1739 14.1079 53.0713 14.3765C52.938 14.722 52.873 15.1268 52.873 15.5804V29.3182C52.873 29.8242 52.9277 30.2324 53.044 30.5639C53.1363 30.8291 53.4612 31.4502 54.4802 31.4502C54.8392 31.4502 55.1299 31.3769 55.3693 31.2234C55.6155 31.0664 55.8035 30.8396 55.913 30.5674C55.9916 30.372 56.0429 30.1522 56.06 29.9114C56.0771 29.7265 56.0839 29.5276 56.0839 29.3182V15.535C56.0839 15.1163 56.0224 14.7325 55.9027 14.3905C55.807 14.1183 55.4787 13.4902 54.5212 13.4902Z" fill="#EE2C65"/>
<path d="M78.841 21.6833C77.928 21.3553 76.8782 21.132 75.7224 21.0168C74.6042 20.9086 73.4518 20.8528 72.2926 20.8528H68.938C67.8985 20.8528 66.9615 20.7656 66.1579 20.5981C65.4125 20.4411 64.814 20.1968 64.3797 19.8723C64.0515 19.628 63.9079 19.3035 63.9079 18.822C63.9079 18.3055 64.048 17.8938 64.3387 17.5693C64.6772 17.1889 65.1423 16.8749 65.7236 16.6341C66.3562 16.3759 67.0949 16.1875 67.9224 16.0723C68.7807 15.9537 69.6766 15.8944 70.5862 15.8944C72.3917 15.8944 74.0365 16.0723 75.4727 16.4178C76.885 16.7597 78.1673 17.2203 79.2855 17.7926C79.4428 17.8973 79.6309 17.9496 79.8566 17.9496C80.2293 17.9496 80.5747 17.7682 80.8346 17.4402C81.0534 17.161 81.1697 16.8191 81.1697 16.4596V16.4108L81.1629 16.3619C81.1389 16.1665 81.0842 15.9746 81.0021 15.7967C80.879 15.528 80.6636 15.3116 80.3798 15.1686C78.9641 14.4079 77.4082 13.86 75.7634 13.539C74.1425 13.225 72.3746 13.0645 70.5041 13.0645C69.3586 13.0645 68.2165 13.1412 67.112 13.2878C65.9698 13.4413 64.9269 13.724 64.0139 14.1252C63.053 14.5475 62.2631 15.1302 61.6646 15.8595C61.0218 16.6376 60.6969 17.6321 60.6969 18.815C60.6969 19.9979 61.032 20.9435 61.6988 21.6484C62.3075 22.2939 63.1111 22.7929 64.0822 23.1279C64.9987 23.442 66.0451 23.6548 67.2009 23.7525C68.3122 23.8467 69.4646 23.8956 70.6204 23.8956H73.975C75.0145 23.8956 75.9446 23.9863 76.7448 24.1678C77.4869 24.3352 78.0853 24.5935 78.5161 24.9354C78.8513 25.2006 79.0051 25.567 79.0051 26.0834C79.0051 26.5475 78.8684 26.8965 78.5709 27.1896C78.205 27.5455 77.6954 27.8421 77.056 28.0689C76.3652 28.3132 75.5548 28.4911 74.6452 28.5888C73.7048 28.6935 72.7132 28.7459 71.6976 28.7459H69.1398C68.3669 28.7459 67.6181 28.6761 66.9136 28.5365C66.2058 28.4004 65.5287 28.2015 64.8961 27.9538C64.2977 27.72 63.73 27.4059 63.2068 27.0291C63.0564 26.8965 62.8204 26.7674 62.4716 26.7674C62.0818 26.7674 61.7262 26.9488 61.48 27.2768C61.2714 27.549 61.1585 27.8875 61.1585 28.2469C61.1585 28.7005 61.3671 29.1192 61.7399 29.4228C62.4067 29.9706 63.1932 30.4068 64.0788 30.7174C64.92 31.014 65.8125 31.2373 66.729 31.3804C67.6386 31.5234 68.5584 31.5967 69.468 31.5967H71.913C73.1748 31.5967 74.4127 31.5095 75.5959 31.342C76.8098 31.1675 77.8972 30.8849 78.8307 30.4941C79.8156 30.0858 80.6226 29.5275 81.2313 28.8366C81.8912 28.0899 82.2263 27.1652 82.2263 26.0939C82.2263 24.918 81.8947 23.9514 81.2381 23.2256C80.6294 22.5522 79.8258 22.0322 78.8513 21.6798L78.841 21.6833Z" fill="#EE2C65"/>
<path d="M97.9562 27.2942C97.6827 27.2942 97.4023 27.364 97.1116 27.5141C96.308 27.9502 95.5933 28.2887 94.9846 28.519C94.4307 28.7284 93.8562 28.8331 93.2817 28.8331C92.7996 28.8331 92.3448 28.7807 91.9242 28.6726C91.5754 28.5853 91.2779 28.4178 91.018 28.1561C90.7513 27.8909 90.529 27.4896 90.3614 26.9697C90.1802 26.4079 90.0844 25.6437 90.0844 24.6911V16.4003H96.2807C96.8038 16.4003 97.1219 16.1874 97.2963 16.0095C97.5459 15.7548 97.6792 15.4407 97.6792 15.1022C97.6792 14.7638 97.5459 14.4497 97.2963 14.195C97.1219 14.017 96.8038 13.8042 96.2807 13.8042H90.0844V9.25748C90.0844 8.99228 90.0844 8.17925 89.5305 7.76052C89.2364 7.5372 88.8808 7.42554 88.4773 7.42554C88.1285 7.42554 87.7968 7.53022 87.4924 7.73609C86.8735 8.15133 86.8735 8.9853 86.8735 9.25748V13.8042H85.7963C85.28 13.8042 84.9654 14.0275 84.7944 14.2124C84.5619 14.4637 84.4422 14.7707 84.4422 15.0987C84.4422 15.4268 84.5653 15.7338 84.7944 15.9851C84.9654 16.17 85.2766 16.3933 85.7963 16.3933H86.8735V24.6842C86.8735 25.9229 87.024 26.9941 87.3249 27.863C87.6361 28.7668 88.0806 29.51 88.6482 30.0718C89.2125 30.6301 89.8861 31.0419 90.6452 31.2931C91.3668 31.5304 92.1567 31.6525 92.9876 31.6525C93.4219 31.6525 93.8391 31.6281 94.2289 31.5827C94.6359 31.5339 95.0565 31.4466 95.4771 31.321C95.8942 31.1989 96.3456 31.0279 96.8244 30.8185C97.3031 30.6092 97.8536 30.33 98.4521 29.995C99.2009 29.5763 99.3138 28.9552 99.3138 28.6237C99.3138 28.2573 99.1804 27.9293 98.9308 27.6711C98.7564 27.4931 98.4452 27.2838 97.9597 27.2838L97.9562 27.2942Z" fill="#EE2C65"/>
<path d="M120.108 15.2663C119.164 14.4987 117.971 13.9334 116.562 13.5775C115.201 13.2355 113.577 13.061 111.734 13.061C109.89 13.061 108.266 13.2355 106.905 13.5775C105.496 13.9299 104.303 14.4987 103.359 15.2663C102.395 16.0515 101.673 17.0564 101.215 18.2568C100.771 19.4187 100.545 20.8215 100.545 22.4266C100.545 23.8224 100.743 25.0995 101.133 26.2196C101.54 27.3851 102.21 28.3865 103.123 29.1996C104.023 29.9986 105.206 30.6197 106.632 31.042C108.023 31.4537 109.74 31.6596 111.734 31.6596C113.727 31.6596 115.444 31.4502 116.832 31.042C118.261 30.6197 119.445 29.9986 120.341 29.1996C121.254 28.3865 121.924 27.3851 122.331 26.2196C122.721 25.0995 122.919 23.8224 122.919 22.4266C122.919 20.825 122.693 19.4222 122.249 18.2568C121.787 17.0564 121.066 16.048 120.105 15.2663H120.108ZM118.385 26.8058C118.049 27.1897 117.598 27.5316 117.034 27.8282C116.449 28.1353 115.724 28.383 114.873 28.5575C114.004 28.739 112.951 28.8297 111.734 28.8297C110.516 28.8297 109.463 28.739 108.594 28.5575C107.743 28.3795 107.018 28.1353 106.433 27.8247C105.869 27.5281 105.418 27.1862 105.083 26.8023C104.741 26.4115 104.467 25.9788 104.269 25.5217C104.067 25.0576 103.93 24.5656 103.865 24.0631C103.793 23.5223 103.756 22.971 103.756 22.4231C103.756 21.1949 103.91 20.148 104.214 19.3141C104.501 18.515 104.939 17.8834 105.548 17.3844C106.167 16.875 106.98 16.4981 107.958 16.2643C108.995 16.0166 110.267 15.8909 111.737 15.8909C113.207 15.8909 114.462 16.0166 115.505 16.2643C116.494 16.5016 117.307 16.8784 117.926 17.3844C118.535 17.8834 118.973 18.515 119.26 19.3141C119.564 20.1515 119.718 21.1983 119.718 22.4231C119.718 22.9675 119.681 23.5188 119.609 24.0631C119.544 24.5656 119.407 25.0576 119.205 25.5217C119.007 25.9788 118.733 26.4115 118.391 26.8023L118.385 26.8058Z" fill="#EE2C65"/>
<path d="M141.422 14.2055C141.251 13.9089 140.977 13.703 140.636 13.6053C140.437 13.546 140.229 13.4902 140.013 13.4308C139.784 13.368 139.521 13.3122 139.216 13.2564C138.916 13.2005 138.567 13.1587 138.156 13.1203C137.749 13.0819 137.264 13.0645 136.713 13.0645C136.163 13.0645 135.469 13.1168 134.72 13.2215C133.94 13.3296 133.174 13.546 132.439 13.8635C131.728 14.1706 131.071 14.6033 130.483 15.1546C130.459 14.8441 130.401 14.5684 130.302 14.3241C130.09 13.7972 129.614 13.4937 128.992 13.4937C128.045 13.4937 127.665 13.9926 127.525 14.2892C127.361 14.6312 127.279 15.029 127.279 15.4756V29.1716C127.279 29.3774 127.286 29.5833 127.303 29.7787C127.323 30.0335 127.375 30.2742 127.46 30.4871C127.573 30.7732 127.751 31.007 127.99 31.178C128.24 31.3594 128.547 31.4502 128.907 31.4502C129.587 31.4502 130.11 31.0698 130.309 30.4347C130.432 30.0439 130.493 29.6182 130.493 29.1716V19.4571C130.681 18.9092 130.958 18.4242 131.31 18.0159C131.697 17.5658 132.159 17.1924 132.682 16.9028C133.222 16.6027 133.841 16.3794 134.511 16.2293C135.205 16.0793 135.944 15.999 136.71 15.999C137.254 15.999 137.756 16.0374 138.208 16.1177C138.68 16.1979 139.179 16.3166 139.688 16.4631L139.781 16.4841C139.911 16.5294 140.037 16.5329 140.15 16.5329C140.622 16.5329 141.029 16.341 141.292 15.9921C141.514 15.699 141.631 15.357 141.631 15.0011C141.631 14.7184 141.559 14.4497 141.419 14.2055H141.422Z" fill="#EE2C65"/>
<path d="M143.857 0.05932C143.737 0.0209365 143.604 0 143.464 0H134.925C134.788 0 134.662 0.0174471 134.542 0.0523411C134.357 0.108172 134.193 0.209365 134.067 0.35243C133.95 0.481539 133.817 0.704861 133.817 1.04682C133.817 1.48998 134.077 1.85637 134.477 1.9785C134.621 2.02037 134.778 2.0413 134.956 2.0413H138.126V8.24547C138.126 8.47927 138.163 8.6991 138.235 8.89102C138.389 9.30277 138.755 9.56098 139.196 9.56098C139.497 9.56098 139.702 9.45281 139.818 9.36209C139.965 9.25043 140.078 9.10387 140.153 8.92591C140.208 8.7968 140.242 8.65723 140.253 8.50718C140.259 8.42692 140.263 8.33969 140.263 8.24547V2.0413H143.426C143.614 2.0413 143.775 2.01688 143.918 1.97152C144.301 1.8459 144.544 1.483 144.544 1.04682C144.544 0.732776 144.431 0.519922 144.339 0.397793C144.216 0.23728 144.052 0.122129 143.86 0.05932H143.857Z" fill="#EE2C65"/>
<path d="M157.74 0.401282C157.535 0.143066 157.244 0 156.923 0C156.704 0 156.492 0.0662988 156.294 0.195407C156.126 0.303579 155.982 0.457113 155.856 0.656009L152.136 6.36468L148.405 0.645541C148.271 0.450134 148.131 0.303579 147.967 0.195407C147.769 0.0662988 147.56 0 147.348 0C147.023 0 146.733 0.143066 146.531 0.401282C146.36 0.614136 146.274 0.879331 146.274 1.16895V8.27339C146.274 8.49671 146.305 8.70259 146.363 8.88055C146.504 9.29928 146.88 9.55749 147.341 9.55749C147.765 9.55749 148.128 9.31673 148.285 8.9294C148.364 8.73748 148.405 8.51416 148.405 8.27339V4.45249L151.147 8.58395C151.479 9.10736 151.91 9.18413 152.136 9.18413C152.399 9.18413 152.778 9.08293 153.114 8.59442L155.866 4.449V8.2699C155.866 8.51067 155.907 8.7305 155.982 8.92591C156.14 9.31673 156.502 9.55749 156.926 9.55749C157.391 9.55749 157.767 9.29928 157.904 8.88055C157.966 8.70259 157.993 8.49671 157.993 8.27339V1.17244C157.993 0.882821 157.904 0.617626 157.737 0.404772L157.74 0.401282Z" fill="#EE2C65"/>
<path d="M24.1146 39.6084H23.1366V42.9512H22.1757V39.6084H21.6115V38.8616H22.1757V38.5022C22.1757 37.5217 22.4048 37.1064 23.4581 37.1064H24.0838V37.8532H23.7932C23.1366 37.8288 23.1366 38.1009 23.1366 38.6104V38.8581H24.1146V39.6049V39.6084Z" fill="#EE2C65"/>
<path d="M28.9567 40.9098C28.9567 42.4905 28.7447 42.9965 27.0725 42.9965C25.4004 42.9965 25.1884 42.4905 25.1884 40.9098C25.1884 39.3291 25.4004 38.8162 27.0725 38.8162C28.7447 38.8162 28.9567 39.3221 28.9567 40.9098ZM26.1458 40.9203C26.1458 42.009 26.2142 42.2532 27.0691 42.2532C27.924 42.2532 27.9924 42.0125 27.9924 40.9203C27.9924 39.8281 27.924 39.5664 27.0691 39.5664C26.2142 39.5664 26.1458 39.8141 26.1458 40.9203Z" fill="#EE2C65"/>
<path d="M31.323 38.8615L31.2991 39.3989H31.3367C31.5282 38.9488 31.9385 38.8162 32.4036 38.8162C33.2516 38.8162 33.4568 39.3291 33.4568 40.1003V40.4283H32.5575V40.2189C32.5575 39.8072 32.5198 39.5629 32.0685 39.5629C31.4974 39.5629 31.3264 39.8979 31.3435 40.4283V42.9511H30.3826V38.8615H31.323Z" fill="#EE2C65"/>
<path d="M41.7424 40.9098C41.7424 42.4905 41.5304 42.9965 39.8582 42.9965C38.186 42.9965 37.974 42.4905 37.974 40.9098C37.974 39.3291 38.186 38.8162 39.8582 38.8162C41.5304 38.8162 41.7424 39.3221 41.7424 40.9098ZM38.9349 40.9203C38.9349 42.009 39.0033 42.2532 39.8582 42.2532C40.7131 42.2532 40.7815 42.0125 40.7815 40.9203C40.7815 39.8281 40.7131 39.5664 39.8582 39.5664C39.0033 39.5664 38.9349 39.8141 38.9349 40.9203Z" fill="#EE2C65"/>
<path d="M45.3773 39.6084H44.3994V42.9512H43.4385V39.6084H42.8742V38.8616H43.4385V38.5022C43.4385 37.5217 43.6676 37.1064 44.7208 37.1064H45.3466V37.8532H45.0559C44.3994 37.8288 44.3994 38.1009 44.3994 38.6104V38.8581H45.3773V39.6049V39.6084Z" fill="#EE2C65"/>
<path d="M48.7764 37.8567H48.4857C47.8292 37.8322 47.8292 38.1044 47.8292 38.6139V38.8616H48.8071V39.6084H47.8292V42.9512H46.8683V39.6084H46.304V38.8616H46.8683V38.5022C46.8683 37.5217 47.0974 37.1064 48.1506 37.1064H48.7764V37.8532V37.8567ZM50.2263 37.9439H49.2654V37.1099H50.2263V37.9439ZM50.2263 42.9512H49.2654V38.8616H50.2263V42.9512Z" fill="#EE2C65"/>
<path d="M55.3111 41.395C55.3111 42.7349 54.8392 43.0001 53.4851 43.0001C52.0113 43.0001 51.6898 42.564 51.6898 40.9135C51.6898 39.4793 51.9121 38.8198 53.4851 38.8198C54.6751 38.8198 55.3111 39.0083 55.3111 40.2993H54.3502C54.3502 39.6747 54.1587 39.5666 53.4885 39.5666C52.6644 39.5666 52.6576 39.8632 52.6576 40.9135C52.6576 41.9638 52.6439 42.2534 53.4885 42.2534C54.275 42.2534 54.3502 42.1138 54.3502 41.395H55.3111Z" fill="#EE2C65"/>
<path d="M60.2729 41.6496C60.2729 42.9337 59.5479 42.9965 58.4024 42.9965C56.867 42.9965 56.5558 42.4976 56.5558 40.9169C56.5558 39.4513 56.7849 38.8127 58.4024 38.8127C60.0198 38.8127 60.2729 39.3047 60.2729 41.0878H57.5167C57.5167 41.9672 57.5406 42.2498 58.4024 42.2498C58.9358 42.2498 59.312 42.2568 59.312 41.6496H60.2729ZM59.312 40.4667C59.312 39.6258 59.1889 39.563 58.4024 39.563C57.5714 39.563 57.5167 39.7409 57.5167 40.4667H59.312Z" fill="#EE2C65"/>
<path d="M68.6166 41.395C68.6166 42.7349 68.1447 43.0001 66.7905 43.0001C65.3167 43.0001 64.9953 42.564 64.9953 40.9135C64.9953 39.4793 65.2175 38.8198 66.7905 38.8198C67.9805 38.8198 68.6166 39.0083 68.6166 40.2993H67.6557C67.6557 39.6747 67.4642 39.5666 66.7939 39.5666C65.9698 39.5666 65.963 39.8632 65.963 40.9135C65.963 41.9638 65.9493 42.2534 66.7939 42.2534C67.5804 42.2534 67.6557 42.1138 67.6557 41.395H68.6166Z" fill="#EE2C65"/>
<path d="M73.6467 40.9098C73.6467 42.4905 73.4347 42.9965 71.7625 42.9965C70.0904 42.9965 69.8784 42.4905 69.8784 40.9098C69.8784 39.3291 70.0904 38.8162 71.7625 38.8162C73.4347 38.8162 73.6467 39.3221 73.6467 40.9098ZM70.8392 40.9203C70.8392 42.009 70.9076 42.2532 71.7625 42.2532C72.6174 42.2532 72.6858 42.0125 72.6858 40.9203C72.6858 39.8281 72.6174 39.5664 71.7625 39.5664C70.9076 39.5664 70.8392 39.8141 70.8392 40.9203Z" fill="#EE2C65"/>
<path d="M76.1054 38.8616V39.4757H76.1361C76.3481 38.8756 76.8303 38.8127 77.3945 38.8127C78.4477 38.8127 78.7692 39.2559 78.7692 40.2539V42.9477H77.8083V40.3551C77.8083 39.7619 77.6784 39.5595 77.0594 39.5595C76.2182 39.5595 76.1054 39.9642 76.1054 40.697V42.9477H75.1445V38.8581H76.1054V38.8616Z" fill="#EE2C65"/>
<path d="M82.8316 39.9746C82.8316 39.4826 82.5786 39.4826 82.069 39.4826C81.5595 39.4826 81.2073 39.4826 81.2073 40.02C81.2073 40.4248 81.3133 40.4422 82.1545 40.4806C83.1017 40.526 83.9395 40.4562 83.9395 41.7822C83.9395 42.8883 83.0847 42.9965 82.069 42.9965C80.9782 42.9965 80.2464 42.9965 80.2464 41.6635H81.2073C81.221 42.2567 81.3612 42.3265 82.069 42.3265C82.6401 42.3265 82.9786 42.3405 82.9786 41.7822C82.9786 41.4228 82.9547 41.2448 81.987 41.2308C80.5132 41.2064 80.2464 41.004 80.2464 39.9607C80.2464 38.8406 81.0398 38.8162 82.069 38.8162C82.8555 38.8162 83.7959 38.8301 83.7959 39.9781H82.835L82.8316 39.9746Z" fill="#EE2C65"/>
<path d="M87.978 42.9512V42.3196H87.9472C87.725 42.8639 87.2291 42.9965 86.6786 42.9965C85.8784 42.9965 85.3416 42.7174 85.3347 41.8206V38.8616H86.2956V41.4402C86.2956 42.023 86.3503 42.2498 86.9658 42.2498C87.7079 42.2498 87.9438 41.9288 87.9438 41.2204V38.8616H88.9047V42.9512H87.9746H87.978Z" fill="#EE2C65"/>
<path d="M91.4899 38.8615V39.4547H91.5206C91.7327 38.9313 92.2764 38.8162 92.779 38.8162C93.2817 38.8162 93.863 38.9488 93.969 39.542H93.9998C94.1845 38.9732 94.7316 38.8162 95.2685 38.8162C96.308 38.8162 96.65 39.1826 96.65 40.1875V42.9511H95.6891V40.2782C95.6651 39.7653 95.5454 39.5629 95.0188 39.5629C94.2392 39.5629 94.0887 39.9223 94.0887 40.6446V42.9511H93.1278V40.2782C93.1039 39.7653 92.9842 39.5629 92.4576 39.5629C91.6779 39.5629 91.5275 39.9223 91.5275 40.6446V42.9511H90.5666V38.8615H91.4967H91.4899Z" fill="#EE2C65"/>
<path d="M100.911 42.4382H100.887C100.695 42.9825 100.107 43 99.6421 43C98.7325 43 98.1443 42.8046 98.1443 41.6984C98.1443 40.7179 98.647 40.4457 99.6421 40.4457C100.131 40.4457 100.613 40.4527 100.839 40.9133H100.87V40.3829C100.87 39.7199 100.815 39.4861 100.015 39.4861C99.5942 39.4861 99.2591 39.5245 99.2591 40.0549H98.2982C98.2982 38.8615 99.0984 38.8162 100.015 38.8162C101.297 38.8162 101.831 39.0185 101.831 40.3899V42.9511H100.87L100.907 42.4382H100.911ZM99.1086 41.6984C99.1086 42.2742 99.3377 42.33 99.9874 42.33C100.5 42.33 100.873 42.2846 100.873 41.6984C100.873 41.1122 100.459 41.1157 99.9874 41.1157C99.5155 41.1157 99.1086 41.1157 99.1086 41.6984Z" fill="#EE2C65"/>
<path d="M103.445 37.1099H104.406V39.4094H104.443C104.648 38.9104 105.161 38.8162 105.65 38.8162C107.025 38.8162 107.186 39.5873 107.186 40.7877C107.186 41.9881 107.141 43 105.65 43C105.086 43 104.641 42.8744 104.399 42.337H104.368L104.406 42.9511H103.445V37.1099ZM104.409 40.7877C104.409 41.7612 104.385 42.2533 105.37 42.2533C106.249 42.2533 106.225 41.7159 106.225 40.7877C106.225 39.7583 106.033 39.5664 105.37 39.5664C104.539 39.5664 104.409 39.9153 104.409 40.7877Z" fill="#EE2C65"/>
<path d="M109.668 42.9511H108.707V37.1099H109.668V42.9511Z" fill="#EE2C65"/>
<path d="M114.876 41.6496C114.876 42.9337 114.151 42.9965 113.006 42.9965C111.47 42.9965 111.159 42.4976 111.159 40.9169C111.159 39.4513 111.388 38.8127 113.006 38.8127C114.623 38.8127 114.876 39.3047 114.876 41.0878H112.12C112.12 41.9672 112.144 42.2498 113.006 42.2498C113.539 42.2498 113.915 42.2568 113.915 41.6496H114.876ZM113.912 40.4667C113.912 39.6258 113.789 39.563 113.002 39.563C112.171 39.563 112.117 39.7409 112.117 40.4667H113.912Z" fill="#EE2C65"/>
<path d="M118.785 39.9746C118.785 39.4826 118.532 39.4826 118.022 39.4826C117.513 39.4826 117.16 39.4826 117.16 40.02C117.16 40.4248 117.266 40.4422 118.108 40.4806C119.055 40.526 119.893 40.4562 119.893 41.7822C119.893 42.8883 119.038 42.9965 118.022 42.9965C116.931 42.9965 116.199 42.9965 116.199 41.6635H117.16C117.174 42.2567 117.314 42.3265 118.022 42.3265C118.593 42.3265 118.932 42.3405 118.932 41.7822C118.932 41.4228 118.908 41.2448 117.94 41.2308C116.466 41.2064 116.199 41.004 116.199 39.9607C116.199 38.8406 116.993 38.8162 118.022 38.8162C118.809 38.8162 119.749 38.8301 119.749 39.9781H118.788L118.785 39.9746Z" fill="#EE2C65"/>
</g>
<defs>
<clipPath id="clip0_1_277">
<rect width="158" height="43" fill="white"/>
</clipPath>
</defs>
</svg>
