<svg width="25" height="25" viewBox="0 0 25 25" fill="none" xmlns="http://www.w3.org/2000/svg">
<g clip-path="url(#clip0_96_1696)">
<path d="M11.0975 0.0622139C20.5571 -0.85559 27.6337 8.38635 24.0548 17.2551C20.3251 26.4956 7.59395 27.7575 2.08139 19.4668C-3.06298 11.7294 1.85092 0.959687 11.0975 0.0622139ZM11.2424 2.09678C5.04858 2.7343 0.850746 8.99774 2.32781 15.0085C4.57603 24.1604 16.9999 25.9074 21.5891 17.6893C25.8044 10.1421 19.7961 1.21383 11.2424 2.09532V2.09678Z" fill="#E7AE22"/>
<path d="M10.1643 16.9605L5.55048 12.2161C5.20404 11.2344 5.94475 10.4952 6.92173 10.8423L11.0355 14.8228L18.3092 7.71567C19.1325 7.5719 19.8834 8.49116 19.3964 9.25067L11.4979 17.1638C11.0572 17.479 10.518 17.2771 10.1629 16.9605H10.1643Z" fill="#E7AE22"/>
</g>
<defs>
<clipPath id="clip0_96_1696">
<rect width="25" height="25" fill="white"/>
</clipPath>
</defs>
</svg>
