<svg width="25" height="25" viewBox="0 0 25 25" fill="none" xmlns="http://www.w3.org/2000/svg">
<g clip-path="url(#clip0_96_356)">
<path d="M11.0977 0.0620918C20.5573 -0.855713 27.6339 8.38623 24.055 17.2549C20.3254 26.4954 7.59419 27.7574 2.08164 19.4667C-3.06273 11.7292 1.85116 0.959565 11.0977 0.0620918ZM11.2427 2.09665C5.04882 2.73418 0.85099 8.99761 2.32806 15.0084C4.57628 24.1603 17.0002 25.9073 21.5894 17.6892C25.8046 10.142 19.7963 1.2137 11.2427 2.0952V2.09665Z" fill="#EE2C65"/>
<path d="M10.1641 16.9605L5.55023 12.2161C5.2038 11.2344 5.9445 10.4952 6.92148 10.8423L11.0352 14.8228L18.309 7.71567C19.1323 7.5719 19.8832 8.49116 19.3961 9.25067L11.4976 17.1638C11.057 17.479 10.5178 17.2771 10.1626 16.9605H10.1641Z" fill="#EE2C65"/>
</g>
<defs>
<clipPath id="clip0_96_356">
<rect width="25" height="25" fill="white"/>
</clipPath>
</defs>
</svg>
