<svg width="481" height="344" viewBox="0 0 481 344" fill="none" xmlns="http://www.w3.org/2000/svg">
<g opacity="0.15">
<path d="M102.26 109.869C107.268 101.165 112.444 91.8729 112.275 81.8237C112.233 79.1327 111.686 76.2735 109.835 74.3814C107.941 72.4892 104.406 72.0688 102.723 74.1711C101.923 75.1803 101.713 76.4837 101.46 77.7031C100.787 81.0248 99.7771 84.2624 98.4304 87.3739C97.8413 88.7194 97.168 90.0649 95.9476 90.9059C93.6751 92.4196 90.6452 91.4104 87.994 90.6956C82.7758 89.266 77.221 89.224 71.9607 90.5274C69.7724 91.0741 67.4158 92.0832 66.6583 94.1855C65.9009 96.372 67.2054 98.7266 68.8466 100.366C71.7503 103.268 75.8744 104.445 79.6197 106.127C83.5333 107.893 90.7715 108.355 102.218 109.911" fill="#C6C3C1"/>
<path d="M101.25 109.322C101.25 109.322 102.092 107.304 103.691 103.94C105.248 100.535 107.562 95.7832 109.372 89.9387C110.256 87.0374 110.929 83.6316 110.592 80.2678C110.382 78.628 109.835 76.9461 108.657 76.1052C107.562 75.2642 106.174 75.5586 105.542 75.8529C105.206 76.0631 105.29 76.0631 105.122 76.1893C104.911 76.3575 104.617 77.0302 104.322 78.0394C103.649 80.1417 103.06 82.2441 102.302 84.3464C101.46 86.4908 100.871 88.3409 99.3564 90.7376C98.5568 91.9569 97.2943 93.0502 95.6531 93.5127C94.0961 93.9752 92.6653 93.765 91.4449 93.5127C89.0462 92.924 87.1104 91.9569 85.1326 91.7467C83.1126 91.4524 81.0506 92.1251 79.1148 92.2513C77.179 92.4615 75.2432 92.4194 73.3495 92.7558C71.4558 93.0502 69.8146 93.5547 69.0571 94.3536C68.3838 94.8582 68.2155 96.2457 69.0571 97.5071C69.8146 98.8106 71.0771 99.9459 72.5921 100.619C74.107 101.291 75.7482 101.712 77.3894 102.174C79.0306 102.637 80.7139 103.562 81.8922 103.982C84.4172 104.865 87.4471 105.412 89.9299 105.917C92.497 106.421 94.7273 106.884 96.5789 107.262C100.282 108.103 102.386 108.734 102.386 108.734C103.018 108.902 103.354 109.575 103.186 110.163C103.06 110.668 102.555 111.004 102.05 111.004C102.05 111.004 99.9034 111.004 96.116 110.962C94.2223 110.878 91.9078 110.752 89.2987 110.626C86.6054 110.374 83.7018 110.247 80.0827 109.196C78.189 108.566 76.8844 108.019 75.2853 107.178C73.7283 106.337 72.045 105.328 70.4038 104.066C68.7626 102.805 66.9951 101.46 65.7326 99.4413C64.4702 97.5492 63.5865 94.2275 65.7326 91.5365C67.6263 89.1818 70.1934 88.467 72.2975 87.8363C74.4437 87.2477 76.7161 86.7431 79.0306 86.8692C81.3452 86.9533 83.5755 87.9204 85.7638 88.425C88.0362 88.9295 90.1824 89.5602 92.0341 89.6443C92.9599 89.6443 93.7173 89.5182 94.2223 89.2659C94.6431 89.0557 95.064 88.6352 95.4006 88.0466C96.1581 86.7431 96.9156 84.5146 97.5047 82.7066C98.136 80.7724 98.5568 78.8383 98.7251 76.862C98.8093 75.8109 98.9355 74.4654 99.8193 72.8255C100.745 71.2277 102.639 70.0084 104.28 69.8402C107.604 69.3356 110.466 71.2698 111.771 73.4562C113.033 75.6847 113.538 77.8291 113.706 79.8053C114.001 83.7998 113.706 87.4158 112.991 90.7796C112.318 94.1013 111.139 96.9605 109.961 99.3993C108.783 101.838 107.647 103.856 106.595 105.454C104.575 108.692 103.228 110.374 103.228 110.374C102.807 110.92 102.092 111.004 101.587 110.584C101.166 110.247 101.04 109.701 101.25 109.196V109.322Z" fill="#C6C3C1"/>
<path d="M95.4428 91.6626C95.4428 91.6626 91.9499 89.35 86.0584 84.9771C80.209 80.5622 71.8346 74.2551 62.6607 65.5934C58.1158 61.2205 53.4026 56.301 49.1523 50.2883C47.0903 47.2609 45.2386 43.813 44.5653 39.9027C43.8499 36.0343 44.6916 31.5353 47.2165 28.1715C48.4369 26.4476 50.1623 24.9339 52.2664 24.135C54.3705 23.252 56.8113 23.2941 58.8312 23.7566C62.9132 24.6816 66.7427 26.3635 69.7305 24.3873C72.7183 22.4952 74.3175 18.7109 75.2433 14.8006C76.2953 10.9322 77.0107 6.22297 80.7561 2.77511C82.5656 1.21937 84.838 0.0420471 87.5313 0C88.8358 0 90.2666 0.336377 91.4029 1.05118C92.497 1.68188 93.4649 2.77511 94.0961 3.48991C95.5269 5.17179 96.579 6.18092 97.631 5.97068C98.7673 5.88659 100.324 4.58313 102.218 3.32172C104.196 2.01826 107.057 1.34551 109.414 1.80802C111.855 2.1444 114.043 3.19558 115.895 4.58313C119.724 7.52642 121.45 11.9834 122.333 15.9779C123.217 20.0564 123.301 24.0089 123.554 27.7511C123.722 31.5773 123.806 35.3195 123.722 38.9776C123.512 46.2518 122.796 53.1054 121.828 59.3705C120.903 65.6355 119.514 71.3118 118.125 76.2313C116.694 81.1508 115.348 85.4396 113.959 88.8455C112.612 92.2933 111.518 94.9423 110.634 96.7503C109.793 98.5163 109.372 99.4834 109.372 99.4834C109.162 99.9459 108.614 100.156 108.152 99.9459C107.731 99.7356 107.52 99.2311 107.689 98.8106C107.689 98.8106 108.025 97.8015 108.699 95.9514C109.372 94.1434 110.298 91.4103 111.35 87.9625C113.496 81.0247 116.147 71.0175 117.83 58.7818C118.714 52.6429 119.261 45.9574 119.388 38.8935C119.514 35.3616 119.472 31.7035 119.345 28.0454C119.135 24.2612 119.051 20.4769 118.293 16.9029C117.578 13.371 116.105 9.92311 113.454 7.8628C110.803 5.7184 107.1 4.83541 104.364 6.64344C102.765 7.48438 101.208 9.2924 98.0939 9.71287C96.5369 9.88106 94.9798 9.25035 93.9278 8.40941C92.8757 7.56847 92.2024 6.64344 91.5291 5.88659C90.2246 4.24675 89.2146 3.48991 87.6575 3.48991C86.1426 3.48991 84.4172 4.20471 83.0706 5.33998C80.3773 7.56847 79.4094 11.6891 78.2732 15.6836C77.1791 19.678 75.4537 24.3032 71.2455 26.826C69.0572 28.1295 66.6164 28.2136 64.3861 27.7931C62.1978 27.3726 60.3041 26.6578 58.4525 26.2374C54.7492 25.1862 51.2564 26.5737 49.1102 29.5591C46.9219 32.4603 46.0382 36.1184 46.6694 39.6504C47.2586 43.1823 48.9419 46.42 50.9197 49.3212C54.9176 55.1237 59.6308 60.0432 64.0915 64.3741C73.0971 72.9937 81.3873 79.3428 87.2788 83.6316C93.1703 87.9204 96.6631 90.191 96.6631 90.191C97.084 90.4853 97.2102 91.0319 96.9156 91.4524C96.6211 91.8728 96.074 91.999 95.6532 91.7047L95.4428 91.6626Z" fill="#C6C3C1"/>
<path d="M45.3646 34.3524C45.3646 34.3524 44.7755 33.8899 43.8076 33.3433C42.7976 32.7547 41.1564 32.0399 38.9261 31.6614C36.7378 31.283 33.8762 31.3671 31.0146 32.5444C28.153 33.7217 25.2914 36.1184 23.566 39.5663C22.6823 41.2902 22.1773 43.1403 22.009 45.3267C21.8828 46.42 21.7565 47.5552 21.4199 48.7746C21.1253 49.9519 20.5361 51.2974 19.2737 52.2225C18.0533 53.1475 16.3279 53.1895 15.0654 52.8952C13.7609 52.6429 12.7088 52.2225 11.6147 52.2225C9.59474 52.0543 7.44855 53.0634 5.89151 54.6191C2.52493 57.7727 2.31452 63.1126 3.99781 67.7378C5.63901 72.363 8.83726 76.7779 12.4984 80.3519C16.2437 83.968 20.494 87.1215 24.8706 89.9807C27.143 91.4103 29.2051 92.7558 31.5196 93.9752C33.7079 95.0684 35.9382 96.1616 38.2948 97.0867C47.5108 100.871 56.6427 103.184 64.4279 104.992C72.2552 106.631 78.9463 107.346 83.5753 107.598C85.8898 107.725 87.7415 107.725 89.0039 107.683C90.2664 107.683 90.9397 107.683 90.9397 107.683H91.0239C91.5289 107.683 91.9497 108.061 91.9497 108.608C91.9497 109.07 91.613 109.491 91.1501 109.533C91.1501 109.533 90.4768 109.617 89.1723 109.743C87.9098 109.953 86.0161 110.079 83.6174 110.121C78.82 110.289 71.9185 109.953 63.7967 108.566C55.6748 107.22 46.3746 104.823 36.7378 101.081C34.3391 100.156 31.8983 99.0629 29.4576 97.8015C27.1851 96.5821 24.8285 94.9843 22.5982 93.5547C18.0954 90.5694 13.5926 87.2477 9.76307 83.085C5.89151 78.9223 2.73534 74.2551 0.967884 68.747C0.12624 66.0139 -0.252501 63.1126 0.210404 60.2534C0.589144 57.4363 2.06202 54.5771 4.16613 52.727C6.22816 50.8349 9.04767 49.6155 11.9513 49.9099C14.7288 50.2883 16.7908 51.5917 18.1795 50.5406C19.5682 49.6155 19.8628 47.1768 20.1153 45.1165C20.3257 42.93 20.9569 40.6175 21.9248 38.7674C23.9027 34.9411 27.143 32.2921 30.3413 30.9887C33.6237 29.6852 36.7378 29.6432 39.1786 30.0216C41.6614 30.4 43.4709 31.1989 44.6492 31.8296C45.9117 32.5444 46.3746 32.9228 46.3746 32.9228L46.4588 33.0069C46.8375 33.3433 46.9217 33.8899 46.585 34.3104C46.2484 34.6888 45.7013 34.7729 45.2805 34.4365L45.3646 34.3524Z" fill="#C6C3C1"/>
<path d="M93.8013 100.871C112.949 126.73 141.438 143.044 172.579 152.757C188.991 157.887 206.119 161.166 222.994 163.058C271.893 168.483 321.635 164.446 370.197 172.183C413.837 179.12 461.011 200.817 473.846 243.074C485.334 280.958 460.464 325.486 422.464 336.671C384.463 347.855 340.067 324.814 326.264 287.728C322.981 278.856 321.214 269.227 322.771 259.935C324.286 250.811 328.831 242.401 334.848 235.379C348.02 220.032 370.324 211.244 389.261 218.392C408.198 225.54 419.013 251.315 407.23 267.756" stroke="#C6C3C1" stroke-width="2.08" stroke-linecap="round" stroke-linejoin="round"/>
<path d="M210.58 160.241C173.505 147.249 145.563 111.425 142.07 72.321C154.484 77.4508 166.856 83.0851 177.671 91.032C188.487 98.9789 197.829 109.449 202.542 122.021C207.297 134.761 207.213 149.141 213.568 161.167" fill="#C6C3C1"/>
<path d="M210.58 160.241C173.505 147.249 145.563 111.425 142.07 72.321C154.484 77.4508 166.856 83.0851 177.671 91.032C188.487 98.9789 197.829 109.449 202.542 122.021C207.297 134.761 207.213 149.141 213.568 161.167" stroke="#C6C3C1" stroke-width="1.04" stroke-linecap="round" stroke-linejoin="round"/>
<path d="M265.75 169.366C229.853 164.656 192.106 177.649 166.688 203.424C178.766 201.364 191.054 204.643 203.3 205.148C228.759 206.199 254.934 193.879 268.527 172.309C269.621 170.585 270.168 167.6 268.148 167.137" fill="#C6C3C1"/>
<path d="M265.75 169.366C229.853 164.656 192.106 177.649 166.688 203.424C178.766 201.364 191.054 204.643 203.3 205.148C228.759 206.199 254.934 193.879 268.527 172.309C269.621 170.585 270.168 167.6 268.148 167.137" stroke="#C6C3C1" stroke-width="1.04" stroke-linecap="round" stroke-linejoin="round"/>
<path d="M355.553 168.609C338.131 167.558 321.508 159.443 308.884 147.417C296.259 135.392 287.506 119.666 282.414 102.973C319.657 106.547 353.828 132.575 367.126 167.516" fill="#C6C3C1"/>
<path d="M355.553 168.609C338.131 167.558 321.508 159.443 308.884 147.417C296.259 135.392 287.506 119.666 282.414 102.973C319.657 106.547 353.828 132.575 367.126 167.516" stroke="#C6C3C1" stroke-width="1.04" stroke-linecap="round" stroke-linejoin="round"/>
<path d="M432.647 193.417C432.647 193.417 433.363 194.089 434.667 195.309C435.972 196.57 437.908 198.504 440.18 201.069C444.641 206.241 450.785 213.978 455.54 224.826C457.939 230.208 459.875 236.305 460.969 243.074C461.979 249.507 462.61 256.866 462.147 264.182C461.726 271.582 460.001 279.235 456.971 286.509C453.941 293.783 449.354 300.637 443.673 306.355C438.034 312.157 431.343 316.783 424.399 320.525C417.414 324.225 410.133 326.958 402.811 328.682C399.108 329.565 395.657 330.238 391.701 330.7C388.419 330.995 384.463 331.247 380.97 330.952C373.901 330.49 367.336 328.934 361.655 326.622C350.166 322.039 342.381 314.764 338.257 309.004C337.163 307.616 336.321 306.271 335.606 305.052C334.89 303.874 334.301 302.865 333.922 301.982C333.123 300.258 332.702 299.375 332.702 299.375C332.281 298.45 332.702 297.357 333.628 296.936C334.427 296.558 335.353 296.81 335.858 297.483L335.984 297.651C335.984 297.651 336.532 298.366 337.584 299.754C338.089 300.468 338.72 301.309 339.562 302.234C340.361 303.201 341.287 304.253 342.465 305.346C346.968 309.803 354.374 315.269 364.558 318.843C369.65 320.609 375.373 321.87 381.475 322.291C384.547 322.543 387.409 322.459 391.028 322.207C393.974 321.912 397.509 321.324 400.833 320.567C414.215 317.413 428.271 311.611 439.044 301.646C444.473 296.726 448.891 290.798 452.047 284.322C455.119 277.805 456.971 270.783 457.644 263.803C458.318 256.781 458.107 250.138 457.139 243.537C456.256 237.272 454.488 231.343 452.3 226.171C447.839 215.828 441.948 208.217 437.529 203.382C435.257 200.943 433.447 199.177 432.142 198C430.796 196.78 430.08 196.15 430.08 196.15C429.323 195.477 429.281 194.3 429.954 193.543C430.627 192.786 431.806 192.744 432.563 193.417H432.647Z" fill="#C6C3C1"/>
<path d="M310.609 166.632C295.249 166.17 280.015 161.124 267.475 152.252C253.545 142.455 243.277 128.454 233.22 114.704C253.882 116.134 271.43 131.019 282.708 148.384C286.875 154.775 290.536 161.755 296.385 166.675" stroke="#C6C3C1" stroke-width="1.04" stroke-linecap="round" stroke-linejoin="round"/>
<path d="M173.968 153.388C144.469 145.147 112.823 151.79 83.8701 161.755C89.8879 161.082 95.6952 163.815 101.46 165.623C114.253 169.618 128.056 169.155 141.144 166.422C154.232 163.689 166.772 158.77 179.228 153.85C179.86 153.598 180.659 153.135 180.491 152.463C180.365 151.79 179.06 152.589 179.691 152.799" stroke="#C6C3C1" stroke-width="1.04" stroke-linecap="round" stroke-linejoin="round"/>
<path d="M19.9891 50.2884C19.9891 50.2884 20.0733 50.5827 20.2416 51.0873C20.3679 51.6339 20.6204 52.3907 20.9991 53.2737C21.7145 55.1238 23.1032 57.6466 25.2073 60.3797C27.2694 63.1127 30.2151 65.9299 33.6238 68.5789C35.3491 69.8823 37.2428 71.1437 39.0945 72.4051C41.0302 73.7086 42.966 74.8439 44.986 76.0632C49.0259 78.4179 53.0237 80.8987 56.769 83.2533C60.5143 85.5659 63.923 88.0046 66.7004 90.2331C69.4778 92.4616 71.6661 94.5639 73.0548 96.2458C73.7702 97.0447 74.2752 97.7175 74.5698 98.222C74.9064 98.6846 75.0748 98.9789 75.0748 98.9789C75.3694 99.3994 75.2431 99.988 74.8223 100.282C74.4856 100.535 74.0227 100.493 73.7281 100.24L73.644 100.156C73.644 100.156 73.4336 99.988 73.0127 99.6516C72.5919 99.3153 72.0449 98.8107 71.2453 98.222C69.6462 97.0447 67.3316 95.3628 64.3859 93.5128C61.4822 91.5786 58.0736 89.3501 54.4545 86.9534C50.7933 84.5147 46.8376 82.0339 42.966 79.3429C41.0723 77.9974 39.0103 76.6099 37.2008 75.1803C35.3491 73.6666 33.6238 72.1529 31.9826 70.6392C28.6581 67.6118 25.8806 64.4583 23.7344 61.599C21.5462 58.6978 20.2837 55.9647 19.4421 54.0306C19.0212 53.0214 18.7267 52.2646 18.5583 51.76C18.39 51.2555 18.3058 50.9611 18.3058 50.9611C18.1375 50.4566 18.39 49.952 18.895 49.7838C19.4 49.6156 19.905 49.8679 20.0733 50.3725L19.9891 50.2884Z" fill="#C6C3C1"/>
<path d="M97.5043 9.50258C97.5043 9.50258 96.7047 10.3015 96.1156 11.8993C95.4002 13.5391 95.316 16.2722 95.9473 19.4257C96.5785 22.5792 97.9251 26.2794 99.2718 30.2318C100.618 34.1842 102.091 38.431 103.438 42.7198C104.742 47.0086 106.005 51.3815 106.72 55.5862C107.52 59.7488 108.067 63.7433 107.983 67.1912C108.025 70.639 107.604 73.5403 107.141 75.5165C106.636 77.4927 106.257 78.5859 106.257 78.5859C106.089 79.0905 105.542 79.3428 105.079 79.1746C104.7 79.0484 104.49 78.7121 104.448 78.3336V78.2495C104.448 78.2495 104.364 77.1143 104.406 75.2222C104.28 73.288 104.237 70.597 103.901 67.4014C103.606 64.1638 103.185 60.3795 102.554 56.343C101.839 52.3065 101.081 47.9336 100.113 43.6448C99.1876 39.314 98.1355 34.9831 97.0414 30.9466C96.0314 26.868 94.7269 23.2099 94.0956 19.8041C93.4644 16.3983 93.7169 13.3709 94.4323 11.3527C94.769 10.3856 95.2319 9.54463 95.5264 9.08211C95.821 8.66164 95.9893 8.40936 95.9893 8.40936C96.2418 8.07298 96.7047 7.98889 97.0414 8.24117C97.2097 8.36731 97.336 8.5355 97.3781 8.74574L97.5043 9.50258Z" fill="#C6C3C1"/>
<path d="M70.2353 27.4148C70.2353 27.4148 70.2353 27.7091 70.2353 28.2137C70.2353 28.7182 70.2353 29.4751 70.2353 30.4001C70.2774 32.2502 70.7403 34.8992 71.6661 37.9686C72.5919 41.038 74.1069 44.4859 76.2531 47.8917C78.3151 51.3816 81.0925 54.6613 83.7858 58.0671C86.5632 61.4309 89.2986 64.8367 91.8235 68.0743C94.3905 71.3119 96.663 74.4234 98.4725 77.1985C102.134 82.7487 103.691 87.0375 103.691 87.0375C103.859 87.5421 103.607 88.0467 103.144 88.2569C102.765 88.383 102.344 88.2569 102.092 87.9626C102.092 87.9626 99.3562 84.5988 95.2322 79.5532C93.2122 76.9883 90.8556 74.0029 88.4569 70.6812C85.9741 67.4015 83.365 63.9116 80.8821 60.2535C78.3151 56.6795 76.0427 52.8112 74.149 49.069C72.2553 45.3268 70.8245 41.6687 69.8987 38.4732C68.9729 35.2355 68.6783 32.4604 68.5099 30.4842C68.4258 29.4751 68.4258 28.7182 68.4258 28.2137C68.4258 27.7091 68.4258 27.4148 68.4258 27.4148C68.4258 26.9102 68.8466 26.4897 69.3516 26.4897C69.8566 26.4897 70.2774 26.9102 70.2774 27.4148H70.2353Z" fill="#C6C3C1"/>
<path d="M93.0858 159.148C93.0858 159.148 94.3062 159.274 96.4103 159.527C98.5565 159.779 101.544 159.947 105.206 160.073C108.825 160.199 113.117 160.283 117.662 159.989C122.207 159.737 127.046 159.232 131.844 158.518C136.641 157.845 141.396 156.878 145.815 156.079C150.234 155.154 154.358 154.271 157.892 153.514C164.962 152 169.844 151.285 169.844 151.285C170.349 151.201 170.854 151.58 170.896 152.084C170.938 152.505 170.728 152.883 170.391 153.051C170.391 153.051 169.297 153.64 167.319 154.481C165.341 155.364 162.437 156.499 158.902 157.508C155.368 158.602 151.117 159.443 146.572 160.241C142.027 161.04 137.104 161.461 132.18 161.839C122.333 162.344 112.528 162.302 105.163 161.923C97.799 161.503 92.9596 161.04 92.9596 161.04C92.4546 161.04 92.0759 160.536 92.1179 160.031C92.1179 159.527 92.6229 159.148 93.1279 159.19L93.0858 159.148Z" fill="#C6C3C1"/>
<path d="M237.302 114.915C237.302 114.915 240.963 117.269 246.434 121.011C251.82 124.796 258.806 130.178 265.455 136.022C268.737 139.008 271.936 142.035 274.671 145.147C277.448 148.258 279.931 151.201 281.783 154.018C283.677 156.751 285.065 159.148 285.907 160.914C286.791 162.638 287.211 163.689 287.211 163.689C287.422 164.152 287.211 164.74 286.706 164.909C286.328 165.077 285.949 164.951 285.654 164.698C285.654 164.698 282.582 161.503 278.5 156.499C274.418 151.496 269.074 144.726 263.14 138.377C260.195 135.181 257.123 132.154 254.051 129.463C251.021 126.73 247.991 124.459 245.34 122.525C242.688 120.591 240.5 119.035 238.859 118.068C237.218 117.059 236.292 116.512 236.292 116.512C235.871 116.26 235.703 115.672 235.997 115.251C236.25 114.831 236.839 114.662 237.26 114.957L237.302 114.915Z" fill="#C6C3C1"/>
<path d="M155.746 84.851C155.746 84.851 156.209 85.9022 157.009 87.7943C157.808 89.6864 159.113 92.2093 160.838 95.2787C162.522 98.3061 164.626 101.796 167.151 105.328C169.676 108.86 172.537 112.518 175.567 116.05C181.585 123.114 187.939 129.841 192.442 135.223C196.987 140.563 199.512 144.558 199.512 144.558C199.807 144.978 199.68 145.567 199.217 145.861C198.881 146.072 198.46 146.03 198.165 145.861C198.165 145.861 194.336 143.044 189.412 138.041C186.887 135.56 184.236 132.448 181.374 129.085C178.513 125.721 175.693 121.937 172.958 118.11C167.572 110.374 162.564 102.385 159.281 96.1617C155.999 89.8967 154.105 85.6499 154.105 85.6499C153.895 85.1874 154.105 84.6408 154.568 84.4306C155.031 84.2203 155.578 84.4306 155.788 84.8931L155.746 84.851Z" fill="white"/>
<path d="M254.471 175.21C254.471 175.21 251.105 177.018 245.971 179.625C240.837 182.232 233.851 185.428 226.697 188.329C219.501 191.146 212.01 193.29 206.245 194.005C203.383 194.426 200.943 194.51 199.217 194.468C197.534 194.468 196.524 194.342 196.524 194.342C196.019 194.3 195.64 193.837 195.682 193.29C195.682 192.912 195.977 192.618 196.314 192.491C196.314 192.491 199.975 191.188 205.488 189.927C211 188.623 218.365 187.152 225.645 185.175C232.967 183.283 240.079 180.508 245.213 178.069C250.347 175.631 253.588 173.612 253.588 173.612C254.008 173.36 254.598 173.486 254.85 173.907C255.103 174.327 254.976 174.916 254.555 175.168C254.555 175.168 254.555 175.168 254.513 175.168L254.471 175.21Z" fill="white"/>
<path d="M294.702 111.887C294.702 111.887 298.447 114.284 304.002 118.068C309.515 121.895 316.669 127.277 323.57 133.079C326.937 136.022 330.303 139.05 333.165 142.161C336.069 145.231 338.678 148.174 340.655 150.949C342.675 153.64 344.148 156.079 345.074 157.803C346.042 159.527 346.505 160.578 346.505 160.578C346.715 161.04 346.505 161.629 346.042 161.839C345.663 162.007 345.242 161.923 344.99 161.671C344.99 161.671 341.75 158.518 337.457 153.556C333.123 148.594 327.484 141.825 321.34 135.518C318.268 132.322 315.07 129.295 311.913 126.562C308.799 123.829 305.685 121.516 302.992 119.582C300.299 117.648 298.026 116.092 296.343 115.083C294.66 114.074 293.734 113.485 293.734 113.485C293.313 113.233 293.145 112.644 293.439 112.224C293.692 111.803 294.281 111.635 294.702 111.929V111.887Z" fill="white"/>
</g>
</svg>
