<svg width="882" height="911" viewBox="0 0 882 911" fill="none" xmlns="http://www.w3.org/2000/svg">
<g opacity="0.15" clip-path="url(#clip0_96_2676)">
<path d="M737.501 50.2851C737.501 50.2851 739.428 50.3704 743.405 50.8702C747.382 51.3699 753.187 52.2914 760.619 54.3072C768.016 56.3612 777.005 59.5478 786.738 65.0789C796.397 70.6124 806.986 78.5214 815.739 90.2283C824.45 101.752 830.834 117.903 830.526 135.383C830.636 153.182 824.702 171.77 813.939 188.701C803.287 205.666 787.883 221.046 769.453 233.379C751.069 245.969 729.965 255.798 708.198 265.722C686.354 275.575 664.051 286.072 642.137 299.369C631.178 305.944 620.274 313.072 609.573 320.748C598.872 328.425 588.189 336.619 578.31 345.638C568.395 354.696 559.142 364.731 551.71 376.113C544.24 387.46 538.702 400.113 536.487 413.658C534.195 427.13 535.003 441.428 539.908 454.259C542.378 460.656 545.871 466.649 550.337 471.834C554.728 477.02 560.238 481.319 566.313 483.712C569.389 484.945 572.41 485.624 575.819 485.735C578.746 485.825 582.097 485.308 585.058 484.213C591.168 482.052 596.574 477.657 600.724 472.229C604.874 466.802 607.73 460.306 608.914 453.605C609.505 450.218 609.545 446.959 609.272 443.193C609.09 439.942 608.34 436.302 607.485 432.851C603.693 418.984 595.168 406.344 585.243 395.045C575.168 383.678 563.587 373.765 550.763 365.411C525.34 348.843 494.537 338.557 464.25 341.578C449.2 343.104 434.639 348.241 422.038 356.646C409.434 364.977 398.935 376.496 390.742 389.458C374.362 415.603 366.395 446.545 364.061 477.674C361.431 508.812 363.15 540.512 362.202 572.151C361.537 635.722 341.419 698.631 304.467 747.282C295.209 759.39 284.81 770.573 273.211 780.204C261.69 789.906 248.971 798.129 235.404 804.196C208.361 816.846 177.491 819.035 149.981 812.047C122.401 805.209 97.5764 787.696 84.9226 763.31C72.3476 739.07 71.4145 710.971 79.7338 687.309C83.8922 675.441 90.5683 664.712 99.0904 656.07C107.648 647.39 118.066 641.24 128.819 637.337C150.437 629.638 173.493 630.664 192.372 638.526C211.398 646.382 225.777 661.422 231.964 678.32C235.095 686.768 235.95 695.808 234.448 704.074C232.946 712.339 229.52 719.52 225.504 725.647C221.304 731.816 216.994 736.879 211.621 741.162C206.427 745.254 200.975 748.245 195.641 750.343C184.972 754.539 174.745 755.279 166.654 753.507C158.53 751.847 153.059 747.584 150.176 744.383C148.679 742.766 147.745 741.39 147.16 740.484C146.575 739.578 146.262 739.07 146.262 739.07C145.323 737.546 145.774 735.533 147.259 734.559C148.783 733.621 150.758 734.038 151.771 735.56L151.962 735.738C151.962 735.738 152.16 736.139 152.629 736.864C153.097 737.589 153.835 738.638 154.986 739.859C157.214 742.304 161.32 745.575 167.988 746.876C174.549 748.291 183.485 747.63 192.982 743.841C197.73 741.91 202.6 739.235 207.105 735.572C211.431 732.1 215.816 727.035 219.374 721.627C222.966 716.106 225.863 709.72 227.076 702.759C228.288 695.798 227.52 688.273 224.722 680.925C219.2 666.226 206.318 652.803 189.249 645.919C172.251 638.959 151.128 638.166 131.674 645.313C122.022 648.884 112.693 654.406 105.176 662.127C97.622 669.812 91.6128 679.446 87.9352 690.188C80.3913 711.567 81.3604 737.407 92.7785 759.131C104.123 780.858 126.604 796.893 152.164 803.13C177.73 809.516 206.31 807.475 231.529 795.625C244.257 789.918 256.215 782.2 267.122 772.926C278.069 763.76 288.004 753.074 296.833 741.424C314.568 718.195 328.172 690.956 337.62 662.261C347.213 633.486 351.566 602.958 352.161 571.849C353.014 540.694 351.222 508.996 353.777 476.713C356.156 444.694 364.132 411.828 381.929 383.786C390.795 369.877 402.292 357.215 416.348 348.022C430.289 338.723 446.683 333.082 463.21 331.433C479.811 329.783 496.463 331.906 512.161 336.502C527.859 341.099 542.679 348.241 556.186 357.092C569.656 365.906 582.003 376.608 592.579 388.589C603.046 400.61 612.422 414.332 616.766 430.365C617.753 434.441 618.549 438.339 618.844 442.77C619.084 446.649 619.083 451.09 618.333 455.26C616.834 463.599 613.318 471.412 608.246 478.054C603.171 484.623 596.361 490.211 588.203 493.104C584.069 494.534 579.873 495.263 575.279 495.116C571.166 494.991 566.764 493.95 562.901 492.41C555.059 489.223 548.557 483.994 543.358 477.908C538.123 471.861 534.116 464.885 531.357 457.572C525.835 442.873 525.049 427.021 527.592 412.208C530.059 397.323 536.257 383.352 544.294 371.247C552.29 359.032 562.046 348.536 572.395 339.169C614.295 302.459 660.87 277.218 704.801 258.171C726.535 248.359 747.197 238.619 764.976 226.751C782.87 214.991 797.419 200.601 807.623 184.65C817.87 168.883 823.436 151.454 823.425 135.54C823.808 119.205 818.23 105.026 810.321 94.2539C802.375 83.446 792.614 75.9542 783.556 70.6972C774.46 65.4044 765.956 62.3131 758.931 60.321C751.945 58.3647 746.362 57.4361 742.681 56.9267C739 56.4173 736.96 56.2986 736.96 56.2986C735.329 56.2036 734.022 54.7657 734.152 53.0959C734.246 51.4644 735.647 50.1974 737.279 50.2923L737.465 50.3233L737.501 50.2851Z" fill="#C6C3C1"/>
<path d="M631.989 187.702C631.989 187.702 632.08 190.438 631.946 195.327C631.777 200.256 631.564 207.221 630.546 215.581C629.75 223.935 627.961 233.579 625.859 243.863C624.733 248.97 623.465 254.23 621.976 259.571C620.598 264.872 619.003 270.327 617.364 275.599C613.87 286.298 609.966 296.9 605.137 306.421C602.816 311.197 600.151 315.651 597.624 319.805C594.908 323.853 592.336 327.749 589.557 331.023C586.894 334.403 584.137 337.195 581.665 339.681C579.117 342.096 576.851 344.057 574.829 345.604C572.92 347.183 571.216 348.238 570.093 348.978C568.97 349.717 568.391 350.106 568.391 350.106C567.339 350.77 565.96 350.482 565.296 349.43C564.787 348.595 564.827 347.558 565.432 346.835L565.504 346.758C565.504 346.758 567.171 344.594 570.119 340.834C573.104 337.11 577.071 331.725 581.663 325.136C586.218 318.51 591.248 310.611 596.097 301.682C600.947 292.826 605.766 283.009 609.948 272.954C612.109 267.813 614.053 262.827 615.918 257.696C617.712 252.641 619.281 247.519 620.71 242.624C623.64 232.758 625.286 223.266 626.424 215.16C627.449 207.021 627.776 200.164 627.729 195.391C627.72 190.653 627.552 187.846 627.552 187.846C627.475 186.627 628.402 185.561 629.621 185.484C630.839 185.407 631.907 186.335 631.984 187.554L631.989 187.702Z" fill="#C6C3C1"/>
<path d="M611.473 282.12C625.005 283.9 637.016 272.221 641.887 259.515C649.009 241.037 645.767 220.305 641.276 200.983C638.294 188.089 634.799 175.359 631.266 162.594C613.605 178.011 600.022 198.106 592.284 220.306C588.565 230.938 586.208 242.414 588.203 253.453C590.236 264.527 597.326 275.178 607.928 279.015C608.828 279.356 609.913 279.728 610.203 280.644C610.492 281.56 609.045 282.569 608.61 281.732" fill="#C6C3C1"/>
<path d="M611.621 279.895C613.108 280.068 614.553 280.132 615.66 280.022C616.879 279.946 618.279 279.752 619.488 279.379C622.056 278.704 624.46 277.515 626.741 275.997C631.228 272.89 634.933 268.551 637.585 263.727C638.983 261.238 639.942 258.912 640.846 256.033C641.719 253.34 642.334 250.692 642.759 247.865C643.648 242.322 643.829 236.616 643.566 230.925C643.303 225.233 642.374 219.564 641.262 213.937C640.687 211.106 640.076 208.313 639.391 205.522C638.742 202.694 637.988 200.053 637.188 197.155L627.448 163.533L633.807 165.546C625.334 173.447 617.822 182.389 611.669 192.175C605.441 201.89 600.346 212.308 596.785 223.231C595.078 228.653 593.556 234.107 592.922 239.531C592.288 244.955 592.284 250.396 593.529 255.574C594.657 260.571 597.045 265.601 600.398 269.6C602.093 271.618 604.042 273.442 606.235 274.851C606.765 275.204 607.369 275.555 607.934 275.869C608.538 276.22 609.025 276.389 610.08 276.947C610.915 277.586 612.827 278.301 612.672 281.452C612.347 282.795 611.665 283.446 610.757 283.957C610.282 284.157 609.698 284.399 608.77 284.318C607.842 284.237 606.89 283.417 606.646 282.758C606.091 281.666 606.529 280.356 607.657 279.764C608.749 279.211 610.059 279.649 610.651 280.777C610.565 280.41 609.918 279.876 609.398 279.819C608.878 279.762 608.659 279.843 608.513 279.922C608.258 280.041 608.074 280.084 607.872 280.683C607.835 281.794 607.976 281.568 608.021 281.825C608.098 281.897 608.024 281.899 607.838 281.868C607.539 281.804 606.604 281.501 605.819 281.268C605.034 281.034 604.246 280.727 603.495 280.381C600.416 279.075 597.504 277.208 595.06 274.919C590.096 270.343 586.608 264.497 584.541 257.977C582.626 251.599 582.181 244.877 582.781 238.418C583.454 231.956 584.916 225.801 587.014 219.885C591.103 208.167 596.653 196.957 603.718 186.808C610.822 176.695 619.215 167.502 628.763 159.678L628.906 159.525C630.565 158.212 633.015 158.429 634.365 160.05C634.752 160.556 634.991 161.066 635.158 161.653L643.062 195.706C643.747 198.496 644.437 201.435 644.976 204.304C645.554 207.209 646.093 210.079 646.523 212.989C647.421 218.844 648.097 224.707 648.331 230.659C648.53 236.648 648.212 242.654 647.148 248.537C646.617 251.478 645.828 254.465 644.886 257.308C644.013 260.001 642.744 263.041 641.313 265.641C638.344 270.956 634.245 275.716 629.22 279.322C626.689 281.107 623.849 282.532 620.77 283.446C619.232 283.94 617.723 284.174 616.062 284.339C614.29 284.471 612.845 284.407 611.397 284.269C610.137 284.236 609.213 283.156 609.319 281.894C609.389 280.67 610.469 279.747 611.693 279.818L611.621 279.895Z" fill="#C6C3C1"/>
<path d="M583.56 333.216C583.56 333.216 585.555 332.004 589.113 329.89C590.929 328.868 593.376 327.863 595.996 326.52C598.654 325.212 601.766 324.185 605.09 322.856C611.82 320.416 619.847 318.045 628.435 315.841C632.763 314.664 637.247 313.704 641.842 312.777C646.433 311.702 651.108 310.921 655.778 309.991C660.49 309.246 665.165 308.465 669.847 307.905C674.488 307.236 679.101 306.827 683.571 306.57C688.037 306.166 692.369 306.21 696.471 306.039C700.584 306.165 704.47 306.149 708.034 306.477C715.195 307.021 721.155 308.16 725.261 309.211C729.37 310.335 731.656 311.186 731.656 311.186C732.818 311.63 733.38 312.944 732.976 314.141C732.633 314.967 731.911 315.508 731.1 315.609L730.952 315.613C730.952 315.613 728.555 315.877 724.485 315.935C722.453 316.038 719.975 316.082 717.165 316.173C714.35 316.117 711.139 316.406 707.733 316.369C700.782 316.595 692.674 316.526 684.022 316.808C679.66 316.95 675.185 317.058 670.6 317.208C666.013 317.283 661.4 317.692 656.744 317.918C647.475 318.552 638.142 319.485 629.608 321.095C625.298 321.717 621.187 322.739 617.295 323.68C613.441 324.657 609.852 325.81 606.48 326.808C603.266 328.097 600.19 329.085 597.712 330.276C595.199 331.505 593.084 332.462 591.306 333.52C587.863 335.741 585.87 337.027 585.87 337.027C584.857 337.727 583.478 337.438 582.778 336.425C582.078 335.411 582.366 334.033 583.379 333.333C583.379 333.333 583.415 333.295 583.45 333.257L583.56 333.216Z" fill="#C6C3C1"/>
<path d="M668.037 311.369C672.206 285.325 716.988 282.98 739.861 293.006C755.75 300.002 769.201 312.74 786.16 316.297C770.927 321.234 758.722 332.66 744.177 339.389C732 344.967 718.267 347.153 704.924 345.478C695.744 344.333 686.612 341.299 679.496 335.424C672.379 329.549 667.49 320.529 667.999 311.333" fill="#C6C3C1"/>
<path d="M665.876 310.921C666.308 308.316 667.49 304.91 669.071 302.379C670.686 299.735 672.757 297.447 675.1 295.557C679.822 291.739 685.335 289.45 690.982 287.86C702.284 284.902 714.01 284.705 725.395 286.481C731.09 287.443 736.802 288.923 742.176 291.376C744.729 292.477 747.441 293.869 749.927 295.195C752.452 296.556 754.906 297.994 757.36 299.431C767.026 305.187 776.654 310.906 786.93 312.718C788.903 313.061 790.262 314.979 789.92 316.951C789.669 318.292 788.742 319.359 787.571 319.767L787.352 319.848C776.819 323.67 767.623 330.964 757.331 337.591C754.759 339.267 752.11 340.87 749.311 342.405C746.436 343.868 743.665 345.142 740.558 346.317C734.564 348.585 728.32 350.046 721.904 350.773C715.564 351.572 709.045 351.414 702.756 350.397C696.283 349.423 690.034 347.369 684.192 344.191C681.323 342.508 678.594 340.598 676.111 338.273C673.705 336.02 671.541 333.277 669.854 330.408C668.093 327.541 666.914 324.36 666.215 321.126C665.441 317.894 665.328 314.492 665.812 311.22C666.03 309.991 667.15 309.177 668.341 309.361C669.384 309.549 670.114 310.376 670.22 311.335L670.258 311.371C670.7 316.871 672.83 321.947 676.224 326.055C677.886 328.185 679.72 329.902 681.849 331.609C683.864 333.209 686.241 334.575 688.647 335.681C693.424 338.006 698.872 339.309 704.228 340.097C709.803 340.804 715.32 340.883 720.895 340.443C726.428 339.892 731.904 338.715 737.172 336.841C739.697 335.982 742.396 334.783 744.873 333.592C747.386 332.363 749.933 331.022 752.474 329.533C762.535 323.765 772.726 316.327 785.117 312.74L785.503 319.908C773.597 316.928 763.86 310.175 754.518 304.15C752.172 302.598 749.792 301.158 747.448 299.68C745.033 298.278 742.806 296.981 740.248 295.732C735.43 293.298 730.164 291.878 724.8 290.868C714.04 288.96 702.714 288.959 692.221 291.743C687.051 293.207 681.901 295.262 677.906 298.686C675.925 300.342 674.214 302.322 672.916 304.474C671.587 306.812 670.838 308.761 670.38 311.7C670.162 312.929 669.042 313.742 667.813 313.523C666.584 313.304 665.77 312.183 665.988 310.955L666.019 310.769L665.876 310.921Z" fill="#C6C3C1"/>
<path d="M331.083 688.308C331.083 688.308 332.218 685.717 334.215 681.211C335.212 678.92 336.641 676.246 338.091 673.09C339.54 669.934 341.462 666.503 343.41 662.739C345.432 658.972 347.629 654.94 349.93 650.646C352.342 646.385 354.859 641.935 357.519 637.333C360.141 632.696 362.947 628.015 365.86 623.22C368.66 618.391 371.683 613.555 374.631 608.722C377.692 603.922 380.717 599.16 383.856 594.505C386.884 589.817 390.102 585.308 393.216 580.987C399.481 572.382 405.662 564.556 411.447 558.224C417.195 551.856 422.436 546.948 426.252 543.715C430.142 540.479 432.492 538.811 432.492 538.811C433.505 538.112 434.92 538.362 435.656 539.337C436.2 540.134 436.158 541.097 435.739 541.851L435.668 541.928C435.668 541.928 434.158 544.383 431.215 548.29C429.765 550.299 428.03 552.687 426.012 555.455C423.88 558.115 421.691 561.295 419.06 564.564C414.026 571.242 407.877 578.882 401.416 587.16C398.185 591.3 394.811 595.592 391.402 599.922C387.954 604.217 384.664 608.802 381.183 613.209C377.855 617.759 374.413 622.201 371.194 626.71C367.976 631.219 364.905 635.724 362.016 640.111C356.087 648.817 351.227 657.377 347.028 664.694C345.116 668.42 343.23 671.812 341.778 674.895C340.326 677.977 339.007 680.611 338.083 682.898C336.237 687.474 335.139 690.1 335.139 690.1C334.697 691.262 333.383 691.823 332.257 691.342C331.13 690.86 330.533 689.584 331.013 688.458C331.013 688.458 331.013 688.458 331.049 688.42L331.083 688.308Z" fill="#C6C3C1"/>
<path d="M317.69 715.244C317.69 715.244 318.402 713.259 318.961 710.058C319.59 706.706 319.91 701.847 319.382 695.98C318.745 690.153 317.371 683.35 314.989 676.248C313.836 672.732 312.453 669.002 311.002 665.422C309.474 661.77 307.872 658.121 306.199 654.549C302.886 647.291 299.137 640.27 295.805 633.568C292.474 626.866 289.269 620.642 286.828 615.132C281.801 604.192 279.902 596.038 279.902 596.038C279.603 594.826 280.374 593.542 281.624 593.28C282.468 593.067 283.33 593.372 283.867 593.947C283.867 593.947 289.548 600.054 295.671 610.588C298.806 615.816 301.98 622.227 305.135 629.193C308.291 636.16 311.101 643.878 313.692 651.677C314.969 655.596 316.099 659.519 317.19 663.407C318.284 667.368 319.223 671.113 320.161 674.858C321.926 682.314 323.274 689.45 323.628 695.657C324.168 701.894 323.675 707.092 323.203 710.734C322.625 714.491 322.095 716.359 322.095 716.359L322.028 716.583C321.698 717.778 320.463 718.485 319.267 718.154C318.072 717.822 317.365 716.587 317.695 715.392C317.695 715.392 317.767 715.316 317.764 715.242L317.69 715.244Z" fill="#C6C3C1"/>
<path d="M284.656 761.474C284.656 761.474 286.491 759.896 289.692 757.09C292.969 754.356 297.648 750.354 303.307 745.766C308.965 741.177 315.634 735.815 322.735 730.07C329.912 724.395 337.521 718.337 345.165 712.24C352.926 706.325 360.611 700.338 368.251 695.241C375.815 690.072 383.029 685.507 389.5 681.965C395.97 678.423 401.588 675.946 405.644 674.37C409.738 672.831 412.123 672.198 412.123 672.198C413.335 671.9 414.578 672.562 414.916 673.81C415.167 674.69 414.862 675.551 414.252 676.126C414.252 676.126 412.348 677.853 408.951 680.333C407.254 681.609 405.194 683.12 402.811 684.9C400.386 686.57 397.75 688.544 394.706 690.494C382.763 698.655 366.215 708.594 349.825 718.825C341.593 723.941 333.476 729.165 326.024 734.367C318.493 739.424 311.819 744.637 306.043 749.045C300.346 753.598 295.773 757.411 292.648 760.288C289.523 763.166 287.765 764.814 287.765 764.814C286.866 765.621 285.459 765.593 284.652 764.694C283.844 763.795 283.872 762.387 284.77 761.581L284.806 761.543L284.656 761.474Z" fill="#C6C3C1"/>
<path d="M383.237 600.373C381.632 597.723 380.08 594.48 379.014 591.332C377.982 588.145 377.245 584.875 376.803 581.595C376.028 574.995 376.399 568.321 377.886 561.833C378.668 558.624 379.674 555.483 380.904 552.408C382.208 549.33 383.632 546.508 385.349 543.602C388.753 537.977 392.948 532.807 397.646 528.249C402.343 523.692 407.501 519.638 412.932 515.982C415.611 514.192 418.515 512.469 421.276 510.899C424.184 509.324 427.06 507.861 429.974 506.434C441.745 500.906 453.926 496.549 466.001 492.381C468.014 491.686 470.195 492.726 470.891 494.739C471.463 496.349 470.892 498.107 469.629 499.073L469.486 499.226C465.045 502.59 462.708 507.996 461.54 514.067C460.372 520.138 460.182 526.695 459.853 533.479C459.563 540.373 458.463 547.367 456.986 554.151C455.473 560.973 453.399 567.629 450.803 574.153C448.171 580.716 444.718 587.083 440.17 592.783C437.897 595.67 435.321 598.345 432.436 600.659C430.994 601.817 429.514 602.938 427.919 603.952C426.832 604.654 426.358 604.854 425.597 605.36C424.834 605.792 423.814 606.27 422.939 606.668C415.971 609.745 408.313 610.956 400.831 609.683C397.109 609.063 393.473 607.664 390.262 605.733C388.637 604.713 387.193 603.575 385.744 602.29C385.171 601.754 384.822 601.284 384.428 600.556C384.072 599.865 383.66 598.62 384.169 597.234C384.376 596.783 384.305 596.859 384.872 596.1L385.086 595.871C385.446 595.564 386.03 595.323 386.362 595.275C387.946 595.038 388.636 595.756 389.053 596.075C389.512 596.505 389.784 596.903 390.035 597.783C390.079 597.967 390.167 598.408 390.103 598.706C390.011 599.264 389.844 599.825 389.232 600.326C388.619 600.827 388.323 600.837 387.844 600.889C387.622 600.896 387.362 600.868 387.102 600.839C385.911 600.656 385.059 599.499 385.241 598.309C385.424 597.119 386.58 596.267 387.77 596.45C387.658 596.417 387.51 596.422 387.363 596.427C386.957 596.477 386.773 596.52 386.268 596.906C385.839 597.364 385.594 597.779 385.573 598.261C385.506 598.486 385.592 598.853 385.595 598.927C385.722 599.404 385.758 599.366 385.913 599.583C386.027 599.69 386.302 600.162 387.48 599.976C387.664 599.933 388.177 599.768 388.427 599.501C388.927 598.966 388.713 599.195 388.815 598.933C389.091 598.332 388.857 597.969 388.969 598.003C388.969 598.003 389.16 598.182 389.27 598.141C390.48 598.916 391.764 599.688 393.153 600.272C395.857 601.443 398.799 601.976 401.728 602.14C407.587 602.467 413.644 600.975 418.735 598.218L420.551 597.197C421.166 596.77 422.146 596.183 422.47 595.913C423.662 595.023 424.816 594.097 425.967 593.097C428.196 591.1 430.192 588.815 432.075 586.422C435.763 581.564 438.722 575.953 441.231 570.135C443.699 564.206 445.716 558.071 447.211 551.804C448.741 545.499 449.679 539.214 450.351 532.678C451.019 526.068 451.457 519.17 453.146 512.082C454.028 508.538 455.205 504.983 457.165 501.588C459.089 498.232 461.763 495.147 465.019 492.894L468.465 499.703C456.222 503.285 444.05 506.79 432.519 511.754C429.636 512.996 426.794 514.346 424.026 515.695C421.151 517.158 418.497 518.614 415.813 520.256C410.479 523.501 405.459 527.255 400.974 531.509C396.453 535.801 392.429 540.559 389.123 545.774C387.541 548.305 386.008 551.168 384.841 553.945C383.678 556.796 382.738 559.713 382.023 562.697C380.631 568.702 380.246 574.932 381.039 580.976C381.509 583.996 382.163 586.973 383.184 589.863C384.28 592.752 385.472 595.23 387.195 598.06C387.859 599.112 387.533 600.455 386.482 601.119C385.431 601.782 384.087 601.456 383.423 600.404L383.347 600.332L383.237 600.373Z" fill="#C6C3C1"/>
<path d="M313.604 660.192C324.091 646.083 325.59 626.566 320.147 609.792C314.669 593.055 302.948 578.928 289.328 567.824C275.671 556.684 260.07 548.309 244.58 539.967C249.426 553.244 244.108 568.111 245.835 582.193C247.52 596.166 249.332 632.897 311.647 661.44" fill="#C6C3C1"/>
<path d="M311.749 658.957C313.767 656.19 315.239 653.699 316.625 650.841C317.936 647.986 318.947 644.992 319.696 641.895C321.157 635.741 321.423 629.255 320.768 622.911C320.366 619.741 319.817 616.575 319.013 613.53C318.173 610.522 316.996 607.414 315.753 604.531C313.116 598.695 309.75 593.178 305.807 588.125C301.9 583.034 297.306 578.446 292.464 574.199C289.988 572.096 287.553 570.102 284.897 568.116C282.316 566.201 279.664 564.363 276.977 562.563C266.08 555.441 254.377 549.641 242.63 543.657L248.351 538.697C250.943 545.423 251.178 552.521 250.987 559.004C250.759 565.526 250.076 571.692 250.415 577.455C250.464 578.934 250.582 580.262 250.741 581.701L251.339 586.345C251.736 589.367 252.275 592.236 252.927 595.139C253.614 598.003 254.521 600.787 255.537 603.53C256.663 606.232 257.789 608.934 259.242 611.441C260.514 614.064 262.295 616.449 263.786 618.991C265.64 621.3 267.204 623.839 269.31 625.955C271.273 628.222 273.198 630.455 275.449 632.491C277.52 634.644 279.843 636.604 282.165 638.564C284.381 640.639 286.847 642.446 289.348 644.216C291.743 646.099 294.209 647.907 296.853 649.523C299.426 651.216 301.895 653.097 304.611 654.637C307.291 656.216 309.935 657.832 312.582 659.522L312.697 659.63C313.754 660.262 314.023 661.659 313.392 662.716C312.83 663.623 311.73 663.955 310.757 663.616C307.76 662.529 304.796 661.33 301.832 660.131C298.797 659.009 296.007 657.471 293.074 656.086C290.141 654.701 287.348 653.089 284.589 651.366C281.794 649.68 279.071 647.918 276.488 645.929C273.798 644.055 271.251 642.029 268.806 639.739C266.292 637.601 263.993 635.233 261.691 632.791C259.317 630.425 257.485 627.635 255.362 625.002C253.566 622.174 251.514 619.465 250.116 616.364C248.5 613.419 247.211 610.278 245.997 607.134C244.818 603.952 243.896 600.725 243.158 597.455C242.495 594.183 241.866 590.872 241.537 587.626L241.01 582.906C240.841 581.172 240.711 579.473 240.69 577.734C240.686 570.924 241.658 564.527 242.124 558.516C242.627 552.466 242.583 546.694 240.856 541.495L240.775 541.275C240.076 539.188 241.221 536.893 243.346 536.232C244.481 535.862 245.633 536.009 246.614 536.57C258.082 543.081 269.632 549.811 280.55 557.598C283.281 559.582 285.938 561.568 288.599 563.702C291.111 565.767 293.777 568.049 296.184 570.303C301.112 574.917 305.611 579.989 309.676 585.371C313.705 590.792 317.193 596.637 319.845 602.917C321.21 606.13 322.239 609.242 323.163 612.543C324.012 615.847 324.643 619.231 325.014 622.587C325.719 629.337 325.356 636.233 323.838 642.908C323.061 646.264 322.022 649.518 320.646 652.672C319.268 655.752 317.377 658.996 315.538 661.573L315.466 661.649C314.759 662.635 313.361 662.902 312.375 662.194C311.389 661.486 311.121 660.088 311.864 659.065L311.749 658.957Z" fill="#C6C3C1"/>
<path d="M353.662 710.668C352.075 697.433 358.482 684.159 368.019 674.892C377.557 665.624 389.948 659.817 402.534 655.41C418.595 649.743 435.83 646.036 452.586 649.044C444.182 661.235 437.632 674.662 429.419 687.032C421.206 699.402 410.855 710.916 397.362 716.981C383.833 723.084 366.643 722.608 355.475 712.867C354.902 712.33 354.217 711.76 353.406 711.861C352.63 711.923 352.078 713.125 352.794 713.509" fill="#C6C3C1"/>
<path d="M351.446 710.814C351.174 708.195 351.217 705.011 351.531 702.225C351.843 699.365 352.564 696.528 353.475 693.871C355.33 688.444 358.088 683.431 361.566 678.951C363.305 676.711 365.236 674.649 367.28 672.695C369.254 670.817 371.485 668.894 373.725 667.267C378.24 663.9 383.144 661.112 388.135 658.692C398.194 653.997 408.538 650.071 419.406 647.422C430.238 644.812 441.706 643.513 453.2 645.249C455.283 645.551 456.716 647.466 456.415 649.549C456.323 650.107 456.154 650.594 455.873 651.047L455.694 651.238C449.68 660.723 444.54 670.884 438.843 681.025C433.109 691.131 426.224 701.163 417.364 709.631C412.952 713.883 407.818 717.529 402.212 720.377L400.061 721.372L399.551 721.611L398.893 721.854L397.87 722.258C396.666 722.778 394.796 723.32 393.294 723.776C390.213 724.616 387.048 725.164 383.909 725.377C377.593 725.767 371.128 725.016 365.162 722.582C362.162 721.421 359.405 719.771 356.935 717.816C355.646 716.896 354.495 715.675 353.463 714.709C353.077 714.203 352.933 714.356 353.744 714.256C354.477 714.01 354.576 713.673 354.679 713.411C354.71 713.225 354.776 713.001 354.69 712.633C354.639 712.228 354.138 711.615 353.763 711.479C354.856 712.073 355.27 713.392 354.677 714.484C354.084 715.577 352.766 715.99 351.673 715.396C350.959 715.087 350.264 714.221 350.163 713.41C350.026 712.637 350.155 712.041 350.324 711.554C350.7 710.617 351.374 709.743 352.805 709.364C355.125 709.029 356.236 710.14 356.916 710.562C358.126 711.337 359.076 712.083 360.279 712.637C362.541 713.895 365.049 714.739 367.512 715.325C372.477 716.607 377.773 716.694 382.855 715.936C385.395 715.52 387.895 714.995 390.346 714.138C391.553 713.691 392.468 713.402 393.889 712.727L394.874 712.288C394.874 712.288 395.349 712.087 395.239 712.128L395.675 711.892L397.423 711.021C402.005 708.577 406.267 705.403 410.219 701.795C414.171 698.188 417.809 694.072 421.106 689.708L423.551 686.409L425.952 682.925L430.566 675.854C436.69 666.328 442.309 656.115 449.323 646.633L451.817 652.622C441.753 650.507 431.031 650.856 420.664 652.97C415.443 654.028 410.268 655.344 405.141 656.991C399.976 658.603 394.966 660.431 390.08 662.663C385.23 664.857 380.579 667.451 376.24 670.553C374.071 672.104 372.088 673.686 370.076 675.528C368.175 677.329 366.387 679.238 364.791 681.326C361.56 685.465 358.974 690.065 357.362 695.003C356.555 697.472 355.973 700.008 355.725 702.569C355.48 705.205 355.444 707.464 355.797 710.303C355.948 711.519 355.06 712.621 353.843 712.772C352.627 712.923 351.524 712.033 351.372 710.817L351.368 710.669L351.446 710.814Z" fill="#C6C3C1"/>
<path d="M735.16 52.2488C734.507 58.2289 733.113 64.1592 730.969 69.8177C730.05 72.2534 728.696 74.9253 726.203 75.6726C723.382 76.5417 720.348 74.3457 719.368 71.5647C718.387 68.7838 718.988 65.6922 719.97 62.9584C720.989 60.1864 722.343 57.5145 722.877 54.6472C723.796 49.9908 722.37 44.9296 719.218 41.405C717.718 39.7143 715.784 38.3337 714.537 36.4497C713.326 34.5275 712.937 31.7273 714.586 30.1191C715.95 28.8163 718.17 28.8181 719.862 29.6143C721.554 30.4105 722.863 31.9224 724.095 33.3628C729.33 39.4104 733.788 44.3729 735.124 52.287" fill="#C6C3C1"/>
<path d="M737.426 52.5081C737.426 52.5081 737.116 54.2948 736.592 57.4579C735.955 60.5876 734.993 65.0603 733.092 70.2298C732.655 71.5394 732.112 73.0376 731.124 74.4762C730.247 75.9482 728.488 77.5969 726.356 78.0364C723.821 78.6001 721.607 77.6728 719.897 76.359C719.024 75.6842 718.293 74.8568 717.669 73.9147C717.356 73.4068 717.12 72.9703 716.876 72.312C716.754 71.9829 716.548 71.3604 716.419 70.8094C715.499 66.509 716.881 62.4297 717.956 59.1377C719.1 55.6954 719.644 53.1239 719.04 50.5527C718.473 47.9433 717.137 45.6181 715.234 44.0515C714.203 43.0857 712.575 41.9913 710.956 40.0454C710.571 39.6138 710.141 38.9245 709.828 38.4166C709.355 37.5437 709.116 37.0333 708.87 36.3011C708.415 34.8724 708.142 33.3268 708.379 31.5425C708.651 29.7201 709.258 27.9238 711.124 26.1605L711.338 25.9314C711.555 25.7763 711.844 25.5449 712.17 25.3492C712.678 25.0366 713.04 24.8027 713.515 24.6022C714.39 24.2036 715.27 23.9529 716.155 23.8501C719.62 23.4412 722.322 24.5377 724.411 26.1352C726.311 27.6279 727.395 29.073 728.319 30.1533C729.243 31.2336 730.096 32.3902 730.911 33.5111C734.314 37.9158 736.587 42.8384 737.149 46.3732C737.503 48.1382 737.55 49.5432 737.508 50.5068C737.428 51.4347 737.445 51.9524 737.445 51.9524C737.377 53.25 736.262 54.2116 735 54.1046C734.11 54.0595 733.389 53.5278 733.03 52.7622L732.954 52.6907C732.954 52.6907 732.234 51.0856 730.751 48.7651C729.267 46.4447 726.805 43.6379 723.279 39.9774C721.56 38.3679 719.205 35.4465 718.107 34.705C717.801 34.4189 717.391 34.3212 717.577 34.3522C717.577 34.3522 717.725 34.3473 717.87 34.2686C717.942 34.1922 717.942 34.1922 718.161 34.1111C718.233 34.0347 718.376 33.882 718.411 33.8438L718.197 34.0729C718.805 33.4239 718.723 33.2045 718.754 33.0184C718.713 32.9087 718.718 33.0566 718.726 33.2784C718.726 33.2784 718.81 33.5718 718.733 33.5003C718.814 33.7197 718.891 33.7912 719.01 34.0464C719.481 34.8454 720.553 35.9208 721.974 37.4661C725.009 40.8094 726.898 45.3004 727.119 49.7346C727.228 51.9147 726.937 54.293 726.302 56.3493C725.667 58.4056 724.798 60.0994 724.036 61.6787C722.475 64.8015 721.38 67.502 721.718 69.8967C721.754 72.0793 724.146 73.889 725.322 73.6287C726.946 73.5018 728.277 71.2378 729.198 68.8761C730.999 64.0429 732.007 59.8278 732.462 56.815C732.955 53.838 733.008 52.0967 733.008 52.0967C733.041 50.8373 734.118 49.8399 735.342 49.9111C736.565 49.9823 737.599 51.022 737.529 52.2457C737.531 52.3197 737.498 52.4318 737.5 52.5057L737.426 52.5081Z" fill="#C6C3C1"/>
<path d="M722.224 75.099C715.226 82.8031 708.225 90.4333 701.037 98.0326C693.81 105.522 686.355 112.871 678.134 119.431C676.041 121.053 673.946 122.602 671.738 124.117C669.493 125.597 667.097 127.007 664.271 127.728C661.483 128.485 657.959 128.267 655.374 126.204C652.827 124.177 651.579 121.146 651.223 118.234C650.865 115.247 651.58 112.263 652.715 109.672C653.851 107.082 655.292 104.777 656.661 102.549L664.921 89.3628L667.489 93.1285C661.615 94.5781 655.567 95.2191 649.496 95.1946C646.533 95.1429 643.31 95.0628 639.941 93.914C639.118 93.6447 638.254 93.2657 637.461 92.8103C637.008 92.529 636.745 92.4265 636.213 91.9997C635.908 91.7135 635.683 91.6468 635.263 91.2534C633.699 89.8608 632.653 88.4514 631.821 86.8129C630.196 83.5718 629.599 80.0751 629.782 76.6641C629.929 73.2912 630.775 69.7846 633.076 66.6377C635.413 63.4526 638.725 61.7534 641.608 60.5122C644.677 59.302 647.13 58.5189 650.245 57.5662C661.827 54.1543 673.739 52.8414 685.494 52.3848C697.289 52.0379 708.918 52.2516 720.598 52.8708C721.449 52.8801 722.104 53.6361 722.095 54.4876C722.046 55.2295 721.474 55.8403 720.737 55.9383C717.824 56.2921 714.91 56.5721 712.031 56.8138C709.152 57.0555 706.24 57.4094 703.284 57.5796C697.448 57.9176 691.728 58.4369 685.972 58.9943C674.495 59.997 663.106 61.441 652.248 64.3852C649.756 65.1325 646.641 66.0852 644.302 66.9756C641.817 67.9447 639.858 69.1188 638.688 70.6744C636.315 73.8976 635.775 79.9111 637.646 83.8845C638.086 84.8695 638.822 85.8449 639.395 86.3814C639.509 86.4887 639.891 86.8464 640.12 87.061L640.689 87.4496C641.142 87.731 641.631 87.9741 642.156 88.1791C644.294 89.0348 647.004 89.2797 649.822 89.4101C655.385 89.7472 661.071 89.3401 666.55 88.2365L666.621 88.1602C667.983 87.9308 669.308 88.813 669.574 90.1367C669.708 90.8356 669.544 91.4701 669.191 91.9998L660.401 104.833C658.955 106.99 657.581 109.07 656.579 111.212C655.577 113.355 654.985 115.594 655.168 117.772C655.352 119.95 656.239 122.142 657.797 123.386C659.321 124.669 661.515 125.005 663.681 124.453C665.92 123.899 668.102 122.718 670.166 121.355C672.266 119.955 674.326 118.444 676.383 116.86C684.464 110.527 691.923 103.326 699.153 95.9102C706.422 88.5304 713.27 80.7571 720.154 72.9456C720.726 72.3348 721.685 72.2296 722.334 72.8377C722.984 73.4457 723.051 74.3688 722.444 75.0178L722.224 75.099Z" fill="#C6C3C1"/>
<path d="M662.494 59.7214C659.591 60.3711 656.569 60.7655 653.573 60.826C650.577 60.8865 647.536 60.6894 644.558 60.1941C641.617 59.6607 638.67 58.9793 635.775 57.6301C634.346 56.9363 632.985 56.0923 631.763 54.9477C631.152 54.3754 630.65 53.7626 630.106 52.966C629.754 52.4223 629.243 51.5136 628.958 50.7456C627.815 47.5258 628.138 43.8881 629.965 40.9418C631.866 37.993 634.88 36.2294 637.731 35.1743C640.619 34.081 643.407 33.324 646.19 32.4192L654.544 29.8526L653.595 33.6217C650.081 30.3309 647.067 26.5058 644.813 22.1747C642.598 17.8794 640.835 12.7182 642.163 7.01213C642.847 4.21398 644.569 1.45607 646.879 -0.32164C649.187 -2.1733 651.855 -3.18543 654.502 -3.71573C657.188 -4.21026 659.816 -4.18477 662.496 -3.7538C664.989 -3.35379 667.42 -2.58165 669.668 -1.76652C671.916 -0.951393 674.133 0.0497934 676.161 0.946084C678.307 2.02362 680.414 3.06539 682.376 4.18592C686.483 6.38399 690.34 8.84928 694.2 11.3885C701.848 16.5433 709.143 22.2278 715.583 28.9024C716.194 29.4747 716.154 30.5123 715.544 31.0874C715.044 31.6218 714.195 31.6865 713.588 31.262C706.165 26.174 698.46 21.5391 690.687 17.0546C686.799 14.7754 682.916 12.644 678.997 10.5509C677.038 9.50429 675.045 8.56983 673.088 7.59719C671.019 6.59118 669.103 5.72826 667.077 4.90591C665.089 4.11933 663.182 3.55218 661.171 3.17349C659.384 2.86153 657.421 2.81439 655.618 3.13215C651.974 3.73191 649.036 5.56705 648.069 8.74455C647.603 10.3142 647.554 12.2034 647.84 14.1187C648.164 16.0698 648.745 17.9755 649.625 19.9455C651.308 23.814 653.723 27.4365 656.674 30.4865L656.789 30.5938C657.632 31.4546 657.604 32.862 656.706 33.6685C656.456 33.9357 656.091 34.0956 655.724 34.1816L647.246 36.3451C644.458 37.102 641.517 37.7159 638.918 38.5778C637.637 39.0266 636.395 39.5111 635.308 40.2127C634.257 40.8761 633.287 41.759 632.653 42.7419C631.35 44.7459 631.033 47.4581 631.813 49.7645C632.019 50.387 632.179 50.7519 632.609 51.4411C632.881 51.8394 633.344 52.4165 633.729 52.8481C634.646 53.7066 635.708 54.4862 636.949 55.0751C639.357 56.2551 642.156 56.9413 644.947 57.4056C647.738 57.8699 650.558 58.0742 653.366 57.9089C656.211 57.7792 658.937 57.3944 661.728 56.7114C662.572 56.4989 663.367 57.0282 663.616 57.8343C663.829 58.6787 663.3 59.4731 662.494 59.7214Z" fill="#C6C3C1"/>
<path d="M629.811 180.074C629.811 180.074 629.378 181.531 628.794 183.993C628.171 186.419 627.738 190.098 627.439 194.475C626.77 203.305 628.01 214.998 628.668 227.005C628.902 232.956 628.772 239.067 627.959 244.683C627.22 250.296 626.061 255.515 624.575 259.783C623.126 264.086 621.538 267.543 620.283 269.878C619.028 272.214 618.218 273.462 618.218 273.462C617.902 273.953 617.203 274.087 616.747 273.732C616.367 273.448 616.205 273.009 616.302 272.599C616.302 272.599 616.699 271.18 617.393 268.677C618.088 266.175 619.119 262.699 620.163 258.446C621.206 254.192 622.413 249.305 623.307 243.909C624.166 238.551 624.826 232.793 624.963 226.904C625.424 215.156 624.621 203.227 625.397 194.282C625.729 189.793 626.384 186.107 626.89 183.5C627.434 180.929 627.831 179.509 627.831 179.509C627.997 178.949 628.579 178.634 629.101 178.765C629.662 178.931 629.939 179.478 629.847 180.036L629.811 180.074Z" fill="white"/>
<path d="M760.708 316.681C760.708 316.681 755.72 315.807 748.145 315.091C740.64 314.225 730.516 313.629 720.505 314.214C715.517 314.487 710.539 315.056 705.931 315.613C701.328 316.318 697.059 317.05 693.42 317.797C689.778 318.471 686.766 319.161 684.598 319.639C682.468 320.152 681.216 320.341 681.216 320.341C680.591 320.472 680.097 320.081 680.003 319.492C679.915 319.051 680.16 318.636 680.487 318.44C680.487 318.44 681.612 317.774 683.65 316.746C684.63 316.159 685.946 315.672 687.408 315.106C688.87 314.54 690.513 313.858 692.421 313.351C696.157 312.193 700.613 311.493 705.445 311.003C710.275 310.439 715.42 310.456 720.532 310.586C730.764 311.067 740.869 312.219 748.449 313.082C755.995 314.058 761.012 314.672 761.012 314.672C761.606 314.727 761.993 315.232 761.9 315.791C761.808 316.349 761.302 316.735 760.782 316.678L760.708 316.681Z" fill="white"/>
<path d="M257.839 555.82C257.839 555.82 262.252 560.525 268.497 568.021C271.657 571.767 274.919 576.398 278.524 581.278C282.021 586.271 285.571 591.745 288.865 597.337C292.089 603.006 295.131 608.792 297.467 614.49C299.838 620.149 301.866 625.487 303.061 630.26C303.805 632.604 304.213 634.849 304.611 636.798C305.008 638.746 305.361 640.437 305.519 641.876C305.947 644.712 306.075 646.336 306.075 646.336C306.13 646.889 305.704 647.421 305.112 647.441C304.633 647.493 304.253 647.209 304.055 646.809C304.055 646.809 303.45 645.311 302.546 642.601C301.644 639.966 300.297 636.198 298.74 631.659C297.183 627.12 295.305 621.852 293.16 616.333C290.867 610.818 288.45 604.901 285.632 599.182C282.815 593.463 279.703 587.827 276.5 582.75C273.296 577.672 269.926 573.156 266.915 569.404C263.939 565.615 261.321 562.591 259.366 560.545C257.41 558.499 256.298 557.314 256.298 557.314C255.877 556.921 255.929 556.253 256.361 555.869C256.754 555.449 257.422 555.501 257.806 555.933L257.839 555.82Z" fill="white"/>
<path d="M436.098 660.758C436.098 660.758 431.479 663.24 425.036 667.595C418.513 671.805 410.094 677.964 402.291 684.843C394.409 691.576 386.908 698.668 381.045 703.781C378.094 706.32 375.647 708.398 373.806 709.827C372.04 711.254 370.917 711.994 370.917 711.994C370.448 712.343 369.777 712.216 369.467 711.782C369.233 711.42 369.254 710.938 369.428 710.599C369.428 710.599 370.168 709.502 371.588 707.679C373.008 705.856 375.146 703.344 377.865 700.516C380.546 697.653 384.035 694.616 387.779 691.459C391.521 688.228 395.712 685.131 399.977 682.031C408.585 675.977 417.276 670.217 423.873 666.005C430.545 661.864 434.97 659.129 434.97 659.129C435.478 658.817 436.113 658.981 436.387 659.453C436.662 659.926 436.536 660.596 436.064 660.87C436.064 660.87 436.064 660.87 436.029 660.909L436.098 660.758Z" fill="white"/>
<path d="M170.625 639.011C139.258 640.736 115.183 661.394 102.517 686.79C89.886 712.147 91.1119 744.603 107.753 767.564C117.178 780.544 133.042 796.831 152.274 805.31" stroke="#C6C3C1" stroke-width="0.93" stroke-linecap="round" stroke-linejoin="round"/>
<path d="M788.608 70.1257C804.273 80.4233 813.077 99.1979 814.363 117.884C815.65 136.57 810.198 155.179 802.099 172.098C782.616 212.89 747.176 245.763 705.084 262.233" stroke="#C6C3C1" stroke-width="0.93" stroke-linecap="round" stroke-linejoin="round"/>
<path d="M699.358 263.678C699.358 263.678 701.08 263.141 703.973 262.195C706.98 261.357 711.341 260.068 716.519 258.826C721.694 257.51 727.797 256.275 734.377 254.914C740.921 253.591 747.95 252.362 754.976 251.06C762.01 249.98 769.115 248.824 775.798 248.347C782.477 247.723 788.719 247.334 794.089 247.419C799.458 247.503 803.986 247.874 807.111 248.364C810.237 248.855 812.026 249.241 812.026 249.241C812.809 249.4 813.279 250.199 813.082 250.946C812.954 251.542 812.413 251.967 811.859 252.022C811.859 252.022 804.819 252.88 794.257 253.594C788.978 254.025 782.841 254.225 776.229 254.625C769.655 255.061 762.564 255.514 755.546 255.964C741.44 256.942 727.406 258.99 717.082 261.288C711.94 262.491 707.721 263.628 704.793 264.611C701.867 265.669 700.184 266.242 700.184 266.242C699.451 266.488 698.662 266.106 698.415 265.374C698.169 264.642 698.55 263.852 699.282 263.606L699.358 263.678Z" fill="#C6C3C1"/>
<path d="M762.474 251.705C763.042 249.873 763.935 247.771 764.985 245.96C766.036 244.149 767.274 242.444 768.666 240.881C771.449 237.755 774.767 235.13 778.403 233.162C780.258 232.176 782.118 231.338 784.13 230.643C786.143 229.949 788.089 229.478 790.185 229.077C794.307 228.351 798.448 228.216 802.529 228.527C806.649 228.874 810.707 229.593 814.666 230.649C818.624 231.704 822.483 233.096 826.275 234.713C833.785 237.947 840.911 241.898 847.89 245.853C849.059 246.518 849.478 247.985 848.814 249.154C848.29 250.096 847.231 250.538 846.263 250.347L846.186 250.276C842.724 249.685 839.171 250.8 835.831 252.759C832.491 254.719 829.359 257.374 826.005 260.037C822.654 262.774 818.885 265.192 815.068 267.277C811.215 269.402 807.24 271.196 803.07 272.665C798.863 274.171 794.418 275.167 789.836 275.39C787.546 275.539 785.21 275.429 782.865 275.025C780.482 274.584 778.392 274.06 776.063 273.025C771.738 270.982 768.007 267.847 765.432 263.859C764.18 261.827 763.29 259.562 762.88 257.243C762.693 256.065 762.618 254.92 762.614 253.699C762.773 252.916 762.589 251.812 764.37 250.829C764.663 250.745 764.625 250.709 765.181 250.728L765.367 250.759C765.367 250.759 766.04 250.959 766.192 251.102C766.954 251.744 766.938 252.374 766.912 252.708C766.888 253.115 766.86 253.375 766.543 253.867C766.472 253.943 766.257 254.172 766.15 254.287C765.823 254.483 765.494 254.604 765.048 254.545C764.564 254.45 764.411 254.306 764.22 254.128C764.106 254.02 763.991 253.913 763.912 253.768C763.52 253.114 763.677 252.258 764.366 251.828C765.019 251.437 765.876 251.594 766.306 252.283C766.229 252.212 766.191 252.176 766.115 252.104C765.924 251.925 765.847 251.854 765.437 251.756C765.029 251.733 764.736 251.816 764.519 251.971C764.411 252.086 764.268 252.238 764.233 252.277C764.056 252.541 764.056 252.541 764.061 252.689C764.064 252.763 763.964 253.1 764.499 253.6C764.613 253.708 764.914 253.846 765.136 253.839C765.58 253.824 765.393 253.793 765.541 253.789C766.266 253.321 765.937 253.443 766.092 253.66C766.196 254.544 766.411 255.463 766.701 256.379C767.277 258.136 768.257 259.77 769.415 261.213C771.696 264.137 774.916 266.364 778.326 267.622C785.296 270.208 793.362 269.02 800.867 266.518C804.673 265.21 808.433 263.644 812.033 261.713C815.672 259.818 819.004 257.637 822.33 255.234C825.691 252.793 829.118 250.128 833.193 247.997C837.12 245.87 842.214 244.335 847.179 245.617L845.439 250.078C838.634 245.784 831.942 241.523 824.761 238.167C821.227 236.505 817.549 234.996 813.81 233.86C810.071 232.723 806.194 231.887 802.334 231.568C798.436 231.214 794.517 231.342 790.689 231.984C788.812 232.305 786.866 232.775 785.073 233.389C783.244 234.04 781.491 234.764 779.782 235.67C776.401 237.52 773.259 239.88 770.726 242.738C769.48 244.222 768.384 245.775 767.441 247.472C766.536 249.204 765.849 250.781 765.249 252.799C765.052 253.545 764.251 253.942 763.504 253.744C762.757 253.546 762.361 252.745 762.558 251.998L762.594 251.96L762.474 251.705Z" fill="#C6C3C1"/>
<path d="M649.788 287.905C649.788 287.905 651.197 286.86 653.765 285.037C656.22 283.181 659.569 280.37 663.523 276.836C671.316 269.661 681.003 259.316 689.816 248.295C694.186 242.786 698.591 237.239 702.713 232.072C706.797 226.868 710.482 221.937 713.827 217.905C720.401 209.659 725.148 204.36 725.148 204.36C725.684 203.787 726.569 203.684 727.142 204.221C727.6 204.65 727.732 205.275 727.527 205.8C727.527 205.8 726.88 207.487 725.456 210.309C724.071 213.167 721.832 217.089 718.833 221.517C715.872 225.981 711.965 230.919 707.619 236.02C703.387 241.229 698.414 246.387 693.514 251.543C688.464 256.63 683.45 261.679 678.643 266.277C673.762 270.877 669.279 275.205 665.249 278.667C661.259 282.239 657.763 285.055 655.312 287.059C652.821 288.954 651.451 290.035 651.451 290.035C650.838 290.536 649.982 290.379 649.48 289.766C648.979 289.153 649.135 288.297 649.748 287.796L649.788 287.905Z" fill="#C6C3C1"/>
<path d="M698.135 242.473C700.118 243.112 701.796 243.464 703.728 243.697C705.622 243.895 707.545 243.832 709.465 243.696C713.3 243.275 717.035 242.043 720.456 240.303C722.165 239.396 723.834 238.38 725.389 237.256C726.905 236.096 728.416 234.788 729.741 233.45C732.424 230.661 734.761 227.476 736.685 224.119C738.645 220.724 740.154 217.122 741.324 213.346C742.532 209.605 743.366 205.729 744.016 201.895C745.349 194.116 745.64 186.149 746.002 178.106L750.664 179.176C748.899 183.971 744.715 187.29 740.748 189.307C736.709 191.4 732.495 192.684 728.618 194.069C724.741 195.453 721.052 196.943 717.413 198.838C713.811 200.695 710.366 202.842 707.115 205.243C700.757 209.965 695.219 215.956 693.349 223.161C692.393 226.708 692.375 230.632 693.529 234.147C694.105 235.905 694.865 237.62 695.988 239.101C696.53 239.823 697.22 240.541 697.869 241.149C697.951 241.369 698.277 241.173 697.512 241.531C697.405 241.645 697.512 241.531 697.226 241.836C697.083 241.989 697.057 242.323 697.062 242.471C697.161 243.208 697.497 243.308 697.535 243.344C697.612 243.415 697.65 243.451 697.981 243.403C697.981 243.403 698.277 243.394 698.349 243.317C698.642 243.234 698.895 243.04 699.068 242.702C699.204 242.327 699.199 242.179 699.192 241.957C699.189 241.883 699.149 241.774 699.11 241.738C699.393 242.432 699.088 243.293 698.394 243.575C697.7 243.857 696.839 243.551 696.557 242.857C696.478 242.712 696.473 242.564 696.394 242.419C696.384 242.123 696.341 241.939 696.548 241.488C696.794 241.073 697.12 240.877 697.411 240.72C697.595 240.677 697.888 240.593 698 240.627C698.556 240.646 698.818 240.748 699.196 240.958C699.463 241.208 699.99 241.487 700.134 242.482C700.142 242.704 700.08 243.076 699.94 243.303L699.797 243.455C699.48 243.947 699.516 243.908 699.225 244.066C697.441 244.975 696.601 244.188 695.887 243.879C694.866 243.209 693.954 242.498 693.111 241.637C691.428 239.989 690.028 237.962 689.105 235.809C687.257 231.427 686.837 226.592 687.606 221.867C688.078 219.372 688.825 217.349 689.863 215.168C690.865 213.026 692.133 211.06 693.517 209.276C696.357 205.63 699.698 202.597 703.312 199.963C706.89 197.367 710.628 195.135 714.598 193.193C718.494 191.252 722.619 189.527 726.8 188.354C730.904 187.11 734.865 186.019 738.401 184.386C741.937 182.754 744.897 180.511 746.309 177.319L746.38 177.243C746.894 176.004 748.282 175.441 749.521 175.956C750.497 176.368 751.049 177.387 750.971 178.389C750.201 186.408 749.395 194.466 747.774 202.476C746.945 206.5 745.892 210.458 744.502 214.315C743.113 218.173 741.387 221.93 739.322 225.514C737.22 229.061 734.739 232.399 731.839 235.343C730.297 236.837 728.822 238.106 727.125 239.383C725.425 240.585 723.649 241.717 721.792 242.628C718.041 244.49 714.047 245.693 709.844 246.2C707.779 246.415 705.634 246.485 703.556 246.331C701.514 246.138 699.241 245.657 697.408 245.087L697.37 245.052C696.623 244.854 696.226 244.053 696.424 243.306C696.659 242.595 697.46 242.199 698.169 242.361L698.135 242.473Z" fill="#C6C3C1"/>
</g>
<defs>
<clipPath id="clip0_96_2676">
<rect width="322" height="945.785" fill="white" transform="translate(646.435) rotate(43.117)"/>
</clipPath>
</defs>
</svg>
