<svg width="463" height="966" viewBox="0 0 463 966" fill="none" xmlns="http://www.w3.org/2000/svg">
<g opacity="0.15" clip-path="url(#clip0_1_44)">
<path d="M292.859 34.5809C292.859 34.5809 294.774 34.3472 298.779 34.1844C302.784 34.0215 308.661 33.9732 316.324 34.7359C323.959 35.5422 333.35 37.2029 343.862 41.0534C354.301 44.9185 366.049 50.9732 376.613 61.0765C387.105 71.0058 396.065 85.8834 398.643 103.174C401.687 120.712 398.899 140.024 391.075 158.498C383.366 176.987 370.709 194.697 354.564 209.9C338.508 225.349 319.314 238.523 299.481 251.901C279.561 265.22 259.294 279.251 239.873 295.98C230.147 304.272 220.568 313.1 211.279 322.436C201.991 331.772 192.805 341.616 184.548 352.14C176.263 362.709 168.791 374.132 163.338 386.584C157.841 399.007 154.465 412.401 154.513 426.125C154.475 439.791 157.629 453.76 164.582 465.607C168.074 471.508 172.507 476.844 177.766 481.221C182.953 485.612 189.096 488.944 195.483 490.303C198.72 491.011 201.811 491.183 205.192 490.73C208.094 490.336 211.314 489.274 214.054 487.705C219.724 484.567 224.331 479.341 227.529 473.303C230.728 467.265 232.474 460.387 232.537 453.583C232.561 450.144 232.063 446.924 231.172 443.254C230.457 440.078 229.117 436.612 227.705 433.348C221.678 420.296 211.185 409.236 199.534 399.728C187.722 390.177 174.665 382.31 160.639 376.185C132.832 364.035 100.755 358.969 71.3804 366.943C56.7876 370.93 43.2736 378.398 32.2307 388.765C21.1732 399.06 12.7171 412.153 6.77307 426.288C-5.07122 454.776 -7.82664 486.609 -4.99622 517.696C-2.45594 548.842 4.46655 579.825 8.74848 611.187C18.575 673.997 9.10504 739.362 -19.3184 793.441C-26.4533 806.91 -34.8664 819.654 -44.7179 831.065C-54.4822 842.534 -65.6705 852.742 -78.0515 860.964C-102.639 877.9 -132.725 885.149 -161.011 882.793C-189.34 880.596 -216.713 867.416 -233.215 845.45C-249.615 823.615 -255.168 796.055 -250.865 771.345C-248.72 758.954 -243.904 747.271 -236.924 737.342C-229.915 727.37 -220.653 719.586 -210.692 713.963C-190.638 702.805 -167.729 700.016 -147.812 704.656C-127.751 709.268 -111.089 721.731 -102.2 737.378C-97.7196 745.194 -95.3853 753.969 -95.5039 762.369C-95.6226 770.769 -97.8174 778.417 -100.768 785.121C-103.893 791.899 -107.31 797.603 -111.902 802.714C-116.35 807.607 -121.235 811.455 -126.15 814.404C-135.981 820.302 -145.947 822.719 -154.219 822.305C-162.505 822.007 -168.605 818.704 -171.975 816.023C-173.718 814.675 -174.867 813.472 -175.593 812.674C-176.32 811.877 -176.712 811.428 -176.712 811.428C-177.89 810.079 -177.777 808.019 -176.472 806.814C-175.124 805.638 -173.107 805.723 -171.857 807.057L-171.639 807.202C-171.639 807.202 -171.378 807.564 -170.796 808.202C-170.215 808.84 -169.314 809.753 -167.977 810.768C-165.377 812.811 -160.788 815.361 -153.996 815.544C-147.292 815.858 -138.588 813.732 -129.845 808.43C-125.481 805.742 -121.118 802.301 -117.278 797.945C-113.584 793.808 -110.095 788.089 -107.477 782.167C-104.844 776.13 -103.04 769.354 -102.992 762.288C-102.944 755.223 -104.942 747.927 -108.914 741.141C-116.784 727.553 -131.703 716.438 -149.673 712.463C-167.586 708.401 -188.551 711.102 -206.56 721.359C-215.492 726.473 -223.782 733.458 -229.922 742.313C-236.106 751.138 -240.445 761.631 -242.301 772.832C-246.216 795.163 -241 820.489 -226.156 840.033C-211.384 859.592 -186.567 871.7 -160.328 873.638C-134.059 875.72 -106.207 868.995 -83.2868 853.148C-71.6741 845.421 -61.1525 835.837 -51.9243 824.891C-42.6379 814.046 -34.6014 801.868 -27.814 788.921C-14.152 763.087 -5.2254 733.977 -0.638736 704.116C4.07838 674.154 3.33794 643.326 -1.20441 612.544C-5.50016 581.676 -12.4952 550.707 -15.2982 518.444C-18.2315 486.472 -15.7836 452.74 -2.85389 422.147C3.59661 406.967 12.8489 392.582 25.1964 381.198C37.4132 369.727 52.6529 361.46 68.6818 357.109C84.7833 352.744 101.558 352.092 117.799 354.037C134.04 355.982 149.834 360.583 164.616 367.085C179.355 373.558 193.298 382.077 205.705 392.15C218.01 402.281 229.52 414.269 236.449 429.366C238.095 433.224 239.522 436.937 240.544 441.259C241.42 445.045 242.152 449.426 242.1 453.662C241.996 462.135 239.816 470.42 235.909 477.808C231.987 485.123 226.191 491.758 218.622 495.956C214.78 498.049 210.762 499.459 206.207 500.072C202.13 500.627 197.616 500.326 193.552 499.444C185.292 497.594 178.016 493.509 171.885 488.363C165.725 483.262 160.623 477.042 156.695 470.285C148.825 456.697 145.436 441.191 145.502 426.161C145.48 411.073 149.29 396.272 155.221 383.008C161.094 369.641 168.985 357.68 177.648 346.735C212.922 303.618 254.697 271.044 294.886 245.013C314.704 231.752 333.478 218.737 349.056 204.101C364.766 189.552 376.743 172.96 384.177 155.544C391.684 138.303 394.3 120.195 391.665 104.5C389.349 88.3261 381.509 75.261 371.933 65.9404C362.313 56.5907 351.45 50.811 341.65 47.1195C331.806 43.399 322.908 41.7523 315.651 40.9458C308.438 40.1682 302.779 40.1728 299.064 40.2774C295.349 40.3819 293.318 40.6012 293.318 40.6012C291.693 40.7766 290.167 39.5737 290.02 37.9054C289.843 36.2807 291.017 34.8 292.642 34.6246L292.83 34.6244L292.859 34.5809Z" fill="#C6C3C1"/>
<path d="M211.45 187.514C211.45 187.514 211.991 190.198 212.665 195.043C213.311 199.931 214.249 206.836 214.624 215.251C215.217 223.621 215.042 233.428 214.665 243.918C214.397 249.141 214.013 254.538 213.425 260.051C212.94 265.507 212.266 271.151 211.519 276.621C209.837 287.749 207.734 298.849 204.542 309.036C203.04 314.13 201.146 318.962 199.338 323.476C197.327 327.917 195.432 332.184 193.232 335.87C191.162 339.644 188.903 342.852 186.875 345.712C184.761 348.513 182.848 350.822 181.11 352.68C179.487 354.553 177.98 355.874 176.994 356.789C176.009 357.704 175.502 358.183 175.502 358.183C174.574 359.011 173.166 358.954 172.338 358.026C171.698 357.287 171.566 356.257 172.044 355.444L172.102 355.357C172.102 355.357 173.39 352.947 175.677 348.753C178.007 344.587 181.032 338.622 184.475 331.365C187.875 324.08 191.534 315.459 194.843 305.853C198.167 296.318 201.302 285.841 203.768 275.234C205.052 269.807 206.147 264.569 207.141 259.2C208.076 253.919 208.78 248.608 209.382 243.545C210.645 233.33 210.704 223.697 210.489 215.515C210.158 207.318 209.35 200.5 208.516 195.801C207.726 191.13 207.098 188.388 207.098 188.388C206.821 187.199 207.559 185.994 208.749 185.718C209.938 185.441 211.144 186.18 211.421 187.369L211.45 187.514Z" fill="#C6C3C1"/>
<path d="M206.784 284.023C220.424 283.548 230.345 270.047 233.055 256.713C237.032 237.313 230.416 217.399 222.8 199.082C217.733 186.856 212.187 174.877 206.597 162.869C191.72 180.987 181.637 203.047 177.665 226.219C175.751 237.319 175.317 249.027 179.105 259.585C182.937 270.173 191.686 279.509 202.776 281.545C203.719 281.733 204.851 281.921 205.288 282.777C205.724 283.632 204.464 284.866 203.897 284.112" fill="#C6C3C1"/>
<path d="M206.563 281.804C208.058 281.73 209.494 281.555 210.568 281.263C211.757 280.987 213.106 280.565 214.237 279.998C216.659 278.908 218.834 277.34 220.834 275.467C224.746 271.662 227.685 266.771 229.506 261.576C230.475 258.891 231.037 256.439 231.454 253.45C231.871 250.649 232.041 247.936 231.993 245.078C231.956 239.464 231.194 233.807 229.996 228.237C228.798 222.667 226.947 217.228 224.922 211.862C223.888 209.164 222.825 206.51 221.69 203.87C220.583 201.187 219.404 198.708 218.138 195.981L202.986 164.425L209.59 165.362C202.536 174.551 196.601 184.61 192.147 195.277C187.605 205.886 184.298 217.001 182.587 228.362C181.797 233.992 181.196 239.621 181.465 245.076C181.734 250.531 182.626 255.898 184.708 260.8C186.645 265.542 189.83 270.109 193.796 273.501C195.801 275.211 198.023 276.689 200.419 277.717C201 277.978 201.654 278.224 202.263 278.441C202.917 278.687 203.425 278.774 204.557 279.15C205.487 279.643 207.49 280.033 207.857 283.166C207.757 284.545 207.192 285.299 206.381 285.953C205.946 286.229 205.409 286.563 204.481 286.636C203.552 286.71 202.477 286.058 202.128 285.449C201.401 284.463 201.617 283.099 202.632 282.329C203.617 281.603 204.982 281.819 205.752 282.834C205.607 282.486 204.881 282.066 204.358 282.095C203.836 282.125 203.633 282.241 203.502 282.343C203.27 282.503 203.096 282.575 202.996 283.199C203.142 284.302 203.244 284.055 203.331 284.301C203.418 284.359 203.346 284.374 203.157 284.374C202.852 284.36 201.88 284.216 201.067 284.115C200.254 284.014 199.427 283.84 198.628 283.623C195.377 282.843 192.197 281.481 189.408 279.627C183.758 275.932 179.353 270.742 176.239 264.651C173.299 258.676 171.752 252.12 171.278 245.65C170.877 239.165 171.304 232.854 172.398 226.673C174.499 214.441 178.124 202.47 183.42 191.294C188.758 180.148 195.52 169.697 203.648 160.406L203.764 160.231C205.184 158.663 207.636 158.473 209.234 159.85C209.699 160.285 210.019 160.749 210.281 161.3L223.692 193.583C224.828 196.222 225.993 199.007 226.998 201.748C228.046 204.518 229.052 207.259 229.955 210.059C231.806 215.686 233.44 221.357 234.652 227.188C235.836 233.063 236.512 239.04 236.434 245.017C236.394 248.005 236.108 251.081 235.648 254.041C235.231 256.842 234.481 260.048 233.499 262.849C231.446 268.581 228.189 273.952 223.827 278.337C221.624 280.515 219.059 282.388 216.173 283.798C214.737 284.539 213.287 285.019 211.677 285.455C209.95 285.877 208.514 286.053 207.063 286.155C205.815 286.331 204.726 285.417 204.622 284.155C204.49 282.937 205.403 281.848 206.621 281.716L206.563 281.804Z" fill="#C6C3C1"/>
<path d="M187.679 339.023C187.679 339.023 189.447 337.498 192.606 334.826C194.23 333.519 196.477 332.124 198.84 330.367C201.246 328.639 204.147 327.113 207.206 325.254C213.441 321.738 220.967 318.076 229.074 314.486C233.149 312.611 237.413 310.924 241.793 309.252C246.143 307.435 250.625 305.894 255.078 304.208C259.603 302.695 264.085 301.154 268.611 299.83C273.078 298.404 277.561 297.24 281.927 296.25C286.264 295.115 290.544 294.444 294.563 293.599C298.64 293.045 302.47 292.389 306.039 292.125C313.192 291.481 319.258 291.621 323.482 291.98C327.72 292.412 330.115 292.874 330.115 292.874C331.334 293.12 332.105 294.323 331.903 295.571C331.702 296.442 331.078 297.095 330.295 297.328L330.15 297.357C330.15 297.357 327.829 298.012 323.825 298.74C321.838 299.177 319.4 299.629 316.644 300.183C313.858 300.591 310.74 301.406 307.374 301.931C300.555 303.3 292.547 304.569 284.06 306.273C279.78 307.133 275.385 307.978 270.887 308.881C266.376 309.711 261.893 310.876 257.338 311.866C248.301 314.02 239.249 316.479 231.098 319.475C226.949 320.798 223.063 322.484 219.379 324.054C215.739 325.653 212.389 327.382 209.228 328.922C206.27 330.724 203.399 332.206 201.152 333.789C198.876 335.416 196.948 336.708 195.368 338.044C192.339 340.803 190.586 342.401 190.586 342.401C189.702 343.257 188.294 343.2 187.436 342.316C186.579 341.432 186.635 340.024 187.519 339.168C187.519 339.168 187.548 339.124 187.577 339.081L187.679 339.023Z" fill="#C6C3C1"/>
<path d="M267.397 303.545C267.215 277.17 310.996 267.472 335.21 273.59C352.035 277.87 367.402 288.216 384.716 288.928C370.505 296.309 360.351 309.592 347.115 318.626C336.025 326.136 322.84 330.557 309.403 331.104C300.16 331.489 290.653 330.003 282.665 325.381C274.677 320.76 268.368 312.669 267.354 303.516" fill="#C6C3C1"/>
<path d="M265.191 303.46C265.188 300.819 265.792 297.264 266.935 294.507C268.091 291.634 269.756 289.035 271.756 286.785C275.784 282.241 280.843 279.074 286.151 276.574C296.81 271.793 308.344 269.665 319.866 269.54C325.641 269.55 331.519 270.067 337.224 271.6C339.924 272.266 342.828 273.192 345.499 274.089C348.214 275.015 350.871 276.029 353.528 277.042C364.011 281.125 374.451 285.178 384.884 285.271C386.887 285.284 388.544 286.951 388.532 288.953C388.505 290.317 387.767 291.522 386.679 292.118L386.476 292.234C376.718 297.74 368.851 306.451 359.793 314.684C357.532 316.761 355.184 318.779 352.676 320.754C350.081 322.671 347.559 324.385 344.688 326.056C339.149 329.281 333.232 331.752 327.024 333.527C320.902 335.36 314.446 336.28 308.076 336.314C301.531 336.421 295.029 335.425 288.742 333.254C285.635 332.067 282.629 330.633 279.797 328.749C277.052 326.923 274.465 324.575 272.328 322.024C270.119 319.487 268.432 316.543 267.208 313.468C265.912 310.408 265.24 307.072 265.177 303.764C265.19 302.517 266.161 301.529 267.365 301.514C268.425 301.527 269.282 302.223 269.544 303.151L269.588 303.18C270.931 308.533 273.869 313.187 277.893 316.68C279.884 318.507 281.975 319.898 284.357 321.231C286.608 322.476 289.178 323.432 291.733 324.126C296.829 325.631 302.416 326.018 307.829 325.912C313.444 325.69 318.899 324.858 324.325 323.505C329.692 322.05 334.899 319.985 339.785 317.268C342.134 316.004 344.599 314.378 346.846 312.794C349.122 311.168 351.412 309.425 353.673 307.537C362.645 300.189 371.47 291.172 383.1 285.592L384.663 292.598C372.428 291.621 361.712 286.567 351.504 282.165C348.934 281.021 346.349 279.993 343.794 278.921C341.18 277.937 338.77 277.025 336.041 276.215C330.887 274.609 325.459 274.076 320.002 273.965C309.075 273.857 297.904 275.723 288.014 280.2C283.156 282.496 278.415 285.372 275.039 289.408C273.359 291.368 271.998 293.603 271.072 295.94C270.147 298.465 269.729 300.511 269.762 303.485C269.75 304.733 268.779 305.72 267.531 305.706C266.283 305.693 265.295 304.722 265.307 303.474L265.307 303.285L265.191 303.46Z" fill="#C6C3C1"/>
<path d="M-2.79199 730.885C-2.79199 730.885 -2.09933 728.142 -0.872654 723.368C-0.266622 720.945 0.70157 718.072 1.61102 714.72C2.52046 711.368 3.85024 707.667 5.15053 703.633C6.52335 699.584 8.02633 695.245 9.587 690.631C11.2638 686.03 13.0128 681.227 14.8777 676.249C16.699 671.242 18.6944 666.163 20.7766 660.953C22.7427 655.729 24.9264 650.461 27.0376 645.207C29.2649 639.968 31.4633 634.773 33.7923 629.664C36.0053 624.541 38.4361 619.563 40.7947 614.788C45.5554 605.267 50.3607 596.53 55.0232 589.33C59.642 582.101 64.0018 576.396 67.2324 572.578C70.5356 568.746 72.5788 566.713 72.5788 566.713C73.4628 565.856 74.8994 565.87 75.7858 566.71C76.4543 567.406 76.5718 568.363 76.2827 569.176L76.2248 569.263C76.2248 569.263 75.1402 571.934 72.8826 576.273C71.7829 578.494 70.4661 581.135 68.9323 584.198C67.2677 587.173 65.6329 590.671 63.5775 594.328C59.7135 601.745 54.9079 610.294 49.9001 619.525C47.3962 624.14 44.7764 628.93 42.1277 633.763C39.4354 638.567 36.9467 643.632 34.24 648.553C31.7077 653.589 29.0446 658.538 26.6138 663.516C24.183 668.495 21.8972 673.443 19.7709 678.247C15.3585 687.811 11.976 697.056 9.04146 704.965C7.77014 708.955 6.46932 712.612 5.54526 715.892C4.6212 719.171 3.75449 721.986 3.221 724.395C2.15401 729.213 1.50493 731.984 1.50493 731.984C1.25998 733.203 0.0566298 733.973 -1.13371 733.684C-2.32406 733.394 -3.12384 732.234 -2.8353 731.045C-2.8353 731.045 -2.83532 731.045 -2.80636 731.001L-2.79199 730.885Z" fill="#C6C3C1"/>
<path d="M-11.5593 759.661C-11.5593 759.661 -11.185 757.586 -11.1606 754.336C-11.0929 750.927 -11.5786 746.081 -13.0669 740.381C-14.6567 734.739 -17.1329 728.256 -20.654 721.643C-22.371 718.366 -24.3495 714.915 -26.3712 711.623C-28.4802 708.274 -30.6616 704.939 -32.901 701.691C-37.3654 695.079 -42.2212 688.772 -46.6123 682.711C-51.0033 676.651 -55.1906 671.04 -58.5063 666.008C-65.2683 656.047 -68.4863 648.317 -68.4863 648.317C-68.9814 647.171 -68.4319 645.778 -67.2426 645.313C-66.445 644.964 -65.5451 645.123 -64.9204 645.601C-64.9204 645.601 -58.3105 650.688 -50.5335 660.068C-46.5798 664.707 -42.3923 670.507 -38.1314 676.858C-33.8706 683.209 -29.8262 690.358 -25.9849 697.623C-24.0787 701.277 -22.3175 704.961 -20.6 708.615C-18.8678 712.342 -17.3246 715.881 -15.7814 719.42C-12.811 726.483 -10.3053 733.299 -8.93262 739.362C-7.37128 745.425 -7.0011 750.633 -6.86527 754.304C-6.81633 758.104 -7.03124 760.034 -7.03124 760.034L-7.05996 760.266C-7.18881 761.5 -8.29035 762.4 -9.52401 762.27C-10.7577 762.141 -11.6589 761.039 -11.5301 759.806C-11.5301 759.806 -11.4722 759.719 -11.4868 759.646L-11.5593 759.661Z" fill="#C6C3C1"/>
<path d="M-36.5188 810.704C-36.5188 810.704 -34.9688 808.846 -32.2743 805.551C-29.4928 802.313 -25.5379 797.595 -20.7133 792.136C-15.8888 786.677 -10.1949 780.289 -4.13889 773.451C2.0043 766.671 8.50961 759.441 15.0439 752.168C21.7235 745.053 28.316 737.881 35.0113 731.594C41.6195 725.249 47.9819 719.557 53.78 714.996C59.5781 710.436 64.7103 707.066 68.4511 704.844C72.2354 702.65 74.4832 701.633 74.4832 701.633C75.6289 701.138 76.9646 701.587 77.5032 702.762C77.8962 703.588 77.7379 704.488 77.2309 705.156C77.2309 705.156 75.6375 707.174 72.696 710.179C71.2325 711.718 69.4502 713.547 67.3927 715.696C65.2769 717.744 63.002 720.125 60.3208 722.55C49.8869 732.568 35.2047 745.1 20.726 757.893C13.4504 764.297 6.30553 770.788 -0.186524 777.148C-6.78034 783.377 -12.5035 789.62 -17.4734 794.919C-22.3415 800.349 -26.2241 804.864 -28.8313 808.217C-31.4386 811.571 -32.9016 813.487 -32.9016 813.487C-33.6548 814.431 -35.0476 814.635 -35.9919 813.881C-36.9362 813.127 -37.1414 811.735 -36.3881 810.791L-36.3592 810.748L-36.5188 810.704Z" fill="#C6C3C1"/>
<path d="M34.1491 635.554C32.1286 633.205 30.0638 630.262 28.4924 627.333C26.95 624.36 25.6831 621.256 24.7063 618.094C22.8543 611.712 22.1193 605.068 22.5161 598.424C22.7581 595.13 23.2324 591.866 23.9388 588.63C24.7178 585.379 25.6568 582.361 26.8712 579.212C29.3005 573.102 32.5863 567.311 36.4679 562.042C40.3494 556.772 44.7685 551.923 49.5218 547.422C51.8695 545.215 54.4495 543.036 56.9135 541.032C59.5227 538.999 62.1175 537.082 64.7559 535.194C75.4548 527.801 86.7502 521.495 97.9733 515.393C99.8439 514.376 102.167 515.041 103.185 516.912C104.014 518.406 103.741 520.234 102.655 521.395L102.539 521.57C98.7135 525.62 97.2995 531.337 97.1486 537.518C96.9978 543.698 97.8923 550.197 98.6855 556.942C99.5369 563.789 99.605 570.869 99.2666 577.804C98.8992 584.783 97.9513 591.689 96.4664 598.552C94.9525 605.459 92.5969 612.309 89.0507 618.68C87.2849 621.903 85.1851 624.965 82.7221 627.724C81.4906 629.103 80.2155 630.453 78.8097 631.717C77.8532 632.588 77.4182 632.864 76.7516 633.488C76.0703 634.04 75.1425 634.679 74.3451 635.217C67.9806 639.4 60.6268 641.858 53.0373 641.835C49.2644 641.838 45.4468 641.058 41.9621 639.682C40.1906 638.944 38.5786 638.06 36.9373 637.031C36.2837 636.597 35.8623 636.191 35.3535 635.538C34.8882 634.915 34.2771 633.755 34.5507 632.304C34.6807 631.825 34.6227 631.912 35.0569 631.07L35.2306 630.809C35.5349 630.446 36.0713 630.112 36.3904 630.01C37.9134 629.516 38.7124 630.11 39.1771 630.356C39.7 630.704 40.0343 631.052 40.4273 631.878C40.5001 632.052 40.6603 632.473 40.6462 632.778C40.647 633.343 40.5753 633.924 40.0537 634.519C39.5322 635.114 39.242 635.173 38.7778 635.303C38.5602 635.347 38.299 635.362 38.0378 635.377C36.8334 635.392 35.8017 634.392 35.7855 633.188C35.7692 631.984 36.7691 630.953 37.9735 630.937C37.8574 630.923 37.7123 630.952 37.5672 630.981C37.1756 631.098 37.0016 631.17 36.5669 631.635C36.2193 632.157 36.0459 632.607 36.1046 633.086C36.0759 633.318 36.2215 633.666 36.2361 633.739C36.4399 634.188 36.4689 634.145 36.6578 634.333C36.7885 634.42 37.1374 634.841 38.2688 634.462C38.4428 634.39 38.9213 634.143 39.124 633.838C39.5295 633.228 39.3557 633.49 39.4134 633.214C39.5866 632.575 39.2959 632.256 39.412 632.271C39.412 632.271 39.6299 632.416 39.7314 632.358C41.0527 632.922 42.4466 633.473 43.9128 633.82C46.7725 634.528 49.7619 634.569 52.6782 634.248C58.5109 633.605 64.2394 631.134 68.8054 627.576L70.4289 626.269C70.965 625.746 71.8347 625.005 72.1099 624.686C73.1387 623.611 74.1239 622.508 75.0945 621.332C76.9631 618.995 78.5557 616.411 80.0175 613.741C82.8541 608.341 84.8481 602.319 86.363 596.167C87.8198 589.913 88.7975 583.529 89.2382 577.101C89.7079 570.63 89.5973 564.276 89.1816 557.719C88.7514 551.089 88.045 544.213 88.5426 536.945C88.8276 533.303 89.4028 529.603 90.7762 525.931C92.1206 522.303 94.2488 518.82 97.0891 516.061L101.611 522.209C90.1257 527.76 78.6986 533.224 68.1439 540.022C65.5053 541.722 62.9248 543.523 60.4169 545.309C57.8221 547.226 55.4449 549.1 53.0679 551.162C48.343 555.242 44.0106 559.772 40.2882 564.708C36.5368 569.687 33.3519 575.043 30.9511 580.732C29.8086 583.489 28.7682 586.566 28.0758 589.497C27.398 592.501 26.9525 595.533 26.7392 598.594C26.3561 604.746 27.0035 610.955 28.7822 616.785C29.744 619.686 30.88 622.514 32.3639 625.197C33.9204 627.865 35.5054 630.112 37.6712 632.62C38.4996 633.548 38.4 634.927 37.4725 635.754C36.5449 636.582 35.1662 636.482 34.3377 635.554L34.2505 635.496L34.1491 635.554Z" fill="#C6C3C1"/>
<path d="M-24.667 706.036C-16.6499 690.391 -18.39 670.894 -26.5241 655.247C-34.6872 639.643 -48.5772 627.642 -63.8411 618.935C-79.1485 610.199 -95.9172 604.511 -112.57 598.838C-105.601 611.135 -108.395 626.675 -104.37 640.28C-100.404 653.783 -92.56 689.712 -26.3916 707.59" fill="#C6C3C1"/>
<path d="M-26.6998 705.124C-25.166 702.062 -24.125 699.362 -23.2297 696.315C-22.4068 693.282 -21.9034 690.163 -21.6757 686.985C-21.2493 680.674 -22.0566 674.233 -23.7487 668.084C-24.6673 665.023 -25.7309 661.992 -27.0265 659.12C-28.3511 656.293 -30.024 653.421 -31.7255 650.782C-35.2884 645.461 -39.5182 640.575 -44.2405 636.241C-48.934 631.864 -54.2215 628.096 -59.6971 624.706C-62.4856 623.04 -65.216 621.475 -68.164 619.954C-71.0248 618.491 -73.9436 617.115 -76.8913 615.783C-88.8126 610.555 -101.312 606.764 -113.885 602.8L-109.061 596.964C-105.395 603.17 -103.992 610.132 -103.112 616.559C-102.261 623.028 -101.919 629.223 -100.634 634.851C-100.341 636.301 -100.006 637.592 -99.6121 638.985L-98.2562 643.466C-97.3669 646.382 -96.3616 649.123 -95.2403 651.878C-94.0901 654.59 -92.7368 657.186 -91.2821 659.724C-89.7258 662.203 -88.1696 664.683 -86.3235 666.916C-84.6368 669.294 -82.4862 671.352 -80.5965 673.614C-78.3879 675.585 -76.4257 677.832 -73.9998 679.571C-71.6898 681.484 -69.4233 683.368 -66.867 685.005C-64.4701 686.788 -61.8558 688.338 -59.2416 689.888C-56.7142 691.569 -53.9841 692.945 -51.225 694.278C-48.5529 695.741 -45.8228 697.117 -42.9478 698.275C-40.1309 699.52 -37.3861 700.969 -34.4533 702.04C-31.5494 703.155 -28.6745 704.313 -25.785 705.544L-25.6543 705.631C-24.5073 706.08 -24.012 707.414 -24.4602 708.561C-24.8652 709.547 -25.8947 710.056 -26.9107 709.883C-30.046 709.305 -33.167 708.611 -36.2879 707.917C-39.4668 707.311 -42.4721 706.254 -45.5933 705.372C-48.7145 704.489 -51.7345 703.36 -54.7402 702.115C-57.7747 700.913 -60.7514 699.624 -63.6269 698.089C-66.5892 696.684 -69.4357 695.105 -72.2245 693.25C-75.0566 691.555 -77.715 689.599 -80.3879 687.57C-83.1188 685.628 -85.3861 683.178 -87.9143 680.931C-90.1526 678.438 -92.6229 676.104 -94.5134 673.277C-96.5922 670.638 -98.3812 667.752 -100.098 664.852C-101.785 661.909 -103.226 658.878 -104.493 655.774C-105.687 652.656 -106.853 649.494 -107.714 646.347L-109.012 641.778C-109.464 640.095 -109.872 638.442 -110.18 636.73C-111.307 630.014 -111.403 623.543 -111.934 617.538C-112.436 611.488 -113.431 605.802 -115.992 600.959L-116.108 600.756C-117.141 598.813 -116.39 596.36 -114.403 595.358C-113.345 594.805 -112.184 594.761 -111.124 595.152C-98.7393 599.683 -86.2383 604.416 -74.1855 610.297C-71.1649 611.803 -68.217 613.324 -65.2398 614.99C-62.4223 616.613 -59.4158 618.424 -56.6705 620.249C-51.0493 623.988 -45.7756 628.249 -40.8787 632.887C-36.0107 637.569 -31.6064 642.76 -27.9558 648.516C-26.0797 651.46 -24.5518 654.36 -23.0963 657.463C-21.7132 660.581 -20.5332 663.816 -19.6144 667.065C-17.8057 673.606 -17.0268 680.468 -17.4234 687.301C-17.6362 690.74 -18.1248 694.12 -18.9617 697.458C-19.8132 700.723 -21.1433 704.235 -22.5323 707.079L-22.5902 707.166C-23.1256 708.255 -24.46 708.749 -25.5491 708.213C-26.6382 707.677 -27.1334 706.343 -26.5691 705.211L-26.6998 705.124Z" fill="#C6C3C1"/>
<path d="M23.166 749.216C19.4184 736.423 23.5485 722.275 31.4275 711.562C39.3064 700.849 50.5708 693.078 62.2578 686.656C77.1638 678.418 93.5524 671.92 110.575 672.124C104.296 685.534 100.05 699.856 93.9887 713.411C87.9277 726.967 79.6168 740.03 67.3083 748.237C54.9709 756.487 37.9378 758.851 25.3164 751.086C24.6627 750.651 23.893 750.202 23.1097 750.434C22.3554 750.624 22.009 751.901 22.7784 752.161" fill="#C6C3C1"/>
<path d="M21.0045 749.725C20.3044 747.187 19.821 744.039 19.6719 741.24C19.5082 738.367 19.7508 735.451 20.2112 732.679C21.1464 727.021 23.0397 721.622 25.7317 716.63C27.0777 714.133 28.6416 711.782 30.3362 709.517C31.9729 707.34 33.8561 705.075 35.7979 703.1C39.6956 699.035 44.073 695.477 48.596 692.267C57.7438 685.978 67.2988 680.399 77.5811 675.995C87.8345 671.634 98.9312 668.463 110.555 668.279C112.659 668.234 114.388 669.886 114.434 671.99C114.435 672.556 114.349 673.064 114.146 673.557L114.002 673.775C109.634 684.122 106.239 694.991 102.293 705.933C98.3035 716.846 93.1676 727.876 85.8243 737.689C82.1745 742.611 77.7113 747.054 72.6521 750.786L70.695 752.122L70.2311 752.442L69.6221 752.791L68.6797 753.357C67.5778 754.069 65.8231 754.912 64.4165 755.609C61.5161 756.946 58.4847 758.008 55.4239 758.736C49.2585 760.163 42.7579 760.487 36.4725 759.07C33.3226 758.42 30.3315 757.247 27.5722 755.726C26.1491 755.031 24.8126 754.017 23.6361 753.234C23.1711 752.799 23.0553 752.973 23.8385 752.741C24.5201 752.377 24.5631 752.029 24.6208 751.754C24.6205 751.565 24.6492 751.333 24.5036 750.985C24.3869 750.593 23.7912 750.071 23.3993 749.999C24.5753 750.404 25.2011 751.637 24.7964 752.812C24.3918 753.988 23.1592 754.613 21.9832 754.207C21.2283 754.019 20.4001 753.28 20.1668 752.497C19.9046 751.757 19.9327 751.148 20.0191 750.64C20.2354 749.653 20.7564 748.681 22.1051 748.071C24.3388 747.358 25.6171 748.271 26.3576 748.575C27.679 749.14 28.7391 749.719 30.0166 750.066C32.4557 750.935 35.0684 751.353 37.5936 751.525C42.7023 751.971 47.9398 751.183 52.8279 749.598C55.2646 748.769 57.6431 747.839 59.9196 746.589C61.0361 745.95 61.8917 745.514 63.1819 744.614L64.0808 744.018C64.0808 744.018 64.5157 743.742 64.4142 743.8L64.8056 743.495L66.3857 742.348C70.5024 739.182 74.1829 735.349 77.4855 731.139C80.7881 726.929 83.6983 722.27 86.2309 717.422L88.0976 713.764L89.8916 709.933L93.2762 702.198C97.7455 691.792 101.604 680.792 106.959 670.284L110.406 675.78C100.131 675.353 89.6132 677.465 79.7363 681.26C74.7616 683.164 69.8744 685.315 65.0891 687.785C60.2603 690.227 55.6204 692.856 51.1697 695.863C46.7479 698.826 42.5879 702.152 38.8203 705.927C36.9365 707.814 35.2413 709.702 33.5611 711.85C31.9823 713.941 30.5343 716.118 29.3041 718.44C26.8002 723.056 25.0078 728.019 24.2315 733.155C23.8434 735.723 23.6874 738.32 23.8652 740.888C24.0576 743.528 24.3946 745.762 25.2111 748.503C25.5611 749.678 24.8662 750.912 23.6913 751.261C22.5164 751.61 21.2819 750.915 20.932 749.74L20.9028 749.595L21.0045 749.725Z" fill="#C6C3C1"/>
<path d="M290.874 36.9036C291.217 42.9095 290.819 48.9885 289.638 54.9231C289.133 57.4769 288.238 60.3356 285.903 61.4836C283.264 62.806 279.909 61.1403 278.484 58.5591C277.058 55.9779 277.14 52.8297 277.659 49.9712C278.206 47.0692 279.102 44.2105 279.156 41.2944C279.294 36.5503 277.052 31.7936 273.362 28.837C271.604 27.4167 269.47 26.3739 267.929 24.7212C266.418 23.0251 265.572 20.3273 266.933 18.4692C268.063 16.9595 270.254 16.5951 272.054 17.1014C273.854 17.6077 275.394 18.8831 276.847 20.1006C283.007 25.2023 288.223 29.3618 290.846 36.9471" fill="#C6C3C1"/>
<path d="M293.153 36.7856C293.153 36.7856 293.141 38.5991 293.145 41.8053C293.034 44.9971 292.823 49.5672 291.8 54.9794C291.584 56.3433 291.296 57.9103 290.558 59.4923C289.937 61.0886 288.474 63.0048 286.443 63.7899C284.036 64.7638 281.699 64.2144 279.796 63.2004C278.823 62.679 277.966 61.9833 277.196 61.157C276.803 60.7075 276.498 60.3161 276.149 59.707C275.974 59.4025 275.669 58.8225 275.45 58.3004C273.834 54.2105 274.524 49.9592 275.042 46.535C275.603 42.9511 275.715 40.3251 274.696 37.8887C273.705 35.4087 272.005 33.3354 269.87 32.104C268.693 31.3216 266.907 30.5106 264.989 28.8582C264.539 28.4959 264.001 27.887 263.609 27.4376C262.998 26.6547 262.678 26.1907 262.314 25.5091C261.63 24.175 261.106 22.6956 261.045 20.8967C261.014 19.0543 261.316 17.1825 262.866 15.1357L263.039 14.8744C263.228 14.6857 263.474 14.4098 263.764 14.163C264.213 13.7709 264.532 13.4805 264.967 13.2045C265.764 12.667 266.591 12.2747 267.447 12.0273C270.797 11.0526 273.643 11.6886 275.966 12.9199C278.086 14.0788 279.394 15.3254 280.484 16.2385C281.574 17.1516 282.605 18.1518 283.593 19.123C287.677 22.9062 290.73 27.3866 291.867 30.7805C292.508 32.4628 292.786 33.8409 292.903 34.7983C292.977 35.7267 293.079 36.2344 293.079 36.2344C293.226 37.5255 292.285 38.6578 291.022 38.7604C290.137 38.8627 289.338 38.4571 288.859 37.7611L288.771 37.7032C288.771 37.7032 287.797 36.2387 285.951 34.1946C284.105 32.1505 281.214 29.7881 277.132 26.7593C275.171 25.4552 272.367 22.9621 271.162 22.4118C270.813 22.18 270.392 22.1513 270.581 22.1512C270.581 22.1512 270.726 22.122 270.857 22.0204C270.915 21.9333 270.915 21.9333 271.118 21.8171C271.175 21.73 271.291 21.5558 271.32 21.5122L271.146 21.7735C271.639 21.0332 271.522 20.8302 271.522 20.6416C271.464 20.5401 271.493 20.6851 271.537 20.9027C271.537 20.9027 271.668 21.1783 271.581 21.1203C271.697 21.3233 271.784 21.3813 271.944 21.6133C272.54 22.3237 273.775 23.2076 275.431 24.4975C278.976 27.2946 281.579 31.4127 282.529 35.7497C282.996 37.8819 283.101 40.2756 282.814 42.4085C282.527 44.5413 281.949 46.3553 281.458 48.0386C280.432 51.3762 279.798 54.2202 280.527 56.5263C280.922 58.6731 283.579 60.0637 284.696 59.6131C286.277 59.2201 287.217 56.7675 287.736 54.2863C288.715 49.2223 289.014 44.8988 288.966 41.8522C288.962 38.8346 288.727 37.1084 288.727 37.1084C288.551 35.8609 289.449 34.6995 290.668 34.568C291.887 34.4364 293.078 35.2914 293.21 36.5099C293.225 36.5825 293.211 36.6985 293.225 36.771L293.153 36.7856Z" fill="#C6C3C1"/>
<path d="M281.883 61.5741C276.251 70.3268 270.604 79.0069 264.768 87.6873C258.874 96.2661 252.733 104.744 245.707 112.569C243.91 114.514 242.099 116.387 240.171 118.246C238.2 120.075 236.07 121.862 233.401 123.039C230.776 124.245 227.265 124.611 224.375 123.003C221.529 121.424 219.798 118.64 218.967 115.826C218.121 112.939 218.334 109.878 219.027 107.136C219.72 104.393 220.761 101.882 221.744 99.4589L227.717 85.0914L230.871 88.3821C225.316 90.7804 219.456 92.41 213.464 93.3869C210.533 93.8245 207.341 94.2768 203.829 93.6993C202.973 93.5695 202.058 93.3381 201.201 93.0196C200.708 92.8169 200.432 92.7591 199.836 92.4259C199.488 92.1941 199.256 92.1652 198.776 91.8465C197.004 90.7308 195.74 89.5132 194.65 88.0343C192.512 85.1055 191.347 81.7551 190.964 78.3606C190.553 75.0097 190.809 71.4116 192.56 67.9283C194.34 64.4015 197.326 62.1794 199.965 60.4799C202.792 58.7802 205.084 57.6032 207.998 56.1501C218.86 50.875 230.392 47.6159 241.91 45.2273C253.487 42.9402 264.992 41.2335 276.614 39.9184C277.456 39.7871 278.226 40.4248 278.357 41.2662C278.431 42.006 277.968 42.7027 277.257 42.9209C274.443 43.7501 271.614 44.5068 268.814 45.22C266.015 45.9331 263.201 46.7623 260.314 47.4175C254.613 48.7133 249.057 50.1686 243.472 51.6674C232.317 54.549 221.322 57.8512 211.098 62.5455C208.764 63.6934 205.849 65.1466 203.688 66.4105C201.398 67.7761 199.658 69.2573 198.761 70.9844C196.952 74.5548 197.411 80.5751 199.912 84.1855C200.508 85.0845 201.394 85.9252 202.048 86.3599C202.179 86.4468 202.615 86.7366 202.876 86.9105L203.5 87.2002C203.994 87.4029 204.517 87.562 205.068 87.6776C207.318 88.1691 210.032 87.9638 212.832 87.6278C218.374 87.043 223.916 85.7038 229.137 83.712L229.195 83.6249C230.5 83.1741 231.952 83.8258 232.433 85.0876C232.681 85.7547 232.624 86.4076 232.363 86.9882L225.81 101.095C224.739 103.461 223.727 105.739 223.091 108.017C222.456 110.296 222.242 112.602 222.782 114.72C223.322 116.838 224.558 118.853 226.301 119.824C228.014 120.838 230.235 120.807 232.279 119.906C234.397 118.99 236.354 117.466 238.165 115.781C240.006 114.053 241.788 112.224 243.556 110.322C250.481 102.743 256.651 94.4109 262.56 85.9046C268.512 77.4273 273.985 68.6312 279.487 59.7915C279.95 59.0948 280.878 58.8329 281.619 59.3256C282.36 59.8182 282.579 60.7175 282.086 61.4578L281.883 61.5741Z" fill="#C6C3C1"/>
<path d="M220.435 56.256C217.679 57.3753 214.764 58.2626 211.819 58.8163C208.874 59.37 205.841 59.6771 202.823 59.6796C199.833 59.6385 196.815 59.4523 193.737 58.5988C192.213 58.1503 190.732 57.5422 189.337 56.6149C188.64 56.1512 188.044 55.6294 187.376 54.9336C186.94 54.4552 186.286 53.6433 185.878 52.9327C184.22 49.9455 183.939 46.3043 185.255 43.097C186.643 39.8752 189.325 37.6388 191.964 36.1279C194.632 34.5734 197.257 33.3671 199.852 32.0158L207.668 28.1069L207.354 31.9807C203.346 29.3146 199.742 26.0387 196.805 22.1386C193.912 18.2673 191.322 13.4674 191.691 7.6205C191.905 4.74781 193.148 1.74371 195.133 -0.390531C197.104 -2.5973 199.569 -4.03555 202.092 -4.99511C204.659 -5.92568 207.256 -6.334 209.97 -6.35071C212.495 -6.36727 215.02 -6.00662 217.372 -5.5733C219.723 -5.13997 222.075 -4.51805 224.224 -3.9685C226.517 -3.25949 228.768 -2.57945 230.887 -1.79776C235.301 -0.307043 239.512 1.48849 243.737 3.35656C252.13 7.17978 260.263 11.5835 267.715 17.1049C268.412 17.5686 268.545 18.5985 268.038 19.2663C267.632 19.8759 266.805 20.0797 266.137 19.7611C257.976 15.9667 249.613 12.6657 241.207 9.52438C236.996 7.91744 232.815 6.45556 228.604 5.03722C226.499 4.32805 224.38 3.73495 222.289 3.09831C220.082 2.44725 218.05 1.91212 215.916 1.43509C213.826 0.98705 211.852 0.742022 209.806 0.700158C207.992 0.687121 206.048 0.964341 204.322 1.57506C200.826 2.76753 198.232 5.06185 197.801 8.35544C197.601 9.98047 197.864 11.8517 198.462 13.6937C199.103 15.5647 199.991 17.3484 201.183 19.1464C203.481 22.6844 206.461 25.8592 209.874 28.3808L210.005 28.4677C210.978 29.1778 211.183 30.5704 210.43 31.514C210.228 31.8188 209.894 32.0367 209.546 32.182L201.541 35.7139C198.916 36.9202 196.117 38.0105 193.695 39.2892C192.506 39.943 191.361 40.6258 190.404 41.497C189.477 42.3247 188.665 43.3554 188.203 44.4293C187.248 46.6208 187.383 49.3481 188.532 51.4943C188.838 52.0744 189.056 52.4079 189.593 53.0168C189.928 53.3647 190.48 53.8575 190.93 54.2198C191.976 54.9153 193.152 55.5092 194.473 55.8853C197.043 56.6521 199.917 56.8674 202.746 56.8651C205.576 56.8628 208.391 56.5994 211.133 55.9734C213.918 55.3763 216.543 54.5472 219.183 53.4135C219.98 53.0646 220.852 53.4556 221.23 54.2097C221.579 55.0074 221.189 55.8782 220.435 56.256Z" fill="#C6C3C1"/>
<path d="M208.044 180.35C208.044 180.35 207.858 181.859 207.687 184.384C207.473 186.879 207.653 190.578 208.08 194.945C208.876 203.765 212.026 215.093 214.655 226.827C215.868 232.658 216.747 238.707 216.871 244.38C217.068 250.038 216.785 255.377 216.023 259.831C215.303 264.315 214.307 267.986 213.455 270.496C212.602 273.007 212.009 274.371 212.009 274.371C211.778 274.908 211.111 275.155 210.602 274.88C210.181 274.663 209.948 274.257 209.977 273.836C209.977 273.836 210.134 272.371 210.406 269.788C210.678 267.205 211.123 263.607 211.451 259.24C211.778 254.873 212.163 249.853 212.155 244.384C212.118 238.958 211.82 233.17 210.985 227.338C209.502 215.675 206.743 204.042 206.034 195.092C205.621 190.609 205.659 186.866 205.728 184.211C205.84 181.585 205.998 180.12 205.998 180.12C206.07 179.539 206.592 179.133 207.129 179.176C207.709 179.248 208.073 179.741 208.073 180.307L208.044 180.35Z" fill="white"/>
<path d="M359.675 293.503C359.675 293.503 354.611 293.464 347.022 294.007C339.477 294.39 329.393 295.472 319.615 297.699C314.741 298.791 309.925 300.174 305.472 301.483C301.048 302.937 296.958 304.362 293.492 305.7C290.011 306.965 287.154 308.142 285.094 308.971C283.078 309.828 281.875 310.221 281.875 310.221C281.28 310.454 280.728 310.15 280.539 309.584C280.378 309.163 280.552 308.713 280.842 308.467C280.842 308.467 281.842 307.624 283.683 306.274C284.552 305.533 285.77 304.836 287.119 304.037C288.467 303.238 289.975 302.293 291.773 301.48C295.268 299.721 299.547 298.296 304.232 297.016C308.903 295.663 313.981 294.832 319.044 294.117C329.215 292.904 339.372 292.374 346.99 291.976C354.594 291.694 359.643 291.472 359.643 291.472C360.238 291.428 360.703 291.863 360.704 292.429C360.705 292.995 360.27 293.459 359.748 293.489L359.675 293.503Z" fill="white"/>
<path d="M96.2431 686.396C96.2431 686.396 92.0974 689.606 86.4601 694.964C80.721 700.191 73.4324 707.654 66.8702 715.726C60.2063 723.667 53.9781 731.898 49.0382 737.908C46.5465 740.898 44.4749 743.352 42.8956 745.065C41.3888 746.764 40.4034 747.678 40.4034 747.678C39.9977 748.1 39.3156 748.086 38.9378 747.709C38.6471 747.39 38.5883 746.911 38.7039 746.548C38.7039 746.548 39.2536 745.344 40.3536 743.312C41.4536 741.28 43.1474 738.449 45.363 735.212C47.5351 731.946 50.4758 728.375 53.6485 724.644C56.8066 720.841 60.4291 717.095 64.1242 713.334C71.616 705.944 79.2389 698.829 85.0505 693.587C90.9493 688.403 94.8625 684.976 94.8625 684.976C95.3118 684.584 95.9649 684.641 96.3138 685.062C96.6626 685.482 96.6491 686.164 96.2287 686.512C96.2287 686.512 96.2287 686.512 96.1998 686.556L96.2431 686.396Z" fill="white"/>
<path d="M346.538 45.7228C363.687 53.2964 375.466 70.3624 379.816 88.5805C384.166 106.799 381.857 126.052 376.659 144.075C364.168 187.521 334.634 225.787 295.835 248.973" stroke="#C6C3C1" stroke-width="0.93" stroke-linecap="round" stroke-linejoin="round"/>
<path d="M290.425 251.342C290.425 251.342 292.035 250.528 294.732 249.119C297.56 247.797 301.649 245.806 306.551 243.727C311.438 241.576 317.254 239.352 323.519 236.924C329.756 234.539 336.486 232.169 343.201 229.726C349.96 227.501 356.777 225.189 363.291 223.617C369.775 221.9 375.868 220.488 381.178 219.685C386.488 218.883 391.015 218.502 394.178 218.471C397.342 218.439 399.17 218.525 399.17 218.525C399.968 218.553 400.564 219.263 400.493 220.032C400.465 220.642 400.001 221.15 399.464 221.295C399.464 221.295 392.661 223.303 382.362 225.749C377.227 227.044 371.206 228.253 364.751 229.738C358.339 231.252 351.419 232.868 344.572 234.469C330.82 237.759 317.316 242.093 307.512 246.062C302.639 248.097 298.665 249.914 295.939 251.367C293.228 252.892 291.662 253.735 291.662 253.735C290.98 254.098 290.138 253.852 289.775 253.171C289.411 252.489 289.656 251.647 290.338 251.284L290.425 251.342Z" fill="#C6C3C1"/>
<path d="M350.703 229.125C350.961 227.225 351.495 225.005 352.232 223.045C352.97 221.086 353.91 219.2 355.025 217.429C357.255 213.887 360.094 210.751 363.356 208.21C365.023 206.932 366.719 205.799 368.59 204.782C370.46 203.764 372.302 202.98 374.304 202.238C378.249 200.842 382.311 200.026 386.388 199.66C390.509 199.323 394.63 199.364 398.708 199.752C402.786 200.14 406.822 200.877 410.828 201.846C418.769 203.798 426.449 206.519 433.984 209.269C435.248 209.733 435.902 211.11 435.44 212.373C435.079 213.389 434.107 213.999 433.12 213.971L433.033 213.913C429.521 213.901 426.201 215.587 423.229 218.07C420.258 220.553 417.607 223.689 414.738 226.868C411.884 230.12 408.565 233.126 405.144 235.813C401.695 238.543 398.07 240.969 394.199 243.105C390.298 245.284 386.078 246.999 381.595 247.975C379.361 248.499 377.04 248.776 374.66 248.764C372.236 248.722 370.089 248.55 367.621 247.914C363.019 246.612 358.821 244.134 355.624 240.626C354.054 238.828 352.803 236.74 352.016 234.521C351.638 233.39 351.375 232.273 351.17 231.069C351.198 230.271 350.833 229.212 352.428 227.949C352.703 227.818 352.66 227.789 353.211 227.716L353.4 227.716C353.4 227.716 354.096 227.802 354.271 227.918C355.128 228.425 355.216 229.049 355.245 229.383C355.289 229.789 355.304 230.05 355.073 230.587C355.015 230.674 354.841 230.936 354.754 231.066C354.464 231.313 354.16 231.487 353.71 231.502C353.217 231.488 353.042 231.372 352.824 231.227C352.694 231.14 352.563 231.053 352.461 230.923C351.967 230.343 351.98 229.473 352.589 228.935C353.169 228.442 354.039 228.455 354.577 229.064C354.49 229.006 354.446 228.977 354.359 228.919C354.141 228.774 354.054 228.716 353.633 228.688C353.227 228.732 352.952 228.862 352.763 229.051C352.676 229.182 352.561 229.356 352.532 229.4C352.401 229.69 352.401 229.69 352.431 229.835C352.445 229.907 352.402 230.256 353.012 230.661C353.143 230.748 353.462 230.835 353.68 230.791C354.115 230.704 353.926 230.704 354.072 230.675C354.709 230.094 354.405 230.269 354.594 230.457C354.842 231.313 355.206 232.183 355.642 233.038C356.501 234.677 357.736 236.127 359.117 237.359C361.848 239.867 365.391 241.532 368.962 242.211C376.263 243.612 384.023 241.111 391.013 237.406C394.551 235.488 398.001 233.323 401.234 230.825C404.51 228.356 407.437 225.656 410.321 222.737C413.234 219.775 416.175 216.581 419.842 213.807C423.365 211.062 428.135 208.708 433.244 209.154L432.264 213.841C424.844 210.728 417.541 207.629 409.905 205.502C406.145 204.446 402.269 203.565 398.394 203.06C394.518 202.555 390.556 202.37 386.697 202.692C382.794 202.986 378.949 203.758 375.28 205.023C373.481 205.648 371.639 206.433 369.972 207.334C368.275 208.278 366.666 209.28 365.13 210.457C362.1 212.839 359.39 215.684 357.363 218.921C356.379 220.59 355.554 222.303 354.904 224.131C354.297 225.989 353.879 227.658 353.62 229.747C353.549 230.516 352.824 231.039 352.055 230.967C351.286 230.895 350.762 230.17 350.834 229.401L350.863 229.357L350.703 229.125Z" fill="#C6C3C1"/>
<path d="M245.529 283.411C245.529 283.411 246.746 282.148 248.978 279.927C251.093 277.691 253.933 274.366 257.25 270.229C263.754 261.867 271.602 250.066 278.477 237.743C281.879 231.589 285.309 225.392 288.522 219.615C291.692 213.81 294.514 208.338 297.149 203.809C302.273 194.593 306.081 188.584 306.081 188.584C306.515 187.93 307.371 187.683 308.024 188.118C308.547 188.466 308.78 189.06 308.665 189.612C308.665 189.612 308.305 191.382 307.366 194.4C306.47 197.447 304.909 201.685 302.681 206.547C300.497 211.438 297.458 216.953 294.012 222.701C290.697 228.536 286.642 234.444 282.66 240.337C278.518 246.187 274.405 251.993 270.422 257.321C266.367 262.663 262.659 267.671 259.255 271.751C255.908 275.932 252.924 279.285 250.838 281.666C248.693 283.946 247.519 285.238 247.519 285.238C246.998 285.833 246.127 285.819 245.532 285.297C244.936 284.776 244.949 283.905 245.471 283.31L245.529 283.411Z" fill="#C6C3C1"/>
<path d="M285.723 230.629C287.784 230.932 289.496 231.003 291.441 230.914C293.342 230.797 295.228 230.418 297.099 229.967C300.812 228.919 304.292 227.088 307.38 224.808C308.917 223.632 310.395 222.354 311.743 220.989C313.047 219.595 314.321 218.056 315.408 216.518C317.594 213.324 319.374 209.797 320.719 206.169C322.092 202.498 322.986 198.696 323.518 194.779C324.093 190.89 324.276 186.929 324.285 183.041C324.317 175.149 323.29 167.243 322.321 159.25L327.095 159.537C326.145 164.557 322.566 168.52 318.985 171.164C315.347 173.894 311.403 175.856 307.807 177.861C304.211 179.866 300.818 181.943 297.542 184.412C294.295 186.838 291.251 189.524 288.44 192.428C282.949 198.134 278.474 204.956 277.817 212.37C277.46 216.026 278.089 219.899 279.806 223.177C280.665 224.815 281.697 226.381 283.049 227.657C283.702 228.28 284.501 228.874 285.242 229.367C285.359 229.57 285.648 229.323 284.953 229.802C284.866 229.933 284.953 229.802 284.721 230.151C284.605 230.325 284.635 230.659 284.664 230.804C284.882 231.514 285.231 231.558 285.274 231.587C285.362 231.645 285.405 231.674 285.724 231.572C285.724 231.572 286.014 231.513 286.072 231.426C286.348 231.296 286.565 231.063 286.681 230.701C286.753 230.309 286.724 230.164 286.68 229.946C286.665 229.874 286.607 229.772 286.563 229.743C286.956 230.381 286.798 231.281 286.16 231.673C285.522 232.065 284.622 231.906 284.229 231.268C284.127 231.138 284.098 230.993 283.996 230.862C283.938 230.572 283.865 230.398 283.995 229.919C284.169 229.469 284.458 229.223 284.719 229.019C284.893 228.947 285.169 228.816 285.285 228.83C285.836 228.757 286.112 228.815 286.519 228.96C286.824 229.163 287.39 229.351 287.696 230.308C287.74 230.526 287.74 230.903 287.639 231.149L287.523 231.324C287.292 231.861 287.321 231.817 287.06 232.02C285.451 233.211 284.492 232.574 283.737 232.386C282.619 231.893 281.603 231.343 280.629 230.633C278.697 229.285 276.983 227.517 275.717 225.545C273.172 221.528 271.961 216.829 271.94 212.041C271.994 209.502 272.397 207.384 273.062 205.062C273.697 202.784 274.623 200.636 275.694 198.647C277.893 194.583 280.689 191.041 283.819 187.847C286.92 184.696 290.239 181.879 293.834 179.308C297.357 176.752 301.141 174.37 305.071 172.524C308.914 170.621 312.641 168.891 315.859 166.698C319.078 164.505 321.628 161.804 322.494 158.423L322.552 158.336C322.854 157.03 324.13 156.246 325.437 156.549C326.467 156.795 327.18 157.709 327.268 158.709C327.831 166.746 328.365 174.827 328.086 182.995C327.933 187.1 327.547 191.177 326.812 195.211C326.078 199.245 324.995 203.235 323.55 207.11C322.06 210.956 320.165 214.657 317.79 218.039C316.515 219.767 315.269 221.262 313.806 222.801C312.328 224.267 310.763 225.676 309.081 226.881C305.689 229.336 301.947 231.181 297.886 232.374C295.884 232.927 293.781 233.35 291.706 233.54C289.66 233.687 287.338 233.587 285.436 233.327L285.393 233.298C284.624 233.227 284.1 232.502 284.172 231.733C284.287 230.993 285.012 230.47 285.737 230.513L285.723 230.629Z" fill="#C6C3C1"/>
</g>
<defs>
<clipPath id="clip0_1_44">
<rect width="322" height="945.785" fill="white" transform="translate(194.748) rotate(33.6261)"/>
</clipPath>
</defs>
</svg>
