<svg width="481" height="344" viewBox="0 0 481 344" fill="none" xmlns="http://www.w3.org/2000/svg">
<g opacity="0.15">
<path d="M102.26 109.869C107.268 101.165 112.444 91.8729 112.275 81.8237C112.233 79.1327 111.686 76.2735 109.835 74.3814C107.941 72.4892 104.406 72.0688 102.723 74.1711C101.923 75.1803 101.713 76.4837 101.46 77.7031C100.787 81.0248 99.777 84.2624 98.4303 87.3739C97.8412 88.7194 97.1679 90.0649 95.9475 90.9059C93.6751 92.4196 90.6451 91.4104 87.9939 90.6956C82.7758 89.266 77.2209 89.224 71.9606 90.5274C69.7723 91.0741 67.4157 92.0832 66.6583 94.1855C65.9008 96.372 67.2053 98.7266 68.8465 100.366C71.7502 103.268 75.8743 104.445 79.6196 106.127C83.5332 107.893 90.7714 108.355 102.218 109.911" fill="#C6C3C1"/>
<path d="M101.25 109.322C101.25 109.322 102.092 107.304 103.691 103.94C105.248 100.535 107.562 95.7832 109.372 89.9387C110.255 87.0374 110.929 83.6316 110.592 80.2678C110.382 78.628 109.835 76.9461 108.656 76.1052C107.562 75.2642 106.173 75.5586 105.542 75.8529C105.206 76.0631 105.29 76.0631 105.121 76.1893C104.911 76.3575 104.616 77.0302 104.322 78.0394C103.649 80.1417 103.059 82.2441 102.302 84.3464C101.46 86.4908 100.871 88.3409 99.3562 90.7376C98.5566 91.9569 97.2941 93.0502 95.6529 93.5127C94.0959 93.9752 92.6651 93.765 91.4447 93.5127C89.046 92.924 87.1102 91.9569 85.1324 91.7467C83.1124 91.4524 81.0504 92.1251 79.1146 92.2513C77.1788 92.4615 75.243 92.4194 73.3493 92.7558C71.4556 93.0502 69.8144 93.5547 69.0569 94.3536C68.3836 94.8582 68.2153 96.2457 69.0569 97.5071C69.8144 98.8106 71.0769 99.9459 72.5919 100.619C74.1068 101.291 75.748 101.712 77.3892 102.174C79.0304 102.637 80.7137 103.562 81.892 103.982C84.417 104.865 87.4469 105.412 89.9297 105.917C92.4968 106.421 94.7271 106.884 96.5787 107.262C100.282 108.103 102.386 108.734 102.386 108.734C103.017 108.902 103.354 109.575 103.186 110.163C103.059 110.668 102.554 111.004 102.049 111.004C102.049 111.004 99.9032 111.004 96.1158 110.962C94.2221 110.878 91.9076 110.752 89.2985 110.626C86.6052 110.374 83.7016 110.247 80.0825 109.196C78.1888 108.566 76.8842 108.019 75.2851 107.178C73.7281 106.337 72.0448 105.328 70.4036 104.066C68.7624 102.805 66.9949 101.46 65.7325 99.4413C64.47 97.5492 63.5863 94.2275 65.7325 91.5365C67.6262 89.1818 70.1932 88.467 72.2973 87.8363C74.4435 87.2477 76.7159 86.7431 79.0304 86.8692C81.345 86.9533 83.5753 87.9204 85.7636 88.425C88.036 88.9295 90.1822 89.5602 92.0339 89.6443C92.9597 89.6443 93.7171 89.5182 94.2221 89.2659C94.6429 89.0557 95.0638 88.6352 95.4004 88.0466C96.1579 86.7431 96.9154 84.5146 97.5045 82.7066C98.1358 80.7724 98.5566 78.8383 98.7249 76.862C98.8091 75.8109 98.9353 74.4654 99.8191 72.8255C100.745 71.2277 102.639 70.0084 104.28 69.8402C107.604 69.3356 110.466 71.2698 111.77 73.4562C113.033 75.6847 113.538 77.8291 113.706 79.8053C114.001 83.7998 113.706 87.4158 112.991 90.7796C112.317 94.1013 111.139 96.9605 109.961 99.3993C108.783 101.838 107.646 103.856 106.594 105.454C104.574 108.692 103.228 110.374 103.228 110.374C102.807 110.92 102.092 111.004 101.587 110.584C101.166 110.247 101.039 109.701 101.25 109.196V109.322Z" fill="#C6C3C1"/>
<path d="M95.4425 91.6626C95.4425 91.6626 91.9497 89.35 86.0582 84.9771C80.2088 80.5622 71.8344 74.2551 62.6605 65.5934C58.1156 61.2205 53.4024 56.301 49.1521 50.2883C47.09 47.2609 45.2384 43.813 44.5651 39.9027C43.8497 36.0343 44.6913 31.5353 47.2163 28.1715C48.4367 26.4476 50.162 24.9339 52.2661 24.135C54.3703 23.252 56.811 23.2941 58.831 23.7566C62.9129 24.6816 66.7424 26.3635 69.7303 24.3873C72.7181 22.4952 74.3172 18.7109 75.243 14.8006C76.2951 10.9322 77.0105 6.22297 80.7558 2.77511C82.5654 1.21937 84.8378 0.0420471 87.5311 0C88.8356 0 90.2664 0.336377 91.4026 1.05118C92.4968 1.68188 93.4647 2.77511 94.0959 3.48991C95.5267 5.17179 96.5787 6.18092 97.6308 5.97068C98.767 5.88659 100.324 4.58313 102.218 3.32172C104.196 2.01826 107.057 1.34551 109.414 1.80802C111.855 2.1444 114.043 3.19558 115.894 4.58313C119.724 7.52642 121.449 11.9834 122.333 15.9779C123.217 20.0564 123.301 24.0089 123.553 27.7511C123.722 31.5773 123.806 35.3195 123.722 38.9776C123.511 46.2518 122.796 53.1054 121.828 59.3705C120.902 65.6355 119.514 71.3118 118.125 76.2313C116.694 81.1508 115.347 85.4396 113.959 88.8455C112.612 92.2933 111.518 94.9423 110.634 96.7503C109.793 98.5163 109.372 99.4834 109.372 99.4834C109.161 99.9459 108.614 100.156 108.151 99.9459C107.731 99.7356 107.52 99.2311 107.688 98.8106C107.688 98.8106 108.025 97.8015 108.698 95.9514C109.372 94.1434 110.298 91.4103 111.35 87.9625C113.496 81.0247 116.147 71.0175 117.83 58.7818C118.714 52.6429 119.261 45.9574 119.387 38.8935C119.514 35.3616 119.471 31.7035 119.345 28.0454C119.135 24.2612 119.051 20.4769 118.293 16.9029C117.578 13.371 116.105 9.92311 113.454 7.8628C110.803 5.7184 107.099 4.83541 104.364 6.64344C102.765 7.48438 101.208 9.2924 98.0937 9.71287C96.5367 9.88106 94.9796 9.25035 93.9276 8.40941C92.8755 7.56847 92.2022 6.64344 91.5289 5.88659C90.2243 4.24675 89.2144 3.48991 87.6573 3.48991C86.1423 3.48991 84.417 4.20471 83.0703 5.33998C80.3771 7.56847 79.4092 11.6891 78.273 15.6836C77.1788 19.678 75.4535 24.3032 71.2452 26.826C69.057 28.1295 66.6162 28.2136 64.3858 27.7931C62.1976 27.3726 60.3039 26.6578 58.4522 26.2374C54.749 25.1862 51.2562 26.5737 49.11 29.5591C46.9217 32.4603 46.038 36.1184 46.6692 39.6504C47.2584 43.1823 48.9416 46.42 50.9195 49.3212C54.9173 55.1237 59.6305 60.0432 64.0913 64.3741C73.0969 72.9937 81.3871 79.3428 87.2786 83.6316C93.1701 87.9204 96.6629 90.191 96.6629 90.191C97.0837 90.4853 97.21 91.0319 96.9154 91.4524C96.6208 91.8728 96.0738 91.999 95.6529 91.7047L95.4425 91.6626Z" fill="#C6C3C1"/>
<path d="M45.3647 34.3524C45.3647 34.3524 44.7755 33.8899 43.8076 33.3433C42.7976 32.7547 41.1564 32.0399 38.9261 31.6614C36.7378 31.283 33.8762 31.3671 31.0146 32.5444C28.153 33.7217 25.2914 36.1184 23.5661 39.5663C22.6823 41.2902 22.1773 43.1403 22.009 45.3267C21.8828 46.42 21.7565 47.5552 21.4199 48.7746C21.1253 49.9519 20.5361 51.2974 19.2737 52.2225C18.0533 53.1475 16.3279 53.1895 15.0654 52.8952C13.7609 52.6429 12.7088 52.2225 11.6147 52.2225C9.59475 52.0543 7.44856 53.0634 5.89151 54.6191C2.52493 57.7727 2.31452 63.1126 3.99781 67.7378C5.63902 72.363 8.83727 76.7779 12.4984 80.3519C16.2437 83.968 20.494 87.1215 24.8706 89.9807C27.143 91.4103 29.2051 92.7558 31.5196 93.9752C33.7079 95.0684 35.9382 96.1616 38.2948 97.0867C47.5109 100.871 56.6427 103.184 64.4279 104.992C72.2552 106.631 78.9463 107.346 83.5753 107.598C85.8899 107.725 87.7415 107.725 89.0039 107.683C90.2664 107.683 90.9397 107.683 90.9397 107.683H91.0239C91.5289 107.683 91.9497 108.061 91.9497 108.608C91.9497 109.07 91.613 109.491 91.1501 109.533C91.1501 109.533 90.4768 109.617 89.1723 109.743C87.9098 109.953 86.0161 110.079 83.6174 110.121C78.82 110.289 71.9185 109.953 63.7967 108.566C55.6748 107.22 46.3746 104.823 36.7378 101.081C34.3391 100.156 31.8983 99.0629 29.4576 97.8015C27.1851 96.5821 24.8285 94.9843 22.5982 93.5547C18.0954 90.5694 13.5926 87.2477 9.76308 83.085C5.89151 78.9223 2.73535 74.2551 0.967892 68.747C0.126247 66.0139 -0.252493 63.1126 0.210412 60.2534C0.589152 57.4363 2.06203 54.5771 4.16614 52.727C6.22817 50.8349 9.04768 49.6155 11.9514 49.9099C14.7288 50.2883 16.7908 51.5917 18.1795 50.5406C19.5682 49.6155 19.8628 47.1768 20.1153 45.1165C20.3257 42.93 20.957 40.6175 21.9248 38.7674C23.9027 34.9411 27.143 32.2921 30.3413 30.9887C33.6237 29.6852 36.7378 29.6432 39.1786 30.0216C41.6614 30.4 43.471 31.1989 44.6493 31.8296C45.9117 32.5444 46.3746 32.9228 46.3746 32.9228L46.4588 33.0069C46.8375 33.3433 46.9217 33.8899 46.585 34.3104C46.2484 34.6888 45.7013 34.7729 45.2805 34.4365L45.3647 34.3524Z" fill="#C6C3C1"/>
<path d="M93.8013 100.871C112.949 126.73 141.438 143.044 172.579 152.757C188.991 157.887 206.119 161.167 222.994 163.059C271.893 168.483 321.635 164.446 370.197 172.183C413.837 179.121 461.011 200.817 473.846 243.074C485.334 280.959 460.464 325.487 422.464 336.671C384.463 347.856 340.067 324.814 326.264 287.728C322.981 278.856 321.214 269.228 322.771 259.935C324.286 250.811 328.831 242.402 334.848 235.38C348.02 220.032 370.324 211.245 389.261 218.393C408.198 225.541 419.013 251.316 407.23 267.756" stroke="#C6C3C1" stroke-width="2.08" stroke-linecap="round" stroke-linejoin="round"/>
<path d="M210.58 160.241C173.505 147.249 145.562 111.425 142.07 72.3208C154.484 77.4505 166.856 83.0848 177.671 91.0317C188.486 98.9786 197.829 109.448 202.542 122.02C207.297 134.761 207.213 149.141 213.567 161.166" fill="#C6C3C1"/>
<path d="M210.58 160.241C173.505 147.249 145.562 111.425 142.07 72.3208C154.484 77.4505 166.856 83.0848 177.671 91.0317C188.486 98.9786 197.829 109.448 202.542 122.02C207.297 134.761 207.213 149.141 213.567 161.166" stroke="#C6C3C1" stroke-width="1.04" stroke-linecap="round" stroke-linejoin="round"/>
<path d="M265.749 169.366C229.853 164.656 192.105 177.649 166.688 203.424C178.765 201.364 191.053 204.643 203.299 205.148C228.759 206.199 254.934 193.879 268.527 172.309C269.621 170.585 270.168 167.6 268.148 167.137" fill="#C6C3C1"/>
<path d="M265.749 169.366C229.853 164.656 192.105 177.649 166.688 203.424C178.765 201.364 191.053 204.643 203.299 205.148C228.759 206.199 254.934 193.879 268.527 172.309C269.621 170.585 270.168 167.6 268.148 167.137" stroke="#C6C3C1" stroke-width="1.04" stroke-linecap="round" stroke-linejoin="round"/>
<path d="M355.553 168.609C338.131 167.557 321.508 159.442 308.884 147.417C296.259 135.391 287.506 119.666 282.414 102.973C319.657 106.547 353.827 132.574 367.125 167.515" fill="#C6C3C1"/>
<path d="M355.553 168.609C338.131 167.557 321.508 159.442 308.884 147.417C296.259 135.391 287.506 119.666 282.414 102.973C319.657 106.547 353.827 132.574 367.125 167.515" stroke="#C6C3C1" stroke-width="1.04" stroke-linecap="round" stroke-linejoin="round"/>
<path d="M432.647 193.416C432.647 193.416 433.363 194.089 434.667 195.308C435.972 196.57 437.908 198.504 440.18 201.069C444.641 206.241 450.785 213.977 455.54 224.825C457.939 230.207 459.875 236.304 460.969 243.074C461.979 249.507 462.61 256.865 462.147 264.182C461.726 271.582 460.001 279.234 456.971 286.508C453.941 293.783 449.354 300.636 443.673 306.355C438.034 312.157 431.343 316.782 424.399 320.525C417.414 324.225 410.134 326.958 402.811 328.682C399.108 329.565 395.657 330.237 391.701 330.7C388.419 330.994 384.463 331.247 380.971 330.952C373.901 330.49 367.336 328.934 361.655 326.621C350.166 322.038 342.381 314.764 338.257 309.004C337.163 307.616 336.321 306.271 335.606 305.051C334.89 303.874 334.301 302.865 333.923 301.982C333.123 300.258 332.702 299.375 332.702 299.375C332.281 298.45 332.702 297.357 333.628 296.936C334.428 296.558 335.353 296.81 335.858 297.483L335.985 297.651C335.985 297.651 336.532 298.366 337.584 299.753C338.089 300.468 338.72 301.309 339.562 302.234C340.361 303.201 341.287 304.252 342.465 305.346C346.968 309.803 354.375 315.269 364.558 318.843C369.65 320.609 375.374 321.87 381.476 322.291C384.548 322.543 387.409 322.459 391.028 322.206C393.974 321.912 397.509 321.323 400.833 320.567C414.215 317.413 428.271 311.611 439.044 301.645C444.473 296.726 448.891 290.797 452.047 284.322C455.119 277.805 456.971 270.783 457.644 263.803C458.318 256.781 458.107 250.138 457.139 243.536C456.256 237.271 454.488 231.343 452.3 226.171C447.839 215.827 441.948 208.217 437.529 203.381C435.257 200.943 433.447 199.177 432.143 197.999C430.796 196.78 430.08 196.149 430.08 196.149C429.323 195.477 429.281 194.299 429.954 193.542C430.628 192.786 431.806 192.744 432.563 193.416H432.647Z" fill="#C6C3C1"/>
<path d="M310.609 166.633C295.249 166.17 280.015 161.125 267.475 152.253C253.545 142.456 243.277 128.454 233.22 114.705C253.882 116.134 271.43 131.019 282.708 148.384C286.875 154.775 290.536 161.755 296.385 166.675" stroke="#C6C3C1" stroke-width="1.04" stroke-linecap="round" stroke-linejoin="round"/>
<path d="M173.968 153.388C144.468 145.146 112.822 151.79 83.8699 161.755C89.8877 161.082 95.695 163.815 101.46 165.623C114.253 169.618 128.056 169.155 141.144 166.422C154.231 163.689 166.772 158.77 179.228 153.85C179.859 153.598 180.659 153.135 180.491 152.462C180.364 151.79 179.06 152.589 179.691 152.799" stroke="#C6C3C1" stroke-width="1.04" stroke-linecap="round" stroke-linejoin="round"/>
<path d="M19.9891 50.2884C19.9891 50.2884 20.0732 50.5827 20.2416 51.0873C20.3678 51.6339 20.6203 52.3907 20.999 53.2737C21.7144 55.1238 23.1031 57.6466 25.2073 60.3797C27.2693 63.1127 30.215 65.9299 33.6237 68.5789C35.3491 69.8823 37.2428 71.1437 39.0944 72.4051C41.0302 73.7086 42.966 74.8439 44.9859 76.0632C49.0258 78.4179 53.0236 80.8987 56.7689 83.2533C60.5143 85.5659 63.9229 88.0046 66.7003 90.2331C69.4778 92.4616 71.666 94.5639 73.0548 96.2458C73.7702 97.0447 74.2751 97.7175 74.5697 98.222C74.9064 98.6846 75.0747 98.9789 75.0747 98.9789C75.3693 99.3994 75.243 99.988 74.8222 100.282C74.4856 100.535 74.0227 100.493 73.7281 100.24L73.6439 100.156C73.6439 100.156 73.4335 99.988 73.0127 99.6516C72.5919 99.3153 72.0448 98.8107 71.2452 98.222C69.6461 97.0447 67.3316 95.3628 64.3858 93.5128C61.4821 91.5786 58.0735 89.3501 54.4544 86.9534C50.7933 84.5147 46.8375 82.0339 42.966 79.3429C41.0723 77.9974 39.0102 76.6099 37.2007 75.1803C35.3491 73.6666 33.6237 72.1529 31.9825 70.6392C28.658 67.6118 25.8806 64.4583 23.7344 61.599C21.5461 58.6978 20.2836 55.9647 19.442 54.0306C19.0212 53.0214 18.7266 52.2646 18.5583 51.76C18.3899 51.2555 18.3058 50.9611 18.3058 50.9611C18.1374 50.4566 18.3899 49.952 18.8949 49.7838C19.3999 49.6156 19.9049 49.8679 20.0732 50.3725L19.9891 50.2884Z" fill="#C6C3C1"/>
<path d="M97.5046 9.50283C97.5046 9.50283 96.705 10.3017 96.1158 11.8995C95.4004 13.5393 95.3163 16.2724 95.9475 19.4259C96.5787 22.5795 97.9254 26.2796 99.272 30.232C100.619 34.1845 102.092 38.4312 103.438 42.72C104.743 47.0088 106.005 51.3817 106.721 55.5864C107.52 59.7491 108.067 63.7435 107.983 67.1914C108.025 70.6393 107.604 73.5405 107.141 75.5167C106.636 77.4929 106.258 78.5862 106.258 78.5862C106.089 79.0907 105.542 79.343 105.079 79.1748C104.701 79.0487 104.49 78.7123 104.448 78.3339V78.2498C104.448 78.2498 104.364 77.1145 104.406 75.2224C104.28 73.2882 104.238 70.5972 103.901 67.4016C103.606 64.164 103.186 60.3798 102.554 56.3433C101.839 52.3067 101.082 47.9338 100.114 43.645C99.1878 39.3142 98.1358 34.9834 97.0416 30.9468C96.0317 26.8683 94.7271 23.2102 94.0959 19.8044C93.4647 16.3985 93.7172 13.3712 94.4326 11.3529C94.7692 10.3858 95.2321 9.54487 95.5267 9.08236C95.8213 8.66189 95.9896 8.4096 95.9896 8.4096C96.2421 8.07323 96.705 7.98913 97.0416 8.24141C97.21 8.36756 97.3362 8.53574 97.3783 8.74598L97.5046 9.50283Z" fill="#C6C3C1"/>
<path d="M70.2353 27.4148C70.2353 27.4148 70.2353 27.7091 70.2353 28.2137C70.2353 28.7182 70.2353 29.4751 70.2353 30.4001C70.2773 32.2502 70.7402 34.8992 71.6661 37.9686C72.5919 41.038 74.1068 44.4859 76.253 47.8917C78.315 51.3816 81.0925 54.6613 83.7857 58.0671C86.5632 61.4309 89.2985 64.8367 91.8234 68.0743C94.3905 71.3119 96.6629 74.4234 98.4724 77.1985C102.134 82.7487 103.691 87.0375 103.691 87.0375C103.859 87.5421 103.606 88.0467 103.144 88.2569C102.765 88.383 102.344 88.2569 102.092 87.9626C102.092 87.9626 99.3562 84.5988 95.2321 79.5532C93.2122 76.9883 90.8556 74.0029 88.4569 70.6812C85.974 67.4015 83.3649 63.9116 80.8821 60.2535C78.315 56.6795 76.0426 52.8112 74.1489 49.069C72.2552 45.3268 70.8244 41.6687 69.8986 38.4732C68.9728 35.2355 68.6782 32.4604 68.5099 30.4842C68.4257 29.4751 68.4257 28.7182 68.4257 28.2137C68.4257 27.7091 68.4257 27.4148 68.4257 27.4148C68.4257 26.9102 68.8465 26.4897 69.3515 26.4897C69.8565 26.4897 70.2773 26.9102 70.2773 27.4148H70.2353Z" fill="#C6C3C1"/>
<path d="M93.0859 159.148C93.0859 159.148 94.3063 159.274 96.4104 159.526C98.5566 159.779 101.544 159.947 105.206 160.073C108.825 160.199 113.117 160.283 117.662 159.989C122.207 159.737 127.046 159.232 131.844 158.517C136.641 157.845 141.396 156.877 145.815 156.079C150.234 155.153 154.358 154.271 157.893 153.514C164.962 152 169.844 151.285 169.844 151.285C170.349 151.201 170.854 151.579 170.896 152.084C170.938 152.505 170.728 152.883 170.391 153.051C170.391 153.051 169.297 153.64 167.319 154.481C165.341 155.364 162.437 156.499 158.903 157.508C155.368 158.601 151.117 159.442 146.572 160.241C142.028 161.04 137.104 161.461 132.18 161.839C122.333 162.344 112.528 162.301 105.164 161.923C97.7991 161.503 92.9597 161.04 92.9597 161.04C92.4547 161.04 92.0759 160.536 92.118 160.031C92.118 159.526 92.623 159.148 93.128 159.19L93.0859 159.148Z" fill="#C6C3C1"/>
<path d="M237.302 114.915C237.302 114.915 240.963 117.269 246.434 121.011C251.82 124.796 258.806 130.178 265.455 136.022C268.737 139.008 271.935 142.035 274.671 145.147C277.448 148.258 279.931 151.201 281.783 154.018C283.676 156.751 285.065 159.148 285.907 160.914C286.79 162.638 287.211 163.689 287.211 163.689C287.422 164.152 287.211 164.74 286.706 164.909C286.328 165.077 285.949 164.951 285.654 164.698C285.654 164.698 282.582 161.503 278.5 156.499C274.418 151.496 269.074 144.726 263.14 138.377C260.195 135.181 257.123 132.154 254.051 129.463C251.021 126.73 247.991 124.459 245.339 122.525C242.688 120.591 240.5 119.035 238.859 118.068C237.218 117.059 236.292 116.512 236.292 116.512C235.871 116.26 235.703 115.672 235.997 115.251C236.25 114.831 236.839 114.662 237.26 114.957L237.302 114.915Z" fill="#C6C3C1"/>
<path d="M155.746 84.8508C155.746 84.8508 156.209 85.902 157.009 87.7941C157.808 89.6862 159.113 92.209 160.838 95.2785C162.522 98.3059 164.626 101.796 167.151 105.328C169.676 108.86 172.537 112.518 175.567 116.05C181.585 123.114 187.939 129.841 192.442 135.223C196.987 140.563 199.512 144.558 199.512 144.558C199.806 144.978 199.68 145.567 199.217 145.861C198.881 146.071 198.46 146.029 198.165 145.861C198.165 145.861 194.336 143.044 189.412 138.04C186.887 135.56 184.236 132.448 181.374 129.084C178.513 125.721 175.693 121.936 172.958 118.11C167.571 110.373 162.564 102.384 159.281 96.1615C155.999 89.8964 154.105 85.6497 154.105 85.6497C153.895 85.1872 154.105 84.6406 154.568 84.4303C155.031 84.2201 155.578 84.4303 155.788 84.8928L155.746 84.8508Z" fill="white"/>
<path d="M254.471 175.21C254.471 175.21 251.105 177.018 245.971 179.625C240.837 182.232 233.851 185.428 226.697 188.329C219.501 191.146 212.01 193.29 206.245 194.005C203.383 194.426 200.943 194.51 199.217 194.468C197.534 194.468 196.524 194.342 196.524 194.342C196.019 194.3 195.64 193.837 195.682 193.29C195.682 192.912 195.977 192.618 196.314 192.491C196.314 192.491 199.975 191.188 205.488 189.927C211 188.623 218.365 187.152 225.645 185.175C232.967 183.283 240.079 180.508 245.213 178.069C250.347 175.631 253.588 173.612 253.588 173.612C254.008 173.36 254.598 173.486 254.85 173.907C255.103 174.327 254.976 174.916 254.555 175.168C254.555 175.168 254.555 175.168 254.513 175.168L254.471 175.21Z" fill="white"/>
<path d="M294.702 111.887C294.702 111.887 298.447 114.284 304.002 118.068C309.515 121.895 316.669 127.277 323.57 133.079C326.937 136.022 330.303 139.05 333.165 142.161C336.069 145.231 338.678 148.174 340.656 150.949C342.676 153.64 344.149 156.079 345.074 157.803C346.042 159.527 346.505 160.578 346.505 160.578C346.716 161.04 346.505 161.629 346.042 161.839C345.664 162.007 345.243 161.923 344.99 161.671C344.99 161.671 341.75 158.518 337.457 153.556C333.123 148.594 327.484 141.825 321.34 135.518C318.268 132.322 315.07 129.295 311.914 126.562C308.799 123.829 305.685 121.516 302.992 119.582C300.299 117.648 298.026 116.092 296.343 115.083C294.66 114.074 293.734 113.485 293.734 113.485C293.313 113.233 293.145 112.644 293.439 112.224C293.692 111.803 294.281 111.635 294.702 111.929V111.887Z" fill="white"/>
</g>
</svg>
