<svg width="315" height="377" viewBox="0 0 315 377" fill="none" xmlns="http://www.w3.org/2000/svg">
<g opacity="0.15" clip-path="url(#clip0_1_41)">
<path d="M56.5294 0.730363C56.9829 2.13527 55.0734 4.00055 53.8481 4.23867C52.7342 4.46092 51.8352 3.9053 50.7531 3.88943C9.78603 3.27031 -8.3862 42.1792 18.7051 73.0237C29.4938 85.3107 44.754 93.764 59.6324 100.122L60.3723 99.8202C71.1452 85.3345 87.6704 74.4286 105.723 71.5394C151.958 64.1418 187.172 99.4392 202.607 139.229C217.557 177.757 217.064 221.301 205.917 260.766C208.177 257.972 209.903 254.765 211.996 251.852C231.712 224.365 254.857 211.729 289.419 213.213C321.188 214.578 357.875 229.421 385.491 206.824C401.38 193.822 410.999 168.018 396.129 150.699C392.843 146.873 388.761 144.698 384.759 141.753C384.059 138.038 389.692 139.959 391.705 140.721C410.251 147.738 410.721 173.122 404.197 188.726C392.191 217.444 362.45 229.762 332.63 228.818C290.358 227.476 256.297 209.173 223.731 246.772C216.619 254.979 203.204 274.394 200.905 284.721C200.658 285.848 200.491 287.229 200.905 288.316C213.77 268.632 240.177 249.05 264.953 256.781C266.513 257.265 269.83 259.162 270.976 259.17C273.474 259.186 281.558 256.249 285.114 255.67C320.56 249.939 349.712 266.496 344.811 305.635C338.064 359.538 273.339 363.594 236.223 337.369L222.331 328.257C223.365 343.568 218.87 361.753 205.885 371.174C189.559 383.017 167.639 376.064 162.07 356.617C159.739 348.489 160.534 340.711 162.667 332.654C152.435 337.917 141.567 342.131 130.245 344.441C118.151 346.91 106.328 347.33 94.1151 345.322C31.1408 334.932 32.2706 254.614 91.386 241.367C98.1569 229.008 110.505 218.864 124.381 215.562C154.042 208.506 183.775 236.374 195.176 261.282C196.123 263.345 196.831 266.433 197.818 268.235C198.072 268.703 197.802 268.901 198.709 268.743C201.35 258.202 204.223 247.693 205.854 236.914C214.176 181.956 198.112 108.996 142.521 84.1122C116.011 72.2458 83.374 77.7226 67.3739 103.162C81.0826 109.393 97.4249 112.115 107.402 124.339C128.295 149.937 93.3751 184.377 64.7005 168.542C46.0032 158.215 44.6984 134.538 51.3498 116.338C51.867 114.925 55.32 107.948 54.9302 107.392C33.4959 98.4153 10.7806 84.5566 2.49804 61.6257C-4.84564 41.3378 4.70194 18.5497 22.548 7.33423C32.5093 1.07167 44.9211 -1.35716 56.5294 0.730363ZM99.215 157.541C105.357 150.984 104.204 140.674 99.963 133.371C94.7197 124.339 84.9414 120.322 75.7598 116.377C71.5828 114.584 67.2466 112.758 62.9661 111.369C57.5001 126.045 57.1659 143.261 69.5619 154.524C76.8737 161.168 91.5054 165.787 99.223 157.541H99.215ZM192.288 291.523C190.729 278.966 185.406 266.925 178.205 256.646C165.921 239.121 138.869 217.372 116.114 226.119C110.044 228.453 103.917 233.866 101.801 239.994C123.164 238.359 142.219 245.153 159.015 257.813C171.387 267.139 180.314 278.148 190.307 289.713C190.864 290.364 191.413 291.626 192.296 291.523H192.288ZM97.7988 249.987C93.7491 277.839 118.652 298.96 142.736 306.81C153.151 310.207 165.077 312.009 175.962 310.588L187.482 302.5C179.439 293.372 170.901 284.705 162.261 276.14C144.304 259.654 122.996 248.447 97.7909 249.987H97.7988ZM169.469 318.296C131.78 321.026 79.6664 295.603 87.3761 251.177C51.5647 259.607 51.1589 303.746 77.6375 323.812C98.7536 339.822 130.38 337.472 153.835 328.058C156.946 326.812 165.221 323.328 167.568 321.494C168.355 320.875 168.912 319.177 169.461 318.288L169.469 318.296ZM248.754 327.479C248.086 328.058 251.324 329.725 251.69 329.94C277.214 345.505 322.629 353.212 331.85 315.494C339.615 283.752 321.889 261.186 289.005 263.163C287.326 263.266 278.956 264.282 277.986 264.957C277.317 265.417 277.739 265.377 277.986 265.758C278.845 267.06 280.014 268.195 280.858 269.687C293.62 292.285 275.209 326.876 248.754 327.479ZM254.753 265.568C233.979 259.583 216.205 276.228 205.504 291.92L209.307 293.785L238.864 274.283L254.745 265.568H254.753ZM262.972 269.695C249.876 274.942 237.639 282.26 226.039 290.237C223.294 292.126 218.417 295.079 216.181 297.174C215.887 297.452 215.377 297.531 215.521 298.111C226.819 306.794 239.023 319.018 254.578 317.907C270.594 316.764 275.408 297.992 272.591 284.729C271.374 278.998 267.977 272.854 262.98 269.695H262.972ZM173.973 326.384C168.968 339.671 169.947 355.22 182.557 363.753C193.959 371.468 204.676 369.039 210.253 356.379C215.298 344.941 214.948 330.273 210.492 318.7L199.775 310.374C190.474 314.406 182.963 321.717 173.973 326.376V326.384Z" fill="#C6C3C1"/>
</g>
<defs>
<clipPath id="clip0_1_41">
<rect width="408" height="377" fill="white"/>
</clipPath>
</defs>
</svg>
