<svg width="533" height="509" viewBox="0 0 533 509" fill="none" xmlns="http://www.w3.org/2000/svg">
<g opacity="0.15">
<path d="M151.37 162.634C158.783 149.75 166.445 135.995 166.196 121.119C166.133 117.136 165.323 112.904 162.583 110.103C159.779 107.302 154.547 106.68 152.055 109.792C150.872 111.286 150.56 113.215 150.186 115.02C149.19 119.937 147.695 124.729 145.701 129.335C144.829 131.327 143.833 133.319 142.026 134.563C138.662 136.804 134.177 135.31 130.253 134.252C122.529 132.136 114.306 132.074 106.52 134.003C103.28 134.812 99.792 136.306 98.6708 139.418C97.5495 142.655 99.4806 146.14 101.91 148.567C106.208 152.862 112.313 154.605 117.857 157.094C123.65 159.708 134.364 160.393 151.308 162.696" fill="#C6C3C1"/>
<path d="M149.875 161.824C149.875 161.824 151.121 158.837 153.488 153.858C155.793 148.816 159.219 141.783 161.897 133.132C163.206 128.837 164.202 123.796 163.704 118.817C163.392 116.389 162.583 113.9 160.838 112.655C159.219 111.41 157.163 111.846 156.229 112.281C155.73 112.593 155.855 112.593 155.606 112.779C155.294 113.028 154.858 114.024 154.422 115.518C153.426 118.63 152.554 121.742 151.432 124.854C150.186 128.028 149.314 130.767 147.072 134.314C145.888 136.119 144.02 137.738 141.59 138.422C139.285 139.107 137.167 138.796 135.361 138.422C131.81 137.551 128.945 136.119 126.017 135.808C123.027 135.372 119.975 136.368 117.109 136.555C114.244 136.866 111.378 136.804 108.575 137.302C105.772 137.738 103.343 138.484 102.221 139.667C101.225 140.414 100.976 142.468 102.221 144.335C103.343 146.264 105.211 147.945 107.454 148.941C109.697 149.937 112.126 150.559 114.555 151.244C116.985 151.928 119.476 153.298 121.221 153.92C124.958 155.227 129.443 156.036 133.118 156.783C136.918 157.53 140.22 158.215 142.961 158.775C148.442 160.02 151.557 160.953 151.557 160.953C152.491 161.202 152.99 162.198 152.74 163.069C152.554 163.816 151.806 164.314 151.059 164.314C151.059 164.314 147.882 164.314 142.275 164.252C139.472 164.127 136.046 163.941 132.184 163.754C128.197 163.38 123.899 163.194 118.542 161.638C115.739 160.704 113.808 159.895 111.441 158.65C109.136 157.405 106.644 155.912 104.215 154.044C101.785 152.177 99.1691 150.186 97.3004 147.198C95.4316 144.397 94.1235 139.48 97.3004 135.497C100.104 132.011 103.903 130.953 107.018 130.02C110.195 129.148 113.559 128.402 116.985 128.588C120.411 128.713 123.712 130.144 126.951 130.891C130.315 131.638 133.492 132.572 136.233 132.696C137.603 132.696 138.725 132.509 139.472 132.136C140.095 131.825 140.718 131.202 141.216 130.331C142.338 128.402 143.459 125.103 144.331 122.426C145.265 119.563 145.888 116.7 146.137 113.775C146.262 112.219 146.449 110.227 147.757 107.8C149.127 105.435 151.931 103.63 154.36 103.381C159.281 102.634 163.517 105.497 165.448 108.734C167.317 112.032 168.064 115.207 168.313 118.132C168.75 124.045 168.313 129.397 167.255 134.377C166.258 139.294 164.514 143.526 162.769 147.136C161.025 150.746 159.343 153.733 157.786 156.098C154.796 160.891 152.803 163.38 152.803 163.38C152.18 164.19 151.121 164.314 150.373 163.692C149.75 163.194 149.564 162.385 149.875 161.638V161.824Z" fill="#C6C3C1"/>
<path d="M141.279 135.684C141.279 135.684 136.108 132.26 127.388 125.787C118.729 119.252 106.333 109.916 92.7531 97.0947C86.0255 90.6217 79.0488 83.3396 72.7573 74.4392C69.7049 69.9579 66.9641 64.8542 65.9674 59.0659C64.9084 53.3398 66.1543 46.6801 69.8918 41.7009C71.6983 39.1491 74.2523 36.9084 77.3669 35.7258C80.4815 34.4188 84.0944 34.481 87.0845 35.1657C93.1268 36.535 98.7954 39.0246 103.218 36.0993C107.641 33.2985 110.008 27.6969 111.378 21.9085C112.936 16.1824 113.995 9.21154 119.539 4.10785C122.217 1.80496 125.581 0.0622402 129.568 0C131.499 0 133.617 0.497921 135.299 1.556C136.918 2.48961 138.351 4.10785 139.285 5.16593C141.403 7.65554 142.961 9.1493 144.518 8.8381C146.2 8.71362 148.505 6.78418 151.308 4.91697C154.235 2.98753 158.471 1.99169 161.96 2.67633C165.573 3.17425 168.812 4.73025 171.553 6.78418C177.221 11.141 179.775 17.7384 181.083 23.6513C182.392 29.6886 182.516 35.5391 182.89 41.0785C183.139 46.7424 183.264 52.2817 183.139 57.6966C182.828 68.4642 181.769 78.6093 180.336 87.8831C178.965 97.1569 176.91 105.559 174.854 112.841C172.736 120.123 170.743 126.472 168.687 131.513C166.694 136.617 165.074 140.538 163.766 143.215C162.52 145.829 161.897 147.26 161.897 147.26C161.586 147.945 160.776 148.256 160.091 147.945C159.468 147.634 159.157 146.887 159.406 146.264C159.406 146.264 159.904 144.771 160.901 142.032C161.897 139.356 163.268 135.31 164.825 130.206C168.002 119.937 171.926 105.124 174.418 87.0117C175.726 77.9247 176.536 68.0285 176.723 57.5721C176.91 52.344 176.848 46.9291 176.661 41.5142C176.349 35.9126 176.225 30.311 175.103 25.0205C174.044 19.7924 171.864 14.6887 167.94 11.6389C164.015 8.46466 158.534 7.15762 154.485 9.83395C152.118 11.0787 149.813 13.7551 145.203 14.3775C142.898 14.6264 140.593 13.6928 139.036 12.448C137.479 11.2032 136.482 9.83394 135.486 8.71362C133.554 6.28626 132.059 5.16593 129.755 5.16593C127.512 5.16593 124.958 6.22402 122.965 7.9045C118.978 11.2032 117.545 17.3028 115.863 23.2156C114.244 29.1284 111.69 35.9748 105.461 39.7092C102.221 41.6387 98.6085 41.7631 95.307 41.1407C92.0679 40.5183 89.2647 39.4603 86.5238 38.8379C81.0421 37.2819 75.8719 39.3358 72.695 43.7548C69.4558 48.0494 68.1476 53.4643 69.082 58.6925C69.9541 63.9206 72.4458 68.7131 75.3735 73.0077C81.2913 81.5968 88.268 88.8789 94.871 95.2897C108.202 108.049 120.473 117.447 129.194 123.796C137.915 130.144 143.085 133.505 143.085 133.505C143.708 133.941 143.895 134.75 143.459 135.372C143.023 135.995 142.213 136.181 141.59 135.746L141.279 135.684Z" fill="#C6C3C1"/>
<path d="M67.151 50.8502C67.151 50.8502 66.2789 50.1655 64.8462 49.3564C63.3511 48.485 60.9217 47.427 57.6203 46.8668C54.3811 46.3066 50.1452 46.4311 45.9093 48.1738C41.6734 49.9166 37.4376 53.4643 34.8836 58.568C33.5755 61.1198 32.828 63.8584 32.5788 67.0949C32.3919 68.7131 32.205 70.3936 31.7067 72.1986C31.2706 73.9413 30.3986 75.933 28.5298 77.3022C26.7233 78.6715 24.1693 78.7338 22.3006 78.2981C20.3695 77.9246 18.8122 77.3022 17.1926 77.3022C14.2026 77.0533 11.0257 78.547 8.72087 80.8499C3.73749 85.5179 3.42603 93.4224 5.91772 100.269C8.34711 107.115 13.0813 113.65 18.5007 118.941C24.0448 124.294 30.3363 128.962 36.8147 133.194C40.1784 135.31 43.2308 137.302 46.6568 139.107C49.896 140.725 53.1975 142.343 56.6859 143.712C70.3279 149.314 83.8453 152.737 95.3693 155.414C106.956 157.841 116.86 158.899 123.712 159.273C127.138 159.459 129.879 159.459 131.748 159.397C133.617 159.397 134.613 159.397 134.613 159.397H134.738C135.486 159.397 136.108 159.957 136.108 160.766C136.108 161.451 135.61 162.073 134.925 162.136C134.925 162.136 133.928 162.26 131.997 162.447C130.128 162.758 127.325 162.945 123.775 163.007C116.673 163.256 106.457 162.758 94.435 160.704C82.4126 158.712 68.646 155.165 54.3811 149.625C50.8304 148.256 47.2175 146.638 43.6045 144.771C40.2407 142.966 36.7524 140.6 33.4509 138.484C26.7856 134.065 20.1203 129.148 14.4517 122.987C8.72087 116.825 4.04895 109.916 1.43268 101.763C0.186834 97.717 -0.373796 93.4224 0.311419 89.1901C0.872048 85.02 3.05228 80.7877 6.16689 78.0491C9.2192 75.2483 13.3928 73.4434 17.6909 73.879C21.8022 74.4392 24.8546 76.3686 26.9102 74.8126C28.9658 73.4434 29.4019 69.8334 29.7756 66.7837C30.0871 63.5472 31.0215 60.124 32.4542 57.3854C35.3819 51.7215 40.1784 47.8004 44.9126 45.871C49.7714 43.9415 54.3811 43.8793 57.994 44.4394C61.6693 44.9996 64.3478 46.1822 66.092 47.1158C67.9608 48.1738 68.646 48.734 68.646 48.734L68.7706 48.8585C69.3312 49.3564 69.4558 50.1655 68.9574 50.7879C68.4591 51.3481 67.6493 51.4726 67.0264 50.9747L67.151 50.8502Z" fill="#C6C3C1"/>
<path d="M138.849 149.314C167.192 187.592 209.364 211.741 255.46 226.118C279.754 233.712 305.107 238.566 330.086 241.367C402.47 249.396 476.099 243.421 547.985 254.873C612.582 265.143 682.411 297.259 701.41 359.81C718.416 415.889 681.601 481.801 625.352 498.357C569.102 514.913 503.383 480.805 482.952 425.909C478.093 412.777 475.476 398.524 477.781 384.768C480.024 371.262 486.751 358.814 495.659 348.42C515.157 325.703 548.171 312.694 576.203 323.275C604.234 333.856 620.244 372.009 602.802 396.345" stroke="#C6C3C1" stroke-width="2.08" stroke-linecap="round" stroke-linejoin="round"/>
<path d="M311.71 237.197C256.831 217.965 215.469 164.937 210.298 107.053C228.675 114.647 246.989 122.987 262.998 134.75C279.007 146.513 292.836 162.011 299.812 180.621C306.851 199.48 306.727 220.766 316.133 238.567" fill="#C6C3C1"/>
<path d="M311.71 237.197C256.831 217.965 215.469 164.937 210.298 107.053C228.675 114.647 246.989 122.987 262.998 134.75C279.007 146.513 292.836 162.011 299.812 180.621C306.851 199.48 306.727 220.766 316.133 238.567" stroke="#C6C3C1" stroke-width="1.04" stroke-linecap="round" stroke-linejoin="round"/>
<path d="M393.375 250.704C340.24 243.733 284.364 262.965 246.74 301.118C264.617 298.068 282.807 302.923 300.934 303.67C338.621 305.226 377.366 286.99 397.487 255.06C399.106 252.508 399.916 248.089 396.926 247.405" fill="#C6C3C1"/>
<path d="M393.375 250.704C340.24 243.733 284.364 262.965 246.74 301.118C264.617 298.068 282.807 302.923 300.934 303.67C338.621 305.226 377.366 286.99 397.487 255.06C399.106 252.508 399.916 248.089 396.926 247.405" stroke="#C6C3C1" stroke-width="1.04" stroke-linecap="round" stroke-linejoin="round"/>
<path d="M526.307 249.583C500.518 248.027 475.912 236.015 457.225 218.214C438.537 200.413 425.58 177.136 418.043 152.426C473.172 157.717 523.753 196.243 543.437 247.965" fill="#C6C3C1"/>
<path d="M526.307 249.583C500.518 248.027 475.912 236.015 457.225 218.214C438.537 200.413 425.58 177.136 418.043 152.426C473.172 157.717 523.753 196.243 543.437 247.965" stroke="#C6C3C1" stroke-width="1.04" stroke-linecap="round" stroke-linejoin="round"/>
<path d="M640.426 286.305C640.426 286.305 641.485 287.3 643.416 289.105C645.347 290.973 648.213 293.836 651.577 297.632C658.18 305.288 667.274 316.74 674.313 332.798C677.864 340.765 680.729 349.789 682.349 359.81C683.844 369.333 684.778 380.225 684.093 391.055C683.47 402.009 680.916 413.337 676.431 424.104C671.946 434.872 665.156 445.017 656.747 453.482C648.4 462.071 638.495 468.917 628.217 474.457C617.876 479.934 607.1 483.979 596.261 486.531C590.779 487.838 585.671 488.834 579.816 489.519C574.957 489.954 569.102 490.328 563.931 489.892C553.466 489.207 543.749 486.905 535.339 483.481C518.334 476.697 506.809 465.93 500.705 457.403C499.085 455.349 497.839 453.357 496.78 451.552C495.721 449.809 494.849 448.316 494.289 447.009C493.105 444.457 492.482 443.15 492.482 443.15C491.859 441.78 492.482 440.162 493.853 439.54C495.036 438.98 496.407 439.353 497.154 440.349L497.341 440.598C497.341 440.598 498.151 441.656 499.708 443.71C500.456 444.768 501.39 446.013 502.636 447.382C503.819 448.814 505.19 450.37 506.934 451.988C513.599 458.585 524.563 466.676 539.637 471.967C547.175 474.581 555.647 476.448 564.679 477.071C569.226 477.444 573.462 477.32 578.819 476.946C583.18 476.51 588.412 475.639 593.333 474.519C613.142 469.851 633.948 461.262 649.895 446.511C657.93 439.229 664.471 430.453 669.143 420.868C673.69 411.221 676.431 400.826 677.428 390.495C678.425 380.1 678.113 370.266 676.68 360.495C675.372 351.221 672.756 342.445 669.517 334.79C662.914 319.479 654.193 308.213 647.652 301.055C644.288 297.445 641.61 294.831 639.679 293.089C637.685 291.284 636.626 290.35 636.626 290.35C635.505 289.354 635.443 287.612 636.44 286.491C637.436 285.371 639.18 285.309 640.302 286.305H640.426Z" fill="#C6C3C1"/>
<path d="M459.779 246.658C437.042 245.973 414.492 238.504 395.929 225.371C375.311 210.87 360.111 190.144 345.223 169.791C375.809 171.907 401.785 193.94 418.479 219.645C424.646 229.106 430.065 239.438 438.724 246.72" stroke="#C6C3C1" stroke-width="1.04" stroke-linecap="round" stroke-linejoin="round"/>
<path d="M257.516 227.052C213.849 214.853 167.005 224.687 124.148 239.438C133.056 238.442 141.653 242.488 150.187 245.164C169.123 251.077 189.555 250.392 208.928 246.347C228.301 242.301 246.864 235.019 265.303 227.737C266.237 227.363 267.421 226.679 267.171 225.683C266.984 224.687 265.053 225.87 265.988 226.181" stroke="#C6C3C1" stroke-width="1.04" stroke-linecap="round" stroke-linejoin="round"/>
<path d="M29.5888 74.4394C29.5888 74.4394 29.7134 74.8751 29.9626 75.622C30.1495 76.4311 30.5232 77.5514 31.0838 78.8585C32.1428 81.597 34.1984 85.3314 37.3131 89.377C40.3654 93.4227 44.7258 97.5927 49.7715 101.514C52.3255 103.443 55.1286 105.311 57.8695 107.178C60.7349 109.107 63.6004 110.788 66.5904 112.593C72.5704 116.078 78.4882 119.75 84.0322 123.236C89.5762 126.659 94.6219 130.269 98.7332 133.568C102.844 136.866 106.084 139.978 108.139 142.468C109.198 143.65 109.946 144.646 110.382 145.393C110.88 146.078 111.129 146.514 111.129 146.514C111.565 147.136 111.379 148.007 110.756 148.443C110.257 148.816 109.572 148.754 109.136 148.381L109.011 148.256C109.011 148.256 108.7 148.007 108.077 147.509C107.454 147.011 106.644 146.265 105.461 145.393C103.094 143.65 99.6676 141.161 95.3071 138.422C91.0089 135.559 85.9633 132.261 80.6061 128.713C75.1867 125.103 69.3313 121.431 63.6004 117.447C60.7972 115.456 57.7449 113.402 55.0663 111.286C52.3255 109.045 49.7715 106.804 47.3421 104.564C42.421 100.082 38.3097 95.4143 35.1328 91.182C31.8936 86.8874 30.0249 82.8418 28.779 79.9788C28.1561 78.485 27.7201 77.3647 27.4709 76.6178C27.2217 75.8709 27.0971 75.4353 27.0971 75.4353C26.848 74.6884 27.2217 73.9415 27.9692 73.6925C28.7167 73.4436 29.4642 73.817 29.7134 74.5639L29.5888 74.4394Z" fill="#C6C3C1"/>
<path d="M144.331 14.0663C144.331 14.0663 143.148 15.2488 142.275 17.614C141.216 20.0413 141.092 24.0869 142.026 28.7549C142.961 33.423 144.954 38.9001 146.947 44.7507C148.941 50.6012 151.121 56.8875 153.114 63.236C155.045 69.5845 156.914 76.0575 157.973 82.2815C159.157 88.4433 159.966 94.3561 159.842 99.4598C159.904 104.563 159.281 108.858 158.596 111.783C157.848 114.709 157.288 116.327 157.288 116.327C157.039 117.074 156.229 117.447 155.544 117.198C154.983 117.011 154.672 116.514 154.609 115.953V115.829C154.609 115.829 154.485 114.148 154.547 111.348C154.36 108.485 154.298 104.501 153.799 99.771C153.363 94.9785 152.741 89.3769 151.806 83.4018C150.747 77.4268 149.626 70.9538 148.193 64.6053C146.823 58.1945 145.265 51.7838 143.646 45.8088C142.151 39.7715 140.22 34.3566 139.285 29.3151C138.351 24.2737 138.725 19.7924 139.784 16.8048C140.282 15.3733 140.967 14.1285 141.403 13.4439C141.839 12.8215 142.089 12.448 142.089 12.448C142.462 11.9501 143.148 11.8256 143.646 12.1991C143.895 12.3858 144.082 12.6347 144.144 12.9459L144.331 14.0663Z" fill="#C6C3C1"/>
<path d="M103.966 40.5807C103.966 40.5807 103.966 41.0164 103.966 41.7633C103.966 42.5102 103.966 43.6305 103.966 44.9998C104.028 47.7383 104.713 51.6595 106.084 56.203C107.454 60.7465 109.697 65.8502 112.873 70.8917C115.926 76.0576 120.037 80.9123 124.024 85.9538C128.135 90.933 132.184 95.9745 135.922 100.767C139.721 105.559 143.085 110.165 145.764 114.273C151.183 122.489 153.488 128.837 153.488 128.837C153.737 129.584 153.363 130.331 152.678 130.642C152.118 130.829 151.495 130.642 151.121 130.207C151.121 130.207 147.072 125.227 140.967 117.759C137.977 113.962 134.489 109.543 130.938 104.626C127.263 99.7711 123.401 94.6052 119.726 89.1903C115.926 83.8999 112.562 78.1738 109.759 72.6344C106.956 67.095 104.838 61.6801 103.467 56.9499C102.097 52.1574 101.661 48.0495 101.412 45.1242C101.287 43.6305 101.287 42.5102 101.287 41.7633C101.287 41.0164 101.287 40.5807 101.287 40.5807C101.287 39.8338 101.91 39.2114 102.658 39.2114C103.405 39.2114 104.028 39.8338 104.028 40.5807H103.966Z" fill="#C6C3C1"/>
<path d="M137.79 235.579C137.79 235.579 139.597 235.766 142.711 236.139C145.888 236.513 150.311 236.762 155.731 236.948C161.088 237.135 167.441 237.26 174.169 236.824C180.897 236.45 188.06 235.704 195.161 234.646C202.263 233.65 209.302 232.218 215.843 231.036C222.383 229.666 228.488 228.359 233.72 227.239C244.185 224.998 251.411 223.94 251.411 223.94C252.159 223.816 252.906 224.376 252.969 225.123C253.031 225.745 252.72 226.305 252.221 226.554C252.221 226.554 250.602 227.426 247.674 228.67C244.746 229.978 240.448 231.658 235.215 233.152C229.983 234.77 223.691 236.015 216.964 237.197C210.236 238.38 202.948 239.002 195.66 239.563C181.083 240.309 166.569 240.247 155.668 239.687C144.767 239.065 137.603 238.38 137.603 238.38C136.856 238.38 136.295 237.633 136.358 236.886C136.358 236.139 137.105 235.579 137.853 235.641L137.79 235.579Z" fill="#C6C3C1"/>
<path d="M351.266 170.102C351.266 170.102 356.685 173.588 364.783 179.127C372.757 184.729 383.097 192.695 392.939 201.347C397.798 205.766 402.532 210.247 406.581 214.853C410.693 219.459 414.368 223.816 417.109 227.986C419.912 232.031 421.967 235.579 423.213 238.193C424.521 240.745 425.144 242.301 425.144 242.301C425.456 242.986 425.144 243.857 424.397 244.106C423.836 244.355 423.276 244.168 422.84 243.795C422.84 243.795 418.292 239.064 412.25 231.658C406.208 224.251 398.296 214.231 389.513 204.832C385.153 200.102 380.605 195.621 376.058 191.637C371.573 187.592 367.088 184.231 363.164 181.368C359.239 178.505 356 176.202 353.571 174.77C351.141 173.277 349.771 172.467 349.771 172.467C349.148 172.094 348.899 171.223 349.335 170.6C349.709 169.978 350.581 169.729 351.204 170.165L351.266 170.102Z" fill="#C6C3C1"/>
<path d="M230.543 125.601C230.543 125.601 231.229 127.157 232.412 129.958C233.596 132.758 235.527 136.493 238.081 141.036C240.573 145.518 243.687 150.684 247.425 155.912C251.162 161.14 255.398 166.555 259.883 171.783C268.791 182.239 278.197 192.198 284.862 200.164C291.59 208.069 295.327 213.982 295.327 213.982C295.763 214.604 295.577 215.476 294.891 215.911C294.393 216.222 293.77 216.16 293.334 215.911C293.334 215.911 287.665 211.741 280.377 204.335C276.64 200.662 272.715 196.057 268.479 191.077C264.244 186.098 260.07 180.497 256.021 174.833C248.048 163.381 240.635 151.555 235.776 142.343C230.917 133.07 228.114 126.783 228.114 126.783C227.803 126.099 228.114 125.29 228.799 124.978C229.484 124.667 230.294 124.978 230.606 125.663L230.543 125.601Z" fill="white"/>
<path d="M376.681 259.355C376.681 259.355 371.698 262.031 364.098 265.89C356.498 269.749 346.158 274.479 335.568 278.774C324.916 282.944 313.828 286.118 305.294 287.176C301.058 287.798 297.445 287.923 294.891 287.861C292.4 287.861 290.905 287.674 290.905 287.674C290.157 287.612 289.596 286.927 289.659 286.118C289.659 285.558 290.095 285.122 290.593 284.935C290.593 284.935 296.013 283.006 304.173 281.139C312.333 279.209 323.234 277.031 334.011 274.106C344.85 271.305 355.377 267.197 362.977 263.587C370.576 259.977 375.373 256.989 375.373 256.989C375.996 256.616 376.868 256.803 377.242 257.425C377.615 258.048 377.429 258.919 376.806 259.292C376.806 259.292 376.806 259.292 376.743 259.292L376.681 259.355Z" fill="white"/>
<path d="M436.232 165.621C436.232 165.621 441.776 169.169 449.999 174.77C458.159 180.434 468.749 188.401 478.965 196.99C483.948 201.347 488.932 205.828 493.167 210.434C497.466 214.977 501.328 219.334 504.255 223.442C507.245 227.425 509.426 231.035 510.796 233.587C512.229 236.139 512.914 237.695 512.914 237.695C513.225 238.38 512.914 239.251 512.229 239.562C511.668 239.811 511.045 239.687 510.672 239.313C510.672 239.313 505.875 234.645 499.521 227.301C493.105 219.957 484.758 209.936 475.663 200.6C471.116 195.87 466.382 191.388 461.71 187.343C457.1 183.297 452.491 179.874 448.504 177.011C444.517 174.148 441.153 171.845 438.662 170.351C436.17 168.857 434.8 167.986 434.8 167.986C434.177 167.613 433.928 166.741 434.364 166.119C434.737 165.496 435.609 165.247 436.232 165.683V165.621Z" fill="white"/>
</g>
</svg>
