<svg width="289" height="344" viewBox="0 0 289 344" fill="none" xmlns="http://www.w3.org/2000/svg">
<g opacity="0.15">
<g clip-path="url(#clip0_99_2739)">
<path d="M-98.1987 100.871C-79.0513 126.73 -50.5616 143.044 -19.4207 152.757C-3.00867 157.887 14.1188 161.167 30.9938 163.059C79.8934 168.483 129.635 164.446 178.197 172.183C221.837 179.121 269.011 200.817 281.846 243.074C293.334 280.959 268.464 325.487 230.464 336.671C192.463 347.856 148.067 324.814 134.264 287.728C130.981 278.856 129.214 269.228 130.771 259.935C132.286 250.811 136.831 242.402 142.848 235.38C156.02 220.032 178.324 211.245 197.261 218.393C216.198 225.541 227.013 251.316 215.23 267.756" stroke="#C6C3C1" stroke-width="2.08" stroke-linecap="round" stroke-linejoin="round"/>
<path d="M18.5795 160.241C-18.4949 147.249 -46.4375 111.425 -49.9304 72.3208C-37.5161 77.4505 -25.1439 83.0848 -14.3288 91.0317C-3.51365 98.9786 5.8286 109.448 10.5418 122.02C15.2971 134.761 15.2129 149.141 21.5674 161.166" fill="#C6C3C1"/>
<path d="M18.5795 160.241C-18.4949 147.249 -46.4375 111.425 -49.9304 72.3208C-37.5161 77.4505 -25.1439 83.0848 -14.3288 91.0317C-3.51365 98.9786 5.8286 109.448 10.5418 122.02C15.2971 134.761 15.2129 149.141 21.5674 161.166" stroke="#C6C3C1" stroke-width="1.04" stroke-linecap="round" stroke-linejoin="round"/>
<path d="M73.7494 169.366C37.8532 164.656 0.105434 177.649 -25.3122 203.424C-13.2346 201.364 -0.946619 204.643 11.2993 205.148C36.7591 206.199 62.9342 193.879 76.5268 172.309C77.6209 170.585 78.168 167.6 76.148 167.137" fill="#C6C3C1"/>
<path d="M73.7494 169.366C37.8532 164.656 0.105434 177.649 -25.3122 203.424C-13.2346 201.364 -0.946619 204.643 11.2993 205.148C36.7591 206.199 62.9342 193.879 76.5268 172.309C77.6209 170.585 78.168 167.6 76.148 167.137" stroke="#C6C3C1" stroke-width="1.04" stroke-linecap="round" stroke-linejoin="round"/>
<path d="M163.553 168.609C146.131 167.557 129.508 159.442 116.884 147.417C104.259 135.391 95.5059 119.666 90.4139 102.973C127.657 106.547 161.827 132.574 175.125 167.515" fill="#C6C3C1"/>
<path d="M163.553 168.609C146.131 167.557 129.508 159.442 116.884 147.417C104.259 135.391 95.5059 119.666 90.4139 102.973C127.657 106.547 161.827 132.574 175.125 167.515" stroke="#C6C3C1" stroke-width="1.04" stroke-linecap="round" stroke-linejoin="round"/>
<path d="M240.647 193.416C240.647 193.416 241.363 194.089 242.667 195.308C243.972 196.57 245.908 198.504 248.18 201.069C252.641 206.241 258.785 213.977 263.54 224.825C265.939 230.207 267.875 236.304 268.969 243.074C269.979 249.507 270.61 256.865 270.147 264.182C269.726 271.582 268.001 279.234 264.971 286.508C261.941 293.783 257.354 300.636 251.673 306.355C246.034 312.157 239.343 316.782 232.399 320.525C225.414 324.225 218.134 326.958 210.811 328.682C207.108 329.565 203.657 330.237 199.701 330.7C196.419 330.994 192.463 331.247 188.971 330.952C181.901 330.49 175.336 328.934 169.655 326.621C158.166 322.038 150.381 314.764 146.257 309.004C145.163 307.616 144.321 306.271 143.606 305.051C142.89 303.874 142.301 302.865 141.923 301.982C141.123 300.258 140.702 299.375 140.702 299.375C140.281 298.45 140.702 297.357 141.628 296.936C142.428 296.558 143.353 296.81 143.858 297.483L143.985 297.651C143.985 297.651 144.532 298.366 145.584 299.753C146.089 300.468 146.72 301.309 147.562 302.234C148.361 303.201 149.287 304.252 150.465 305.346C154.968 309.803 162.375 315.269 172.558 318.843C177.65 320.609 183.374 321.87 189.476 322.291C192.548 322.543 195.409 322.459 199.028 322.206C201.974 321.912 205.509 321.323 208.833 320.567C222.215 317.413 236.271 311.611 247.044 301.645C252.473 296.726 256.891 290.797 260.047 284.322C263.119 277.805 264.971 270.783 265.644 263.803C266.318 256.781 266.107 250.138 265.139 243.536C264.256 237.271 262.488 231.343 260.3 226.171C255.839 215.827 249.948 208.217 245.529 203.381C243.257 200.943 241.447 199.177 240.143 197.999C238.796 196.78 238.08 196.149 238.08 196.149C237.323 195.477 237.281 194.299 237.954 193.542C238.628 192.786 239.806 192.744 240.563 193.416H240.647Z" fill="#C6C3C1"/>
<path d="M118.609 166.633C103.249 166.17 88.0152 161.125 75.4747 152.253C61.5455 142.456 51.2774 128.454 41.2198 114.705C61.8821 116.134 79.4304 131.019 90.7085 148.384C94.8746 154.775 98.5358 161.755 104.385 166.675" stroke="#C6C3C1" stroke-width="1.04" stroke-linecap="round" stroke-linejoin="round"/>
<path d="M45.3018 114.915C45.3018 114.915 48.9629 117.269 54.4336 121.011C59.8201 124.796 66.8058 130.178 73.4548 136.022C76.7372 139.008 79.9354 142.035 82.6708 145.147C85.4482 148.258 87.9311 151.201 89.7827 154.018C91.6764 156.751 93.0651 159.148 93.9068 160.914C94.7905 162.638 95.2113 163.689 95.2113 163.689C95.4217 164.152 95.2113 164.74 94.7063 164.909C94.3276 165.077 93.9488 164.951 93.6542 164.698C93.6542 164.698 90.5822 161.503 86.5003 156.499C82.4183 151.496 77.0738 144.726 71.1402 138.377C68.1945 135.181 65.1225 132.154 62.0505 129.463C59.0206 126.73 55.9906 124.459 53.3395 122.525C50.6883 120.591 48.5 119.035 46.8588 118.068C45.2176 117.059 44.2918 116.512 44.2918 116.512C43.871 116.26 43.7026 115.672 43.9972 115.251C44.2497 114.831 44.8389 114.662 45.2597 114.957L45.3018 114.915Z" fill="#C6C3C1"/>
<path d="M-36.2536 84.8508C-36.2536 84.8508 -35.7907 85.902 -34.9912 87.7941C-34.1916 89.6862 -32.8871 92.209 -31.1617 95.2785C-29.4784 98.3059 -27.3743 101.796 -24.8494 105.328C-22.3244 108.86 -19.4628 112.518 -16.4329 116.05C-10.4151 123.114 -4.06073 129.841 0.442066 135.223C4.98695 140.563 7.51189 144.558 7.51189 144.558C7.80646 144.978 7.68021 145.567 7.21731 145.861C6.88065 146.071 6.45983 146.029 6.16526 145.861C6.16526 145.861 2.33576 143.044 -2.58786 138.04C-5.11279 135.56 -7.76397 132.448 -10.6256 129.084C-13.4872 125.721 -16.3067 121.936 -19.042 118.11C-24.4285 110.373 -29.4363 102.384 -32.7187 96.1615C-36.0012 89.8964 -37.8949 85.6497 -37.8949 85.6497C-38.1053 85.1872 -37.8949 84.6406 -37.4319 84.4303C-36.969 84.2201 -36.422 84.4303 -36.2116 84.8928L-36.2536 84.8508Z" fill="white"/>
<path d="M62.4713 175.21C62.4713 175.21 59.1047 177.018 53.9707 179.625C48.8367 182.232 41.851 185.428 34.697 188.329C27.501 191.146 20.0103 193.29 14.245 194.005C11.3835 194.426 8.94269 194.51 7.21732 194.468C5.53403 194.468 4.52406 194.342 4.52406 194.342C4.01907 194.3 3.64033 193.837 3.68241 193.29C3.68241 192.912 3.97699 192.618 4.31365 192.491C4.31365 192.491 7.9748 191.188 13.4876 189.927C19.0003 188.623 26.3647 187.152 33.645 185.175C40.9673 183.283 48.0792 180.508 53.2132 178.069C58.3472 175.631 61.5876 173.612 61.5876 173.612C62.0084 173.36 62.5975 173.486 62.85 173.907C63.1025 174.327 62.9763 174.916 62.5555 175.168C62.5555 175.168 62.5555 175.168 62.5134 175.168L62.4713 175.21Z" fill="white"/>
<path d="M102.702 111.887C102.702 111.887 106.447 114.284 112.002 118.068C117.515 121.895 124.669 127.277 131.57 133.079C134.937 136.022 138.303 139.05 141.165 142.161C144.069 145.231 146.678 148.174 148.656 150.949C150.676 153.64 152.149 156.079 153.074 157.803C154.042 159.527 154.505 160.578 154.505 160.578C154.716 161.04 154.505 161.629 154.042 161.839C153.664 162.007 153.243 161.923 152.99 161.671C152.99 161.671 149.75 158.518 145.457 153.556C141.123 148.594 135.484 141.825 129.34 135.518C126.268 132.322 123.07 129.295 119.914 126.562C116.799 123.829 113.685 121.516 110.992 119.582C108.299 117.648 106.026 116.092 104.343 115.083C102.66 114.074 101.734 113.485 101.734 113.485C101.313 113.233 101.145 112.644 101.439 112.224C101.692 111.803 102.281 111.635 102.702 111.929V111.887Z" fill="white"/>
</g>
</g>
<defs>
<clipPath id="clip0_99_2739">
<rect width="289" height="343.861" fill="white"/>
</clipPath>
</defs>
</svg>
