<svg width="188" height="60" viewBox="0 0 188 60" fill="none" xmlns="http://www.w3.org/2000/svg">
<g clip-path="url(#clip0_96_1440)">
<path d="M76.0994 25.9679H75.3173V31.1249H73.5939L73.3766 29.5909C72.9784 30.1023 72.4497 30.5186 71.7908 30.8473C71.1391 31.1687 70.3715 31.3294 69.488 31.3294C67.6704 31.3294 66.2149 30.6866 65.1287 29.401C64.0425 28.1154 63.4922 26.5303 63.4922 24.6384C63.4922 22.7465 64.0643 21.1541 65.2156 19.8101C66.367 18.466 67.9818 17.7867 70.0673 17.7867C71.1246 17.7867 72.066 17.9401 72.8915 18.2396C73.717 18.5464 74.3615 18.9116 74.8177 19.3426L75.1797 22.0526L73.3549 22.2352L72.9928 20.5771C72.218 20.0365 71.2259 19.7663 70.0239 19.7663C68.8218 19.7663 67.8153 20.1826 67.0405 21.0227C66.2656 21.8554 65.8818 23.0533 65.8818 24.6019C65.8818 26.1505 66.2511 27.2973 66.9825 28.1227C67.7139 28.9481 68.677 29.3572 69.8718 29.3572C70.8711 29.3572 71.6604 29.0869 72.2397 28.5391C72.8118 27.9912 73.1015 27.3046 73.1015 26.4646V25.9825H70.3353V24.0614H76.1066V25.9825L76.0994 25.9679Z" fill="url(#paint0_linear_96_1440)"/>
<path d="M90.43 24.5362C90.43 26.3988 89.8362 27.9912 88.6486 29.328C87.461 30.6647 85.839 31.3294 83.7824 31.3294C81.7259 31.3294 80.1038 30.6647 78.9524 29.328C77.8011 27.9912 77.229 26.4134 77.229 24.58C77.229 22.7465 77.83 21.0592 79.0321 19.7516C80.2342 18.4441 81.8345 17.794 83.8404 17.794C85.8462 17.794 87.4755 18.4587 88.6631 19.7882C89.8434 21.1176 90.4372 22.7027 90.4372 24.5508L90.43 24.5362ZM88.0186 24.5946C88.0186 23.1264 87.6493 21.9503 86.9035 21.0738C86.1648 20.1972 85.1293 19.7589 83.8042 19.7589C82.4138 19.7589 81.3711 20.2118 80.6686 21.1249C79.9662 22.038 79.6186 23.1629 79.6186 24.5069C79.6186 25.851 79.959 26.9467 80.6469 27.9036C81.3349 28.8605 82.4066 29.3353 83.8621 29.3353C85.2379 29.3353 86.2735 28.8897 86.9686 27.9912C87.6638 27.0928 88.0114 25.9606 88.0114 24.5873L88.0186 24.5946Z" fill="url(#paint1_linear_96_1440)"/>
<path d="M104.811 24.5362C104.811 26.3988 104.218 27.9912 103.03 29.328C101.842 30.6647 100.22 31.3294 98.1638 31.3294C96.1072 31.3294 94.4852 30.6647 93.3338 29.328C92.1824 27.9912 91.6104 26.4134 91.6104 24.58C91.6104 22.7465 92.2114 21.0592 93.4134 19.7516C94.6155 18.4441 96.2158 17.794 98.2217 17.794C100.228 17.794 101.857 18.4587 103.044 19.7882C104.225 21.1176 104.819 22.7027 104.819 24.5508L104.811 24.5362ZM102.407 24.5946C102.407 23.1264 102.038 21.9503 101.292 21.0738C100.553 20.1972 99.5179 19.7589 98.1927 19.7589C96.8024 19.7589 95.7596 20.2118 95.0572 21.1249C94.3548 22.038 94.0072 23.1629 94.0072 24.5069C94.0072 25.851 94.3476 26.9467 95.0355 27.9036C95.7234 28.8605 96.7952 29.3353 98.2507 29.3353C99.6265 29.3353 100.662 28.8897 101.357 27.9912C102.052 27.0928 102.4 25.9606 102.4 24.5873L102.407 24.5946Z" fill="url(#paint2_linear_96_1440)"/>
<path d="M118.584 24.5143C118.584 26.4792 118.005 28.0789 116.839 29.2988C115.681 30.5186 114.066 31.1249 112.009 31.1249H105.956V29.2038H107.462V19.9051H105.956V17.9839H111.886C114.08 17.9839 115.739 18.5902 116.876 19.8028C118.012 21.0154 118.577 22.5858 118.577 24.5143H118.584ZM116.195 24.5362C116.195 21.4536 114.739 19.9051 111.828 19.9051H109.685V29.2038H111.828C114.739 29.2038 116.195 27.6479 116.195 24.5362Z" fill="url(#paint3_linear_96_1440)"/>
<path d="M124.993 31.1249H119.787V29.2038H121.293V19.9051H119.787V17.9839H124.993V19.9051H123.509V29.2038H124.993V31.1249Z" fill="url(#paint4_linear_96_1440)"/>
<path d="M136.536 31.1249H126.615V29.2038H128.121V19.9051H126.615V17.9839H136.391L136.789 21.7823L134.885 21.943L134.487 19.9051H130.337V23.5427H136.072V25.4639H130.337V29.2038H134.624L135.022 27.1658L136.927 27.3265L136.529 31.1249H136.536Z" fill="url(#paint5_linear_96_1440)"/>
<path d="M147.919 27.2608C147.919 28.5683 147.47 29.5763 146.565 30.2703C145.66 30.9715 144.472 31.3221 142.988 31.3221C142.104 31.3221 141.257 31.2126 140.432 31.0007C139.606 30.7889 138.962 30.4748 138.477 30.0731L138.839 27.0636L140.62 27.2462L140.577 28.8605C141.018 29.0869 141.424 29.233 141.786 29.2915C142.155 29.3499 142.496 29.3864 142.814 29.3864C143.589 29.3864 144.233 29.2623 144.748 29.0139C145.262 28.7655 145.522 28.2615 145.522 27.5091C145.522 26.6837 145.226 26.1359 144.639 25.8656C144.052 25.588 143.379 25.3762 142.619 25.2301C142.003 25.1059 141.38 24.9452 140.758 24.748C140.128 24.5435 139.606 24.2075 139.193 23.74C138.781 23.2652 138.571 22.5712 138.571 21.6582C138.571 20.2849 139.034 19.2988 139.961 18.6998C140.888 18.1008 141.931 17.8013 143.075 17.8013C143.879 17.8013 144.653 17.9255 145.407 18.1666C146.16 18.4076 146.753 18.729 147.181 19.1162L147.304 21.8846L145.522 22.0453L145.341 20.3433C144.965 20.1315 144.596 19.9781 144.219 19.8978C143.842 19.8174 143.488 19.7736 143.14 19.7736C142.51 19.7736 141.989 19.9051 141.576 20.1607C141.163 20.4164 140.953 20.8254 140.953 21.3952C140.953 22.0526 141.207 22.5055 141.728 22.7392C142.242 22.973 142.821 23.1702 143.459 23.3163C144.009 23.4405 144.624 23.6012 145.32 23.7984C146.015 24.0029 146.616 24.3609 147.13 24.8795C147.644 25.3981 147.905 26.1943 147.905 27.2754L147.919 27.2608Z" fill="url(#paint6_linear_96_1440)"/>
<path d="M161.026 22.2717L159.1 22.4324L158.701 19.9051H156.16V29.2038H158.347V31.1249H151.837V29.2038H153.944V19.9051H151.38L150.982 22.4324L149.078 22.2717L149.476 17.9839H160.635L161.033 22.2717H161.026Z" fill="url(#paint7_linear_96_1440)"/>
<path d="M175.255 24.5362C175.255 26.3988 174.661 27.9912 173.474 29.328C172.286 30.6647 170.664 31.3294 168.608 31.3294C166.551 31.3294 164.929 30.6647 163.778 29.328C162.626 27.9912 162.054 26.4134 162.054 24.58C162.054 22.7465 162.655 21.0592 163.857 19.7516C165.059 18.4441 166.66 17.794 168.666 17.794C170.671 17.794 172.301 18.4587 173.488 19.7882C174.669 21.1176 175.262 22.7027 175.262 24.5508L175.255 24.5362ZM172.851 24.5946C172.851 23.1264 172.482 21.9503 171.736 21.0738C170.997 20.1972 169.962 19.7589 168.637 19.7589C167.246 19.7589 166.204 20.2118 165.501 21.1249C164.799 22.038 164.451 23.1629 164.451 24.5069C164.451 25.851 164.791 26.9467 165.479 27.9036C166.167 28.8605 167.239 29.3353 168.695 29.3353C170.07 29.3353 171.106 28.8897 171.801 27.9912C172.496 27.0928 172.844 25.9606 172.844 24.5873L172.851 24.5946Z" fill="url(#paint8_linear_96_1440)"/>
<path d="M188 31.1249H184.951L182.265 25.9314H180.121V29.2038H181.642V31.1249H176.392V29.2038H177.898V19.9051H176.392V17.9839H182.185C183.8 17.9839 185.009 18.3273 185.813 19.0066C186.617 19.6859 187.015 20.6428 187.015 21.87C187.015 22.7465 186.783 23.4989 186.32 24.1271C185.857 24.7553 185.219 25.2009 184.408 25.4712L186.392 29.2111H187.993V31.1322L188 31.1249ZM184.654 21.9284C184.654 21.1907 184.437 20.6647 184.01 20.3652C183.583 20.0585 182.851 19.9124 181.823 19.9124H180.121V24.1344H181.809C182.88 24.1344 183.619 23.9445 184.032 23.5574C184.444 23.1702 184.654 22.6297 184.654 21.9284Z" fill="url(#paint9_linear_96_1440)"/>
<path d="M93.5004 39.5983H92.5518V39.0943H93.5004V38.4222C93.5004 37.9693 93.6235 37.6406 93.8769 37.4434C94.1304 37.2462 94.5142 37.1439 95.0283 37.1439C95.2238 37.1439 95.4483 37.1585 95.7162 37.1877V37.6918C95.499 37.6625 95.2817 37.6479 95.05 37.6479C94.7676 37.6479 94.5649 37.6991 94.4418 37.8013C94.3186 37.9036 94.2607 38.0935 94.2607 38.3638V39.0869H95.6366V39.591H94.2607V43.2433H93.4931V39.591L93.5004 39.5983Z" fill="url(#paint10_linear_96_1440)"/>
<path d="M97.6424 43.2944C97.4613 43.2652 97.2803 43.2141 97.0993 43.1264C96.911 43.0387 96.7734 42.9 96.6865 42.71C96.5996 42.5201 96.5562 42.2572 96.5562 41.9284V40.4821C96.5562 40.2265 96.5851 40 96.6503 39.8028C96.7155 39.6056 96.7951 39.4595 96.8965 39.3499C96.9834 39.255 97.1137 39.1746 97.2875 39.1235C97.4613 39.0723 97.6351 39.0358 97.8234 39.0139C98.0261 38.9993 98.2434 38.9993 98.4606 38.9993C98.7575 38.9993 98.982 39.0066 99.1268 39.0212C99.2789 39.0358 99.4382 39.065 99.612 39.1089C99.7858 39.16 99.9234 39.2404 100.025 39.3426C100.119 39.4449 100.206 39.5983 100.271 39.7882C100.336 39.9927 100.365 40.2192 100.365 40.4821V41.9284C100.365 42.4179 100.256 42.7685 100.032 42.9949C99.9379 43.0899 99.8075 43.1556 99.641 43.2068C99.4744 43.2579 99.2934 43.2944 99.1123 43.309C98.8951 43.3236 98.6779 43.3236 98.4679 43.3236C98.1058 43.3236 97.8306 43.309 97.6496 43.2871L97.6424 43.2944ZM98.982 42.8123C99.0906 42.7977 99.192 42.7685 99.3006 42.7173C99.402 42.6735 99.4744 42.5932 99.5179 42.4909C99.5613 42.3886 99.583 42.2352 99.583 42.0453V40.358C99.583 40.1023 99.5541 39.9124 99.4889 39.7955C99.4237 39.6786 99.3223 39.5983 99.1703 39.5618C99.0182 39.5252 98.7865 39.5033 98.4679 39.5033C98.1492 39.5033 97.9175 39.5252 97.7655 39.5618C97.6134 39.5983 97.5048 39.6786 97.4468 39.7955C97.3817 39.9124 97.3527 40.1023 97.3527 40.358V42.0453C97.3527 42.2352 97.3744 42.3813 97.4179 42.4909C97.4613 42.6005 97.5337 42.6735 97.6351 42.7173C97.7365 42.7685 97.8451 42.7977 97.9537 42.8123C98.0624 42.8269 98.2362 42.8269 98.4751 42.8269C98.7141 42.8269 98.8879 42.8269 98.9965 42.8123H98.982Z" fill="url(#paint11_linear_96_1440)"/>
<path d="M101.9 39.087H102.625V39.7663C102.625 39.6348 102.682 39.5106 102.798 39.3937C102.914 39.2769 103.059 39.1819 103.233 39.1089C103.407 39.0358 103.58 38.9993 103.754 38.9993H104.131V39.664H103.703C103.341 39.664 103.081 39.7078 102.914 39.8028C102.755 39.8978 102.668 40.0658 102.668 40.3141V43.2433H101.9V39.0796V39.087Z" fill="url(#paint12_linear_96_1440)"/>
<path d="M108.577 43.3163C108.446 43.3017 108.301 43.2798 108.135 43.2287C107.961 43.1848 107.824 43.1118 107.729 43.0241C107.635 42.9292 107.548 42.7977 107.483 42.6224C107.418 42.4471 107.382 42.2352 107.382 41.9796V40.4529C107.382 39.9854 107.469 39.6567 107.643 39.4522C107.737 39.3353 107.838 39.2476 107.939 39.1892C108.041 39.1308 108.171 39.0869 108.33 39.065C108.49 39.0431 108.635 39.0285 108.758 39.0212C108.881 39.0139 109.062 39.0066 109.286 39.0066C109.677 39.0066 110.068 39.0504 110.459 39.1381V39.7078C110.003 39.591 109.583 39.5325 109.192 39.5325C108.895 39.5325 108.678 39.5544 108.54 39.5983C108.403 39.6421 108.301 39.7224 108.251 39.832C108.2 39.9416 108.171 40.1169 108.171 40.3433V42.0453C108.171 42.2571 108.2 42.4178 108.258 42.5201C108.316 42.6224 108.425 42.6954 108.584 42.7392C108.743 42.7831 108.975 42.805 109.279 42.805C109.692 42.805 110.112 42.7539 110.525 42.6443V43.2287C110.141 43.309 109.699 43.3528 109.207 43.3528C108.924 43.3528 108.714 43.3528 108.591 43.3382L108.577 43.3163Z" fill="url(#paint13_linear_96_1440)"/>
<path d="M111.828 39.087H112.552V39.7663C112.552 39.6348 112.61 39.5106 112.726 39.3937C112.842 39.2769 112.987 39.1819 113.161 39.1089C113.334 39.0358 113.508 38.9993 113.682 38.9993H114.058V39.664H113.631C113.269 39.664 113.008 39.7078 112.842 39.8028C112.683 39.8978 112.596 40.0658 112.596 40.3141V43.2433H111.828V39.0796V39.087Z" fill="url(#paint14_linear_96_1440)"/>
<path d="M115.521 43.2287C115.311 43.1556 115.152 43.0241 115.058 42.8342C114.964 42.6443 114.92 42.374 114.92 42.0161C114.92 41.702 114.964 41.4536 115.051 41.2783C115.138 41.103 115.29 40.9788 115.5 40.9058C115.71 40.8328 116.014 40.7962 116.405 40.7962H117.643V40.1315C117.643 39.9781 117.614 39.8612 117.556 39.7736C117.498 39.6932 117.397 39.6348 117.259 39.5983C117.122 39.5618 116.919 39.5471 116.651 39.5471C116.224 39.5471 115.753 39.5837 115.239 39.6494V39.0796C115.804 39.0285 116.311 38.9993 116.767 38.9993C117.245 38.9993 117.6 39.0358 117.824 39.1089C118.049 39.1819 118.208 39.3061 118.295 39.4814C118.382 39.6567 118.425 39.9343 118.425 40.3068V43.2506H117.687V42.8561C117.621 43.1775 117.209 43.3382 116.441 43.3382C116.05 43.3382 115.746 43.3017 115.536 43.2287H115.521ZM116.557 42.8269C116.832 42.8269 117.071 42.805 117.267 42.7685C117.52 42.7173 117.65 42.5932 117.65 42.4105V41.2783H116.463C116.217 41.2783 116.043 41.3002 115.934 41.3368C115.826 41.3733 115.753 41.4463 115.724 41.5486C115.695 41.6509 115.674 41.8189 115.674 42.0453C115.674 42.2498 115.695 42.4105 115.731 42.5201C115.768 42.6297 115.84 42.71 115.941 42.7612C116.043 42.8123 116.195 42.8342 116.405 42.8342H116.557V42.8269Z" fill="url(#paint15_linear_96_1440)"/>
<path d="M120.453 39.5983H119.504V39.0943H120.453V38.4222C120.453 37.9693 120.576 37.6406 120.829 37.4434C121.083 37.2462 121.466 37.1439 121.98 37.1439C122.176 37.1439 122.4 37.1585 122.668 37.1877V37.6918C122.451 37.6625 122.234 37.6479 122.002 37.6479C121.72 37.6479 121.517 37.6991 121.394 37.8013C121.271 37.9036 121.213 38.0935 121.213 38.3638V39.0869H122.589V39.591H121.213V43.2433H120.445V39.591L120.453 39.5983Z" fill="url(#paint16_linear_96_1440)"/>
<path d="M124.573 43.2213C124.377 43.141 124.233 43.0095 124.146 42.8269C124.059 42.6443 124.015 42.3813 124.015 42.038V39.5983H123.096V39.0942H124.015V37.8013H124.79V39.0942H126.267V39.5983H124.79V42.0818C124.79 42.2864 124.812 42.4398 124.863 42.5493C124.913 42.6589 124.993 42.7246 125.116 42.7685C125.239 42.8123 125.413 42.8342 125.652 42.8342C125.724 42.8342 125.927 42.8123 126.267 42.7685V43.2725C125.978 43.3163 125.688 43.3382 125.406 43.3382C125.051 43.3382 124.776 43.3017 124.58 43.2213H124.573Z" fill="url(#paint17_linear_96_1440)"/>
<path d="M127.281 42.0672V40.4237C127.281 39.9197 127.426 39.5544 127.708 39.3353C127.998 39.1162 128.462 39.0066 129.099 39.0066C129.707 39.0066 130.149 39.1089 130.417 39.328C130.685 39.5471 130.822 39.9051 130.822 40.431V41.3514H128.049V41.9796C128.049 42.2644 128.15 42.469 128.346 42.6005C128.541 42.7246 128.853 42.7904 129.265 42.7904C129.656 42.7904 130.12 42.7246 130.656 42.5858V43.1775C130.134 43.2944 129.635 43.3528 129.164 43.3528C127.904 43.3528 127.274 42.9292 127.274 42.0818L127.281 42.0672ZM130.062 40.8327V40.1826C130.062 39.927 129.989 39.759 129.837 39.664C129.685 39.569 129.432 39.5252 129.063 39.5252C128.693 39.5252 128.454 39.569 128.295 39.664C128.136 39.759 128.056 39.9343 128.056 40.1826V40.8327H130.062Z" fill="url(#paint18_linear_96_1440)"/>
<path d="M132.85 43.214C132.618 43.1337 132.444 42.9949 132.343 42.805C132.234 42.6151 132.184 42.3521 132.184 42.0161V40.1826C132.184 39.7663 132.314 39.4595 132.575 39.2769C132.835 39.0943 133.263 38.9993 133.856 38.9993C134.211 38.9993 134.523 39.0431 134.783 39.1381C135.044 39.233 135.174 39.3645 135.182 39.5325H135.196L135.182 38.4734V37.2243H135.949V43.2433H135.196V42.7539C135.196 42.9073 135.073 43.0387 134.827 43.1483C134.58 43.2652 134.247 43.3309 133.813 43.3309C133.4 43.3309 133.082 43.2871 132.85 43.2067V43.214ZM134.892 42.6589C135.08 42.5639 135.174 42.3959 135.174 42.1622V40.1096C135.174 39.7371 134.798 39.5471 134.037 39.5471C133.581 39.5471 133.284 39.5837 133.154 39.6494C133.009 39.7151 132.944 39.8685 132.944 40.1023V42.1549C132.944 42.3886 133.024 42.5566 133.176 42.6516C133.335 42.7466 133.596 42.7977 133.972 42.7977C134.399 42.7977 134.704 42.7466 134.892 42.6516V42.6589Z" fill="url(#paint19_linear_96_1440)"/>
<path d="M139.983 45.0475V44.4996C140.663 44.58 141.163 44.6165 141.474 44.6165C141.865 44.6165 142.155 44.5508 142.329 44.4266C142.503 44.3024 142.597 44.0906 142.597 43.7984V42.7977C142.582 42.9803 142.459 43.1191 142.227 43.1994C141.988 43.2871 141.691 43.3309 141.337 43.3309C140.909 43.3309 140.576 43.2871 140.345 43.2067C140.106 43.1264 139.939 42.9949 139.845 42.8123C139.744 42.6297 139.693 42.3813 139.693 42.0672V40.3725C139.693 39.8831 139.823 39.5252 140.091 39.3134C140.359 39.1015 140.786 38.992 141.395 38.992C142.111 38.992 142.531 39.1527 142.655 39.4814V39.0796H143.371V43.6377C143.371 44.0248 143.299 44.3243 143.161 44.5435C143.017 44.7626 142.807 44.916 142.524 45.0037C142.242 45.0913 141.873 45.1351 141.416 45.1351C140.851 45.1351 140.381 45.1059 139.99 45.0402L139.983 45.0475ZM142.35 42.6735C142.517 42.5785 142.597 42.3959 142.597 42.1256V40.2411C142.597 40.0511 142.568 39.905 142.51 39.8101C142.452 39.7151 142.343 39.6421 142.184 39.5983C142.025 39.5544 141.793 39.5325 141.481 39.5325C141.192 39.5325 140.975 39.5544 140.83 39.591C140.685 39.6348 140.584 39.7005 140.533 39.8028C140.482 39.905 140.453 40.0511 140.453 40.2338V42.1183C140.453 42.3156 140.482 42.4617 140.54 42.5566C140.598 42.6516 140.699 42.7246 140.844 42.7611C140.989 42.7977 141.214 42.8196 141.503 42.8196C141.909 42.8196 142.191 42.7685 142.358 42.6735H142.35Z" fill="url(#paint20_linear_96_1440)"/>
<path d="M145.037 37.5822H145.805V38.393H145.037V37.5822ZM145.037 39.0869H145.805V43.2506H145.037V39.0869Z" fill="url(#paint21_linear_96_1440)"/>
<path d="M147.84 39.5983H146.891V39.0943H147.84V38.4222C147.84 37.9693 147.963 37.6406 148.216 37.4434C148.47 37.2462 148.854 37.1439 149.368 37.1439C149.563 37.1439 149.788 37.1585 150.056 37.1877V37.6918C149.838 37.6625 149.621 37.6479 149.389 37.6479C149.107 37.6479 148.904 37.6991 148.781 37.8013C148.658 37.9036 148.6 38.0935 148.6 38.3638V39.0869H149.976V39.591H148.6V43.2433H147.832V39.591L147.84 39.5983Z" fill="url(#paint22_linear_96_1440)"/>
<path d="M151.96 43.2213C151.764 43.141 151.619 43.0095 151.532 42.8269C151.446 42.6443 151.402 42.3813 151.402 42.038V39.5983H150.482V39.0942H151.402V37.8013H152.177V39.0942H153.654V39.5983H152.177V42.0818C152.177 42.2864 152.199 42.4398 152.249 42.5493C152.3 42.6589 152.38 42.7246 152.503 42.7685C152.626 42.8123 152.8 42.8342 153.039 42.8342C153.111 42.8342 153.314 42.8123 153.654 42.7685V43.2725C153.364 43.3163 153.075 43.3382 152.792 43.3382C152.438 43.3382 152.162 43.3017 151.967 43.2213H151.96Z" fill="url(#paint23_linear_96_1440)"/>
<path d="M154.668 43.236V42.6443C155.334 42.7539 155.812 42.805 156.102 42.805C156.464 42.805 156.724 42.7685 156.884 42.6954C157.043 42.6224 157.123 42.4909 157.123 42.2937V41.87C157.123 41.6947 157.065 41.5632 156.942 41.4902C156.826 41.4171 156.63 41.3806 156.362 41.3806H155.892C155.464 41.3806 155.139 41.2929 154.914 41.1176C154.69 40.9423 154.581 40.694 154.581 40.3726V39.9854C154.581 39.3353 155.197 39.0066 156.42 39.0066C156.514 39.0066 156.927 39.0285 157.673 39.0723V39.6348C157.166 39.5544 156.739 39.5179 156.384 39.5179C155.979 39.5179 155.703 39.5544 155.559 39.6348C155.414 39.7151 155.334 39.8466 155.334 40.0365V40.3872C155.334 40.6647 155.588 40.8108 156.094 40.8108H156.572C157.441 40.8108 157.876 41.1395 157.876 41.7896V42.1476C157.876 42.5785 157.731 42.8853 157.434 43.0606C157.137 43.2433 156.688 43.3309 156.08 43.3309C155.646 43.3309 155.168 43.2944 154.668 43.2287V43.236Z" fill="url(#paint24_linear_96_1440)"/>
<path d="M87.3742 40.8693H63.4922V41.4171H87.3742V40.8693Z" fill="url(#paint25_linear_96_1440)"/>
<path d="M188 40.8693H163.712V41.4171H188V40.8693Z" fill="url(#paint26_linear_96_1440)"/>
<path d="M50.2043 12.9145L29.3347 0.759679C28.4802 0.262966 27.5027 0 26.5106 0C25.5185 0 24.5409 0.262966 23.6865 0.759679L2.82413 12.9145C1.0862 13.9299 0 15.8145 0 17.8451V42.1549C0 44.1855 1.07896 46.0701 2.82413 47.0855L23.6937 59.2403C24.5482 59.737 25.5258 60 26.5178 60C27.5099 60 28.4875 59.737 29.342 59.2403L50.2115 47.0855C51.9495 46.0701 53.0357 44.1855 53.0357 42.1549V17.8451C53.0357 15.8218 51.9567 13.9299 50.2115 12.9145H50.2043ZM24.9537 57.0416L4.07688 44.8868C3.11378 44.3243 2.51275 43.2798 2.51275 42.1549V17.8451C2.51275 16.7202 3.11378 15.6757 4.07688 15.1132L24.9537 2.95836C25.4244 2.68079 25.9675 2.5347 26.5178 2.5347C27.0682 2.5347 27.6113 2.68079 28.082 2.95836L48.9515 15.1132C49.9146 15.6757 50.5157 16.7202 50.5157 17.8451V42.1549C50.5157 43.2798 49.9146 44.3243 48.9515 44.8868L28.082 57.0416C27.6113 57.3192 27.0682 57.4653 26.5178 57.4653C25.9675 57.4653 25.4244 57.3192 24.9537 57.0416Z" fill="url(#paint27_linear_96_1440)"/>
<path d="M44.1504 16.4427L29.3346 7.81592C28.4801 7.31921 27.5025 7.05624 26.5105 7.05624C25.5184 7.05624 24.5408 7.31921 23.6863 7.81592L8.87051 16.4427C7.13259 17.458 6.04639 19.3426 6.04639 21.3733V38.634C6.04639 40.6647 7.12535 42.5493 8.87051 43.5646L23.6863 52.1914C24.5408 52.6881 25.5184 52.9511 26.5105 52.9511C27.5025 52.9511 28.4801 52.6881 29.3346 52.1914L44.1504 43.5646C45.8883 42.5493 46.9745 40.6647 46.9745 38.634V21.3733C46.9745 19.3499 45.8956 17.458 44.1504 16.4427ZM24.9536 49.9927L10.1378 41.366C9.17465 40.8035 8.57362 39.7589 8.57362 38.634V21.3733C8.57362 20.2484 9.17465 19.2038 10.1378 18.6413L24.9536 10.0146C25.4242 9.73703 25.9673 9.59094 26.5177 9.59094C27.068 9.59094 27.6111 9.73703 28.0818 10.0146L42.8976 18.6413C43.8607 19.2038 44.4618 20.2484 44.4618 21.3733V38.634C44.4618 39.7589 43.8607 40.8035 42.8976 41.366L28.0818 49.9927C27.6111 50.2703 27.068 50.4164 26.5177 50.4164C25.9673 50.4164 25.4242 50.2703 24.9536 49.9927Z" fill="url(#paint28_linear_96_1440)"/>
<path d="M37.3434 25.2447C37.3362 24.317 36.8945 23.8788 35.9821 23.8715C34.5193 23.8715 33.0493 23.8715 31.5866 23.8715C31.5069 23.8715 31.3911 23.9445 31.3548 23.7911C32.3469 22.9145 32.709 21.8992 32.4193 20.7816C31.9486 18.9847 29.6459 18.2907 28.1686 19.496C27.3938 20.1315 26.9883 20.9934 26.7059 21.9284C26.6552 22.1037 26.6624 22.3083 26.4959 22.4617C26.2497 21.4317 25.9021 20.4821 25.1635 19.7297C23.7007 18.2469 21.159 18.8094 20.6594 20.7451C20.3407 21.9723 20.7318 22.9949 21.7238 23.8057C21.6152 23.9153 21.5138 23.8715 21.4269 23.8715C19.9787 23.8715 18.5232 23.8715 17.0749 23.8715C16.1842 23.8715 15.7352 24.3243 15.7208 25.2155C15.7135 26.0044 15.7135 26.7933 15.7208 27.5749C15.728 28.225 16.1046 28.7363 16.6694 28.7948C17.0025 28.8313 17.017 28.9701 17.017 29.2403C17.017 32.5712 17.017 35.8948 17.017 39.2257C17.017 40.4164 17.7194 41.1249 18.9142 41.1249C24.0049 41.1249 29.1028 41.1249 34.1935 41.1249C35.3666 41.1249 36.0762 40.4018 36.0762 39.2111C36.0762 36.4208 36.0762 33.6304 36.0762 30.84C36.0762 30.263 36.0762 29.6786 36.0762 29.1015C36.0762 28.9628 36.0617 28.8532 36.2645 28.8094C37.0683 28.6487 37.3507 28.2907 37.3579 27.4726C37.3579 26.7276 37.3579 25.9825 37.3579 25.2374L37.3434 25.2447ZM27.5314 22.4836C27.7124 21.7239 27.9804 21.0007 28.538 20.431C29.0449 19.9124 29.6676 19.7224 30.3773 19.927C30.9566 20.095 31.3621 20.4456 31.5069 21.0519C31.7097 21.8846 31.3114 22.7465 30.5148 23.1629C29.8559 23.5062 29.139 23.5866 28.4076 23.5793C27.2852 23.5793 27.2707 23.5793 27.5387 22.4763L27.5314 22.4836ZM26.2425 24.8284H26.8073V27.9036H26.2425V24.8284ZM21.5283 21.1541C21.7021 20.0292 23.1359 19.4668 24.1497 20.1315C24.7362 20.5186 25.0621 21.103 25.3011 21.7458C25.4821 22.2352 25.5835 22.7465 25.6849 23.2579C25.7356 23.4843 25.6414 23.5135 25.4676 23.5281C25.1707 23.55 24.8666 23.572 24.5697 23.5939C23.8818 23.5793 23.2083 23.4989 22.5783 23.1848C21.7673 22.7831 21.3907 22.038 21.5283 21.1468V21.1541ZM16.959 27.9182C16.807 27.9182 16.6839 27.794 16.6766 27.6406C16.6621 27.5749 16.6549 27.5018 16.6621 27.4215C16.6766 27.0636 16.6766 26.6983 16.6766 26.3404V26.3039C16.6766 25.946 16.6766 25.588 16.6621 25.2301C16.6621 24.9525 16.749 24.8357 17.0387 24.8357C19.8049 24.8357 22.5711 24.843 25.3373 24.8357V27.9109L16.9518 27.9255L16.959 27.9182ZM35.1203 39.4083C35.1203 39.832 34.78 40.1753 34.36 40.1753H18.7042C18.2842 40.1753 17.9439 39.832 17.9439 39.4083V29.5983C17.9439 29.1746 18.2842 28.8313 18.7042 28.8313H34.36C34.78 28.8313 35.1203 29.1746 35.1203 29.5983V39.4083ZM36.3876 26.3842C36.3876 26.7422 36.3876 27.0928 36.4021 27.4507C36.4093 27.7648 36.3224 27.8963 35.9893 27.8963C33.2304 27.889 30.4714 27.889 27.7124 27.8963V24.821L36.1052 24.8064C36.2428 24.8064 36.3586 24.9087 36.3731 25.0475C36.3948 25.1132 36.4021 25.1936 36.4021 25.2959C36.3876 25.6538 36.3876 26.0044 36.3876 26.3623V26.3842Z" fill="url(#paint29_linear_96_1440)"/>
<path d="M34.02 29.4302H19.0521C18.7842 29.4302 18.5742 29.6494 18.5742 29.9123V39.0723C18.5742 39.3426 18.7915 39.5544 19.0521 39.5544H34.02C34.288 39.5544 34.498 39.3353 34.498 39.0723V29.9123C34.498 29.6421 34.2807 29.4302 34.02 29.4302ZM25.2145 33.7253C25.3883 33.9226 25.5838 34.054 25.6852 34.1125C25.8083 34.1855 25.9242 34.2294 26.0111 34.2586C26.1704 34.2951 26.3587 34.3316 26.5687 34.3462C26.7642 34.3608 26.9307 34.3535 27.0828 34.3462C27.2711 34.3243 27.4376 34.2805 27.5969 34.2074C27.6694 34.1782 27.7345 34.1417 27.7997 34.0979C28.2342 33.8057 28.2849 33.1483 27.8504 32.8561C27.7056 32.7611 27.5318 32.7027 27.358 32.7027C27.2783 32.7027 27.2059 32.71 27.1263 32.7319C26.9669 32.7757 26.8294 32.8853 26.7425 33.0387C26.6556 33.1994 26.6338 33.382 26.6845 33.5573C26.728 33.7107 26.8076 33.8568 26.8873 34.0102C26.9163 34.076 26.9525 34.1344 26.9814 34.2001C26.9814 34.2148 26.9959 34.2294 27.0104 34.244C26.9887 34.244 26.9742 34.244 26.9525 34.244C26.8873 34.244 26.8221 34.244 26.7642 34.244C26.6701 34.244 26.5832 34.244 26.489 34.2367C26.4021 34.2367 26.3152 34.2367 26.2283 34.2148C26.1849 34.2074 26.1342 34.2001 26.0907 34.1782C26.0256 34.149 25.9821 34.0906 25.9604 34.0248C25.9532 33.9956 25.9387 33.9737 25.9314 33.9445C25.8807 33.7984 25.8518 33.6523 25.8373 33.4989C25.8228 33.3601 25.8373 33.2213 25.859 33.0825C25.888 32.9438 25.9314 32.8123 25.9966 32.6954C26.0618 32.5639 26.1487 32.447 26.2428 32.3375C26.518 32.0307 26.8945 31.87 27.3218 31.87C27.3797 31.87 27.4304 31.87 27.4883 31.8773C27.72 31.8992 27.9445 31.9722 28.1473 32.0891C29.2335 32.6954 29.2842 33.9007 28.4949 34.6019C28.3066 34.7699 28.0894 34.9014 27.8214 35.011C27.778 35.0256 27.7635 35.084 27.7997 35.1132C28.1038 35.4492 28.3356 35.756 28.5094 36.1286C28.9438 37.0562 28.6325 37.962 27.7128 38.4441C27.4159 38.5975 27.0828 38.6779 26.7425 38.6779C25.9459 38.6779 25.2218 38.2542 24.8525 37.5749C24.6497 37.2023 24.6207 36.7568 24.7801 36.355C24.9176 35.9971 25.1928 35.7195 25.5332 35.5953C25.6563 35.5515 25.7866 35.5296 25.917 35.5296C26.1776 35.5296 26.4383 35.6245 26.6845 35.8145C26.8438 35.9386 26.88 36.1651 26.7642 36.3477C26.6918 36.4719 26.5542 36.5449 26.4094 36.5449C26.3587 36.5449 26.308 36.5376 26.2573 36.5157C26.2066 36.4938 26.1632 36.4646 26.1197 36.4427C26.0401 36.3915 25.9676 36.3696 25.8952 36.3696C25.6852 36.3696 25.5404 36.5741 25.5187 36.7714C25.4897 36.9905 25.5621 37.195 25.7432 37.4142C25.9749 37.6917 26.3514 37.8524 26.7352 37.8524C26.88 37.8524 27.0249 37.8305 27.1625 37.7867C27.7563 37.5895 27.9952 36.8444 27.6621 36.3039C27.539 36.0993 27.3797 35.9167 27.2204 35.7268C27.1697 35.6684 27.119 35.6026 27.0683 35.5369C26.8728 35.3031 26.6701 35.1936 26.3225 35.157C25.2942 35.0475 24.5483 34.485 24.1573 33.5354C23.8097 32.7027 24.0487 31.7385 24.7656 31.0811C25.3449 30.5551 26.0038 30.2849 26.7425 30.2849C26.8221 30.2849 26.8945 30.2849 26.9742 30.2922C27.7563 30.3506 28.4152 30.6866 28.9294 31.2856C29.0235 31.3952 29.0669 31.5194 29.0597 31.6435C29.0525 31.7458 29.0018 31.8408 28.9149 31.9138C28.8352 31.9795 28.7411 32.0161 28.6542 32.0161C28.5383 32.0161 28.4369 31.9649 28.3356 31.8627C27.9735 31.4901 27.5318 31.1979 27.0176 31.1322C26.2645 31.0372 25.5404 31.3367 25.0914 31.9357C24.6932 32.4616 24.7366 33.1775 25.2073 33.7107L25.2145 33.7253Z" fill="url(#paint30_linear_96_1440)"/>
</g>
<defs>
<linearGradient id="paint0_linear_96_1440" x1="63.4922" y1="24.5581" x2="76.0994" y2="24.5581" gradientUnits="userSpaceOnUse">
<stop stop-color="#E7AE22"/>
<stop offset="0.19" stop-color="#FFDF78"/>
<stop offset="0.48" stop-color="#DE9B26"/>
<stop offset="0.78" stop-color="#FEF48C"/>
<stop offset="1" stop-color="#7B5B24"/>
</linearGradient>
<linearGradient id="paint1_linear_96_1440" x1="77.2218" y1="-1.72063e-06" x2="90.43" y2="-1.72063e-06" gradientUnits="userSpaceOnUse">
<stop stop-color="#E7AE22"/>
<stop offset="0.19" stop-color="#FFDF78"/>
<stop offset="0.48" stop-color="#DE9B26"/>
<stop offset="0.78" stop-color="#FEF48C"/>
<stop offset="1" stop-color="#7B5B24"/>
</linearGradient>
<linearGradient id="paint2_linear_96_1440" x1="91.6104" y1="-2.42429e-06" x2="104.811" y2="-2.42429e-06" gradientUnits="userSpaceOnUse">
<stop stop-color="#E7AE22"/>
<stop offset="0.19" stop-color="#FFDF78"/>
<stop offset="0.48" stop-color="#DE9B26"/>
<stop offset="0.78" stop-color="#FEF48C"/>
<stop offset="1" stop-color="#7B5B24"/>
</linearGradient>
<linearGradient id="paint3_linear_96_1440" x1="105.956" y1="1.76372e-05" x2="118.584" y2="1.76372e-05" gradientUnits="userSpaceOnUse">
<stop stop-color="#E7AE22"/>
<stop offset="0.19" stop-color="#FFDF78"/>
<stop offset="0.48" stop-color="#DE9B26"/>
<stop offset="0.78" stop-color="#FEF48C"/>
<stop offset="1" stop-color="#7B5B24"/>
</linearGradient>
<linearGradient id="paint4_linear_96_1440" x1="119.787" y1="1.72961e-05" x2="124.993" y2="1.72961e-05" gradientUnits="userSpaceOnUse">
<stop stop-color="#E7AE22"/>
<stop offset="0.19" stop-color="#FFDF78"/>
<stop offset="0.48" stop-color="#DE9B26"/>
<stop offset="0.78" stop-color="#FEF48C"/>
<stop offset="1" stop-color="#7B5B24"/>
</linearGradient>
<linearGradient id="paint5_linear_96_1440" x1="126.615" y1="1.81741e-05" x2="136.941" y2="1.81741e-05" gradientUnits="userSpaceOnUse">
<stop stop-color="#E7AE22"/>
<stop offset="0.19" stop-color="#FFDF78"/>
<stop offset="0.48" stop-color="#DE9B26"/>
<stop offset="0.78" stop-color="#FEF48C"/>
<stop offset="1" stop-color="#7B5B24"/>
</linearGradient>
<linearGradient id="paint6_linear_96_1440" x1="138.484" y1="1.40421e-05" x2="147.919" y2="1.40421e-05" gradientUnits="userSpaceOnUse">
<stop stop-color="#E7AE22"/>
<stop offset="0.19" stop-color="#FFDF78"/>
<stop offset="0.48" stop-color="#DE9B26"/>
<stop offset="0.78" stop-color="#FEF48C"/>
<stop offset="1" stop-color="#7B5B24"/>
</linearGradient>
<linearGradient id="paint7_linear_96_1440" x1="149.063" y1="1.85945e-05" x2="161.026" y2="1.85945e-05" gradientUnits="userSpaceOnUse">
<stop stop-color="#E7AE22"/>
<stop offset="0.19" stop-color="#FFDF78"/>
<stop offset="0.48" stop-color="#DE9B26"/>
<stop offset="0.78" stop-color="#FEF48C"/>
<stop offset="1" stop-color="#7B5B24"/>
</linearGradient>
<linearGradient id="paint8_linear_96_1440" x1="162.047" y1="-1.72063e-06" x2="175.255" y2="-1.72063e-06" gradientUnits="userSpaceOnUse">
<stop stop-color="#E7AE22"/>
<stop offset="0.19" stop-color="#FFDF78"/>
<stop offset="0.48" stop-color="#DE9B26"/>
<stop offset="0.78" stop-color="#FEF48C"/>
<stop offset="1" stop-color="#7B5B24"/>
</linearGradient>
<linearGradient id="paint9_linear_96_1440" x1="176.399" y1="1.89146e-05" x2="188" y2="1.89146e-05" gradientUnits="userSpaceOnUse">
<stop stop-color="#E7AE22"/>
<stop offset="0.19" stop-color="#FFDF78"/>
<stop offset="0.48" stop-color="#DE9B26"/>
<stop offset="0.78" stop-color="#FEF48C"/>
<stop offset="1" stop-color="#7B5B24"/>
</linearGradient>
<linearGradient id="paint10_linear_96_1440" x1="92.559" y1="40.1972" x2="95.7307" y2="40.1972" gradientUnits="userSpaceOnUse">
<stop stop-color="#E7AE22"/>
<stop offset="0.19" stop-color="#FFDF78"/>
<stop offset="0.48" stop-color="#DE9B26"/>
<stop offset="0.78" stop-color="#FEF48C"/>
<stop offset="1" stop-color="#7B5B24"/>
</linearGradient>
<linearGradient id="paint11_linear_96_1440" x1="96.5634" y1="41.1688" x2="100.365" y2="41.1688" gradientUnits="userSpaceOnUse">
<stop stop-color="#E7AE22"/>
<stop offset="0.19" stop-color="#FFDF78"/>
<stop offset="0.48" stop-color="#DE9B26"/>
<stop offset="0.78" stop-color="#FEF48C"/>
<stop offset="1" stop-color="#7B5B24"/>
</linearGradient>
<linearGradient id="paint12_linear_96_1440" x1="101.9" y1="41.1249" x2="104.123" y2="41.1249" gradientUnits="userSpaceOnUse">
<stop stop-color="#E7AE22"/>
<stop offset="0.19" stop-color="#FFDF78"/>
<stop offset="0.48" stop-color="#DE9B26"/>
<stop offset="0.78" stop-color="#FEF48C"/>
<stop offset="1" stop-color="#7B5B24"/>
</linearGradient>
<linearGradient id="paint13_linear_96_1440" x1="107.382" y1="41.1688" x2="110.517" y2="41.1688" gradientUnits="userSpaceOnUse">
<stop stop-color="#E7AE22"/>
<stop offset="0.19" stop-color="#FFDF78"/>
<stop offset="0.48" stop-color="#DE9B26"/>
<stop offset="0.78" stop-color="#FEF48C"/>
<stop offset="1" stop-color="#7B5B24"/>
</linearGradient>
<linearGradient id="paint14_linear_96_1440" x1="111.828" y1="41.1249" x2="114.051" y2="41.1249" gradientUnits="userSpaceOnUse">
<stop stop-color="#E7AE22"/>
<stop offset="0.19" stop-color="#FFDF78"/>
<stop offset="0.48" stop-color="#DE9B26"/>
<stop offset="0.78" stop-color="#FEF48C"/>
<stop offset="1" stop-color="#7B5B24"/>
</linearGradient>
<linearGradient id="paint15_linear_96_1440" x1="114.92" y1="41.1688" x2="118.418" y2="41.1688" gradientUnits="userSpaceOnUse">
<stop stop-color="#E7AE22"/>
<stop offset="0.19" stop-color="#FFDF78"/>
<stop offset="0.48" stop-color="#DE9B26"/>
<stop offset="0.78" stop-color="#FEF48C"/>
<stop offset="1" stop-color="#7B5B24"/>
</linearGradient>
<linearGradient id="paint16_linear_96_1440" x1="119.511" y1="40.1972" x2="122.676" y2="40.1972" gradientUnits="userSpaceOnUse">
<stop stop-color="#E7AE22"/>
<stop offset="0.19" stop-color="#FFDF78"/>
<stop offset="0.48" stop-color="#DE9B26"/>
<stop offset="0.78" stop-color="#FEF48C"/>
<stop offset="1" stop-color="#7B5B24"/>
</linearGradient>
<linearGradient id="paint17_linear_96_1440" x1="123.088" y1="40.5698" x2="126.26" y2="40.5698" gradientUnits="userSpaceOnUse">
<stop stop-color="#E7AE22"/>
<stop offset="0.19" stop-color="#FFDF78"/>
<stop offset="0.48" stop-color="#DE9B26"/>
<stop offset="0.78" stop-color="#FEF48C"/>
<stop offset="1" stop-color="#7B5B24"/>
</linearGradient>
<linearGradient id="paint18_linear_96_1440" x1="127.281" y1="41.1688" x2="130.829" y2="41.1688" gradientUnits="userSpaceOnUse">
<stop stop-color="#E7AE22"/>
<stop offset="0.19" stop-color="#FFDF78"/>
<stop offset="0.48" stop-color="#DE9B26"/>
<stop offset="0.78" stop-color="#FEF48C"/>
<stop offset="1" stop-color="#7B5B24"/>
</linearGradient>
<linearGradient id="paint19_linear_96_1440" x1="132.184" y1="40.2849" x2="135.942" y2="40.2849" gradientUnits="userSpaceOnUse">
<stop stop-color="#E7AE22"/>
<stop offset="0.19" stop-color="#FFDF78"/>
<stop offset="0.48" stop-color="#DE9B26"/>
<stop offset="0.78" stop-color="#FEF48C"/>
<stop offset="1" stop-color="#7B5B24"/>
</linearGradient>
<linearGradient id="paint20_linear_96_1440" x1="139.693" y1="42.0745" x2="143.364" y2="42.0745" gradientUnits="userSpaceOnUse">
<stop stop-color="#E7AE22"/>
<stop offset="0.19" stop-color="#FFDF78"/>
<stop offset="0.48" stop-color="#DE9B26"/>
<stop offset="0.78" stop-color="#FEF48C"/>
<stop offset="1" stop-color="#7B5B24"/>
</linearGradient>
<linearGradient id="paint21_linear_96_1440" x1="145.037" y1="40.4164" x2="145.805" y2="40.4164" gradientUnits="userSpaceOnUse">
<stop stop-color="#E7AE22"/>
<stop offset="0.19" stop-color="#FFDF78"/>
<stop offset="0.48" stop-color="#DE9B26"/>
<stop offset="0.78" stop-color="#FEF48C"/>
<stop offset="1" stop-color="#7B5B24"/>
</linearGradient>
<linearGradient id="paint22_linear_96_1440" x1="146.891" y1="40.1972" x2="150.063" y2="40.1972" gradientUnits="userSpaceOnUse">
<stop stop-color="#E7AE22"/>
<stop offset="0.19" stop-color="#FFDF78"/>
<stop offset="0.48" stop-color="#DE9B26"/>
<stop offset="0.78" stop-color="#FEF48C"/>
<stop offset="1" stop-color="#7B5B24"/>
</linearGradient>
<linearGradient id="paint23_linear_96_1440" x1="150.475" y1="40.5698" x2="153.647" y2="40.5698" gradientUnits="userSpaceOnUse">
<stop stop-color="#E7AE22"/>
<stop offset="0.19" stop-color="#FFDF78"/>
<stop offset="0.48" stop-color="#DE9B26"/>
<stop offset="0.78" stop-color="#FEF48C"/>
<stop offset="1" stop-color="#7B5B24"/>
</linearGradient>
<linearGradient id="paint24_linear_96_1440" x1="154.581" y1="41.1688" x2="157.883" y2="41.1688" gradientUnits="userSpaceOnUse">
<stop stop-color="#E7AE22"/>
<stop offset="0.19" stop-color="#FFDF78"/>
<stop offset="0.48" stop-color="#DE9B26"/>
<stop offset="0.78" stop-color="#FEF48C"/>
<stop offset="1" stop-color="#7B5B24"/>
</linearGradient>
<linearGradient id="paint25_linear_96_1440" x1="63.4922" y1="41.1468" x2="87.3742" y2="41.1468" gradientUnits="userSpaceOnUse">
<stop stop-color="#E7AE22"/>
<stop offset="0.19" stop-color="#FFDF78"/>
<stop offset="0.48" stop-color="#DE9B26"/>
<stop offset="0.78" stop-color="#FEF48C"/>
<stop offset="1" stop-color="#7B5B24"/>
</linearGradient>
<linearGradient id="paint26_linear_96_1440" x1="163.712" y1="41.1468" x2="187.993" y2="41.1468" gradientUnits="userSpaceOnUse">
<stop stop-color="#E7AE22"/>
<stop offset="0.19" stop-color="#FFDF78"/>
<stop offset="0.48" stop-color="#DE9B26"/>
<stop offset="0.78" stop-color="#FEF48C"/>
<stop offset="1" stop-color="#7B5B24"/>
</linearGradient>
<linearGradient id="paint27_linear_96_1440" x1="0" y1="30" x2="53.0284" y2="30" gradientUnits="userSpaceOnUse">
<stop stop-color="#E7AE22"/>
<stop offset="0.19" stop-color="#FFDF78"/>
<stop offset="0.48" stop-color="#DE9B26"/>
<stop offset="0.78" stop-color="#FEF48C"/>
<stop offset="1" stop-color="#7B5B24"/>
</linearGradient>
<linearGradient id="paint28_linear_96_1440" x1="6.05363" y1="30" x2="46.9745" y2="30" gradientUnits="userSpaceOnUse">
<stop stop-color="#E7AE22"/>
<stop offset="0.19" stop-color="#FFDF78"/>
<stop offset="0.48" stop-color="#DE9B26"/>
<stop offset="0.78" stop-color="#FEF48C"/>
<stop offset="1" stop-color="#7B5B24"/>
</linearGradient>
<linearGradient id="paint29_linear_96_1440" x1="15.699" y1="30.0146" x2="37.3507" y2="30.0146" gradientUnits="userSpaceOnUse">
<stop stop-color="#E7AE22"/>
<stop offset="0.19" stop-color="#FFDF78"/>
<stop offset="0.48" stop-color="#DE9B26"/>
<stop offset="0.78" stop-color="#FEF48C"/>
<stop offset="1" stop-color="#7B5B24"/>
</linearGradient>
<linearGradient id="paint30_linear_96_1440" x1="18.5742" y1="34.4923" x2="34.498" y2="34.4923" gradientUnits="userSpaceOnUse">
<stop stop-color="#E7AE22"/>
<stop offset="0.19" stop-color="#FFDF78"/>
<stop offset="0.48" stop-color="#DE9B26"/>
<stop offset="0.78" stop-color="#FEF48C"/>
<stop offset="1" stop-color="#7B5B24"/>
</linearGradient>
<clipPath id="clip0_96_1440">
<rect width="188" height="60" fill="white"/>
</clipPath>
</defs>
</svg>
