<svg width="25" height="26" viewBox="0 0 25 26" fill="none" xmlns="http://www.w3.org/2000/svg">
<path d="M12.455 0.457138C9.10547 0.457138 8.68427 0.472566 7.36824 0.531194C6.05221 0.592907 5.15582 0.799647 4.37052 1.10513C3.54679 1.41496 2.80067 1.90096 2.18433 2.52916C1.55651 3.14582 1.07057 3.89185 0.760294 4.71535C0.454813 5.49911 0.246531 6.39704 0.186361 7.70844C0.127733 9.02757 0.112305 9.44722 0.112305 12.8013C0.112305 16.1524 0.127733 16.572 0.186361 17.888C0.248074 19.2025 0.454813 20.0989 0.760294 20.8842C1.07657 21.6958 1.49777 22.3839 2.18433 23.0704C2.86934 23.757 3.55745 24.1797 4.36898 24.4944C5.15582 24.7999 6.05066 25.0082 7.36515 25.0684C8.68273 25.127 9.10238 25.1424 12.455 25.1424C15.8075 25.1424 16.2256 25.127 17.5432 25.0684C18.8562 25.0067 19.7556 24.7999 20.5409 24.4944C21.3641 24.1845 22.1097 23.6985 22.7256 23.0704C23.4121 22.3839 23.8333 21.6958 24.1496 20.8842C24.4536 20.0989 24.6618 19.2025 24.7235 17.888C24.7822 16.572 24.7976 16.1524 24.7976 12.7998C24.7976 9.44722 24.7822 9.02757 24.7235 7.70999C24.6618 6.39704 24.4536 5.49911 24.1496 4.71535C23.8394 3.89183 23.3534 3.14579 22.7256 2.52916C22.1094 1.90073 21.3633 1.41469 20.5394 1.10513C19.7525 0.799647 18.8546 0.591364 17.5417 0.531194C16.2241 0.472566 15.806 0.457138 12.4519 0.457138H12.4565H12.455ZM11.3487 2.6819H12.4565C15.752 2.6819 16.1423 2.6927 17.4429 2.75287C18.6463 2.80687 19.3005 3.00898 19.7356 3.17715C20.3111 3.40086 20.723 3.66931 21.155 4.10131C21.587 4.5333 21.8539 4.94369 22.0776 5.52071C22.2473 5.95425 22.4479 6.60841 22.5019 7.81181C22.562 9.11242 22.5744 9.50276 22.5744 12.7967C22.5744 16.0906 22.562 16.4825 22.5019 17.7831C22.4479 18.9865 22.2458 19.6392 22.0776 20.0742C21.8797 20.6102 21.5639 21.0947 21.1534 21.4921C20.7214 21.9241 20.3111 22.191 19.734 22.4147C19.302 22.5844 18.6479 22.785 17.4429 22.8405C16.1423 22.8992 15.752 22.913 12.4565 22.913C9.16101 22.913 8.76913 22.8992 7.46852 22.8405C6.26512 22.785 5.6125 22.5844 5.17742 22.4147C4.64128 22.2171 4.15626 21.9018 3.75801 21.4921C3.34724 21.0941 3.03091 20.6091 2.83232 20.0727C2.66415 19.6392 2.46204 18.985 2.40804 17.7816C2.34941 16.481 2.33707 16.0906 2.33707 12.7936C2.33707 9.49813 2.34941 9.10933 2.40804 7.80873C2.46358 6.60532 2.66415 5.95116 2.83386 5.51608C3.05757 4.94061 3.32602 4.52867 3.75801 4.09668C4.19001 3.66468 4.6004 3.39777 5.17742 3.17406C5.6125 3.00435 6.26512 2.80378 7.46852 2.74824C8.60713 2.69579 9.04838 2.68036 11.3487 2.67882V2.6819ZM19.0444 4.73078C18.8499 4.73078 18.6573 4.76909 18.4776 4.84352C18.2979 4.91796 18.1346 5.02706 17.9971 5.16459C17.8595 5.30212 17.7504 5.4654 17.676 5.6451C17.6016 5.8248 17.5633 6.0174 17.5633 6.2119C17.5633 6.4064 17.6016 6.599 17.676 6.7787C17.7504 6.9584 17.8595 7.12167 17.9971 7.25921C18.1346 7.39674 18.2979 7.50584 18.4776 7.58027C18.6573 7.65471 18.8499 7.69302 19.0444 7.69302C19.4372 7.69302 19.8139 7.53697 20.0917 7.25921C20.3695 6.98144 20.5255 6.60472 20.5255 6.2119C20.5255 5.81908 20.3695 5.44235 20.0917 5.16459C19.8139 4.88683 19.4372 4.73078 19.0444 4.73078ZM12.4565 6.46184C11.6158 6.44872 10.7808 6.60298 10.0003 6.91565C9.21973 7.22831 8.50919 7.69313 7.91001 8.28303C7.31082 8.87294 6.83498 9.57615 6.51018 10.3517C6.18538 11.1273 6.01811 11.9597 6.01811 12.8006C6.01811 13.6414 6.18538 14.4738 6.51018 15.2494C6.83498 16.025 7.31082 16.7282 7.91001 17.3181C8.50919 17.908 9.21973 18.3728 10.0003 18.6855C10.7808 18.9981 11.6158 19.1524 12.4565 19.1393C14.1205 19.1133 15.7076 18.4341 16.8751 17.2482C18.0427 16.0622 18.6971 14.4648 18.6971 12.8006C18.6971 11.1363 18.0427 9.53888 16.8751 8.35296C15.7076 7.16704 14.1205 6.4878 12.4565 6.46184ZM12.4565 8.68506C13.5478 8.68506 14.5944 9.11857 15.3661 9.89023C16.1377 10.6619 16.5712 11.7085 16.5712 12.7998C16.5712 13.8911 16.1377 14.9377 15.3661 15.7093C14.5944 16.481 13.5478 16.9145 12.4565 16.9145C11.3652 16.9145 10.3186 16.481 9.54694 15.7093C8.77528 14.9377 8.34177 13.8911 8.34177 12.7998C8.34177 11.7085 8.77528 10.6619 9.54694 9.89023C10.3186 9.11857 11.3652 8.68506 12.4565 8.68506Z" fill="black"/>
</svg>
