<svg width="129" height="120" viewBox="0 0 129 120" fill="none" xmlns="http://www.w3.org/2000/svg">
<g clip-path="url(#clip0_1_149)">
<path d="M15.8032 59.3591C49.2877 77.3402 92.6293 82.4139 127.752 66.4727C128.007 66.349 128.12 66.0427 128.003 65.7828C127.888 65.5426 127.613 65.4303 127.371 65.5055C118.267 68.4644 109.028 70.7926 99.6163 72.2435C71.3943 76.5676 41.4321 72.6039 16.3045 58.4548C16.0557 58.3166 15.7389 58.4057 15.6016 58.6546C15.4644 58.9034 15.5589 59.2285 15.8078 59.3667L15.8032 59.3591Z" fill="#C6C3C1"/>
<path d="M44.7137 69.4928C42.4157 65.8137 38.9997 63.0414 35.5566 60.5131C32.0597 58.0485 28.3803 55.8602 24.4774 54.1179C24.0786 53.9364 23.7776 54.5432 24.1706 54.7489C31.3796 58.8961 38.9301 63.2491 44.1782 69.8493C44.4043 70.1874 44.9369 69.8431 44.7183 69.5004L44.7137 69.4928Z" fill="#C6C3C1"/>
<path d="M34.4566 60.1272C33.0165 56.1643 31.2016 54.5176 27.0291 53.7558C26.05 53.5859 25.0221 53.3526 24.0354 53.6112C23.8712 53.68 23.6868 53.8851 23.6473 54.0745C23.6393 55.4853 24.3123 56.813 25.0118 58.0316C26.8345 61.183 31.6073 62.8308 34.4749 60.1574C34.5845 60.0495 34.5892 59.8708 34.4887 59.7562C34.3973 59.6567 34.2536 59.6407 34.1482 59.7047C30.0592 61.7248 25.7173 58.616 24.66 54.5031C24.5455 54.1282 24.6593 54.4002 24.4649 54.4873C24.4348 54.5056 24.4649 54.4873 24.5117 54.4795C26.366 54.2415 28.3509 54.7099 30.0949 55.3246C32.2152 56.1345 33.1907 58.3328 33.9412 60.3474C34.0616 60.6981 34.6133 60.4868 34.4657 60.1423L34.4566 60.1272Z" fill="#C6C3C1"/>
<path d="M16.4718 58.1877C15.8932 55.0659 14.7305 52.0509 13.0185 49.3698C12.5466 48.6952 12.1568 47.8673 11.3437 47.4621C10.1971 46.8978 9.25011 48.0523 9.30172 49.1374C9.48867 52.4457 11.7006 55.2881 13.9942 57.502C14.382 57.8349 14.7647 58.2949 15.3736 58.4831C15.4993 58.5204 15.6318 58.4502 15.6687 58.3244C15.7026 58.2107 15.6459 58.1004 15.5503 58.0448C15.1829 57.8133 14.9109 57.3997 14.5858 56.9666C13.6796 55.7807 12.6485 54.4742 11.8642 53.2348C11.1088 52.0089 10.3912 50.5739 10.245 49.1637C10.2237 48.7218 10.3599 48.3185 10.5889 48.2207C10.8222 48.0789 11.2026 48.2302 11.5436 48.5708C13.8982 51.2749 15.4239 54.7515 16.0055 58.2851C16.0515 58.5982 16.5392 58.519 16.4734 58.2074L16.4718 58.1877Z" fill="#C6C3C1"/>
<path d="M16.0536 58.6693C14.5915 56.7047 13.0798 54.7599 11.2557 53.098C9.82469 51.8795 8.41224 50.505 6.48833 50.103C4.64739 49.8884 3.9552 51.5806 4.43334 53.1302C5.77835 57.3266 11.2893 59.4768 15.3505 59.4791C15.4804 59.4725 15.59 59.3646 15.5784 59.2269C15.5685 59.1088 15.4892 59.0123 15.3773 58.9976C11.7706 58.0987 6.86112 56.5651 5.34893 52.8735C5.00772 51.8713 5.17212 50.7686 6.42706 50.8329C8.09917 51.1088 9.61072 52.3921 10.9182 53.4582C12.7026 55.0718 14.2834 56.9436 15.661 58.9389C15.8291 59.1986 16.2443 58.9152 16.049 58.6618L16.0536 58.6693Z" fill="#C6C3C1"/>
<path d="M8.09868 56.516C6.69542 55.5804 4.49312 55.3476 3.31403 56.7983C2.2324 58.5619 4.21636 60.385 5.80809 60.8339C8.99502 61.5847 12.7573 61.4173 15.5736 59.5918C15.6818 59.5156 15.705 59.3672 15.624 59.251C15.569 59.1604 15.4554 59.1261 15.3634 59.1613C13.8402 59.6219 12.3017 59.854 10.7144 60.0227C8.53891 60.1562 5.80991 60.6673 4.10656 58.9838C2.80569 57.5725 3.99433 56.1884 5.67376 56.2221C6.43539 56.2037 7.21556 56.4532 7.82341 56.9107C8.07723 57.108 8.36297 56.6965 8.10327 56.5235L8.09868 56.516Z" fill="#C6C3C1"/>
<path d="M110.062 70.6292C106.243 70.8726 102.491 69.0388 99.7616 66.3454C97.0323 63.652 95.2057 60.1722 93.7761 56.6165C99.9286 57.6014 105.645 61.157 109.26 66.258C110.202 67.5875 111.033 69.1401 110.852 70.7591" fill="#C6C3C1"/>
<path d="M110.05 70.3886C102.002 70.8453 96.5884 63.3118 94.1739 56.4573L93.7126 57.0375C97.5112 57.7267 101.102 59.3795 104.139 61.731C105.647 62.9235 107.054 64.239 108.26 65.7491C109.438 67.1942 110.664 68.8056 110.628 70.7297C110.609 71.0205 111.06 71.067 111.103 70.7822C111.673 65.515 104.049 59.5834 99.6292 57.804C97.7767 57.0278 95.8291 56.4851 93.8471 56.1908C93.614 56.1464 93.3945 56.3108 93.3584 56.5395C94.6905 60.2062 96.8061 63.7378 99.5934 66.5096C102.364 69.2195 106.157 71.0697 110.085 70.8532C110.396 70.8397 110.367 70.3509 110.053 70.3765L110.05 70.3886Z" fill="#C6C3C1"/>
<path d="M99.5449 73.4654C92.2581 74.6999 85.9775 80.5228 84.1759 87.6965C88.0065 87.3532 91.8602 86.2514 94.9102 83.9118C97.9601 81.5721 100.108 77.8679 99.9705 74.013" fill="#C6C3C1"/>
<path d="M99.5009 73.2234C92.1179 74.5371 85.7283 80.3332 83.7596 87.5879C83.6799 87.8637 83.9253 88.1487 84.2107 88.1097C86.1564 87.9712 88.0977 87.639 89.9737 87.0467C95.586 85.4136 100.819 80.2067 100.203 74.006C100.176 73.7231 99.7373 73.731 99.7257 74.0172C99.4934 79.7719 94.9119 84.3553 89.6416 86.0596C87.8747 86.6787 86.0094 87.0681 84.1321 87.2684L84.5832 87.7902C86.213 80.6899 92.3816 74.8523 99.5798 73.6923C99.8848 73.6517 99.8118 73.1585 99.5009 73.2234Z" fill="#C6C3C1"/>
<path d="M89.0096 74.6275C82.9298 72.8127 78.0858 67.3522 76.9876 61.1036C81.5717 62.1527 85.751 64.9262 88.508 68.7503C89.1172 69.5999 89.6724 70.5134 89.8732 71.5388C90.074 72.5643 89.8661 73.7141 89.1322 74.4393" fill="#C6C3C1"/>
<path d="M89.0729 74.3926C83.0782 72.6502 78.3099 67.1953 77.3845 61.0278L76.8861 61.4962C80.0871 62.3211 83.0765 63.9674 85.5033 66.214C87.4236 68.2206 90.9283 71.3421 88.9435 74.2645C88.7562 74.4818 89.0788 74.7922 89.2845 74.6052C93.1002 70.5079 85.4535 64.1147 81.9696 62.4175C80.4162 61.6249 78.7661 61.0461 77.0677 60.6931C76.8497 60.6395 76.6165 60.7813 76.5711 60.9949C77.0886 64.2367 78.7727 67.2448 80.9303 69.6758C83.0696 72.0765 85.862 73.8735 88.9326 74.8398C89.2295 74.9384 89.3758 74.467 89.0683 74.3851L89.0729 74.3926Z" fill="#C6C3C1"/>
<path d="M77.0547 75.7427C70.6717 76.7691 65.1897 82.0239 63.8961 88.372C63.8465 88.6296 63.8078 88.9219 63.9785 89.1179C64.1675 89.3442 64.5105 89.3321 64.8034 89.2885C68.9634 88.7243 73.3295 86.9906 75.3693 83.3111C76.6942 80.9137 76.8549 78.0248 78.022 75.5373" fill="#C6C3C1"/>
<path d="M77.0152 75.5083C71.7528 76.4117 67.1476 80.0068 64.7588 84.7565C64.439 85.4678 63.9839 86.4991 63.7776 87.2448C63.4469 88.3451 62.9801 89.8488 64.7462 89.7368C70.0465 89.2858 75.8518 86.3259 76.9388 80.6719C77.3754 78.949 77.6444 77.2555 78.2329 75.6469C78.2819 75.5241 78.2189 75.3866 78.0961 75.3371C77.9855 75.2907 77.8634 75.3442 77.8007 75.4444C76.9081 77.0104 76.5066 78.7741 75.974 80.39C74.7521 85.5676 69.5733 88.2191 64.6538 88.8728C64.3501 88.8817 64.2447 88.9457 64.2638 88.655C64.4354 87.4963 64.8987 86.1395 65.3639 85.0401C67.4781 80.3642 72.0002 76.7679 77.0895 75.9696C77.3991 75.9365 77.3215 75.4358 77.0106 75.5007L77.0152 75.5083Z" fill="#C6C3C1"/>
<path d="M69.3648 74.7205C63.9634 77.3108 57.9602 78.3855 52.0032 77.8917C51.5766 77.8511 51.4862 78.516 51.9114 78.5884C57.9547 79.7327 64.4632 78.5061 69.6772 75.2853C70.0083 75.0841 69.7218 74.5449 69.3648 74.7205Z" fill="#C6C3C1"/>
<path d="M62.0214 64.2662L61.6705 63.8075L61.1887 64.2864C67.0806 69.6063 74.2854 73.7973 82.1357 75.27C82.558 75.3545 82.724 74.6953 82.2955 74.5836C74.7177 72.5421 67.8152 68.5602 61.6384 63.7547C61.3295 63.4669 60.8657 63.9245 61.1566 64.2335L61.5406 64.6618C61.8118 64.9725 62.2835 64.5618 62.0318 64.2495L62.0214 64.2662Z" fill="#C6C3C1"/>
<path d="M65.7142 66.8495C65.4129 65.0994 64.4068 63.4779 62.9786 62.4335C62.0351 61.7457 60.7517 61.2956 59.7217 61.8388C59.4567 61.9792 59.2059 62.1937 59.14 62.4922C59.0976 62.6937 59.1354 62.9085 59.1912 63.1021C59.9548 65.8841 63.121 67.7536 65.9199 67.0863" fill="#C6C3C1"/>
<path d="M65.9436 66.8031C65.3834 64.1353 63.1587 61.0007 60.1304 61.2907C58.983 61.4712 58.3396 62.3791 58.8286 63.5396C59.6547 66.4076 63.1337 68.4696 65.9623 67.3086C66.211 67.2092 66.1144 66.813 65.8441 66.8429C63.2905 66.9477 60.6966 65.6297 59.7242 63.233C59.6317 62.9791 59.4861 62.7058 59.5858 62.4798C59.6691 62.2948 59.9805 62.0951 60.2943 62.0181C61.3474 61.7502 62.4381 62.3072 63.2667 62.9924C64.4285 63.9713 65.2472 65.3862 65.4726 66.8929C65.5112 67.2107 66.0139 67.1222 65.9406 66.8152L65.9436 66.8031Z" fill="#C6C3C1"/>
<path d="M55.7382 78.1542C54.6137 76.677 52.4527 76.0883 50.7362 76.7905C49.8531 77.1515 49.0322 77.9709 49.1162 78.9227C49.1984 79.8548 50.1419 80.5425 51.0781 80.6248C52.0142 80.7071 52.9275 80.3278 53.7572 79.8959C54.2119 79.6608 54.6575 79.4107 55.0939 79.1454C55.3874 78.9671 55.6986 78.5298 55.4055 78.3357" fill="#C6C3C1"/>
<path d="M55.9276 78.0081C54.2211 75.6752 49.2511 75.3982 48.6876 78.811C48.6695 80.7139 50.923 81.5565 52.4384 81.049C53.2908 80.841 56.8126 79.176 55.5523 78.1535C55.2842 78.0684 55.1803 78.3383 55.2891 78.5512C54.4451 79.0952 53.1069 79.6399 52.154 79.9709C51.1318 80.3234 49.6963 79.945 49.5536 78.8119C49.5077 78.3125 49.8438 77.7465 50.3429 77.381C51.914 76.2194 54.4282 76.7278 55.5609 78.3033C55.7412 78.566 56.1425 78.26 55.9397 78.0111L55.9276 78.0081Z" fill="#C6C3C1"/>
<path d="M64.877 73.8299C57.2779 70.9227 51.7468 64.4841 46.0871 58.8681C45.7916 58.5515 45.2718 59.0018 45.569 59.3381C48.1988 62.4951 51.0164 65.4863 54.089 68.2191C57.1634 70.9716 60.6486 73.4847 64.7364 74.4632C65.1316 74.5539 65.2888 73.9311 64.8816 73.8375L64.877 73.8299Z" fill="#C6C3C1"/>
<path d="M54.9002 67.9431C54.5641 64.2707 52.0574 61.2146 48.9295 59.4251C47.8944 58.824 46.7857 58.2883 45.5255 58.1136C45.3016 58.0843 45.0971 58.2395 45.076 58.4591C45.3368 62.3634 47.8413 65.9585 51.2193 67.8544C52.3375 68.4566 53.6844 68.9095 55.0078 68.6117C55.1361 68.5855 55.2198 68.4519 55.1856 68.3279C55.1561 68.2115 55.0588 68.1362 54.9485 68.1412C52.6049 68.015 50.6413 66.2932 49.0189 64.7258C47.4772 63.037 46.2097 60.799 45.9107 58.51L45.4574 58.951C49.8572 59.5952 54.1028 63.3932 54.4456 67.992C54.46 68.3038 54.963 68.2668 54.9245 67.9491L54.9002 67.9431Z" fill="#C6C3C1"/>
<path d="M53.8621 72.2028C47.5578 74.0704 40.8478 74.5925 34.2976 74.0044C33.874 73.9517 33.7639 74.6182 34.1937 74.6981C39.1643 75.6881 44.3404 75.4056 49.2721 74.331C50.9168 73.9516 52.5382 73.483 54.0976 72.7936C54.2619 72.7248 54.3331 72.5368 54.2639 72.3721C54.1993 72.2149 54.0234 72.1461 53.8697 72.1982L53.8621 72.2028Z" fill="#C6C3C1"/>
<path d="M44.6567 74.6034C41.9234 71.3439 36.5672 71.1776 33.3454 73.7768C33.1936 73.9001 33.1558 74.1091 33.2492 74.2798C34.3548 76.2853 36.475 77.7052 38.816 77.895C41.155 78.0137 43.3116 76.7133 44.6514 74.9168C44.7292 74.8075 44.701 74.6593 44.5991 74.5764C44.5064 74.5087 44.3886 74.5183 44.3075 74.5883C43.5006 75.2442 42.6202 75.7792 41.7087 76.1782C38.9647 77.5462 35.654 76.4054 33.9824 73.8755L33.9 74.4011C36.0317 72.3818 39.3631 71.98 42.027 73.1418C42.9244 73.5164 43.7042 74.1383 44.3022 74.9017C44.4853 75.1522 44.8821 74.8386 44.6764 74.6019L44.6567 74.6034Z" fill="#C6C3C1"/>
<path d="M38.29 68.1973C31.7543 69.0062 25.0546 68.4263 18.6871 66.7657C18.2736 66.6448 18.0621 67.28 18.4667 67.4372C23.2118 69.2259 28.3608 69.7973 33.4057 69.5532C35.0857 69.4522 36.777 69.2512 38.4185 68.8325C38.589 68.7909 38.6965 68.6118 38.6545 68.4409C38.617 68.2776 38.45 68.1724 38.29 68.1973Z" fill="#C6C3C1"/>
<path d="M28.8211 69.0626C26.6547 65.3965 21.3996 64.3624 17.7897 66.3911C17.6242 66.4917 17.5501 66.6918 17.6088 66.8732C18.3755 69.0331 20.2304 70.7796 22.5122 71.3466C24.7965 71.85 27.1386 70.9226 28.7552 69.3611C28.8543 69.2699 28.8532 69.1155 28.7543 69.0205C28.6767 68.9437 28.5526 68.926 28.4623 68.9809C27.5607 69.4979 26.6082 69.8804 25.6366 70.1298C22.6988 71.0264 19.6172 69.3638 18.3836 66.5883L18.2165 67.0931C20.6487 65.4494 24.0066 65.6001 26.4407 67.1806C27.2637 67.7039 27.9339 68.4337 28.401 69.287C28.5512 69.5679 28.9892 69.3223 28.8165 69.0551L28.8211 69.0626Z" fill="#C6C3C1"/>
<path d="M97.6532 76.0832C94.8069 80.0463 90.5208 82.4033 87.038 85.709C86.8548 85.8824 87.0717 86.2054 87.3008 86.1075C89.6053 85.2031 91.4447 83.5165 93.163 81.8001C94.8583 80.046 96.4534 78.2288 98.0181 76.3784C98.2234 76.1399 97.8327 75.8191 97.6486 76.0757L97.6532 76.0832Z" fill="white"/>
<path d="M96.3518 59.4135C99.1814 61.1361 101.595 63.4116 104.143 65.5018C107.761 68.4714 108.445 67.5285 104.844 64.6208C102.225 62.5839 99.2936 60.9646 96.615 59.0157C96.3582 58.8307 96.0771 59.2496 96.3518 59.4135Z" fill="white"/>
<path d="M78.6834 63.6396C81.2647 65.0893 83.1024 67.8077 85.2316 69.8527C85.9441 70.5672 86.6866 71.2634 87.5793 71.8166C87.6962 71.8903 87.8471 71.8503 87.9203 71.7334C87.9651 71.6545 87.9689 71.5592 87.923 71.4837C86.9033 69.6534 85.2978 68.3342 83.724 67.0164L81.3508 65.0783C80.5467 64.4505 79.8581 63.6906 78.8601 63.2013C78.5674 63.0588 78.3622 63.535 78.6759 63.6441L78.6834 63.6396Z" fill="white"/>
<path d="M66.5268 87.4449C69.7984 84.8258 73.7828 82.5488 75.6607 78.6369C75.7604 78.4109 75.4686 78.1851 75.2808 78.3509C73.82 79.5076 72.228 81.5503 70.9788 82.9195C69.5874 84.4786 68.0106 85.9022 66.2565 87.051C65.9856 87.2157 66.2743 87.6398 66.5268 87.4449Z" fill="white"/>
</g>
<defs>
<clipPath id="clip0_1_149">
<rect width="103.003" height="77.4401" fill="white" transform="matrix(-0.854537 0.519391 0.519391 0.854537 88.0198 0)"/>
</clipPath>
</defs>
</svg>
