<svg width="23" height="25" viewBox="0 0 23 25" fill="none" xmlns="http://www.w3.org/2000/svg">
<g clip-path="url(#clip0_1_114)">
<path d="M20.1674 0.833107H2.72533C1.22095 0.833107 0 2.10955 0 3.68232V21.9173C0 23.49 1.22095 24.7665 2.72533 24.7665H20.1674C21.6718 24.7665 22.8928 23.49 22.8928 21.9173V3.68232C22.8928 2.10955 21.6718 0.833107 20.1674 0.833107ZM7.08586 9.95058V20.7776H3.81546V9.95058H7.08586ZM3.81546 6.79935C3.81546 6.00157 4.46954 5.39184 5.45066 5.39184C6.43178 5.39184 7.04771 6.00157 7.08586 6.79935C7.08586 7.59713 6.47539 8.24105 5.45066 8.24105C4.42594 8.24105 3.81546 7.59713 3.81546 6.79935ZM19.0773 20.7776H15.8069V15.0792C15.8069 13.9395 15.2619 12.7998 13.8992 12.777H13.8556C12.5365 12.777 11.9915 13.9509 11.9915 15.0792V20.7776H8.72106V9.95058H11.9915V11.4094C11.9915 11.4094 13.0434 9.95058 15.1583 9.95058C17.2731 9.95058 19.0773 11.5062 19.0773 14.6575V20.7776Z" fill="black"/>
</g>
<defs>
<clipPath id="clip0_1_114">
<rect width="22.8928" height="23.9334" fill="white" transform="translate(0 0.833107)"/>
</clipPath>
</defs>
</svg>
