<svg width="25" height="25" viewBox="0 0 25 25" fill="none" xmlns="http://www.w3.org/2000/svg">
<g clip-path="url(#clip0_96_2489)">
<mask id="mask0_96_2489" style="mask-type:luminance" maskUnits="userSpaceOnUse" x="0" y="0" width="25" height="25">
<path d="M25 0H0V25H25V0Z" fill="white"/>
</mask>
<g mask="url(#mask0_96_2489)">
<path d="M21.479 9.06254C20.3957 4.23962 16.1874 2.08337 12.4999 2.08337C12.4999 2.08337 12.4999 2.08337 12.4895 2.08337C8.81236 2.08337 4.61445 4.23962 3.5207 9.05212C2.29153 14.4271 5.5832 18.9792 8.56236 21.8542C9.66653 22.9167 11.0832 23.448 12.4999 23.448C13.9165 23.448 15.3332 22.9167 16.427 21.8542C19.4061 18.9792 22.6978 14.4375 21.479 9.06254ZM15.3645 12.2396H13.2811V14.323C13.2811 14.75 12.927 15.1042 12.4999 15.1042C12.0728 15.1042 11.7186 14.75 11.7186 14.323V12.2396H9.63528C9.2082 12.2396 8.85403 11.8855 8.85403 11.4584C8.85403 11.0313 9.2082 10.6771 9.63528 10.6771H11.7186V8.59379C11.7186 8.16671 12.0728 7.81254 12.4999 7.81254C12.927 7.81254 13.2811 8.16671 13.2811 8.59379V10.6771H15.3645C15.7915 10.6771 16.1457 11.0313 16.1457 11.4584C16.1457 11.8855 15.7915 12.2396 15.3645 12.2396Z" fill="black"/>
</g>
</g>
<defs>
<clipPath id="clip0_96_2489">
<rect width="25" height="25" fill="white"/>
</clipPath>
</defs>
</svg>
