<svg width="190" height="23" viewBox="0 0 190 23" fill="none" xmlns="http://www.w3.org/2000/svg">
<g clip-path="url(#clip0_1_84)">
<path d="M25.4216 2.81961C24.2084 1.86388 22.666 1.14249 20.8388 0.681102C19.0597 0.230696 16.9329 0 14.5176 0C12.1023 0 9.97545 0.227034 8.19632 0.681102C6.36911 1.14616 4.82671 1.86388 3.62091 2.82328C2.3929 3.79733 1.4682 5.03503 0.876396 6.49976C0.299383 7.92788 0.003479 9.61232 0.003479 11.5055C0.003479 13.3987 0.295684 15.0831 0.876396 16.5112C1.4682 17.976 2.3929 19.2137 3.6246 20.1877C4.83411 21.1434 6.37281 21.8648 8.20002 22.3299C9.97915 22.7803 12.106 23.011 14.5213 23.011C16.9366 23.011 19.0634 22.784 20.8425 22.3299C22.6697 21.8648 24.2121 21.1471 25.4253 20.1914C26.6607 19.2173 27.5891 17.9796 28.1809 16.5149C28.758 15.0868 29.0539 13.4023 29.0539 11.5092C29.0539 9.61598 28.7617 7.93154 28.1809 6.50342C27.5891 5.03869 26.6607 3.80099 25.4216 2.82694V2.81961ZM14.5176 20.0559C12.5572 20.0559 10.8336 19.8911 9.39473 19.5725C8.01508 19.2649 6.86106 18.7669 5.96964 18.0931C5.08933 17.4267 4.44574 16.5918 4.00928 15.5335C3.55803 14.4533 3.3324 13.0984 3.3324 11.5018C3.3324 9.90527 3.56173 8.56504 4.00928 7.47747C4.44944 6.41554 5.08933 5.57698 5.96964 4.91052C6.86106 4.23675 8.01138 3.73874 9.39473 3.43114C10.8373 3.1089 12.5609 2.94778 14.5176 2.94778C16.4742 2.94778 18.1979 3.11256 19.6404 3.43114C21.0238 3.73874 22.1778 4.23675 23.0766 4.91419C23.9606 5.58064 24.6042 6.4192 25.0444 7.47747C25.4956 8.56504 25.7212 9.91625 25.7212 11.5018C25.7212 13.0874 25.4919 14.4533 25.0444 15.5335C24.6042 16.5881 23.9606 17.4267 23.0766 18.0895C22.1778 18.7633 21.0238 19.2649 19.6404 19.5725C18.1979 19.8948 16.4742 20.0559 14.5176 20.0559Z" fill="#231F20"/>
<path d="M55.0381 11.2199C54.2392 10.7695 53.2997 10.4143 52.2455 10.1653C51.2395 9.92724 50.1594 9.74049 49.035 9.605C47.9069 9.46951 46.7306 9.4036 45.5396 9.4036H42.1478C41.0937 9.4036 40.0876 9.34135 39.1518 9.21318C38.2419 9.09234 37.4392 8.90559 36.7698 8.66391C36.1669 8.44786 35.6897 8.1659 35.3568 7.82901C35.0905 7.55803 34.9647 7.21382 34.9647 6.74877C34.9647 6.05668 35.1534 5.51107 35.5455 5.07164C35.9856 4.58096 36.5959 4.17816 37.3653 3.87056C38.1901 3.541 39.1666 3.30298 40.2651 3.16383C41.4007 3.01735 42.6065 2.94412 43.853 2.94412C44.7518 2.94412 45.6765 2.9844 46.5938 3.0613C47.5148 3.13819 48.4173 3.24805 49.2828 3.39086C50.1446 3.53367 50.9695 3.70944 51.7351 3.9145C52.4786 4.11224 53.1665 4.33928 53.7768 4.58828C53.9803 4.69081 54.2133 4.74208 54.4648 4.74208C54.942 4.74208 55.3599 4.548 55.641 4.1928C55.8815 3.89253 56.0072 3.541 56.0072 3.17847C56.0072 2.93679 55.948 2.7061 55.8297 2.48639C55.6965 2.23738 55.4857 2.03598 55.2083 1.90049C54.6868 1.65515 54.0284 1.42445 53.1924 1.19742C52.3898 0.977711 51.4762 0.772648 50.4775 0.593218C49.4751 0.410126 48.3951 0.263652 47.2596 0.161121C46.124 0.0549276 44.9515 0 43.7753 0C42.8247 0 41.8667 0.0366184 40.9272 0.113517C39.9729 0.190416 39.0482 0.31858 38.179 0.49801C37.295 0.681102 36.4591 0.930107 35.7008 1.2377C34.9056 1.55994 34.2065 1.97373 33.6184 2.47174C33.0081 2.9844 32.5198 3.60691 32.1722 4.31364C31.8171 5.03503 31.6395 5.86626 31.6395 6.78172C31.6395 7.83267 31.9132 8.72616 32.4533 9.44388C32.9637 10.1177 33.6517 10.6743 34.5061 11.088C35.305 11.4799 36.2408 11.7765 37.295 11.9742C38.2974 12.1646 39.3737 12.3111 40.4945 12.41C41.6115 12.5088 42.7766 12.5601 43.9639 12.5601C45.1512 12.5601 46.2202 12.6004 47.2929 12.6773C48.3618 12.7542 49.3827 12.8714 50.3333 13.0215C51.2395 13.1643 52.0347 13.3767 52.6968 13.6513C53.296 13.9003 53.7695 14.2262 54.106 14.6181C54.3982 14.9623 54.5425 15.4053 54.5425 15.9803C54.5425 16.7163 54.3576 17.3022 53.9766 17.7819C53.5623 18.3019 52.9927 18.7266 52.2751 19.0525C51.5058 19.4004 50.5959 19.6531 49.5676 19.7996C48.5024 19.9534 47.3557 20.0303 46.161 20.0303C44.9663 20.0303 43.6495 19.9643 42.3956 19.8325C41.127 19.7007 39.9174 19.5322 38.7967 19.3345C37.676 19.1368 36.6662 18.9207 35.7896 18.6937C34.9241 18.4703 34.262 18.2652 33.7922 18.0748C33.5925 18.0016 33.4076 17.965 33.2263 17.965C32.7936 17.965 32.4163 18.1407 32.1685 18.463C31.9724 18.7157 31.8689 19.0306 31.8689 19.3638C31.8689 19.6604 31.9539 19.9497 32.1204 20.217C32.2868 20.4843 32.5346 20.7004 32.8712 20.8651C33.3706 21.0995 34.0659 21.3339 34.998 21.5829C35.8931 21.8209 36.9362 22.0479 38.0902 22.253C39.2406 22.458 40.5019 22.6302 41.8334 22.7693C43.1724 22.9048 44.5335 22.9744 45.8836 22.9744C46.8453 22.9744 47.8144 22.9341 48.7576 22.8499C49.7156 22.7656 50.6366 22.6192 51.4947 22.4178C52.3639 22.2127 53.185 21.9344 53.9322 21.5939C54.7089 21.2387 55.3932 20.8029 55.9665 20.2866C56.562 19.752 57.0318 19.1185 57.3647 18.3934C57.7013 17.6647 57.8714 16.8298 57.8714 15.9107C57.8714 14.8085 57.6088 13.8491 57.0873 13.0654C56.5842 12.3111 55.9 11.6849 55.0529 11.2089L55.0381 11.2199Z" fill="#231F20"/>
<path d="M80.9667 19.7556C80.7596 19.697 80.5303 19.6677 80.2899 19.6677H64.5293V12.6407H79.7683C80.1678 12.6407 80.5118 12.5601 80.8003 12.4026C81.0555 12.2635 81.4809 11.9083 81.4809 11.1137C81.4809 10.5168 81.1702 10.0371 80.6523 9.83203C80.3638 9.71851 80.0235 9.65992 79.6389 9.65992H64.5293V3.33227H80.2529C80.4933 3.33227 80.7226 3.30298 80.9297 3.24439C81.2146 3.16383 81.455 3.02101 81.6362 2.82694C81.7916 2.65849 81.9802 2.36188 81.9802 1.89683C81.9802 1.50135 81.8729 1.17545 81.6584 0.930105C81.4698 0.714057 81.2257 0.560259 80.9297 0.476037C80.7226 0.417448 80.4933 0.388153 80.2529 0.388153H62.7649C62.4986 0.388153 62.2915 0.410124 62.1213 0.454066C61.7219 0.560259 61.5073 0.794617 61.4038 0.974047C61.2928 1.15714 61.2299 1.38051 61.2151 1.62952C61.2077 1.75036 61.204 1.91514 61.204 2.1202V21.1105C61.204 21.2863 61.2077 21.4217 61.2151 21.5133C61.2336 21.7367 61.2965 21.9344 61.4001 22.0955C61.5591 22.3519 61.8143 22.524 62.1102 22.5825C62.2323 22.6082 62.3729 22.6192 62.5615 22.6192H80.423C80.6708 22.6192 80.8965 22.5825 81.0962 22.513C81.3699 22.4178 81.6029 22.2457 81.7694 22.015C81.9395 21.7769 82.0246 21.4803 82.0246 21.1068C82.0246 20.6454 81.8397 20.3488 81.6806 20.1804C81.4957 19.9826 81.2589 19.8398 80.9704 19.7593L80.9667 19.7556Z" fill="#231F20"/>
<path d="M103.478 2.54864C102.878 1.99936 102.153 1.56361 101.314 1.25967C100.53 0.974049 99.6494 0.761663 98.6951 0.622513C97.7593 0.487025 96.7347 0.421112 95.651 0.421112H86.5445C86.134 0.421112 85.8788 0.585895 85.7345 0.728706C85.5422 0.919122 85.4312 1.17179 85.4127 1.47206C85.4053 1.57825 85.4016 1.73571 85.4016 1.9481V20.3488C85.4016 20.8395 85.4793 21.2789 85.6309 21.6561C85.8788 22.264 86.4299 22.6118 87.1474 22.6118C87.5099 22.6118 87.8317 22.4983 88.0795 22.2823C88.283 22.1102 88.4346 21.8868 88.5419 21.6195C88.6159 21.4181 88.6676 21.1984 88.6935 20.9677C88.7157 20.7736 88.7268 20.5649 88.7268 20.3488V14.2958H94.423L101.591 21.8685C101.832 22.1468 102.098 22.3445 102.387 22.458C102.645 22.5606 102.901 22.6118 103.148 22.6118C103.566 22.6118 103.936 22.4654 104.221 22.1834C104.502 21.9014 104.654 21.5426 104.654 21.1398V21.0849L104.646 21.0299C104.624 20.8651 104.584 20.7004 104.517 20.5173C104.428 20.2829 104.284 20.0595 104.099 19.8765L98.5324 14.0688C98.5324 14.0688 98.5619 14.0651 98.5767 14.0615C99.2462 13.9699 99.9046 13.8234 100.526 13.633C101.162 13.4389 101.773 13.179 102.335 12.8714C102.93 12.5418 103.459 12.128 103.899 11.6373C104.347 11.143 104.702 10.5571 104.965 9.89795C105.227 9.23149 105.36 8.46251 105.36 7.60564C105.36 6.45582 105.201 5.4598 104.883 4.65053C104.558 3.81564 104.084 3.1089 103.474 2.54498L103.478 2.54864ZM100.123 10.6376C99.4755 10.9269 98.6988 11.1173 97.8185 11.2089C96.879 11.3041 95.8692 11.3517 94.8225 11.3517H88.7268V3.46044H96.9049C98.1033 3.46044 99.1094 3.61423 99.8972 3.9145C100.618 4.18914 101.14 4.58828 101.491 5.13756C101.85 5.69416 102.031 6.51075 102.031 7.56536C102.031 8.40758 101.865 9.06305 101.536 9.51712C101.184 10.0041 100.722 10.3703 100.123 10.6376Z" fill="#231F20"/>
<path d="M130.897 0.406463H130.834L130.771 0.413787C130.505 0.450405 130.109 0.585893 129.75 0.999681C129.565 1.21207 129.391 1.46107 129.232 1.73205L119.375 18.3824L109.499 1.73571C109.34 1.46473 109.174 1.21939 109 1.01433C108.715 0.670116 108.334 0.461391 107.898 0.410125L107.846 0.402802H107.794C107.284 0.402802 106.855 0.626174 106.596 1.02898C106.403 1.32558 106.307 1.60388 106.307 1.87486C106.307 2.14584 106.366 2.41315 106.481 2.67314C106.562 2.85257 106.659 3.04299 106.781 3.25171L117.659 21.5499C118.191 22.4288 118.876 22.6118 119.357 22.6118C119.697 22.6118 120.026 22.513 120.333 22.3226C120.614 22.1468 120.862 21.8905 121.077 21.5389L131.903 3.26636C132.014 3.09059 132.114 2.91482 132.206 2.74272C132.351 2.46442 132.424 2.18612 132.424 1.91148C132.424 1.60388 132.325 1.29995 132.129 1.007C131.977 0.779971 131.614 0.402802 130.901 0.402802L130.897 0.406463Z" fill="#231F20"/>
<path d="M157.624 18.214C157.365 18.214 157.121 18.2689 156.951 18.3531C155.586 18.9171 154.155 19.3455 152.698 19.6274C151.233 19.9094 149.783 20.0522 148.385 20.0522C146.258 20.0522 144.423 19.8765 142.933 19.5322C141.501 19.199 140.325 18.6864 139.43 17.9979C138.553 17.3242 137.932 16.4893 137.525 15.4456C137.107 14.369 136.896 13.0398 136.896 11.4945C136.896 9.94921 137.107 8.62363 137.525 7.54338C137.928 6.49976 138.55 5.66486 139.43 4.99108C140.321 4.30632 141.501 3.79 142.929 3.45677C144.42 3.11256 146.254 2.93679 148.381 2.93679C149.779 2.93679 151.229 3.0796 152.694 3.36157C154.151 3.64353 155.583 4.07196 156.948 4.63589L157.007 4.65786C157.31 4.75673 157.476 4.79334 157.636 4.79334C158.042 4.79334 158.405 4.64687 158.682 4.3759C158.96 4.10126 159.108 3.75704 159.108 3.37621C159.108 3.0796 159.015 2.79398 158.83 2.51934C158.649 2.25203 158.379 2.03964 158.009 1.87852C156.4 1.22305 154.795 0.736029 153.23 0.43942C151.669 0.142811 150.038 -0.00732422 148.381 -0.00732422C146.021 -0.00732422 143.917 0.197739 142.119 0.604203C140.266 1.02165 138.69 1.69909 137.436 2.61821C136.153 3.55931 135.173 4.78602 134.525 6.26174C133.893 7.70817 133.571 9.46585 133.571 11.4908C133.571 13.5158 133.893 15.2735 134.525 16.7199C135.173 18.1993 136.153 19.426 137.436 20.3635C138.694 21.2826 140.27 21.96 142.123 22.3775C143.92 22.784 146.025 22.989 148.385 22.989C150.042 22.989 151.669 22.8389 153.227 22.5423C154.78 22.2457 156.389 21.7623 158.013 21.1032C158.379 20.953 158.66 20.7443 158.841 20.4843C159.034 20.2133 159.13 19.9241 159.13 19.6201C159.13 19.232 158.974 18.8841 158.679 18.6021C158.397 18.3385 158.031 18.1993 157.624 18.1993V18.214Z" fill="#231F20"/>
<path d="M189.131 6.4961C188.535 5.03136 187.607 3.79366 186.372 2.81961C185.158 1.86388 183.616 1.14249 181.789 0.681102C180.01 0.230696 177.883 0 175.467 0C173.052 0 170.925 0.227034 169.146 0.681102C167.319 1.14616 165.777 1.86388 164.571 2.82328C163.343 3.79733 162.418 5.03136 161.823 6.49976C161.246 7.92788 160.953 9.61232 160.953 11.5055C160.953 13.3987 161.246 15.0831 161.823 16.5112C162.418 17.976 163.339 19.2137 164.571 20.1877C165.78 21.1434 167.319 21.8648 169.146 22.3299C170.925 22.7803 173.052 23.011 175.467 23.011C177.883 23.011 180.01 22.784 181.789 22.3299C183.616 21.8648 185.158 21.1471 186.372 20.1914C187.607 19.2173 188.535 17.9796 189.131 16.5149C189.708 15.0868 190 13.4023 190 11.5092C190 9.61598 189.708 7.93154 189.131 6.50342V6.4961ZM175.467 20.0559C173.507 20.0559 171.783 19.8911 170.345 19.5725C168.965 19.2649 167.811 18.7669 166.92 18.0931C166.039 17.4267 165.399 16.5918 164.959 15.5335C164.508 14.4533 164.282 13.0984 164.282 11.5018C164.282 9.90527 164.512 8.56504 164.959 7.47747C165.399 6.41554 166.039 5.57698 166.92 4.91052C167.811 4.23675 168.965 3.73874 170.345 3.43114C171.787 3.1089 173.511 2.94778 175.467 2.94778C177.424 2.94778 179.148 3.11256 180.59 3.43114C181.974 3.73874 183.128 4.23675 184.026 4.91419C184.911 5.58064 185.558 6.4192 185.994 7.47747C186.446 8.56138 186.671 9.91625 186.671 11.5018C186.671 13.0874 186.442 14.4533 185.994 15.5335C185.554 16.5881 184.911 17.423 184.026 18.0895C183.128 18.7633 181.974 19.2649 180.59 19.5725C179.148 19.8948 177.424 20.0559 175.467 20.0559Z" fill="#231F20"/>
</g>
<defs>
<clipPath id="clip0_1_84">
<rect width="190" height="23" fill="white"/>
</clipPath>
</defs>
</svg>
