<svg width="25" height="25" viewBox="0 0 25 25" fill="none" xmlns="http://www.w3.org/2000/svg">
<g clip-path="url(#clip0_96_2511)">
<g clip-path="url(#clip1_96_2511)">
<path d="M21.1796 22.5H4.81944C3.37357 22.411 2.16444 21.1746 2.00951 19.735L2.0003 7.78009C1.98242 7.59441 2.27387 6.50164 2.40876 6.5L10.9946 15.1553C12.1707 16.1438 13.8278 16.1443 15.0044 15.1553L23.5903 6.5C23.7252 6.50164 24.0166 7.59441 23.9987 7.78009L23.9895 19.735C23.834 21.1746 22.6254 22.411 21.1796 22.5Z" fill="black"/>
<path d="M5.14832 4H20.8507C21.2136 4.02439 21.615 4.1161 21.928 4.30642C21.9701 4.33186 22.0154 4.29051 21.9941 4.39654L13.8839 12.6682C13.3812 13.1103 12.6179 13.1109 12.1151 12.6682L4.00496 4.39707C3.98364 4.29104 4.02888 4.33239 4.071 4.30695C4.3762 4.12087 4.79268 4.01749 5.14832 4Z" fill="black"/>
</g>
</g>
<defs>
<clipPath id="clip0_96_2511">
<rect width="25" height="25" fill="white"/>
</clipPath>
<clipPath id="clip1_96_2511">
<rect width="22" height="18" fill="white" transform="translate(2 4)"/>
</clipPath>
</defs>
</svg>
