<svg width="26" height="25" viewBox="0 0 26 25" fill="none" xmlns="http://www.w3.org/2000/svg">
<g clip-path="url(#clip0_96_2500)">
<mask id="mask0_96_2500" style="mask-type:luminance" maskUnits="userSpaceOnUse" x="0" y="0" width="26" height="25">
<path d="M25.2688 0H0V25H25.2688V0Z" fill="white"/>
</mask>
<g mask="url(#mask0_96_2500)">
<path d="M20.0679 6.24996L21.3735 4.95829C21.6788 4.65621 21.6788 4.15621 21.3735 3.85413C21.0681 3.55204 20.5628 3.55204 20.2574 3.85413L18.9519 5.14579L17.6463 3.85413C17.341 3.55204 16.8356 3.55204 16.5303 3.85413C16.2249 4.15621 16.2249 4.65621 16.5303 4.95829L17.8358 6.24996L16.5303 7.54163C16.2249 7.84371 16.2249 8.34371 16.5303 8.64579C16.6882 8.80204 16.8882 8.87496 17.0883 8.87496C17.2883 8.87496 17.4884 8.80204 17.6463 8.64579L18.9519 7.35413L20.2574 8.64579C20.4153 8.80204 20.6154 8.87496 20.8154 8.87496C21.0155 8.87496 21.2155 8.80204 21.3735 8.64579C21.6788 8.34371 21.6788 7.84371 21.3735 7.54163L20.0679 6.24996Z" fill="black"/>
<path d="M11.6344 15.573L9.6866 17.5C9.27598 17.9063 8.62321 17.9063 8.20206 17.5105C8.08624 17.3959 7.97043 17.2917 7.85461 17.1771C6.77016 16.0938 5.79099 14.9584 4.91711 13.7709C4.05376 12.5834 3.35887 11.3959 2.85349 10.2188C2.35865 9.03129 2.10596 7.89587 2.10596 6.81254C2.10596 6.10421 2.2323 5.42712 2.48499 4.80212C2.73768 4.16671 3.13777 3.58337 3.69579 3.06254C4.36962 2.40629 5.10663 2.08337 5.88575 2.08337C6.18055 2.08337 6.47536 2.14587 6.73857 2.27087C7.01232 2.39587 7.25448 2.58337 7.44399 2.85421L9.88665 6.26046C10.0762 6.52087 10.213 6.76046 10.3078 6.98962C10.4026 7.20837 10.4552 7.42712 10.4552 7.62504C10.4552 7.87504 10.3815 8.12504 10.2341 8.36462C10.0972 8.60421 9.89718 8.85421 9.64449 9.10421L8.84431 9.92712C8.72849 10.0417 8.67585 10.1771 8.67585 10.3438C8.67585 10.4271 8.68638 10.5 8.70744 10.5834C8.73902 10.6667 8.77061 10.7292 8.79167 10.7917C8.98118 11.1355 9.30757 11.5834 9.77083 12.125C10.2446 12.6667 10.75 13.2188 11.2975 13.7709C11.4028 13.875 11.5186 13.9792 11.6239 14.0834C12.045 14.4896 12.0556 15.1563 11.6344 15.573Z" fill="black"/>
<path d="M23.1319 19.0929C23.1319 19.3846 23.0792 19.6866 22.974 19.9783C22.9424 20.0616 22.9108 20.145 22.8687 20.2283C22.6897 20.6033 22.458 20.9575 22.1527 21.2908C21.6368 21.8533 21.0683 22.2596 20.426 22.52C20.4155 22.52 20.405 22.5304 20.3944 22.5304C19.7732 22.7804 19.0994 22.9158 18.3729 22.9158C17.299 22.9158 16.1514 22.6658 14.9406 22.1554C13.7298 21.645 12.519 20.9575 11.3187 20.0929C10.9081 19.7908 10.4975 19.4887 10.1079 19.1658L13.5508 15.7596C13.8456 15.9783 14.1088 16.145 14.3299 16.2596C14.3826 16.2804 14.4457 16.3116 14.5194 16.3429C14.6037 16.3741 14.6879 16.3846 14.7826 16.3846C14.9616 16.3846 15.0985 16.3221 15.2143 16.2075L16.0145 15.4262C16.2777 15.1658 16.5304 14.9679 16.7726 14.8429C17.0147 14.6971 17.2569 14.6241 17.5201 14.6241C17.7201 14.6241 17.9307 14.6658 18.1623 14.7596C18.394 14.8533 18.6361 14.9887 18.8994 15.1658L22.3843 17.6137C22.6581 17.8012 22.8476 18.02 22.9634 18.2804C23.0687 18.5408 23.1319 18.8012 23.1319 19.0929Z" fill="black"/>
</g>
</g>
<defs>
<clipPath id="clip0_96_2500">
<rect width="25.2688" height="25" fill="white"/>
</clipPath>
</defs>
</svg>
