<svg width="49" height="49" viewBox="0 0 49 49" fill="none" xmlns="http://www.w3.org/2000/svg">
<g clip-path="url(#clip0_1_137)">
<path d="M26.1492 48.9999H22.8986L20.4848 48.6862C10.4515 47.0531 2.31701 39.0889 0.434252 29.1135L0.0158611 26.1209C0.064137 25.0429 -0.0485067 23.9408 0.0158611 22.8628C1.19057 2.8236 25.4251 -7.28049 40.64 6.02537C57.0618 20.377 47.7526 47.6726 26.1411 48.9999H26.1492ZM44.9124 24.504C44.9124 13.2414 35.7802 4.11075 24.5239 4.11075C13.2676 4.11075 4.12736 13.2414 4.12736 24.504C4.12736 35.7665 13.2595 44.8972 24.5159 44.8972C35.7722 44.8972 44.9044 35.7665 44.9044 24.504H44.9124Z" fill="#EF3A6B"/>
<path d="M21.5311 15.9043C22.0862 15.8319 22.4966 16.2019 22.923 16.4755C26.1655 18.5832 29.2069 21.2781 32.4575 23.41C33.3104 24.0616 33.3828 24.8821 32.554 25.5981C29.2069 27.738 26.077 30.618 22.738 32.7176C21.869 33.2647 21.0805 33.4014 20.5494 32.3556L20.5092 16.9903C20.5173 16.4352 21.0161 15.9767 21.5391 15.9043H21.5311Z" fill="#EF3A6B"/>
</g>
<defs>
<clipPath id="clip0_1_137">
<rect width="49" height="49" fill="white"/>
</clipPath>
</defs>
</svg>
