<svg width="41" height="41" viewBox="0 0 41 41" fill="none" xmlns="http://www.w3.org/2000/svg">
<g clip-path="url(#clip0_96_309)">
<path d="M21.8799 40.9999H19.16L17.1403 40.7374C8.74505 39.3709 1.93865 32.707 0.363278 24.3603L0.0131956 21.8563C0.0535897 20.9543 -0.0406632 20.0321 0.0131956 19.1301C0.996118 2.36257 21.2739 -6.09187 34.0048 5.0416C47.7455 17.0501 39.9562 39.8892 21.8731 40.9999H21.8799ZM37.5797 20.5033C37.5797 11.0795 29.9385 3.43957 20.5199 3.43957C11.1014 3.43957 3.45343 11.0795 3.45343 20.5033C3.45343 29.927 11.0946 37.567 20.5132 37.567C29.9317 37.567 37.573 29.927 37.573 20.5033H37.5797Z" fill="white"/>
<path d="M18.0157 13.3078C18.4802 13.2472 18.8235 13.5568 19.1803 13.7857C21.8935 15.5493 24.4383 17.8042 27.1582 19.588C27.8718 20.1332 27.9324 20.8198 27.239 21.4189C24.4383 23.2094 21.8194 25.6192 19.0255 27.376C18.2984 27.8338 17.6386 27.9482 17.1943 27.0731L17.1606 14.2165C17.1674 13.752 17.5848 13.3683 18.0224 13.3078H18.0157Z" fill="white"/>
</g>
<defs>
<clipPath id="clip0_96_309">
<rect width="41" height="41" fill="white"/>
</clipPath>
</defs>
</svg>
