<svg width="95" height="26" viewBox="0 0 95 26" fill="none" xmlns="http://www.w3.org/2000/svg">
<g clip-path="url(#clip0_1_580)">
<path d="M23.1383 6.5414C23.082 6.65181 23.0538 6.78981 23.0256 6.90022C22.9129 7.50743 22.8001 8.11465 22.7156 8.72187C22.631 9.24629 22.5747 9.7983 22.5465 10.3227C22.4619 11.482 22.4056 12.6412 22.4619 13.8004C22.4901 14.5457 22.5465 15.2909 22.5747 16.0361C22.6592 17.0573 22.8001 18.0786 22.9974 19.0722C23.0256 19.155 23.0256 19.2378 23.0538 19.3206C23.082 19.3758 23.0538 19.4586 22.9974 19.4862H22.9692C22.8847 19.5138 22.8283 19.5414 22.7438 19.569C22.4056 19.6794 22.0674 19.8174 21.7292 19.9278C20.9682 20.2038 20.2355 20.5074 19.5027 20.8662C18.5727 21.3079 17.6426 21.7771 16.7408 22.3015C16.0362 22.7155 15.3034 23.1571 14.627 23.6263C14.0352 24.0127 13.4715 24.4268 12.9361 24.8408C12.5133 25.172 12.1469 25.5308 11.7524 25.862C11.696 25.9172 11.6396 25.9448 11.5833 26C11.5551 26 11.5269 25.9724 11.5269 25.9724C11.0196 25.5032 10.5123 25.0616 9.94863 24.6476C9.15951 24.0127 8.31401 23.4331 7.44034 22.9087C7.10214 22.6879 6.76395 22.4947 6.42574 22.3015C6.1721 22.1635 5.91845 21.9979 5.69298 21.8599C5.41115 21.6943 5.12932 21.5563 4.84749 21.4183C4.31201 21.1423 3.74835 20.8662 3.1565 20.6454C2.73375 20.4798 2.33919 20.2866 1.88826 20.1486C1.35279 19.9554 0.817307 19.7898 0.310006 19.6242C0.197276 19.569 0.112721 19.5414 0.0281746 19.4862C0.0281746 19.4034 0.0563606 19.3482 0.0563606 19.293C0.253645 18.4374 0.394561 17.5541 0.507293 16.6985C0.620023 15.7601 0.676394 14.8493 0.704578 13.9108C0.760947 12.5032 0.704578 11.1231 0.563662 9.7155C0.535476 9.30149 0.507293 8.88748 0.422746 8.47346C0.3382 7.94905 0.197285 7.42463 0.0845465 6.90022C0.0563606 6.76221 0.0281775 6.65181 0 6.5138C0.056369 6.4862 0.140915 6.4586 0.197285 6.431C1.77554 5.98939 3.26924 5.35457 4.73477 4.60934C5.8339 4.05733 6.87668 3.45011 7.91945 2.78769C8.79313 2.23567 9.61044 1.62845 10.4277 0.993633C10.8223 0.690021 11.1887 0.331216 11.5833 0C11.6114 0.0276036 11.6678 0.0552017 11.696 0.0828026C12.7106 1.02123 13.8379 1.87686 15.0216 2.62208C15.8671 3.1741 16.7408 3.69851 17.6426 4.16773C18.3754 4.55414 19.1081 4.91295 19.8409 5.29936C19.8691 5.29936 19.8973 5.32696 19.8973 5.32696C20.2918 5.52017 20.6864 5.71338 21.1091 5.85138C21.5037 5.98938 21.8983 6.12739 22.2928 6.26539C22.5183 6.3482 22.7719 6.4034 22.9974 6.4862C23.0256 6.4862 23.082 6.5138 23.1383 6.5414ZM21.2219 18.3546C21.2219 18.2718 21.2219 18.189 21.1937 18.1338C21.1655 17.9682 21.1373 17.8026 21.1092 17.6645C21.0246 16.9745 20.8837 16.2569 20.8273 15.5669C20.771 14.8217 20.7428 14.0764 20.7146 13.3036C20.7146 12.6136 20.7428 11.9236 20.7991 11.2335C20.8273 10.6539 20.8837 10.0743 20.9401 9.4671C20.9964 9.02548 21.081 8.55627 21.1373 8.11465C21.1655 8.03185 21.1655 7.92145 21.1092 7.83864H21.0528C20.7146 8.00425 20.3482 8.14225 20.01 8.30786C19.7282 8.44586 19.5027 8.61147 19.3054 8.83228C19.1363 8.97028 19.0518 9.13588 18.9954 9.35669C18.939 9.7707 18.8545 10.1847 18.8263 10.6263C18.7699 11.344 18.7418 12.0616 18.7418 12.7792C18.7136 13.5244 18.7418 14.2696 18.8263 15.0149V15.2081C18.7418 15.1529 18.7136 15.1253 18.6572 15.0977C18.3472 14.8769 18.0372 14.6561 17.7272 14.4352C17.4453 14.242 17.1917 14.0488 16.9099 13.8556C16.7971 13.8004 16.7408 13.6624 16.7408 13.552V13.2208C16.7126 12.172 16.8253 11.0955 17.0226 10.0467V9.90871C17.0038 9.89031 16.985 9.88111 16.9662 9.88111C16.5998 9.7431 16.2335 9.6051 15.8671 9.43949C15.5853 9.32909 15.3316 9.21869 15.078 9.10828C14.1479 8.69427 13.2742 8.19746 12.4851 7.59024C12.2315 7.39703 11.9496 7.17622 11.696 6.95542C11.6396 6.92782 11.6114 6.90022 11.5833 6.87261C11.3296 7.09342 11.076 7.28663 10.8223 7.47983C10.5687 7.67304 10.2868 7.86625 10.0332 8.03185C9.89227 8.14225 9.72317 8.22506 9.55407 8.30786C9.15951 8.55627 8.73677 8.80467 8.31402 8.99788C8.14492 9.08068 7.94764 9.16349 7.75036 9.27389C7.80673 9.30149 7.8349 9.35669 7.86309 9.38429C8.08855 9.5223 8.28583 9.6879 8.5113 9.82591C9.44134 10.4883 10.3996 11.1507 11.3296 11.7856C12.0624 12.31 12.7669 12.8068 13.4997 13.3312C14.2043 13.828 14.9089 14.2972 15.6134 14.7941C16.6562 15.5117 17.699 16.2293 18.7136 16.9469C18.9672 17.1401 19.2491 17.3057 19.5309 17.4713C20.01 17.7474 20.5173 17.9958 21.0246 18.2718C21.1091 18.2994 21.1655 18.327 21.2219 18.3546ZM1.91646 7.53504V7.67304C1.97283 8.08705 2.05738 8.50106 2.11375 8.88748C2.17012 9.19109 2.22648 9.4947 2.25466 9.82591C2.31103 10.3779 2.36739 10.9023 2.39558 11.4544C2.50831 13.138 2.45195 14.8493 2.25466 16.5329C2.22648 16.9745 2.14193 17.4437 2.0292 17.8854C2.0292 17.9406 2.0292 17.9682 2.05739 18.0234C2.22649 17.9682 2.39559 17.913 2.56468 17.8578C3.04379 17.6922 3.49472 17.4161 3.8611 17.0849C4.00202 16.9469 4.11475 16.7813 4.14294 16.5605C4.1993 15.9809 4.28385 15.4289 4.34022 14.8493C4.42477 13.9108 4.45295 12.9724 4.39659 12.034C4.3684 11.7304 4.3684 11.3992 4.34022 11.0955V10.8195C4.42477 10.8747 4.48114 10.9023 4.5375 10.9299C4.98844 11.2335 5.46754 11.5648 5.91847 11.8684C6.05939 11.9512 6.17212 12.034 6.31303 12.1168C6.42576 12.172 6.48213 12.2824 6.45395 12.4204V13.1104C6.48213 14.104 6.3694 15.0977 6.17212 16.0637C6.2003 16.0637 6.22849 16.0913 6.25667 16.0913C6.96124 16.3397 7.63763 16.6433 8.28585 17.0021C8.51131 17.0849 8.73678 17.2229 8.93406 17.4161C8.93406 17.4437 8.96224 17.4437 8.99043 17.4437C9.18771 17.5541 9.41317 17.6369 9.61046 17.7474C10.2869 18.1338 10.9351 18.603 11.5269 19.0998C11.5551 19.1274 11.6115 19.155 11.6396 19.1826C12.767 18.2166 14.007 17.4161 15.3598 16.7813C15.2471 16.6985 15.1625 16.6157 15.078 16.5605C14.6552 16.2569 14.2325 15.9533 13.8379 15.6497C13.5561 15.4565 13.2743 15.2357 12.9924 15.0425C12.7388 14.8493 12.4851 14.6837 12.2315 14.4904C12.0342 14.3524 11.8651 14.2144 11.6678 14.104C11.386 13.9108 11.1042 13.7452 10.8505 13.552C10.5405 13.3588 10.2587 13.138 9.94865 12.9172C9.49772 12.6136 9.04679 12.31 8.59587 12.0064C8.03221 11.5924 7.46854 11.1783 6.8767 10.7643C6.39758 10.4055 5.89029 10.0743 5.41117 9.7431C5.01661 9.4671 4.65023 9.16349 4.25566 8.91508C3.55108 8.47346 2.81832 8.03185 2.08556 7.59024C2.00101 7.56264 1.97283 7.53504 1.91646 7.53504ZM11.3014 23.6539C11.3296 23.5435 11.3578 23.4607 11.386 23.3779C11.4705 22.9363 11.4987 22.4671 11.4423 22.0255C11.4142 21.7771 11.3296 21.5287 11.2169 21.3079C11.1887 21.2251 11.1323 21.1699 11.076 21.1147C10.6814 20.811 10.2587 20.5074 9.8641 20.2038C9.5259 19.9554 9.18771 19.7346 8.8495 19.5138C8.59586 19.3482 8.31403 19.1826 8.0322 19.017C7.77855 18.8514 7.49672 18.741 7.24307 18.603C6.98943 18.465 6.7076 18.327 6.42577 18.2166C5.80574 17.9682 5.18571 17.7474 4.56568 17.4989C4.50931 17.4713 4.45295 17.4713 4.42476 17.4713C4.00202 17.5265 3.60746 17.6369 3.24107 17.8302C2.95924 17.9958 2.70559 18.189 2.45195 18.3822C2.39558 18.4374 2.31103 18.4926 2.25466 18.5478C2.31103 18.5754 2.33921 18.5754 2.39558 18.603C2.64922 18.6858 2.90287 18.7686 3.12834 18.8514C3.74837 19.1274 4.34021 19.3758 4.93206 19.6794C5.21389 19.8174 5.49572 19.983 5.77755 20.121C6.08757 20.2866 6.39758 20.397 6.67941 20.5626C7.5249 21.0319 8.34221 21.5287 9.15952 22.0531C9.8641 22.5223 10.5405 23.0191 11.1887 23.5435C11.2169 23.5987 11.2451 23.6263 11.3014 23.6539ZM2.28284 7.39703C2.31103 7.42463 2.33921 7.45223 2.36739 7.47983C2.62103 7.67304 2.8465 7.86625 3.10015 8.03185C3.43835 8.25266 3.83291 8.41826 4.22747 8.50106C4.36839 8.52867 4.5093 8.52867 4.65022 8.47346C4.93205 8.36306 5.21388 8.25266 5.46753 8.14225C6.45394 7.72824 7.44034 7.23143 8.37038 6.67941C8.79313 6.431 9.21588 6.15499 9.63862 5.87898C10.0896 5.57537 10.5405 5.21656 10.9914 4.88535C11.076 4.80255 11.1605 4.71975 11.2169 4.63695C11.3296 4.41614 11.4142 4.16773 11.4423 3.91932C11.4987 3.42251 11.4705 2.89809 11.3578 2.40128C11.3578 2.37368 11.3296 2.34608 11.3296 2.31848C8.59585 4.52655 5.55208 6.2378 2.28284 7.39703ZM11.8933 2.37368C11.8369 2.53928 11.7805 2.70489 11.7524 2.89809C11.6678 3.45011 11.7242 4.00212 11.8933 4.52654C11.9496 4.71975 12.0624 4.85775 12.2315 4.96815C12.6824 5.29936 13.1052 5.63057 13.5561 5.90658C14.2888 6.3758 15.0216 6.81741 15.7544 7.23142C16.6562 7.75584 17.6145 8.19745 18.6009 8.55626C18.6854 8.58387 18.77 8.58386 18.8545 8.58386C19.0518 8.52866 19.2491 8.47346 19.4464 8.39066C19.8409 8.22505 20.2073 8.03185 20.5173 7.75584C20.6582 7.64544 20.771 7.56263 20.9119 7.42463C20.8837 7.39703 20.8555 7.36943 20.7991 7.34183C20.6864 7.28662 20.5737 7.23142 20.4328 7.17622C19.8691 6.95541 19.3054 6.73461 18.7418 6.5138C18.2908 6.32059 17.8681 6.12739 17.4172 5.90658C17.1353 5.79618 16.8535 5.65817 16.5717 5.49257C15.9798 5.10616 15.3598 4.83015 14.768 4.41614C13.9788 3.86412 13.1615 3.3397 12.4288 2.76008C12.2597 2.67728 12.0906 2.53928 11.8933 2.37368ZM20.9682 18.5754C20.8555 18.465 20.7146 18.3546 20.5737 18.2442C20.0946 17.8578 19.5309 17.6093 18.9109 17.4989C18.77 17.4713 18.6572 17.4713 18.5163 17.5265C18.1781 17.6645 17.8117 17.775 17.4735 17.9406C16.7971 18.2718 16.0926 18.603 15.4443 18.9342C14.8807 19.2378 14.3452 19.569 13.7815 19.9002C13.1897 20.259 12.626 20.673 12.1187 21.1147C12.0342 21.1699 11.9778 21.2527 11.9215 21.3631C11.8369 21.5839 11.7524 21.7771 11.7242 22.0255C11.6678 22.5223 11.696 23.0191 11.8369 23.5159C11.8369 23.5711 11.8651 23.5987 11.8933 23.6539C14.5707 21.4459 17.6426 19.7346 20.9682 18.5754Z" fill="#898989"/>
<path d="M29.9511 13.3C29.9936 13.769 30.1134 14.1286 30.3103 14.3787C30.6721 14.8321 31.3 15.0588 32.1939 15.0588C32.7259 15.0588 33.1942 14.9453 33.5987 14.7189C34.003 14.4919 34.2053 14.1415 34.2053 13.6674C34.2053 13.3079 34.0429 13.0343 33.7184 12.8467C33.5109 12.7321 33.1011 12.5992 32.4892 12.448L31.3479 12.1666C30.6188 11.9895 30.0814 11.7914 29.7356 11.5726C29.1183 11.1922 28.8098 10.6658 28.8098 9.9936C28.8098 9.20142 29.1011 8.56046 29.6837 8.0707C30.2664 7.58095 31.0498 7.33594 32.0343 7.33594C33.3219 7.33594 34.2504 7.70602 34.8199 8.4459C35.1763 8.9149 35.3493 9.42029 35.3387 9.96233H33.9818C33.9551 9.64454 33.8407 9.35533 33.6386 9.09468C33.3086 8.72461 32.7367 8.5397 31.9226 8.5397C31.3798 8.5397 30.9688 8.64132 30.6894 8.84455C30.4101 9.04778 30.2704 9.31624 30.2704 9.64966C30.2704 10.0144 30.454 10.3063 30.8211 10.5251C31.0339 10.6553 31.3479 10.7701 31.7629 10.8691L32.7127 11.0957C33.745 11.3408 34.4367 11.5777 34.7879 11.8071C35.3466 12.1666 35.626 12.7321 35.626 13.5033C35.626 14.2486 35.3373 14.8919 34.76 15.434C34.1826 15.976 33.3034 16.2469 32.1221 16.2469C30.8503 16.2469 29.9497 15.9642 29.4203 15.3987C28.8908 14.8335 28.6075 14.1337 28.5703 13.3H29.9511Z" fill="#898989"/>
<path d="M36.6027 7.59388H37.9994V8.70384C38.2868 8.32352 38.6007 8.02892 38.9413 7.82056C39.4254 7.5079 39.9948 7.35156 40.6493 7.35156C41.6177 7.35156 42.4398 7.71517 43.1156 8.44185C43.7913 9.16907 44.1293 10.2073 44.1293 11.5569C44.1293 13.3809 43.6424 14.6836 42.6686 15.4652C42.0513 15.9604 41.333 16.2078 40.5136 16.2078C39.8697 16.2078 39.3296 16.0698 38.8934 15.7935C38.638 15.6372 38.3532 15.3687 38.0393 14.9884V19.2641H36.6027V7.59388ZM41.9942 14.1561C42.4384 13.6062 42.6607 12.7841 42.6607 11.6898C42.6607 11.0227 42.5621 10.4497 42.3653 9.97014C41.9928 9.04778 41.3118 8.58659 40.3221 8.58659C39.327 8.58659 38.6459 9.07392 38.2788 10.0483C38.0819 10.5693 37.9835 11.2313 37.9835 12.0337C37.9835 12.6798 38.0819 13.2297 38.2788 13.683C38.6512 14.548 39.3323 14.9806 40.3221 14.9806C40.9925 14.9806 41.5498 14.7057 41.9942 14.1561Z" fill="#898989"/>
<path d="M50.5894 7.55469H52.1777C51.9754 8.09134 51.526 9.31613 50.8288 11.2285C50.3073 12.6668 49.871 13.8393 49.5198 14.746C48.6898 16.8826 48.1044 18.1853 47.7639 18.6543C47.4235 19.1233 46.8381 19.3578 46.008 19.3578C45.8057 19.3578 45.65 19.35 45.5411 19.3344C45.4319 19.3187 45.2976 19.2902 45.138 19.2484V17.9665C45.388 18.0341 45.569 18.0759 45.6807 18.0915C45.7925 18.1072 45.8909 18.115 45.976 18.115C46.242 18.115 46.4376 18.0719 46.5627 17.9861C46.6876 17.8999 46.7928 17.7945 46.878 17.6694C46.9045 17.6276 47.0003 17.4142 47.1653 17.0285C47.3302 16.6428 47.4499 16.3562 47.5245 16.1686L44.3638 7.55469H45.992L48.2827 14.3708L50.5894 7.55469Z" fill="#898989"/>
<path d="M57.5842 7.81236C57.8396 7.96869 58.1294 8.24227 58.4542 8.6331V4.4043H59.835V15.926H58.542V14.7614C58.2068 15.2773 57.8101 15.6498 57.3527 15.8791C56.895 16.1085 56.371 16.2231 55.7804 16.2231C54.8278 16.2231 54.003 15.8309 53.3061 15.0468C52.6089 14.2624 52.2605 13.2188 52.2605 11.9161C52.2605 10.6967 52.5784 9.6401 53.2142 8.74658C53.8499 7.85278 54.7587 7.40589 55.94 7.40589C56.5945 7.40589 57.1425 7.54147 57.5842 7.81236ZM54.3596 14.0891C54.748 14.6937 55.3706 14.9959 56.2273 14.9959C56.8923 14.9959 57.4391 14.7158 57.8674 14.1557C58.2956 13.5953 58.51 12.7916 58.51 11.7441C58.51 10.6862 58.289 9.90344 57.8476 9.39509C57.4058 8.88728 56.8603 8.63311 56.2114 8.63311C55.4875 8.63311 54.901 8.90399 54.4513 9.44604C54.0016 9.98808 53.777 10.7854 53.777 11.8379C53.777 12.7341 53.971 13.4845 54.3596 14.0891Z" fill="#898989"/>
<path d="M66.7258 7.78525C67.2952 8.06422 67.7287 8.42513 68.0268 8.86799C68.3141 9.29009 68.5057 9.78253 68.6015 10.3453C68.6865 10.731 68.7292 11.3459 68.7292 12.1901H62.4637C62.4904 13.0394 62.6951 13.7208 63.0782 14.2342C63.4614 14.7475 64.0547 15.0041 64.8581 15.0041C65.6084 15.0041 66.207 14.7617 66.654 14.2771C66.9094 13.9957 67.0902 13.6701 67.1967 13.3H68.6094C68.5723 13.6076 68.4484 13.9502 68.2384 14.328C68.0282 14.7057 67.7926 15.0146 67.5319 15.2542C67.0957 15.6712 66.5554 15.9526 65.9117 16.0984C65.5657 16.1817 65.1746 16.2234 64.7384 16.2234C63.6741 16.2234 62.7722 15.8445 62.0327 15.086C61.2931 14.328 60.9232 13.2661 60.9232 11.9008C60.9232 10.5564 61.2956 9.46474 62.0406 8.62567C62.7857 7.78659 63.7594 7.36719 64.9619 7.36719C65.5685 7.36719 66.1564 7.50654 66.7258 7.78525ZM67.2526 11.0723C67.194 10.4626 67.0583 9.97526 66.8455 9.61057C66.4517 8.93322 65.7947 8.5944 64.8741 8.5944C64.2144 8.5944 63.6609 8.82756 63.2139 9.29413C62.767 9.76043 62.5303 10.3532 62.5036 11.0723H67.2526Z" fill="#898989"/>
<path d="M69.9771 7.55479H71.3419V9.00087C71.4536 8.71947 71.7278 8.37688 72.164 7.97284C72.6002 7.56907 73.1031 7.36719 73.6725 7.36719C73.6992 7.36719 73.7443 7.36988 73.8082 7.375C73.872 7.38012 73.981 7.39064 74.1354 7.40627V8.89143C74.0504 8.8758 73.972 8.86529 73.9001 8.86017C73.8283 8.85505 73.7496 8.85235 73.6645 8.85235C72.941 8.85235 72.3847 9.08038 71.9964 9.53617C71.608 9.99223 71.4137 10.5173 71.4137 11.1114V15.9264H69.9771L69.9771 7.55479Z" fill="#898989"/>
<path d="M74.8252 7.55479H76.19V8.74292C76.5943 8.25316 77.0226 7.90141 77.4751 7.68767C77.9273 7.47393 78.4301 7.36719 78.9836 7.36719C80.1968 7.36719 81.0161 7.78147 81.4419 8.61003C81.6758 9.0634 81.7931 9.71218 81.7931 10.5564V15.9264H80.3325V10.6502C80.3325 10.1394 80.2551 9.72781 80.101 9.41515C79.8456 8.89413 79.3827 8.63348 78.7122 8.63348C78.3715 8.63348 78.0921 8.66745 77.8741 8.7351C77.4803 8.84965 77.1343 9.07903 76.8365 9.42297C76.5971 9.69924 76.4413 9.98442 76.3695 10.279C76.2977 10.5734 76.2619 10.9941 76.2619 11.5413V15.9264H74.8252V7.55479Z" fill="#898989"/>
<path d="M88.6838 7.78525C89.2533 8.06422 89.6867 8.42513 89.9848 8.86799C90.2721 9.29009 90.4637 9.78253 90.5595 10.3453C90.6445 10.731 90.6872 11.3459 90.6872 12.1901H84.4217C84.4484 13.0394 84.6531 13.7208 85.0362 14.2342C85.4194 14.7475 86.0127 15.0041 86.8161 15.0041C87.5664 15.0041 88.165 14.7617 88.612 14.2771C88.8674 13.9957 89.0482 13.6701 89.1547 13.3H90.5674C90.5303 13.6076 90.4064 13.9502 90.1964 14.328C89.9862 14.7057 89.7506 15.0146 89.4899 15.2542C89.0537 15.6712 88.5134 15.9526 87.8697 16.0984C87.5237 16.1817 87.1326 16.2234 86.6964 16.2234C85.6321 16.2234 84.7302 15.8445 83.9907 15.086C83.2511 14.328 82.8812 13.2661 82.8812 11.9008C82.8812 10.5564 83.2536 9.46474 83.9986 8.62567C84.7437 7.78659 85.7174 7.36719 86.9199 7.36719C87.5265 7.36719 88.1144 7.50654 88.6838 7.78525ZM89.2106 11.0723C89.152 10.4626 89.0163 9.97526 88.8035 9.61057C88.4097 8.93322 87.7527 8.5944 86.8321 8.5944C86.1724 8.5944 85.6189 8.82756 85.1719 9.29413C84.725 9.76043 84.4883 10.3532 84.4616 11.0723H89.2106Z" fill="#898989"/>
<path d="M92.1827 5.2168H93.6354V7.55398H95.0002V8.70302H93.6354V14.1669C93.6354 14.4588 93.7364 14.6542 93.9387 14.7531C94.0504 14.8105 94.2367 14.8391 94.4974 14.8391C94.5664 14.8391 94.641 14.8377 94.7208 14.835C94.8007 14.8326 94.8937 14.8262 95.0002 14.8156V15.9256C94.8353 15.9725 94.6636 16.0065 94.4855 16.0272C94.3072 16.048 94.1142 16.0585 93.9067 16.0585C93.2363 16.0585 92.7813 15.8906 92.5419 15.5542C92.3024 15.2183 92.1827 14.7817 92.1827 14.245V8.70302H91.0254V7.55397H92.1827V5.2168Z" fill="#898989"/>
<path d="M50.0991 18.095H50.4993V18.519C50.5321 18.4365 50.6124 18.336 50.7401 18.2177C50.8681 18.0993 51.0153 18.04 51.1824 18.04C51.1901 18.04 51.2033 18.0408 51.222 18.0425C51.2408 18.0441 51.2727 18.047 51.3181 18.0516V18.4869C51.2931 18.4824 51.2702 18.4794 51.249 18.4778C51.2281 18.4762 51.205 18.4756 51.1799 18.4756C50.968 18.4756 50.8048 18.5422 50.6911 18.6759C50.5772 18.8096 50.5202 18.9635 50.5202 19.1376V20.5489H50.0991L50.0991 18.095Z" fill="#898989"/>
<path d="M53.2433 18.1627C53.4104 18.2444 53.5373 18.3503 53.6248 18.4799C53.709 18.6039 53.7652 18.7481 53.7932 18.9131C53.818 19.026 53.8307 19.2063 53.8307 19.4538H51.9941C52.0021 19.7028 52.0621 19.9026 52.1744 20.053C52.2867 20.2034 52.4606 20.2786 52.6959 20.2786C52.9158 20.2786 53.0914 20.2077 53.2224 20.0654C53.2973 19.9829 53.3501 19.8875 53.3815 19.7791H53.7954C53.7847 19.8691 53.7484 19.9697 53.6867 20.0805C53.6251 20.1912 53.556 20.2815 53.4798 20.3519C53.3518 20.474 53.1935 20.5565 53.0047 20.5993C52.9034 20.6238 52.7887 20.636 52.661 20.636C52.3489 20.636 52.0846 20.5249 51.8678 20.3026C51.6512 20.0805 51.5427 19.7691 51.5427 19.3689C51.5427 18.9748 51.6517 18.6549 51.8702 18.409C52.0885 18.1632 52.3739 18.04 52.7265 18.04C52.9043 18.04 53.0766 18.081 53.2433 18.1627ZM53.3977 19.1263C53.3807 18.9473 53.3408 18.8047 53.2786 18.6977C53.163 18.4991 52.9706 18.3999 52.7006 18.3999C52.5074 18.3999 52.345 18.4683 52.214 18.605C52.083 18.7416 52.0136 18.9155 52.0059 19.1263H53.3977Z" fill="#898989"/>
<path d="M54.5977 19.7795C54.6101 19.9169 54.6453 20.0223 54.7029 20.0957C54.8091 20.2285 54.993 20.2948 55.255 20.2948C55.411 20.2948 55.5484 20.2617 55.6667 20.1954C55.7853 20.1288 55.8445 20.0261 55.8445 19.8873C55.8445 19.7816 55.7969 19.7016 55.7019 19.6466C55.6411 19.6129 55.5208 19.5741 55.3417 19.5299L55.007 19.4474C54.7934 19.3954 54.636 19.3374 54.5344 19.2733C54.3536 19.1617 54.2631 19.0075 54.2631 18.8102C54.2631 18.5781 54.3484 18.3903 54.5193 18.2469C54.6899 18.1032 54.9197 18.0312 55.2082 18.0312C55.5858 18.0312 55.8577 18.1399 56.0248 18.3569C56.1291 18.4943 56.18 18.6423 56.1767 18.8011H55.779C55.7713 18.7081 55.7377 18.6232 55.6785 18.5469C55.5817 18.4385 55.4141 18.3843 55.1754 18.3843C55.0164 18.3843 54.8958 18.414 54.8141 18.4736C54.732 18.5331 54.6913 18.6118 54.6913 18.7094C54.6913 18.8164 54.745 18.9019 54.8526 18.966C54.9151 19.0043 55.007 19.038 55.1286 19.0668L55.4072 19.1334C55.7096 19.2051 55.9125 19.2746 56.0154 19.3417C56.1792 19.4474 56.2609 19.6129 56.2609 19.8391C56.2609 20.0574 56.1764 20.2461 56.0072 20.4048C55.8379 20.5638 55.5803 20.6431 55.234 20.6431C54.8611 20.6431 54.5972 20.5603 54.442 20.3946C54.287 20.2288 54.2039 20.024 54.1929 19.7795L54.5977 19.7795Z" fill="#898989"/>
<path d="M58.5726 18.3406C58.7958 18.5514 58.9072 18.8613 58.9072 19.2708C58.9072 19.6665 58.809 19.9931 58.6125 20.2514C58.416 20.5096 58.111 20.6387 57.6976 20.6387C57.353 20.6387 57.0792 20.5244 56.8766 20.2961C56.6738 20.0678 56.5725 19.7611 56.5725 19.3762C56.5725 18.9638 56.6793 18.6355 56.8929 18.391C57.1067 18.1465 57.3935 18.0244 57.7538 18.0244C58.0766 18.0244 58.3496 18.1298 58.5726 18.3406ZM58.3117 19.9729C58.4154 19.7659 58.4674 19.5357 58.4674 19.2824C58.4674 19.0532 58.43 18.8667 58.3551 18.7233C58.2365 18.4972 58.0323 18.3842 57.7422 18.3842C57.4849 18.3842 57.2977 18.4802 57.1808 18.6727C57.0638 18.8651 57.0052 19.0974 57.0052 19.3691C57.0052 19.6306 57.0638 19.8481 57.1808 20.0222C57.2977 20.1964 57.4832 20.2834 57.7375 20.2834C58.0166 20.2834 58.2082 20.1799 58.3117 19.9729Z" fill="#898989"/>
<path d="M59.4193 17.1836H59.8404V20.5491H59.4193V17.1836Z" fill="#898989"/>
<path d="M60.678 18.0947L61.3471 20.0926L62.0467 18.0947H62.5074L61.5623 20.5486H61.1131L60.1892 18.0947H60.678Z" fill="#898989"/>
<path d="M62.8677 17.1836H63.2959V17.651H62.8677V17.1836ZM62.8677 18.1068H63.2959V20.5491H62.8677V18.1068Z" fill="#898989"/>
<path d="M63.9323 18.095H64.3322V18.4433C64.4508 18.2999 64.5763 18.1966 64.7089 18.1341C64.8413 18.0716 64.9888 18.04 65.1509 18.04C65.5065 18.04 65.7468 18.1616 65.8715 18.4045C65.9403 18.5373 65.9744 18.7274 65.9744 18.9748V20.5489H65.5464V19.0023C65.5464 18.8527 65.5239 18.7322 65.4785 18.6406C65.4036 18.4877 65.2679 18.4115 65.0714 18.4115C64.9718 18.4115 64.8898 18.4212 64.8259 18.4411C64.7103 18.4748 64.609 18.5419 64.5218 18.6427C64.4516 18.7236 64.4059 18.8074 64.385 18.8937C64.3638 18.9799 64.3533 19.1031 64.3533 19.2637V20.5489H63.9323V18.095Z" fill="#898989"/>
<path d="M67.9957 18.1938C68.0753 18.2472 68.1565 18.3251 68.239 18.4275V18.1183H68.6274V20.3496C68.6274 20.6612 68.5806 20.9073 68.487 21.0876C68.3125 21.4205 67.9825 21.5868 67.4976 21.5868C67.2276 21.5868 67.0008 21.5277 66.8167 21.4094C66.6328 21.2911 66.5299 21.1059 66.5079 20.8536H66.9361C66.9562 20.9636 66.9969 21.0485 67.0578 21.1081C67.1527 21.1997 67.3024 21.2455 67.5069 21.2455C67.8298 21.2455 68.0411 21.1339 68.1408 20.911C68.2002 20.7798 68.2275 20.5453 68.2228 20.2078C68.1386 20.3329 68.037 20.4261 67.9187 20.487C67.8 20.5482 67.6434 20.5787 67.4483 20.5787C67.1769 20.5787 66.9394 20.4846 66.736 20.2959C66.5323 20.1073 66.4308 19.7954 66.4308 19.3598C66.4308 18.9491 66.5332 18.6283 66.7382 18.3976C66.9435 18.1671 67.191 18.0518 67.481 18.0518C67.6776 18.0518 67.8493 18.0992 67.9957 18.1938ZM68.0472 18.6358C67.9195 18.4892 67.7563 18.4159 67.5584 18.4159C67.262 18.4159 67.0591 18.552 66.9501 18.824C66.8923 18.969 66.8634 19.159 66.8634 19.3943C66.8634 19.6709 66.9207 19.8811 67.0355 20.0256C67.15 20.1698 67.3041 20.242 67.4976 20.242C67.8 20.242 68.0131 20.1083 68.1361 19.8412C68.2049 19.6897 68.239 19.5135 68.239 19.3119C68.239 19.0078 68.1752 18.7825 68.0472 18.6358Z" fill="#898989"/>
<path d="M72.2476 18.226C72.4246 18.3605 72.5311 18.5918 72.5669 18.9201H72.1576C72.1326 18.7691 72.0756 18.6433 71.9867 18.5433C71.8978 18.4433 71.7552 18.3934 71.5587 18.3934C71.2904 18.3934 71.0985 18.5217 70.9832 18.7783C70.9084 18.9446 70.8709 19.15 70.8709 19.3945C70.8709 19.6403 70.9238 19.8473 71.03 20.0155C71.136 20.1834 71.3027 20.2672 71.5306 20.2672C71.7051 20.2672 71.8436 20.215 71.9457 20.1104C72.0481 20.0058 72.1185 19.8627 72.1576 19.6807H72.5669C72.5201 20.0063 72.4031 20.2441 72.2159 20.3945C72.0288 20.5449 71.7893 20.6203 71.4979 20.6203C71.1704 20.6203 70.9092 20.5031 70.714 20.2686C70.5192 20.0341 70.4218 19.7411 70.4218 19.3899C70.4218 18.9592 70.5285 18.6239 70.7421 18.3842C70.956 18.1444 71.2279 18.0244 71.5587 18.0244C71.8408 18.0244 72.0706 18.0915 72.2476 18.226Z" fill="#898989"/>
<path d="M72.988 17.1719H73.4091V18.4274C73.509 18.3037 73.5988 18.2166 73.6783 18.1662C73.814 18.0792 73.9833 18.0358 74.1858 18.0358C74.5494 18.0358 74.7957 18.16 74.9251 18.4091C74.9953 18.5449 75.0305 18.7336 75.0305 18.9748V20.5489H74.5976V19.0023C74.5976 18.8223 74.5742 18.6902 74.5274 18.6061C74.4511 18.4716 74.3075 18.4045 74.0969 18.4045C73.9224 18.4045 73.7639 18.4632 73.6222 18.5808C73.4801 18.6985 73.4091 18.9206 73.4091 19.2476V20.5489H72.988V17.1719Z" fill="#898989"/>
<path d="M76.9956 19.0625C77.0922 19.0501 77.1568 19.0105 77.1896 18.9434C77.2083 18.9067 77.2177 18.8539 77.2177 18.7852C77.2177 18.6448 77.1668 18.5426 77.0646 18.4793C76.9623 18.4159 76.8161 18.3844 76.6259 18.3844C76.406 18.3844 76.25 18.4423 76.1581 18.5585C76.1066 18.6227 76.073 18.7181 76.0573 18.8448H75.6643C75.6723 18.5423 75.7725 18.3318 75.9651 18.2135C76.1575 18.0952 76.381 18.0361 76.6353 18.0361C76.9301 18.0361 77.1695 18.0911 77.3534 18.2011C77.5358 18.3111 77.6272 18.482 77.6272 18.7143V20.1278C77.6272 20.1706 77.636 20.2048 77.6542 20.2307C77.6721 20.2569 77.7098 20.2698 77.7676 20.2698C77.7863 20.2698 77.8072 20.2687 77.8306 20.2663C77.854 20.2641 77.879 20.2606 77.9055 20.2561V20.5606C77.84 20.579 77.7901 20.5906 77.7557 20.5951C77.7216 20.5997 77.6748 20.6022 77.6154 20.6022C77.4703 20.6022 77.3652 20.5515 77.2997 20.4507C77.2653 20.3973 77.2411 20.3218 77.227 20.224C77.1414 20.334 77.0181 20.4294 76.8574 20.5105C76.6969 20.5914 76.5197 20.6318 76.3265 20.6318C76.0939 20.6318 75.9043 20.5628 75.7568 20.4245C75.6095 20.2862 75.5358 20.1132 75.5358 19.9057C75.5358 19.6779 75.6082 19.5016 75.7532 19.3763C75.8982 19.2509 76.0887 19.1739 76.324 19.145L76.9956 19.0625ZM76.1088 20.1782C76.1977 20.2469 76.3031 20.2814 76.4247 20.2814C76.5728 20.2814 76.7162 20.2477 76.8552 20.1806C77.0891 20.069 77.2061 19.8865 77.2061 19.6329V19.3008C77.1546 19.3326 77.0883 19.3596 77.0071 19.3809C76.9262 19.4022 76.8467 19.4175 76.7685 19.4267L76.5136 19.4588C76.3606 19.4787 76.2461 19.51 76.1696 19.5526C76.0403 19.6245 75.9756 19.7391 75.9756 19.8965C75.9756 20.0156 76.0199 20.1094 76.1088 20.1782Z" fill="#898989"/>
<path d="M78.329 17.1836H78.7501V20.5491H78.329V17.1836Z" fill="#898989"/>
<path d="M79.3931 17.1836H79.8142V20.5491H79.3931V17.1836Z" fill="#898989"/>
<path d="M82.0064 18.1627C82.1732 18.2444 82.3004 18.3503 82.3876 18.4799C82.4718 18.6039 82.528 18.7481 82.5561 18.9131C82.5811 19.026 82.5935 19.2063 82.5935 19.4538H80.7572C80.7649 19.7028 80.8249 19.9026 80.9372 20.053C81.0495 20.2034 81.2234 20.2786 81.459 20.2786C81.6789 20.2786 81.8542 20.2077 81.9852 20.0654C82.0601 19.9829 82.1132 19.8875 82.1443 19.7791H82.5585C82.5475 19.8691 82.5112 19.9697 82.4495 20.0805C82.3882 20.1912 82.3191 20.2815 82.2426 20.3519C82.1149 20.474 81.9563 20.5565 81.7678 20.5993C81.6663 20.6238 81.5518 20.636 81.4238 20.636C81.112 20.636 80.8475 20.5249 80.6309 20.3026C80.414 20.0805 80.3055 19.7691 80.3055 19.3689C80.3055 18.9748 80.4148 18.6549 80.6331 18.409C80.8516 18.1632 81.137 18.04 81.4893 18.04C81.6671 18.04 81.8394 18.081 82.0064 18.1627ZM82.1608 19.1263C82.1435 18.9473 82.1039 18.8047 82.0414 18.6977C81.9261 18.4991 81.7334 18.3999 81.4637 18.3999C81.2702 18.3999 81.1081 18.4683 80.9771 18.605C80.8461 18.7416 80.7767 18.9155 80.7687 19.1263H82.1608Z" fill="#898989"/>
<path d="M83.1108 18.095H83.5107V18.4433C83.6294 18.2999 83.7549 18.1966 83.8875 18.1341C84.0199 18.0716 84.1674 18.04 84.3295 18.04C84.6851 18.04 84.9254 18.1616 85.0501 18.4045C85.1189 18.5373 85.153 18.7274 85.153 18.9748V20.5489H84.725V19.0023C84.725 18.8527 84.7025 18.7322 84.6571 18.6406C84.5822 18.4877 84.4465 18.4115 84.25 18.4115C84.1504 18.4115 84.0683 18.4212 84.0045 18.4411C83.8889 18.4748 83.7876 18.5419 83.7004 18.6427C83.6302 18.7236 83.5845 18.8074 83.5636 18.8937C83.5424 18.9799 83.5319 19.1031 83.5319 19.2637V20.5489H83.1108V18.095Z" fill="#898989"/>
<path d="M87.1742 18.1938C87.2537 18.2472 87.3349 18.3251 87.4175 18.4275V18.1183H87.8058V20.3496C87.8058 20.6612 87.759 20.9073 87.6655 21.0876C87.491 21.4205 87.161 21.5868 86.676 21.5868C86.406 21.5868 86.1792 21.5277 85.9951 21.4094C85.8113 21.2911 85.7083 21.1059 85.6863 20.8536H86.1146C86.1347 20.9636 86.1754 21.0485 86.2362 21.1081C86.3312 21.1997 86.4809 21.2455 86.6854 21.2455C87.0082 21.2455 87.2196 21.1339 87.3192 20.911C87.3787 20.7798 87.4059 20.5453 87.4012 20.2078C87.317 20.3329 87.2155 20.4261 87.0971 20.487C86.9785 20.5482 86.8219 20.5787 86.6268 20.5787C86.3554 20.5787 86.1179 20.4846 85.9145 20.2959C85.7108 20.1073 85.6093 19.7954 85.6093 19.3598C85.6093 18.9491 85.7116 18.6283 85.9167 18.3976C86.122 18.1671 86.3694 18.0518 86.6595 18.0518C86.856 18.0518 87.0278 18.0992 87.1742 18.1938ZM87.2257 18.6358C87.0979 18.4892 86.9347 18.4159 86.7369 18.4159C86.4404 18.4159 86.2376 18.552 86.1286 18.824C86.0708 18.969 86.0419 19.159 86.0419 19.3943C86.0419 19.6709 86.0992 19.8811 86.2139 20.0256C86.3284 20.1698 86.4825 20.242 86.676 20.242C86.9785 20.242 87.1915 20.1083 87.3146 19.8412C87.3834 19.6897 87.4175 19.5135 87.4175 19.3119C87.4175 19.0078 87.3536 18.7825 87.2257 18.6358Z" fill="#898989"/>
<path d="M90.0002 18.1627C90.1672 18.2444 90.2941 18.3503 90.3816 18.4799C90.4659 18.6039 90.522 18.7481 90.5501 18.9131C90.5749 19.026 90.5875 19.2063 90.5875 19.4538H88.7509C88.7589 19.7028 88.8189 19.9026 88.9312 20.053C89.0435 20.2034 89.2174 20.2786 89.4528 20.2786C89.6727 20.2786 89.8483 20.2077 89.9793 20.0654C90.0541 19.9829 90.107 19.8875 90.1383 19.7791H90.5523C90.5415 19.8691 90.5052 19.9697 90.4436 20.0805C90.3819 20.1912 90.3128 20.2815 90.2366 20.3519C90.1086 20.474 89.9504 20.5565 89.7616 20.5993C89.6603 20.6238 89.5455 20.636 89.4178 20.636C89.1057 20.636 88.8415 20.5249 88.6246 20.3026C88.408 20.0805 88.2996 19.7691 88.2996 19.3689C88.2996 18.9748 88.4086 18.6549 88.6271 18.409C88.8453 18.1632 89.1307 18.04 89.4833 18.04C89.6611 18.04 89.8334 18.081 90.0002 18.1627ZM90.1546 19.1263C90.1375 18.9473 90.0976 18.8047 90.0354 18.6977C89.9198 18.4991 89.7274 18.3999 89.4574 18.3999C89.2642 18.3999 89.1018 18.4683 88.9708 18.605C88.8398 18.7416 88.7705 18.9155 88.7628 19.1263H90.1546Z" fill="#898989"/>
<path d="M91.3548 19.7795C91.3672 19.9169 91.4024 20.0223 91.46 20.0957C91.5662 20.2285 91.75 20.2948 92.0121 20.2948C92.1681 20.2948 92.3054 20.2617 92.4238 20.1954C92.5424 20.1288 92.6016 20.0261 92.6016 19.8873C92.6016 19.7816 92.554 19.7016 92.459 19.6466C92.3982 19.6129 92.2779 19.5741 92.0988 19.5299L91.7641 19.4474C91.5505 19.3954 91.3931 19.3374 91.2915 19.2733C91.1107 19.1617 91.0201 19.0075 91.0201 18.8102C91.0201 18.5781 91.1055 18.3903 91.2764 18.2469C91.447 18.1032 91.6768 18.0312 91.9653 18.0312C92.3429 18.0312 92.6148 18.1399 92.7819 18.3569C92.8862 18.4943 92.9371 18.6423 92.9338 18.8011H92.5361C92.5284 18.7081 92.4948 18.6232 92.4356 18.5469C92.3387 18.4385 92.1711 18.3843 91.9325 18.3843C91.7734 18.3843 91.6529 18.414 91.5711 18.4736C91.4891 18.5331 91.4484 18.6118 91.4484 18.7094C91.4484 18.8164 91.5021 18.9019 91.6097 18.966C91.6722 19.0043 91.7641 19.038 91.8857 19.0668L92.1643 19.1334C92.4667 19.2051 92.6696 19.2746 92.7725 19.3417C92.9363 19.4474 93.018 19.6129 93.018 19.8391C93.018 20.0574 92.9335 20.2461 92.7642 20.4048C92.595 20.5638 92.3374 20.6431 91.9911 20.6431C91.6182 20.6431 91.3543 20.5603 91.199 20.3946C91.0441 20.2288 90.961 20.024 90.95 19.7795L91.3548 19.7795Z" fill="#898989"/>
</g>
<defs>
<clipPath id="clip0_1_580">
<rect width="95" height="26" fill="white"/>
</clipPath>
</defs>
</svg>
