<svg width="31" height="23" viewBox="0 0 31 23" fill="none" xmlns="http://www.w3.org/2000/svg">
<path d="M1.01074 12.842V10.7572C1.01074 6.49161 1.01074 4.35882 2.29393 2.98652C3.57713 1.61422 5.59733 1.55482 9.63772 1.43602C11.5523 1.37972 13.508 1.33939 15.1819 1.33939C16.8558 1.33939 18.8116 1.37972 20.7261 1.43602C24.7665 1.55482 26.7867 1.61422 28.0699 2.98652C29.3531 4.35882 29.3531 6.49161 29.3531 10.7572V12.842C29.3531 17.1076 29.3531 19.2404 28.0699 20.6126C26.7867 21.985 24.7666 22.0443 20.7263 22.1632C18.8116 22.2195 16.8558 22.2599 15.1819 22.2599C13.508 22.2599 11.5522 22.2195 9.6376 22.1632C5.59726 22.0443 3.5771 21.985 2.29392 20.6126C1.01074 19.2404 1.01074 17.1076 1.01074 12.842Z" fill="black" stroke="black" stroke-width="1.5"/>
<path d="M20.2024 11.2551C20.5357 11.4475 20.5357 11.9286 20.2024 12.1211L12.7286 16.4361C12.3953 16.6285 11.9786 16.3879 11.9786 16.003L11.9786 7.37312C11.9786 6.98822 12.3953 6.74766 12.7286 6.94011L20.2024 11.2551Z" fill="white"/>
</svg>
